<?xml version="1.0" encoding="utf-8" standalone="no"?>
<!DOCTYPE svg PUBLIC "-//W3C//DTD SVG 1.1//EN"
  "http://www.w3.org/Graphics/SVG/1.1/DTD/svg11.dtd">
<!-- Created with matplotlib (https://matplotlib.org/) -->
<svg height="345.6pt" version="1.1" viewBox="0 0 460.8 345.6" width="460.8pt" xmlns="http://www.w3.org/2000/svg" xmlns:xlink="http://www.w3.org/1999/xlink">
 <defs>
  <style type="text/css">
*{stroke-linecap:butt;stroke-linejoin:round;}
  </style>
 </defs>
 <g id="figure_1">
  <g id="patch_1">
   <path d="M 0 345.6 
L 460.8 345.6 
L 460.8 0 
L 0 0 
z
" style="fill:#ffffff;"/>
  </g>
  <g id="axes_1">
   <g id="patch_2">
    <path d="M 57.6 168.742957 
L 414.72 168.742957 
L 414.72 110.892522 
L 57.6 110.892522 
z
" style="fill:#ffffff;"/>
   </g>
   <g id="matplotlib.axis_1">
    <g id="xtick_1">
     <g id="line2d_1">
      <defs>
       <path d="M 0 0 
L 0 3.5 
" id="m1975b876db" style="stroke:#000000;stroke-width:0.8;"/>
      </defs>
      <g>
       <use style="stroke:#000000;stroke-width:0.8;" x="73.832727" xlink:href="#m1975b876db" y="168.742957"/>
      </g>
     </g>
     <g id="text_1">
      <!-- 0 -->
      <defs>
       <path d="M 31.78125 66.40625 
Q 24.171875 66.40625 20.328125 58.90625 
Q 16.5 51.421875 16.5 36.375 
Q 16.5 21.390625 20.328125 13.890625 
Q 24.171875 6.390625 31.78125 6.390625 
Q 39.453125 6.390625 43.28125 13.890625 
Q 47.125 21.390625 47.125 36.375 
Q 47.125 51.421875 43.28125 58.90625 
Q 39.453125 66.40625 31.78125 66.40625 
z
M 31.78125 74.21875 
Q 44.046875 74.21875 50.515625 64.515625 
Q 56.984375 54.828125 56.984375 36.375 
Q 56.984375 17.96875 50.515625 8.265625 
Q 44.046875 -1.421875 31.78125 -1.421875 
Q 19.53125 -1.421875 13.0625 8.265625 
Q 6.59375 17.96875 6.59375 36.375 
Q 6.59375 54.828125 13.0625 64.515625 
Q 19.53125 74.21875 31.78125 74.21875 
z
" id="DejaVuSans-48"/>
      </defs>
      <g transform="translate(70.651477 183.341394)scale(0.1 -0.1)">
       <use xlink:href="#DejaVuSans-48"/>
      </g>
     </g>
    </g>
    <g id="xtick_2">
     <g id="line2d_2">
      <g>
       <use style="stroke:#000000;stroke-width:0.8;" x="124.71902" xlink:href="#m1975b876db" y="168.742957"/>
      </g>
     </g>
     <g id="text_2">
      <!-- 50 -->
      <defs>
       <path d="M 10.796875 72.90625 
L 49.515625 72.90625 
L 49.515625 64.59375 
L 19.828125 64.59375 
L 19.828125 46.734375 
Q 21.96875 47.46875 24.109375 47.828125 
Q 26.265625 48.1875 28.421875 48.1875 
Q 40.625 48.1875 47.75 41.5 
Q 54.890625 34.8125 54.890625 23.390625 
Q 54.890625 11.625 47.5625 5.09375 
Q 40.234375 -1.421875 26.90625 -1.421875 
Q 22.3125 -1.421875 17.546875 -0.640625 
Q 12.796875 0.140625 7.71875 1.703125 
L 7.71875 11.625 
Q 12.109375 9.234375 16.796875 8.0625 
Q 21.484375 6.890625 26.703125 6.890625 
Q 35.15625 6.890625 40.078125 11.328125 
Q 45.015625 15.765625 45.015625 23.390625 
Q 45.015625 31 40.078125 35.4375 
Q 35.15625 39.890625 26.703125 39.890625 
Q 22.75 39.890625 18.8125 39.015625 
Q 14.890625 38.140625 10.796875 36.28125 
z
" id="DejaVuSans-53"/>
      </defs>
      <g transform="translate(118.35652 183.341394)scale(0.1 -0.1)">
       <use xlink:href="#DejaVuSans-53"/>
       <use x="63.623047" xlink:href="#DejaVuSans-48"/>
      </g>
     </g>
    </g>
    <g id="xtick_3">
     <g id="line2d_3">
      <g>
       <use style="stroke:#000000;stroke-width:0.8;" x="175.605312" xlink:href="#m1975b876db" y="168.742957"/>
      </g>
     </g>
     <g id="text_3">
      <!-- 100 -->
      <defs>
       <path d="M 12.40625 8.296875 
L 28.515625 8.296875 
L 28.515625 63.921875 
L 10.984375 60.40625 
L 10.984375 69.390625 
L 28.421875 72.90625 
L 38.28125 72.90625 
L 38.28125 8.296875 
L 54.390625 8.296875 
L 54.390625 0 
L 12.40625 0 
z
" id="DejaVuSans-49"/>
      </defs>
      <g transform="translate(166.061562 183.341394)scale(0.1 -0.1)">
       <use xlink:href="#DejaVuSans-49"/>
       <use x="63.623047" xlink:href="#DejaVuSans-48"/>
       <use x="127.246094" xlink:href="#DejaVuSans-48"/>
      </g>
     </g>
    </g>
    <g id="xtick_4">
     <g id="line2d_4">
      <g>
       <use style="stroke:#000000;stroke-width:0.8;" x="226.491604" xlink:href="#m1975b876db" y="168.742957"/>
      </g>
     </g>
     <g id="text_4">
      <!-- 150 -->
      <g transform="translate(216.947854 183.341394)scale(0.1 -0.1)">
       <use xlink:href="#DejaVuSans-49"/>
       <use x="63.623047" xlink:href="#DejaVuSans-53"/>
       <use x="127.246094" xlink:href="#DejaVuSans-48"/>
      </g>
     </g>
    </g>
    <g id="xtick_5">
     <g id="line2d_5">
      <g>
       <use style="stroke:#000000;stroke-width:0.8;" x="277.377897" xlink:href="#m1975b876db" y="168.742957"/>
      </g>
     </g>
     <g id="text_5">
      <!-- 200 -->
      <defs>
       <path d="M 19.1875 8.296875 
L 53.609375 8.296875 
L 53.609375 0 
L 7.328125 0 
L 7.328125 8.296875 
Q 12.9375 14.109375 22.625 23.890625 
Q 32.328125 33.6875 34.8125 36.53125 
Q 39.546875 41.84375 41.421875 45.53125 
Q 43.3125 49.21875 43.3125 52.78125 
Q 43.3125 58.59375 39.234375 62.25 
Q 35.15625 65.921875 28.609375 65.921875 
Q 23.96875 65.921875 18.8125 64.3125 
Q 13.671875 62.703125 7.8125 59.421875 
L 7.8125 69.390625 
Q 13.765625 71.78125 18.9375 73 
Q 24.125 74.21875 28.421875 74.21875 
Q 39.75 74.21875 46.484375 68.546875 
Q 53.21875 62.890625 53.21875 53.421875 
Q 53.21875 48.921875 51.53125 44.890625 
Q 49.859375 40.875 45.40625 35.40625 
Q 44.1875 33.984375 37.640625 27.21875 
Q 31.109375 20.453125 19.1875 8.296875 
z
" id="DejaVuSans-50"/>
      </defs>
      <g transform="translate(267.834147 183.341394)scale(0.1 -0.1)">
       <use xlink:href="#DejaVuSans-50"/>
       <use x="63.623047" xlink:href="#DejaVuSans-48"/>
       <use x="127.246094" xlink:href="#DejaVuSans-48"/>
      </g>
     </g>
    </g>
    <g id="xtick_6">
     <g id="line2d_6">
      <g>
       <use style="stroke:#000000;stroke-width:0.8;" x="328.264189" xlink:href="#m1975b876db" y="168.742957"/>
      </g>
     </g>
     <g id="text_6">
      <!-- 250 -->
      <g transform="translate(318.720439 183.341394)scale(0.1 -0.1)">
       <use xlink:href="#DejaVuSans-50"/>
       <use x="63.623047" xlink:href="#DejaVuSans-53"/>
       <use x="127.246094" xlink:href="#DejaVuSans-48"/>
      </g>
     </g>
    </g>
    <g id="xtick_7">
     <g id="line2d_7">
      <g>
       <use style="stroke:#000000;stroke-width:0.8;" x="379.150482" xlink:href="#m1975b876db" y="168.742957"/>
      </g>
     </g>
     <g id="text_7">
      <!-- 300 -->
      <defs>
       <path d="M 40.578125 39.3125 
Q 47.65625 37.796875 51.625 33 
Q 55.609375 28.21875 55.609375 21.1875 
Q 55.609375 10.40625 48.1875 4.484375 
Q 40.765625 -1.421875 27.09375 -1.421875 
Q 22.515625 -1.421875 17.65625 -0.515625 
Q 12.796875 0.390625 7.625 2.203125 
L 7.625 11.71875 
Q 11.71875 9.328125 16.59375 8.109375 
Q 21.484375 6.890625 26.8125 6.890625 
Q 36.078125 6.890625 40.9375 10.546875 
Q 45.796875 14.203125 45.796875 21.1875 
Q 45.796875 27.640625 41.28125 31.265625 
Q 36.765625 34.90625 28.71875 34.90625 
L 20.21875 34.90625 
L 20.21875 43.015625 
L 29.109375 43.015625 
Q 36.375 43.015625 40.234375 45.921875 
Q 44.09375 48.828125 44.09375 54.296875 
Q 44.09375 59.90625 40.109375 62.90625 
Q 36.140625 65.921875 28.71875 65.921875 
Q 24.65625 65.921875 20.015625 65.03125 
Q 15.375 64.15625 9.8125 62.3125 
L 9.8125 71.09375 
Q 15.4375 72.65625 20.34375 73.4375 
Q 25.25 74.21875 29.59375 74.21875 
Q 40.828125 74.21875 47.359375 69.109375 
Q 53.90625 64.015625 53.90625 55.328125 
Q 53.90625 49.265625 50.4375 45.09375 
Q 46.96875 40.921875 40.578125 39.3125 
z
" id="DejaVuSans-51"/>
      </defs>
      <g transform="translate(369.606732 183.341394)scale(0.1 -0.1)">
       <use xlink:href="#DejaVuSans-51"/>
       <use x="63.623047" xlink:href="#DejaVuSans-48"/>
       <use x="127.246094" xlink:href="#DejaVuSans-48"/>
      </g>
     </g>
    </g>
    <g id="text_8">
     <!-- # epochs -->
     <defs>
      <path d="M 51.125 44 
L 36.921875 44 
L 32.8125 27.6875 
L 47.125 27.6875 
z
M 43.796875 71.78125 
L 38.71875 51.515625 
L 52.984375 51.515625 
L 58.109375 71.78125 
L 65.921875 71.78125 
L 60.890625 51.515625 
L 76.125 51.515625 
L 76.125 44 
L 58.984375 44 
L 54.984375 27.6875 
L 70.515625 27.6875 
L 70.515625 20.21875 
L 53.078125 20.21875 
L 48 0 
L 40.1875 0 
L 45.21875 20.21875 
L 30.90625 20.21875 
L 25.875 0 
L 18.015625 0 
L 23.09375 20.21875 
L 7.71875 20.21875 
L 7.71875 27.6875 
L 24.90625 27.6875 
L 29 44 
L 13.28125 44 
L 13.28125 51.515625 
L 30.90625 51.515625 
L 35.890625 71.78125 
z
" id="DejaVuSans-35"/>
      <path id="DejaVuSans-32"/>
      <path d="M 56.203125 29.59375 
L 56.203125 25.203125 
L 14.890625 25.203125 
Q 15.484375 15.921875 20.484375 11.0625 
Q 25.484375 6.203125 34.421875 6.203125 
Q 39.59375 6.203125 44.453125 7.46875 
Q 49.3125 8.734375 54.109375 11.28125 
L 54.109375 2.78125 
Q 49.265625 0.734375 44.1875 -0.34375 
Q 39.109375 -1.421875 33.890625 -1.421875 
Q 20.796875 -1.421875 13.15625 6.1875 
Q 5.515625 13.8125 5.515625 26.8125 
Q 5.515625 40.234375 12.765625 48.109375 
Q 20.015625 56 32.328125 56 
Q 43.359375 56 49.78125 48.890625 
Q 56.203125 41.796875 56.203125 29.59375 
z
M 47.21875 32.234375 
Q 47.125 39.59375 43.09375 43.984375 
Q 39.0625 48.390625 32.421875 48.390625 
Q 24.90625 48.390625 20.390625 44.140625 
Q 15.875 39.890625 15.1875 32.171875 
z
" id="DejaVuSans-101"/>
      <path d="M 18.109375 8.203125 
L 18.109375 -20.796875 
L 9.078125 -20.796875 
L 9.078125 54.6875 
L 18.109375 54.6875 
L 18.109375 46.390625 
Q 20.953125 51.265625 25.265625 53.625 
Q 29.59375 56 35.59375 56 
Q 45.5625 56 51.78125 48.09375 
Q 58.015625 40.1875 58.015625 27.296875 
Q 58.015625 14.40625 51.78125 6.484375 
Q 45.5625 -1.421875 35.59375 -1.421875 
Q 29.59375 -1.421875 25.265625 0.953125 
Q 20.953125 3.328125 18.109375 8.203125 
z
M 48.6875 27.296875 
Q 48.6875 37.203125 44.609375 42.84375 
Q 40.53125 48.484375 33.40625 48.484375 
Q 26.265625 48.484375 22.1875 42.84375 
Q 18.109375 37.203125 18.109375 27.296875 
Q 18.109375 17.390625 22.1875 11.75 
Q 26.265625 6.109375 33.40625 6.109375 
Q 40.53125 6.109375 44.609375 11.75 
Q 48.6875 17.390625 48.6875 27.296875 
z
" id="DejaVuSans-112"/>
      <path d="M 30.609375 48.390625 
Q 23.390625 48.390625 19.1875 42.75 
Q 14.984375 37.109375 14.984375 27.296875 
Q 14.984375 17.484375 19.15625 11.84375 
Q 23.34375 6.203125 30.609375 6.203125 
Q 37.796875 6.203125 41.984375 11.859375 
Q 46.1875 17.53125 46.1875 27.296875 
Q 46.1875 37.015625 41.984375 42.703125 
Q 37.796875 48.390625 30.609375 48.390625 
z
M 30.609375 56 
Q 42.328125 56 49.015625 48.375 
Q 55.71875 40.765625 55.71875 27.296875 
Q 55.71875 13.875 49.015625 6.21875 
Q 42.328125 -1.421875 30.609375 -1.421875 
Q 18.84375 -1.421875 12.171875 6.21875 
Q 5.515625 13.875 5.515625 27.296875 
Q 5.515625 40.765625 12.171875 48.375 
Q 18.84375 56 30.609375 56 
z
" id="DejaVuSans-111"/>
      <path d="M 48.78125 52.59375 
L 48.78125 44.1875 
Q 44.96875 46.296875 41.140625 47.34375 
Q 37.3125 48.390625 33.40625 48.390625 
Q 24.65625 48.390625 19.8125 42.84375 
Q 14.984375 37.3125 14.984375 27.296875 
Q 14.984375 17.28125 19.8125 11.734375 
Q 24.65625 6.203125 33.40625 6.203125 
Q 37.3125 6.203125 41.140625 7.25 
Q 44.96875 8.296875 48.78125 10.40625 
L 48.78125 2.09375 
Q 45.015625 0.34375 40.984375 -0.53125 
Q 36.96875 -1.421875 32.421875 -1.421875 
Q 20.0625 -1.421875 12.78125 6.34375 
Q 5.515625 14.109375 5.515625 27.296875 
Q 5.515625 40.671875 12.859375 48.328125 
Q 20.21875 56 33.015625 56 
Q 37.15625 56 41.109375 55.140625 
Q 45.0625 54.296875 48.78125 52.59375 
z
" id="DejaVuSans-99"/>
      <path d="M 54.890625 33.015625 
L 54.890625 0 
L 45.90625 0 
L 45.90625 32.71875 
Q 45.90625 40.484375 42.875 44.328125 
Q 39.84375 48.1875 33.796875 48.1875 
Q 26.515625 48.1875 22.3125 43.546875 
Q 18.109375 38.921875 18.109375 30.90625 
L 18.109375 0 
L 9.078125 0 
L 9.078125 75.984375 
L 18.109375 75.984375 
L 18.109375 46.1875 
Q 21.34375 51.125 25.703125 53.5625 
Q 30.078125 56 35.796875 56 
Q 45.21875 56 50.046875 50.171875 
Q 54.890625 44.34375 54.890625 33.015625 
z
" id="DejaVuSans-104"/>
      <path d="M 44.28125 53.078125 
L 44.28125 44.578125 
Q 40.484375 46.53125 36.375 47.5 
Q 32.28125 48.484375 27.875 48.484375 
Q 21.1875 48.484375 17.84375 46.4375 
Q 14.5 44.390625 14.5 40.28125 
Q 14.5 37.15625 16.890625 35.375 
Q 19.28125 33.59375 26.515625 31.984375 
L 29.59375 31.296875 
Q 39.15625 29.25 43.1875 25.515625 
Q 47.21875 21.78125 47.21875 15.09375 
Q 47.21875 7.46875 41.1875 3.015625 
Q 35.15625 -1.421875 24.609375 -1.421875 
Q 20.21875 -1.421875 15.453125 -0.5625 
Q 10.6875 0.296875 5.421875 2 
L 5.421875 11.28125 
Q 10.40625 8.6875 15.234375 7.390625 
Q 20.0625 6.109375 24.8125 6.109375 
Q 31.15625 6.109375 34.5625 8.28125 
Q 37.984375 10.453125 37.984375 14.40625 
Q 37.984375 18.0625 35.515625 20.015625 
Q 33.0625 21.96875 24.703125 23.78125 
L 21.578125 24.515625 
Q 13.234375 26.265625 9.515625 29.90625 
Q 5.8125 33.546875 5.8125 39.890625 
Q 5.8125 47.609375 11.28125 51.796875 
Q 16.75 56 26.8125 56 
Q 31.78125 56 36.171875 55.265625 
Q 40.578125 54.546875 44.28125 53.078125 
z
" id="DejaVuSans-115"/>
     </defs>
     <g transform="translate(212.548281 197.019519)scale(0.1 -0.1)">
      <use xlink:href="#DejaVuSans-35"/>
      <use x="83.789062" xlink:href="#DejaVuSans-32"/>
      <use x="115.576172" xlink:href="#DejaVuSans-101"/>
      <use x="177.099609" xlink:href="#DejaVuSans-112"/>
      <use x="240.576172" xlink:href="#DejaVuSans-111"/>
      <use x="301.757812" xlink:href="#DejaVuSans-99"/>
      <use x="356.738281" xlink:href="#DejaVuSans-104"/>
      <use x="420.117188" xlink:href="#DejaVuSans-115"/>
     </g>
    </g>
   </g>
   <g id="matplotlib.axis_2">
    <g id="ytick_1">
     <g id="line2d_8">
      <defs>
       <path d="M 0 0 
L -3.5 0 
" id="m9ffe5599ee" style="stroke:#000000;stroke-width:0.8;"/>
      </defs>
      <g>
       <use style="stroke:#000000;stroke-width:0.8;" x="57.6" xlink:href="#m9ffe5599ee" y="149.775822"/>
      </g>
     </g>
     <g id="text_9">
      <!-- 50 -->
      <g transform="translate(37.875 153.57504)scale(0.1 -0.1)">
       <use xlink:href="#DejaVuSans-53"/>
       <use x="63.623047" xlink:href="#DejaVuSans-48"/>
      </g>
     </g>
    </g>
    <g id="ytick_2">
     <g id="line2d_9">
      <g>
       <use style="stroke:#000000;stroke-width:0.8;" x="57.6" xlink:href="#m9ffe5599ee" y="124.514533"/>
      </g>
     </g>
     <g id="text_10">
      <!-- 75 -->
      <defs>
       <path d="M 8.203125 72.90625 
L 55.078125 72.90625 
L 55.078125 68.703125 
L 28.609375 0 
L 18.3125 0 
L 43.21875 64.59375 
L 8.203125 64.59375 
z
" id="DejaVuSans-55"/>
      </defs>
      <g transform="translate(37.875 128.313752)scale(0.1 -0.1)">
       <use xlink:href="#DejaVuSans-55"/>
       <use x="63.623047" xlink:href="#DejaVuSans-53"/>
      </g>
     </g>
    </g>
    <g id="text_11">
     <!-- prd -->
     <defs>
      <path d="M 41.109375 46.296875 
Q 39.59375 47.171875 37.8125 47.578125 
Q 36.03125 48 33.890625 48 
Q 26.265625 48 22.1875 43.046875 
Q 18.109375 38.09375 18.109375 28.8125 
L 18.109375 0 
L 9.078125 0 
L 9.078125 54.6875 
L 18.109375 54.6875 
L 18.109375 46.1875 
Q 20.953125 51.171875 25.484375 53.578125 
Q 30.03125 56 36.53125 56 
Q 37.453125 56 38.578125 55.875 
Q 39.703125 55.765625 41.0625 55.515625 
z
" id="DejaVuSans-114"/>
      <path d="M 45.40625 46.390625 
L 45.40625 75.984375 
L 54.390625 75.984375 
L 54.390625 0 
L 45.40625 0 
L 45.40625 8.203125 
Q 42.578125 3.328125 38.25 0.953125 
Q 33.9375 -1.421875 27.875 -1.421875 
Q 17.96875 -1.421875 11.734375 6.484375 
Q 5.515625 14.40625 5.515625 27.296875 
Q 5.515625 40.1875 11.734375 48.09375 
Q 17.96875 56 27.875 56 
Q 33.9375 56 38.25 53.625 
Q 42.578125 51.265625 45.40625 46.390625 
z
M 14.796875 27.296875 
Q 14.796875 17.390625 18.875 11.75 
Q 22.953125 6.109375 30.078125 6.109375 
Q 37.203125 6.109375 41.296875 11.75 
Q 45.40625 17.390625 45.40625 27.296875 
Q 45.40625 37.203125 41.296875 42.84375 
Q 37.203125 48.484375 30.078125 48.484375 
Q 22.953125 48.484375 18.875 42.84375 
Q 14.796875 37.203125 14.796875 27.296875 
z
" id="DejaVuSans-100"/>
     </defs>
     <g transform="translate(31.795313 148.134145)rotate(-90)scale(0.1 -0.1)">
      <use xlink:href="#DejaVuSans-112"/>
      <use x="63.476562" xlink:href="#DejaVuSans-114"/>
      <use x="102.839844" xlink:href="#DejaVuSans-100"/>
     </g>
    </g>
   </g>
   <g id="line2d_10">
    <path clip-path="url(#pc0a982fcad)" d="M 73.832727 127.94051 
L 74.850453 117.253161 
L 75.868179 125.410827 
L 76.885905 125.931194 
L 77.903631 123.720708 
L 78.921357 126.679566 
L 79.939082 126.394205 
L 81.974534 127.782789 
L 82.99226 127.857753 
L 84.009986 128.335842 
L 85.027712 130.17215 
L 86.045437 128.527168 
L 87.063163 131.023932 
L 88.080889 125.311071 
L 89.098615 133.85522 
L 90.116341 128.893344 
L 91.134067 134.905504 
L 92.151793 132.439738 
L 93.169518 135.148427 
L 94.187244 135.896521 
L 95.20497 135.315145 
L 96.222696 137.892678 
L 97.240422 139.635324 
L 98.258148 134.193566 
L 99.275873 126.386218 
L 100.293599 139.325497 
L 101.311325 141.541476 
L 102.329051 139.768503 
L 103.346777 141.690378 
L 104.364503 143.020859 
L 105.382229 144.008576 
L 107.41768 145.215191 
L 108.435406 145.107961 
L 109.453132 145.317371 
L 110.470858 145.334906 
L 111.488584 144.08228 
L 112.506309 141.932908 
L 113.524035 143.862974 
L 114.541761 144.109531 
L 115.559487 145.258601 
L 116.577213 145.43635 
L 117.594939 148.032578 
L 118.612665 148.404313 
L 119.63039 147.050099 
L 120.648116 147.829928 
L 121.665842 146.606142 
L 122.683568 148.316332 
L 123.701294 146.663918 
L 124.71902 146.767575 
L 125.736746 149.457353 
L 126.754471 149.671617 
L 128.789923 148.92991 
L 129.807649 149.854856 
L 130.825375 149.803424 
L 131.843101 150.805168 
L 132.860826 151.193103 
L 133.878552 151.035455 
L 134.896278 151.247796 
L 135.914004 149.830279 
L 136.93173 150.01381 
L 137.949456 149.894411 
L 138.967182 149.531666 
L 139.984907 151.575812 
L 141.002633 151.332346 
L 142.020359 151.613448 
L 143.038085 151.428271 
L 144.055811 152.783841 
L 145.073537 152.654258 
L 146.091262 153.156361 
L 147.108988 153.314588 
L 148.126714 152.868179 
L 149.14444 152.823974 
L 150.162166 151.600612 
L 151.179892 153.011114 
L 152.197618 149.389733 
L 153.215343 152.758774 
L 154.233069 154.104905 
L 156.268521 153.5407 
L 157.286247 154.604927 
L 158.303973 151.912026 
L 159.321698 153.885723 
L 160.339424 154.814415 
L 161.35715 154.279467 
L 162.374876 153.87446 
L 163.392602 155.152117 
L 164.410328 155.394296 
L 165.428054 154.481947 
L 166.445779 154.156132 
L 167.463505 155.203476 
L 168.481231 152.600722 
L 169.498957 154.824125 
L 170.516683 155.816922 
L 171.534409 156.146958 
L 173.56986 156.065179 
L 174.587586 156.544225 
L 175.605312 155.351822 
L 176.623038 154.330667 
L 177.640764 156.879896 
L 178.65849 155.899653 
L 179.676215 156.405395 
L 182.729393 157.259602 
L 183.747119 155.732985 
L 184.764845 157.273914 
L 185.782571 156.056391 
L 186.800296 157.235942 
L 187.818022 157.796277 
L 189.853474 157.613478 
L 190.8712 156.374651 
L 191.888926 157.08053 
L 192.906651 157.481467 
L 193.924377 158.328859 
L 195.959829 158.165587 
L 196.977555 156.450089 
L 197.995281 158.375826 
L 199.013007 158.278325 
L 200.030732 158.517131 
L 201.048458 158.11397 
L 202.066184 158.361168 
L 203.08391 158.918869 
L 204.101636 158.804774 
L 205.119362 158.853935 
L 206.137087 158.582809 
L 207.154813 158.054514 
L 208.172539 158.620198 
L 210.207991 158.971935 
L 211.225717 159.145961 
L 212.243443 158.522111 
L 213.261168 159.209365 
L 214.278894 159.213671 
L 215.29662 159.477855 
L 216.314346 158.859089 
L 217.332072 160.06457 
L 218.349798 159.245598 
L 219.367524 159.525455 
L 220.385249 160.050478 
L 221.402975 160.321446 
L 222.420701 159.830667 
L 223.438427 160.35902 
L 224.456153 158.411963 
L 225.473879 160.411165 
L 226.491604 160.410448 
L 227.50933 159.755048 
L 228.527056 160.639714 
L 229.544782 160.067777 
L 230.562508 159.967381 
L 231.580234 159.638317 
L 232.59796 159.584287 
L 233.615685 160.48486 
L 234.633411 159.741453 
L 235.651137 160.706344 
L 237.686589 160.884005 
L 238.704315 160.428418 
L 239.72204 161.312617 
L 240.739766 161.045711 
L 241.757492 158.395169 
L 242.775218 161.127575 
L 243.792944 160.30459 
L 244.81067 160.284793 
L 245.828396 156.447618 
L 246.846121 160.068837 
L 247.863847 161.060602 
L 248.881573 161.541066 
L 249.899299 161.181924 
L 250.917025 161.736689 
L 251.934751 160.361988 
L 252.952476 161.701339 
L 253.970202 161.948443 
L 254.987928 160.321381 
L 256.005654 161.764422 
L 257.02338 161.476305 
L 258.041106 161.724019 
L 259.058832 161.308635 
L 260.076557 161.33857 
L 261.094283 160.470344 
L 262.112009 162.31026 
L 263.129735 161.579129 
L 264.147461 161.988511 
L 265.165187 161.478776 
L 266.182913 162.377002 
L 267.200638 162.276748 
L 268.218364 162.65847 
L 269.23609 162.332088 
L 270.253816 162.489991 
L 271.271542 161.355114 
L 272.289268 161.776784 
L 273.306993 161.631767 
L 274.324719 162.51175 
L 275.342445 161.716923 
L 276.360171 161.885228 
L 277.377897 162.264853 
L 278.395623 160.735677 
L 280.431074 163.038796 
L 281.4488 162.318574 
L 282.466526 162.584851 
L 283.484252 163.063731 
L 285.519704 161.534613 
L 286.537429 162.619612 
L 287.555155 163.216014 
L 288.572881 162.017378 
L 289.590607 161.110129 
L 290.608333 162.089702 
L 291.626059 163.519761 
L 292.643785 162.370241 
L 293.66151 162.53835 
L 294.679236 162.138917 
L 295.696962 163.629778 
L 296.714688 163.427148 
L 297.732414 162.983317 
L 298.75014 163.260653 
L 299.767865 163.204011 
L 300.785591 163.682948 
L 301.803317 163.103179 
L 302.821043 163.518844 
L 303.838769 158.387687 
L 304.856495 160.214104 
L 305.874221 163.705185 
L 306.891946 163.986611 
L 307.909672 162.972097 
L 308.927398 162.396907 
L 309.945124 163.327472 
L 310.96285 163.385044 
L 311.980576 163.289829 
L 312.998302 161.198052 
L 314.016027 161.149176 
L 315.033753 162.93958 
L 316.051479 162.99268 
L 317.069205 163.686394 
L 319.104657 164.292664 
L 320.122382 162.948788 
L 321.140108 163.306203 
L 322.157834 164.161697 
L 323.17556 163.717635 
L 324.193286 164.434327 
L 325.211012 164.307731 
L 326.228738 164.544852 
L 327.246463 164.540493 
L 328.264189 164.072541 
L 329.281915 163.312578 
L 330.299641 164.621805 
L 331.317367 163.832937 
L 332.335093 164.42353 
L 333.352818 163.952163 
L 334.370544 164.591917 
L 335.38827 164.184277 
L 336.405996 162.783801 
L 337.423722 164.625463 
L 338.441448 164.542258 
L 339.459174 164.612546 
L 340.476899 164.025982 
L 341.494625 163.043487 
L 342.512351 164.703094 
L 343.530077 164.718894 
L 344.547803 164.532341 
L 345.565529 164.703691 
L 347.60098 164.312318 
L 348.618706 163.109254 
L 349.636432 165.251884 
L 350.654158 165.003272 
L 351.671884 163.513536 
L 352.68961 164.846892 
L 353.707335 165.230537 
L 354.725061 163.785453 
L 355.742787 164.30866 
L 356.760513 162.52334 
L 357.778239 164.633696 
L 358.795965 160.290802 
L 359.813691 162.75742 
L 360.831416 162.773001 
L 361.849142 162.660524 
L 362.866868 164.226323 
L 363.884594 164.071176 
L 364.90232 164.874603 
L 365.920046 164.681655 
L 366.937771 164.654966 
L 368.973223 165.310551 
L 369.990949 164.210708 
L 371.008675 165.646137 
L 372.026401 165.385641 
L 373.044127 162.891008 
L 374.061852 165.583855 
L 375.079578 165.553504 
L 376.097304 165.322777 
L 377.11503 164.82582 
L 378.132756 165.410503 
L 379.150482 164.961766 
L 380.168207 164.888942 
L 381.185933 165.445511 
L 382.203659 164.367681 
L 383.221385 164.747013 
L 384.239111 164.462303 
L 385.256837 165.530365 
L 386.274563 164.768737 
L 387.292288 165.695244 
L 388.310014 164.824393 
L 389.32774 164.391248 
L 390.345466 165.712547 
L 391.363192 165.574488 
L 392.380918 164.65209 
L 394.416369 166.113391 
L 395.434095 165.603656 
L 396.451821 165.912642 
L 397.469547 165.501178 
L 398.487273 165.864448 
L 398.487273 165.864448 
" style="fill:none;stroke:#1f77b4;stroke-linecap:square;stroke-width:1.5;"/>
   </g>
   <g id="line2d_11">
    <path clip-path="url(#pc0a982fcad)" d="M 73.832727 113.522087 
L 74.850453 122.021931 
L 75.868179 123.022237 
L 76.885905 124.475532 
L 77.903631 124.865776 
L 79.939082 126.686419 
L 80.956808 125.896541 
L 81.974534 126.684268 
L 82.99226 126.357563 
L 85.027712 126.969275 
L 86.045437 128.130448 
L 88.080889 128.582111 
L 89.098615 128.438883 
L 91.134067 131.345072 
L 92.151793 130.847509 
L 93.169518 132.189684 
L 94.187244 133.156818 
L 95.20497 132.69747 
L 96.222696 132.010809 
L 97.240422 136.160451 
L 98.258148 134.289783 
L 99.275873 135.218102 
L 100.293599 133.765678 
L 101.311325 135.007303 
L 102.329051 138.397094 
L 103.346777 139.317256 
L 104.364503 140.642853 
L 105.382229 140.894576 
L 107.41768 140.846957 
L 108.435406 142.113278 
L 109.453132 142.834179 
L 110.470858 143.242632 
L 111.488584 142.036449 
L 112.506309 143.03307 
L 113.524035 142.426658 
L 114.541761 143.114248 
L 115.559487 143.381211 
L 116.577213 143.785189 
L 117.594939 144.066545 
L 118.612665 145.120607 
L 120.648116 142.97864 
L 121.665842 144.308288 
L 122.683568 145.233068 
L 123.701294 144.339163 
L 124.71902 144.762325 
L 125.736746 145.8749 
L 126.754471 146.116516 
L 127.772197 146.159606 
L 129.807649 147.402862 
L 130.825375 146.405886 
L 131.843101 147.774292 
L 132.860826 147.924585 
L 133.878552 147.850338 
L 134.896278 148.087514 
L 135.914004 147.30489 
L 136.93173 147.922935 
L 137.949456 147.554994 
L 138.967182 146.650115 
L 141.002633 148.356512 
L 142.020359 149.004469 
L 143.038085 149.144085 
L 144.055811 148.964821 
L 145.073537 149.93123 
L 146.091262 149.164518 
L 149.14444 150.285954 
L 150.162166 149.439025 
L 151.179892 149.401185 
L 152.197618 149.996172 
L 153.215343 148.533217 
L 155.250795 150.40116 
L 156.268521 149.316114 
L 157.286247 151.417166 
L 158.303973 150.998405 
L 159.321698 150.049083 
L 160.339424 150.772701 
L 161.35715 151.772576 
L 162.374876 151.40665 
L 164.410328 152.4514 
L 165.428054 152.853076 
L 166.445779 150.950123 
L 167.463505 149.289464 
L 168.481231 150.906817 
L 169.498957 151.631533 
L 170.516683 152.74437 
L 171.534409 152.899424 
L 172.552135 153.295646 
L 173.56986 152.704602 
L 174.587586 152.570672 
L 175.605312 153.334042 
L 176.623038 152.563907 
L 177.640764 152.411663 
L 178.65849 153.467568 
L 179.676215 152.821357 
L 180.693941 153.691248 
L 181.711667 153.310802 
L 182.729393 154.50753 
L 183.747119 153.431234 
L 184.764845 152.850089 
L 185.782571 152.880151 
L 186.800296 153.081452 
L 187.818022 153.775081 
L 188.835748 154.903933 
L 189.853474 153.362789 
L 190.8712 153.898736 
L 191.888926 154.108466 
L 192.906651 155.073584 
L 193.924377 155.040343 
L 194.942103 153.939733 
L 195.959829 154.586579 
L 196.977555 153.832861 
L 197.995281 155.325272 
L 199.013007 154.527693 
L 200.030732 154.257881 
L 201.048458 155.439487 
L 202.066184 155.190744 
L 203.08391 154.74045 
L 204.101636 155.907262 
L 205.119362 155.621846 
L 206.137087 155.930875 
L 208.172539 155.416837 
L 209.190265 156.470896 
L 210.207991 156.327001 
L 211.225717 155.804102 
L 212.243443 155.47688 
L 213.261168 156.268446 
L 214.278894 156.232044 
L 215.29662 155.106649 
L 216.314346 154.791723 
L 217.332072 156.250118 
L 218.349798 156.456372 
L 219.367524 156.146017 
L 220.385249 155.163554 
L 221.402975 154.889352 
L 222.420701 154.919745 
L 223.438427 156.643503 
L 224.456153 156.460095 
L 225.473879 155.859515 
L 226.491604 155.875427 
L 227.50933 156.514984 
L 228.527056 157.29033 
L 229.544782 157.069394 
L 230.562508 156.978438 
L 231.580234 157.700957 
L 232.59796 156.887096 
L 233.615685 157.287146 
L 234.633411 156.630756 
L 235.651137 157.138071 
L 236.668863 156.741016 
L 237.686589 157.309322 
L 238.704315 157.555455 
L 239.72204 157.172026 
L 240.739766 157.315663 
L 241.757492 156.883065 
L 242.775218 156.215519 
L 243.792944 158.071478 
L 244.81067 157.437417 
L 245.828396 157.949384 
L 246.846121 155.594375 
L 247.863847 157.60718 
L 248.881573 157.958439 
L 249.899299 158.785417 
L 250.917025 159.271096 
L 251.934751 157.930266 
L 252.952476 158.12994 
L 253.970202 158.686844 
L 256.005654 158.73476 
L 257.02338 158.371525 
L 258.041106 157.774738 
L 259.058832 158.792837 
L 260.076557 158.649759 
L 261.094283 157.430644 
L 262.112009 158.82663 
L 263.129735 159.034479 
L 264.147461 158.851607 
L 265.165187 158.335134 
L 266.182913 158.907444 
L 267.200638 158.938643 
L 268.218364 159.350057 
L 269.23609 159.448876 
L 270.253816 159.951138 
L 271.271542 159.164336 
L 272.289268 158.75897 
L 273.306993 158.839774 
L 274.324719 159.685882 
L 276.360171 159.654167 
L 277.377897 158.876997 
L 278.395623 159.858586 
L 279.413349 158.477136 
L 280.431074 158.818103 
L 281.4488 159.650358 
L 282.466526 159.441452 
L 283.484252 160.318443 
L 284.501978 159.942704 
L 285.519704 159.044559 
L 286.537429 159.770027 
L 287.555155 159.722177 
L 288.572881 159.52352 
L 289.590607 159.693063 
L 290.608333 158.712527 
L 291.626059 160.466817 
L 292.643785 160.487516 
L 293.66151 160.175678 
L 294.679236 159.0616 
L 295.696962 159.804317 
L 296.714688 161.074235 
L 297.732414 160.624901 
L 298.75014 160.049811 
L 299.767865 161.024064 
L 300.785591 159.873661 
L 301.803317 160.068347 
L 302.821043 159.246242 
L 303.838769 159.802876 
L 304.856495 158.071986 
L 305.874221 160.236476 
L 306.891946 160.826892 
L 307.909672 160.451272 
L 309.945124 160.912436 
L 310.96285 160.780201 
L 311.980576 161.195889 
L 312.998302 161.284101 
L 314.016027 160.064632 
L 315.033753 159.942978 
L 316.051479 158.979853 
L 317.069205 158.173839 
L 318.086931 161.3892 
L 319.104657 161.353294 
L 320.122382 161.095034 
L 322.157834 161.07092 
L 323.17556 160.794571 
L 324.193286 161.605919 
L 325.211012 161.173579 
L 326.228738 162.06112 
L 328.264189 161.491685 
L 329.281915 162.192318 
L 330.299641 161.783684 
L 331.317367 160.676467 
L 332.335093 161.316822 
L 333.352818 161.709849 
L 335.38827 161.992983 
L 336.405996 161.176666 
L 337.423722 160.603327 
L 338.441448 160.693242 
L 339.459174 160.530383 
L 340.476899 161.65281 
L 341.494625 160.634803 
L 342.512351 161.828227 
L 343.530077 161.362638 
L 344.547803 162.490156 
L 345.565529 161.977264 
L 346.583254 162.011226 
L 347.60098 162.19699 
L 348.618706 161.81792 
L 349.636432 161.76813 
L 350.654158 162.351226 
L 352.68961 161.265333 
L 353.707335 161.932131 
L 355.742787 159.927108 
L 356.760513 161.55236 
L 357.778239 159.464784 
L 358.795965 160.356823 
L 360.831416 158.407237 
L 361.849142 160.393538 
L 362.866868 160.891953 
L 363.884594 161.755588 
L 364.90232 161.897902 
L 365.920046 162.271602 
L 366.937771 161.783788 
L 367.955497 162.384117 
L 368.973223 162.456464 
L 369.990949 161.791081 
L 371.008675 162.493402 
L 372.026401 162.702327 
L 373.044127 161.996872 
L 374.061852 161.72277 
L 375.079578 162.631631 
L 376.097304 162.148842 
L 377.11503 161.834818 
L 378.132756 162.846561 
L 379.150482 163.343785 
L 380.168207 162.379072 
L 381.185933 163.144003 
L 382.203659 163.377088 
L 383.221385 161.856905 
L 384.239111 161.230966 
L 385.256837 162.459328 
L 386.274563 163.173733 
L 387.292288 163.15505 
L 388.310014 162.967772 
L 389.32774 162.303167 
L 391.363192 163.458316 
L 392.380918 163.233413 
L 393.398643 162.649809 
L 394.416369 162.849506 
L 395.434095 162.90665 
L 396.451821 163.184221 
L 397.469547 164.193104 
L 398.487273 163.800829 
L 398.487273 163.800829 
" style="fill:none;stroke:#ff7f0e;stroke-linecap:square;stroke-width:1.5;"/>
   </g>
   <g id="patch_3">
    <path d="M 57.6 168.742957 
L 57.6 110.892522 
" style="fill:none;stroke:#000000;stroke-linecap:square;stroke-linejoin:miter;stroke-width:0.8;"/>
   </g>
   <g id="patch_4">
    <path d="M 414.72 168.742957 
L 414.72 110.892522 
" style="fill:none;stroke:#000000;stroke-linecap:square;stroke-linejoin:miter;stroke-width:0.8;"/>
   </g>
   <g id="patch_5">
    <path d="M 57.6 168.742957 
L 414.72 168.742957 
" style="fill:none;stroke:#000000;stroke-linecap:square;stroke-linejoin:miter;stroke-width:0.8;"/>
   </g>
   <g id="patch_6">
    <path d="M 57.6 110.892522 
L 414.72 110.892522 
" style="fill:none;stroke:#000000;stroke-linecap:square;stroke-linejoin:miter;stroke-width:0.8;"/>
   </g>
   <g id="legend_1">
    <g id="patch_7">
     <path d="M 326.485625 148.248772 
L 407.72 148.248772 
Q 409.72 148.248772 409.72 146.248772 
L 409.72 117.892522 
Q 409.72 115.892522 407.72 115.892522 
L 326.485625 115.892522 
Q 324.485625 115.892522 324.485625 117.892522 
L 324.485625 146.248772 
Q 324.485625 148.248772 326.485625 148.248772 
z
" style="fill:#ffffff;opacity:0.8;stroke:#cccccc;stroke-linejoin:miter;"/>
    </g>
    <g id="line2d_12">
     <path d="M 328.485625 123.990959 
L 348.485625 123.990959 
" style="fill:none;stroke:#1f77b4;stroke-linecap:square;stroke-width:1.5;"/>
    </g>
    <g id="line2d_13"/>
    <g id="text_12">
     <!-- validation -->
     <defs>
      <path d="M 2.984375 54.6875 
L 12.5 54.6875 
L 29.59375 8.796875 
L 46.6875 54.6875 
L 56.203125 54.6875 
L 35.6875 0 
L 23.484375 0 
z
" id="DejaVuSans-118"/>
      <path d="M 34.28125 27.484375 
Q 23.390625 27.484375 19.1875 25 
Q 14.984375 22.515625 14.984375 16.5 
Q 14.984375 11.71875 18.140625 8.90625 
Q 21.296875 6.109375 26.703125 6.109375 
Q 34.1875 6.109375 38.703125 11.40625 
Q 43.21875 16.703125 43.21875 25.484375 
L 43.21875 27.484375 
z
M 52.203125 31.203125 
L 52.203125 0 
L 43.21875 0 
L 43.21875 8.296875 
Q 40.140625 3.328125 35.546875 0.953125 
Q 30.953125 -1.421875 24.3125 -1.421875 
Q 15.921875 -1.421875 10.953125 3.296875 
Q 6 8.015625 6 15.921875 
Q 6 25.140625 12.171875 29.828125 
Q 18.359375 34.515625 30.609375 34.515625 
L 43.21875 34.515625 
L 43.21875 35.40625 
Q 43.21875 41.609375 39.140625 45 
Q 35.0625 48.390625 27.6875 48.390625 
Q 23 48.390625 18.546875 47.265625 
Q 14.109375 46.140625 10.015625 43.890625 
L 10.015625 52.203125 
Q 14.9375 54.109375 19.578125 55.046875 
Q 24.21875 56 28.609375 56 
Q 40.484375 56 46.34375 49.84375 
Q 52.203125 43.703125 52.203125 31.203125 
z
" id="DejaVuSans-97"/>
      <path d="M 9.421875 75.984375 
L 18.40625 75.984375 
L 18.40625 0 
L 9.421875 0 
z
" id="DejaVuSans-108"/>
      <path d="M 9.421875 54.6875 
L 18.40625 54.6875 
L 18.40625 0 
L 9.421875 0 
z
M 9.421875 75.984375 
L 18.40625 75.984375 
L 18.40625 64.59375 
L 9.421875 64.59375 
z
" id="DejaVuSans-105"/>
      <path d="M 18.3125 70.21875 
L 18.3125 54.6875 
L 36.8125 54.6875 
L 36.8125 47.703125 
L 18.3125 47.703125 
L 18.3125 18.015625 
Q 18.3125 11.328125 20.140625 9.421875 
Q 21.96875 7.515625 27.59375 7.515625 
L 36.8125 7.515625 
L 36.8125 0 
L 27.59375 0 
Q 17.1875 0 13.234375 3.875 
Q 9.28125 7.765625 9.28125 18.015625 
L 9.28125 47.703125 
L 2.6875 47.703125 
L 2.6875 54.6875 
L 9.28125 54.6875 
L 9.28125 70.21875 
z
" id="DejaVuSans-116"/>
      <path d="M 54.890625 33.015625 
L 54.890625 0 
L 45.90625 0 
L 45.90625 32.71875 
Q 45.90625 40.484375 42.875 44.328125 
Q 39.84375 48.1875 33.796875 48.1875 
Q 26.515625 48.1875 22.3125 43.546875 
Q 18.109375 38.921875 18.109375 30.90625 
L 18.109375 0 
L 9.078125 0 
L 9.078125 54.6875 
L 18.109375 54.6875 
L 18.109375 46.1875 
Q 21.34375 51.125 25.703125 53.5625 
Q 30.078125 56 35.796875 56 
Q 45.21875 56 50.046875 50.171875 
Q 54.890625 44.34375 54.890625 33.015625 
z
" id="DejaVuSans-110"/>
     </defs>
     <g transform="translate(356.485625 127.490959)scale(0.1 -0.1)">
      <use xlink:href="#DejaVuSans-118"/>
      <use x="59.179688" xlink:href="#DejaVuSans-97"/>
      <use x="120.458984" xlink:href="#DejaVuSans-108"/>
      <use x="148.242188" xlink:href="#DejaVuSans-105"/>
      <use x="176.025391" xlink:href="#DejaVuSans-100"/>
      <use x="239.501953" xlink:href="#DejaVuSans-97"/>
      <use x="300.78125" xlink:href="#DejaVuSans-116"/>
      <use x="339.990234" xlink:href="#DejaVuSans-105"/>
      <use x="367.773438" xlink:href="#DejaVuSans-111"/>
      <use x="428.955078" xlink:href="#DejaVuSans-110"/>
     </g>
    </g>
    <g id="line2d_14">
     <path d="M 328.485625 138.669084 
L 348.485625 138.669084 
" style="fill:none;stroke:#ff7f0e;stroke-linecap:square;stroke-width:1.5;"/>
    </g>
    <g id="line2d_15"/>
    <g id="text_13">
     <!-- training -->
     <defs>
      <path d="M 45.40625 27.984375 
Q 45.40625 37.75 41.375 43.109375 
Q 37.359375 48.484375 30.078125 48.484375 
Q 22.859375 48.484375 18.828125 43.109375 
Q 14.796875 37.75 14.796875 27.984375 
Q 14.796875 18.265625 18.828125 12.890625 
Q 22.859375 7.515625 30.078125 7.515625 
Q 37.359375 7.515625 41.375 12.890625 
Q 45.40625 18.265625 45.40625 27.984375 
z
M 54.390625 6.78125 
Q 54.390625 -7.171875 48.1875 -13.984375 
Q 42 -20.796875 29.203125 -20.796875 
Q 24.46875 -20.796875 20.265625 -20.09375 
Q 16.0625 -19.390625 12.109375 -17.921875 
L 12.109375 -9.1875 
Q 16.0625 -11.328125 19.921875 -12.34375 
Q 23.78125 -13.375 27.78125 -13.375 
Q 36.625 -13.375 41.015625 -8.765625 
Q 45.40625 -4.15625 45.40625 5.171875 
L 45.40625 9.625 
Q 42.625 4.78125 38.28125 2.390625 
Q 33.9375 0 27.875 0 
Q 17.828125 0 11.671875 7.65625 
Q 5.515625 15.328125 5.515625 27.984375 
Q 5.515625 40.671875 11.671875 48.328125 
Q 17.828125 56 27.875 56 
Q 33.9375 56 38.28125 53.609375 
Q 42.625 51.21875 45.40625 46.390625 
L 45.40625 54.6875 
L 54.390625 54.6875 
z
" id="DejaVuSans-103"/>
     </defs>
     <g transform="translate(356.485625 142.169084)scale(0.1 -0.1)">
      <use xlink:href="#DejaVuSans-116"/>
      <use x="39.208984" xlink:href="#DejaVuSans-114"/>
      <use x="80.322266" xlink:href="#DejaVuSans-97"/>
      <use x="141.601562" xlink:href="#DejaVuSans-105"/>
      <use x="169.384766" xlink:href="#DejaVuSans-110"/>
      <use x="232.763672" xlink:href="#DejaVuSans-105"/>
      <use x="260.546875" xlink:href="#DejaVuSans-110"/>
      <use x="323.925781" xlink:href="#DejaVuSans-103"/>
     </g>
    </g>
   </g>
  </g>
  <g id="axes_2">
   <g id="patch_8">
    <path d="M 57.6 99.322435 
L 219.927273 99.322435 
L 219.927273 41.472 
L 57.6 41.472 
z
" style="fill:#ffffff;"/>
   </g>
   <g id="matplotlib.axis_3">
    <g id="xtick_8">
     <g id="line2d_16">
      <g>
       <use style="stroke:#000000;stroke-width:0.8;" x="64.978512" xlink:href="#m1975b876db" y="99.322435"/>
      </g>
     </g>
     <g id="text_14">
      <!-- 0 -->
      <g transform="translate(61.797262 113.920872)scale(0.1 -0.1)">
       <use xlink:href="#DejaVuSans-48"/>
      </g>
     </g>
    </g>
    <g id="xtick_9">
     <g id="line2d_17">
      <g>
       <use style="stroke:#000000;stroke-width:0.8;" x="111.238778" xlink:href="#m1975b876db" y="99.322435"/>
      </g>
     </g>
     <g id="text_15">
      <!-- 100 -->
      <g transform="translate(101.695028 113.920872)scale(0.1 -0.1)">
       <use xlink:href="#DejaVuSans-49"/>
       <use x="63.623047" xlink:href="#DejaVuSans-48"/>
       <use x="127.246094" xlink:href="#DejaVuSans-48"/>
      </g>
     </g>
    </g>
    <g id="xtick_10">
     <g id="line2d_18">
      <g>
       <use style="stroke:#000000;stroke-width:0.8;" x="157.499044" xlink:href="#m1975b876db" y="99.322435"/>
      </g>
     </g>
     <g id="text_16">
      <!-- 200 -->
      <g transform="translate(147.955294 113.920872)scale(0.1 -0.1)">
       <use xlink:href="#DejaVuSans-50"/>
       <use x="63.623047" xlink:href="#DejaVuSans-48"/>
       <use x="127.246094" xlink:href="#DejaVuSans-48"/>
      </g>
     </g>
    </g>
    <g id="xtick_11">
     <g id="line2d_19">
      <g>
       <use style="stroke:#000000;stroke-width:0.8;" x="203.75931" xlink:href="#m1975b876db" y="99.322435"/>
      </g>
     </g>
     <g id="text_17">
      <!-- 300 -->
      <g transform="translate(194.21556 113.920872)scale(0.1 -0.1)">
       <use xlink:href="#DejaVuSans-51"/>
       <use x="63.623047" xlink:href="#DejaVuSans-48"/>
       <use x="127.246094" xlink:href="#DejaVuSans-48"/>
      </g>
     </g>
    </g>
    <g id="text_18">
     <!-- # epochs -->
     <g transform="translate(115.151918 127.598997)scale(0.1 -0.1)">
      <use xlink:href="#DejaVuSans-35"/>
      <use x="83.789062" xlink:href="#DejaVuSans-32"/>
      <use x="115.576172" xlink:href="#DejaVuSans-101"/>
      <use x="177.099609" xlink:href="#DejaVuSans-112"/>
      <use x="240.576172" xlink:href="#DejaVuSans-111"/>
      <use x="301.757812" xlink:href="#DejaVuSans-99"/>
      <use x="356.738281" xlink:href="#DejaVuSans-104"/>
      <use x="420.117188" xlink:href="#DejaVuSans-115"/>
     </g>
    </g>
   </g>
   <g id="matplotlib.axis_4">
    <g id="ytick_3">
     <g id="line2d_20">
      <g>
       <use style="stroke:#000000;stroke-width:0.8;" x="57.6" xlink:href="#m9ffe5599ee" y="82.371769"/>
      </g>
     </g>
     <g id="text_19">
      <!-- 50 -->
      <g transform="translate(37.875 86.170988)scale(0.1 -0.1)">
       <use xlink:href="#DejaVuSans-53"/>
       <use x="63.623047" xlink:href="#DejaVuSans-48"/>
      </g>
     </g>
    </g>
    <g id="ytick_4">
     <g id="line2d_21">
      <g>
       <use style="stroke:#000000;stroke-width:0.8;" x="57.6" xlink:href="#m9ffe5599ee" y="57.91805"/>
      </g>
     </g>
     <g id="text_20">
      <!-- 75 -->
      <g transform="translate(37.875 61.717269)scale(0.1 -0.1)">
       <use xlink:href="#DejaVuSans-55"/>
       <use x="63.623047" xlink:href="#DejaVuSans-53"/>
      </g>
     </g>
    </g>
    <g id="text_21">
     <!-- prdn -->
     <g transform="translate(31.795313 81.882374)rotate(-90)scale(0.1 -0.1)">
      <use xlink:href="#DejaVuSans-112"/>
      <use x="63.476562" xlink:href="#DejaVuSans-114"/>
      <use x="102.839844" xlink:href="#DejaVuSans-100"/>
      <use x="166.316406" xlink:href="#DejaVuSans-110"/>
     </g>
    </g>
   </g>
   <g id="line2d_22">
    <path clip-path="url(#p9e39a3ebb7)" d="M 64.978512 58.037498 
L 65.441115 47.221952 
L 65.903718 55.477888 
L 66.36632 56.004313 
L 66.828923 53.767612 
L 67.291526 56.761805 
L 67.754128 56.473103 
L 68.679334 57.878648 
L 69.141936 57.954297 
L 69.604539 58.438334 
L 70.067142 60.296646 
L 70.529744 58.632767 
L 70.992347 61.159228 
L 71.45495 55.377514 
L 71.917552 64.023271 
L 72.380155 59.002901 
L 72.842758 65.087024 
L 73.30536 62.593242 
L 73.767963 65.333442 
L 74.230566 66.092442 
L 74.693168 65.500957 
L 75.155771 68.111993 
L 75.618374 69.874137 
L 76.080976 64.367905 
L 76.543579 56.463462 
L 77.006182 69.562406 
L 77.468784 71.802983 
L 77.931387 70.011376 
L 78.393989 71.956039 
L 78.856592 73.302994 
L 79.319195 74.303631 
L 80.2444 75.52372 
L 80.707003 75.41528 
L 81.169605 75.628433 
L 81.632208 75.645336 
L 82.094811 74.378322 
L 82.557413 72.20045 
L 83.020016 74.155512 
L 83.482619 74.406422 
L 83.945221 75.568071 
L 84.407824 75.748429 
L 84.870427 78.378226 
L 85.333029 78.754286 
L 85.795632 77.382753 
L 86.258235 78.174935 
L 86.720837 76.932984 
L 87.18344 78.6642 
L 87.646043 76.992287 
L 88.108645 77.097287 
L 88.571248 79.82224 
L 89.033851 80.037908 
L 89.959056 79.287577 
L 90.421659 80.224927 
L 90.884261 80.171658 
L 91.346864 81.186661 
L 91.809467 81.579777 
L 92.272069 81.419922 
L 92.734672 81.635389 
L 93.197275 80.199199 
L 93.659877 80.385718 
L 94.12248 80.266766 
L 94.585083 79.897091 
L 95.047685 81.966963 
L 95.510288 81.72146 
L 95.97289 82.006157 
L 96.435493 81.819515 
L 96.898096 83.191082 
L 97.360698 83.059847 
L 97.823301 83.569705 
L 98.285904 83.728783 
L 98.748506 83.278093 
L 99.211109 83.232365 
L 99.673712 81.994874 
L 100.136314 83.42197 
L 100.598917 79.756076 
L 101.06152 83.167963 
L 101.524122 84.529365 
L 102.449328 83.959373 
L 102.91193 85.036816 
L 103.374533 82.309747 
L 103.837136 84.308372 
L 104.299738 85.248782 
L 105.224944 84.298772 
L 105.687546 85.590551 
L 106.150149 85.835771 
L 106.612752 84.912555 
L 107.075354 84.582201 
L 107.537957 85.642793 
L 108.00056 83.008515 
L 108.463162 85.258361 
L 108.925765 86.26436 
L 109.388368 86.599285 
L 110.313573 86.516532 
L 110.776176 87.001214 
L 111.701381 84.759506 
L 112.163984 87.340789 
L 112.626586 86.348621 
L 113.089189 86.860304 
L 114.476997 87.725941 
L 114.939599 86.179397 
L 115.402202 87.741158 
L 115.864805 86.507353 
L 116.327407 87.702766 
L 116.79001 88.269736 
L 117.715215 88.084307 
L 118.177818 86.830632 
L 118.640421 87.545035 
L 119.103023 87.951509 
L 119.565626 88.808907 
L 120.490831 88.643336 
L 120.953434 86.906017 
L 121.416037 88.856848 
L 121.878639 88.758299 
L 122.341242 88.999657 
L 122.803845 88.590889 
L 123.266447 88.841437 
L 123.72905 89.406541 
L 124.191653 89.29122 
L 124.654255 89.340788 
L 125.116858 89.066549 
L 125.579461 88.531915 
L 126.042063 89.103698 
L 126.967269 89.460269 
L 127.429871 89.636884 
L 127.892474 89.004743 
L 128.355077 89.700847 
L 128.817679 89.705634 
L 129.280282 89.972455 
L 129.742885 89.346702 
L 130.205487 90.566746 
L 130.66809 89.737187 
L 131.130693 90.020705 
L 131.593295 90.552201 
L 132.055898 90.827567 
L 132.5185 90.329634 
L 132.981103 90.865097 
L 133.443706 88.892172 
L 133.906308 90.918026 
L 134.368911 90.916981 
L 134.831514 90.253657 
L 135.294116 91.149167 
L 135.756719 90.570298 
L 136.219322 90.468044 
L 136.681924 90.134336 
L 137.144527 90.080701 
L 137.60713 90.992287 
L 138.069732 90.238716 
L 138.532335 91.215973 
L 139.45754 91.396559 
L 139.920143 90.93485 
L 140.382746 91.830827 
L 140.845348 91.560361 
L 141.307951 88.878426 
L 141.770554 91.643816 
L 142.233156 90.80925 
L 142.695759 90.789287 
L 143.158362 86.904371 
L 143.620964 90.570186 
L 144.083567 91.575977 
L 144.54617 92.062547 
L 145.008772 91.69848 
L 145.471375 92.260141 
L 145.933978 90.867223 
L 146.39658 92.225077 
L 146.859183 92.474487 
L 147.321786 90.825712 
L 147.784388 92.288741 
L 148.246991 91.997682 
L 148.709594 92.247831 
L 149.172196 91.827327 
L 149.634799 91.856171 
L 150.097401 90.977488 
L 150.560004 92.841405 
L 151.022607 92.10176 
L 151.485209 92.514943 
L 151.947812 91.99948 
L 152.410415 92.909039 
L 152.873017 92.80764 
L 153.33562 93.193606 
L 153.798223 92.863092 
L 154.260825 93.022745 
L 154.723428 91.873256 
L 155.186031 92.300002 
L 155.648633 92.153753 
L 156.111236 93.045588 
L 156.573839 92.241223 
L 157.036441 92.411543 
L 157.499044 92.796219 
L 157.961647 91.245085 
L 158.886852 93.579756 
L 159.349455 92.85039 
L 159.812057 93.119263 
L 160.27466 93.604867 
L 161.199865 92.054782 
L 161.662468 93.155289 
L 162.125071 93.758367 
L 163.050276 91.625074 
L 163.512879 92.618816 
L 163.975481 94.065942 
L 164.438084 92.901428 
L 164.900687 93.071633 
L 165.363289 92.668831 
L 165.825892 94.177251 
L 166.288495 93.971587 
L 166.751097 93.522588 
L 167.2137 93.804293 
L 167.676302 93.747065 
L 168.138905 94.231434 
L 168.601508 93.644397 
L 169.06411 94.065849 
L 169.526713 88.868486 
L 169.989316 90.719414 
L 170.451918 94.253285 
L 170.914521 94.538979 
L 171.377124 93.510569 
L 171.839726 92.928704 
L 172.302329 93.870961 
L 172.764932 93.930531 
L 173.227534 93.833621 
L 173.690137 91.715092 
L 174.15274 91.665518 
L 174.615342 93.477591 
L 175.077945 93.531726 
L 175.540548 94.234591 
L 176.465753 94.848669 
L 176.928356 93.486871 
L 177.390958 93.849636 
L 177.853561 94.716359 
L 178.316164 94.267401 
L 178.778766 94.992124 
L 179.241369 94.863867 
L 179.703972 95.104355 
L 180.166574 95.099967 
L 180.629177 94.625553 
L 181.09178 93.855151 
L 181.554382 95.181292 
L 182.016985 94.383505 
L 182.479588 94.981337 
L 182.94219 94.503132 
L 183.404793 95.151893 
L 183.867396 94.739759 
L 184.329998 93.321909 
L 184.792601 95.186053 
L 185.255204 95.102128 
L 185.717806 95.172546 
L 186.180409 94.578408 
L 186.643011 93.585214 
L 187.105614 95.264747 
L 187.568217 95.279844 
L 188.030819 95.090758 
L 188.493422 95.26496 
L 189.418627 94.868501 
L 189.88123 93.65142 
L 190.343833 95.819825 
L 190.806435 95.568378 
L 191.269038 94.059587 
L 191.731641 95.410464 
L 192.194243 95.798807 
L 192.656846 94.335117 
L 193.119449 94.863356 
L 193.582051 93.056353 
L 194.044654 95.194706 
L 194.507257 90.798089 
L 194.969859 93.293446 
L 195.432462 93.309233 
L 195.895065 93.194681 
L 196.357667 94.779266 
L 196.82027 94.623326 
L 197.282873 95.437658 
L 197.745475 95.242605 
L 198.208078 95.215158 
L 199.133283 95.879251 
L 199.595886 94.766277 
L 200.058489 96.219187 
L 200.521091 95.955034 
L 200.983694 93.429987 
L 201.446297 96.156541 
L 201.908899 96.125165 
L 202.371502 95.892105 
L 202.834105 95.38824 
L 203.296707 95.980437 
L 203.75931 95.525945 
L 204.221912 95.452669 
L 204.684515 96.017299 
L 205.147118 94.92524 
L 205.60972 95.309691 
L 206.072323 95.021259 
L 206.534926 96.102347 
L 206.997528 95.331094 
L 207.460131 96.268512 
L 207.922734 95.386396 
L 208.385336 94.948893 
L 208.847939 96.286676 
L 209.310542 96.146377 
L 209.773144 95.212337 
L 210.69835 96.69287 
L 211.160952 96.176362 
L 211.623555 96.489679 
L 212.086158 96.07268 
L 212.54876 96.440888 
L 212.54876 96.440888 
" style="fill:none;stroke:#1f77b4;stroke-linecap:square;stroke-width:1.5;"/>
   </g>
   <g id="line2d_23">
    <path clip-path="url(#p9e39a3ebb7)" d="M 64.978512 44.101565 
L 65.441115 52.729695 
L 65.903718 52.424837 
L 66.36632 54.955604 
L 66.828923 55.36844 
L 67.291526 56.425842 
L 67.754128 57.8152 
L 68.216731 56.868551 
L 69.141936 56.553454 
L 70.067142 57.506618 
L 70.529744 58.994065 
L 70.992347 58.673378 
L 71.45495 58.71355 
L 71.917552 59.310617 
L 72.842758 62.401921 
L 73.30536 61.307198 
L 73.767963 62.863914 
L 74.230566 63.888517 
L 74.693168 63.770159 
L 75.155771 62.720414 
L 75.618374 67.117478 
L 76.080976 64.673293 
L 76.543579 66.09221 
L 77.006182 64.047346 
L 77.468784 65.042726 
L 77.931387 69.493492 
L 78.393989 70.050305 
L 78.856592 71.59686 
L 79.781797 71.493972 
L 80.2444 71.2057 
L 80.707003 72.703528 
L 81.632208 74.366277 
L 82.094811 72.491088 
L 82.557413 73.693341 
L 83.020016 72.91602 
L 83.482619 73.25074 
L 83.945221 74.502045 
L 84.407824 74.875359 
L 84.870427 74.930616 
L 85.333029 75.857097 
L 85.795632 75.039094 
L 86.258235 73.293195 
L 86.720837 75.336552 
L 87.18344 75.815325 
L 87.646043 74.35843 
L 88.571248 76.870376 
L 89.033851 77.244249 
L 89.496453 76.195198 
L 89.959056 77.278887 
L 90.421659 78.046753 
L 90.884261 77.033652 
L 91.346864 78.895125 
L 91.809467 78.971666 
L 92.272069 78.384831 
L 92.734672 78.83886 
L 93.197275 78.163051 
L 93.659877 78.949189 
L 94.12248 78.58348 
L 94.585083 77.264025 
L 95.047685 78.412577 
L 95.510288 77.55398 
L 95.97289 79.655733 
L 96.435493 80.182266 
L 96.898096 79.574554 
L 97.360698 81.007878 
L 97.823301 80.157098 
L 98.285904 80.63171 
L 98.748506 80.401945 
L 99.211109 81.143732 
L 99.673712 79.415006 
L 100.136314 79.804225 
L 100.598917 80.875553 
L 101.06152 79.423308 
L 101.986725 81.442232 
L 102.449328 80.119292 
L 102.91193 82.306888 
L 103.374533 81.815967 
L 103.837136 80.874826 
L 104.299738 81.120923 
L 104.762341 82.82791 
L 105.224944 82.322269 
L 106.612752 83.62547 
L 107.537957 80.095274 
L 108.463162 82.528202 
L 108.925765 83.787108 
L 109.388368 83.861149 
L 109.85097 84.26413 
L 110.313573 83.421641 
L 110.776176 83.178623 
L 111.238778 84.108093 
L 111.701381 83.576959 
L 112.163984 83.331186 
L 112.626586 84.500029 
L 113.089189 82.687172 
L 113.551791 84.39632 
L 114.014394 83.908708 
L 114.476997 85.395032 
L 114.939599 83.803787 
L 115.402202 82.931388 
L 115.864805 83.763582 
L 116.327407 83.976596 
L 116.79001 84.46076 
L 117.252613 85.799685 
L 117.715215 84.407387 
L 118.177818 84.703462 
L 118.640421 84.667051 
L 119.103023 85.486002 
L 119.565626 86.002409 
L 120.028229 84.159951 
L 120.490831 85.314238 
L 120.953434 84.129029 
L 121.416037 86.172017 
L 121.878639 84.731536 
L 122.341242 85.200066 
L 122.803845 86.274446 
L 123.266447 85.565625 
L 123.72905 85.416842 
L 124.191653 86.822073 
L 124.654255 86.303491 
L 125.116858 86.763505 
L 125.579461 86.554382 
L 126.042063 85.910681 
L 126.504666 87.323069 
L 126.967269 87.371113 
L 127.429871 86.482073 
L 127.892474 86.372438 
L 128.355077 86.982106 
L 128.817679 86.539061 
L 129.742885 85.072685 
L 130.205487 86.701505 
L 130.66809 87.328819 
L 131.130693 86.957584 
L 131.593295 85.702465 
L 132.055898 85.777058 
L 132.5185 85.221141 
L 132.981103 87.49321 
L 133.443706 87.33108 
L 134.368911 86.320155 
L 134.831514 87.613072 
L 135.294116 88.147628 
L 135.756719 87.822251 
L 136.219322 87.679796 
L 136.681924 88.78243 
L 137.144527 86.88805 
L 137.60713 88.101896 
L 138.069732 86.995535 
L 138.532335 87.85493 
L 138.994938 87.622035 
L 139.45754 87.789326 
L 139.920143 88.29993 
L 140.382746 87.876904 
L 140.845348 87.71577 
L 141.307951 87.77171 
L 141.770554 86.988162 
L 142.233156 88.966489 
L 142.695759 88.174945 
L 143.158362 88.661624 
L 143.620964 85.368062 
L 144.083567 88.376777 
L 144.54617 88.751419 
L 145.008772 89.583564 
L 145.471375 90.152272 
L 145.933978 88.545546 
L 146.39658 88.581128 
L 146.859183 89.187806 
L 147.784388 89.696258 
L 148.246991 88.867127 
L 148.709594 88.333318 
L 149.172196 89.826034 
L 149.634799 89.475161 
L 150.097401 87.857878 
L 150.560004 89.611433 
L 151.022607 89.678974 
L 151.947812 89.236892 
L 152.410415 89.897582 
L 152.873017 89.450045 
L 153.33562 90.206321 
L 153.798223 90.290179 
L 154.260825 91.044014 
L 155.186031 89.375243 
L 155.648633 89.482452 
L 156.111236 90.349559 
L 156.573839 89.596944 
L 157.036441 90.599347 
L 157.499044 89.47831 
L 157.961647 90.624731 
L 158.424249 89.172347 
L 158.886852 89.236929 
L 159.349455 90.568436 
L 159.812057 90.291933 
L 160.27466 91.205029 
L 160.737263 90.378175 
L 161.199865 89.813668 
L 161.662468 90.699287 
L 162.587673 88.822445 
L 163.050276 90.579641 
L 163.512879 89.486586 
L 163.975481 91.311376 
L 164.438084 91.401093 
L 164.900687 91.103387 
L 165.363289 89.928474 
L 165.825892 90.624802 
L 166.288495 92.179391 
L 167.2137 90.623328 
L 167.676302 92.043469 
L 168.138905 90.432257 
L 168.601508 90.094571 
L 169.06411 89.525582 
L 169.526713 90.47025 
L 169.989316 88.600415 
L 170.451918 91.286107 
L 170.914521 91.911835 
L 171.377124 91.079317 
L 171.839726 91.66488 
L 172.302329 91.707204 
L 172.764932 91.499992 
L 173.227534 92.034801 
L 174.15274 90.739615 
L 174.615342 91.03432 
L 175.077945 89.641183 
L 175.540548 89.125049 
L 176.00315 92.323558 
L 178.316164 91.505413 
L 178.778766 92.08054 
L 179.241369 91.59707 
L 179.703972 93.009801 
L 180.629177 92.320409 
L 181.09178 93.101159 
L 181.554382 92.744685 
L 182.016985 90.674791 
L 182.479588 92.359435 
L 182.94219 92.783308 
L 183.404793 92.724319 
L 183.867396 92.912562 
L 184.329998 91.820566 
L 184.792601 91.09538 
L 185.255204 91.271522 
L 185.717806 90.89307 
L 186.180409 92.511685 
L 186.643011 91.124891 
L 187.105614 92.607443 
L 187.568217 92.429226 
L 188.030819 93.586744 
L 188.956025 92.637021 
L 189.418627 93.092517 
L 189.88123 92.297995 
L 190.343833 92.573801 
L 190.806435 93.173711 
L 191.731641 91.485361 
L 192.194243 92.78704 
L 192.656846 90.978179 
L 193.119449 90.269254 
L 193.582051 92.527487 
L 194.044654 90.588153 
L 194.507257 91.02482 
L 195.432462 89.105027 
L 195.895065 90.904257 
L 196.82027 92.681633 
L 197.282873 92.586767 
L 197.745475 93.070853 
L 198.208078 92.277558 
L 198.670681 93.031972 
L 199.133283 93.345797 
L 199.595886 92.176014 
L 200.058489 93.56877 
L 200.521091 93.170483 
L 200.983694 92.417689 
L 201.446297 92.386752 
L 201.908899 93.211606 
L 202.371502 92.319241 
L 202.834105 92.41995 
L 203.296707 93.532487 
L 203.75931 94.323837 
L 204.221912 93.187106 
L 204.684515 94.037151 
L 205.147118 94.099684 
L 206.072323 91.181182 
L 206.534926 93.342394 
L 206.997528 94.055039 
L 207.460131 94.058009 
L 208.385336 93.063592 
L 208.847939 93.873017 
L 209.310542 94.440143 
L 209.773144 94.221617 
L 210.235747 93.611319 
L 211.160952 93.940729 
L 211.623555 92.679226 
L 212.086158 95.252467 
L 212.54876 94.510994 
L 212.54876 94.510994 
" style="fill:none;stroke:#ff7f0e;stroke-linecap:square;stroke-width:1.5;"/>
   </g>
   <g id="patch_9">
    <path d="M 57.6 99.322435 
L 57.6 41.472 
" style="fill:none;stroke:#000000;stroke-linecap:square;stroke-linejoin:miter;stroke-width:0.8;"/>
   </g>
   <g id="patch_10">
    <path d="M 219.927273 99.322435 
L 219.927273 41.472 
" style="fill:none;stroke:#000000;stroke-linecap:square;stroke-linejoin:miter;stroke-width:0.8;"/>
   </g>
   <g id="patch_11">
    <path d="M 57.6 99.322435 
L 219.927273 99.322435 
" style="fill:none;stroke:#000000;stroke-linecap:square;stroke-linejoin:miter;stroke-width:0.8;"/>
   </g>
   <g id="patch_12">
    <path d="M 57.6 41.472 
L 219.927273 41.472 
" style="fill:none;stroke:#000000;stroke-linecap:square;stroke-linejoin:miter;stroke-width:0.8;"/>
   </g>
   <g id="legend_2">
    <g id="patch_13">
     <path d="M 131.692898 78.82825 
L 212.927273 78.82825 
Q 214.927273 78.82825 214.927273 76.82825 
L 214.927273 48.472 
Q 214.927273 46.472 212.927273 46.472 
L 131.692898 46.472 
Q 129.692898 46.472 129.692898 48.472 
L 129.692898 76.82825 
Q 129.692898 78.82825 131.692898 78.82825 
z
" style="fill:#ffffff;opacity:0.8;stroke:#cccccc;stroke-linejoin:miter;"/>
    </g>
    <g id="line2d_24">
     <path d="M 133.692898 54.570437 
L 153.692898 54.570437 
" style="fill:none;stroke:#1f77b4;stroke-linecap:square;stroke-width:1.5;"/>
    </g>
    <g id="line2d_25"/>
    <g id="text_22">
     <!-- validation -->
     <g transform="translate(161.692898 58.070437)scale(0.1 -0.1)">
      <use xlink:href="#DejaVuSans-118"/>
      <use x="59.179688" xlink:href="#DejaVuSans-97"/>
      <use x="120.458984" xlink:href="#DejaVuSans-108"/>
      <use x="148.242188" xlink:href="#DejaVuSans-105"/>
      <use x="176.025391" xlink:href="#DejaVuSans-100"/>
      <use x="239.501953" xlink:href="#DejaVuSans-97"/>
      <use x="300.78125" xlink:href="#DejaVuSans-116"/>
      <use x="339.990234" xlink:href="#DejaVuSans-105"/>
      <use x="367.773438" xlink:href="#DejaVuSans-111"/>
      <use x="428.955078" xlink:href="#DejaVuSans-110"/>
     </g>
    </g>
    <g id="line2d_26">
     <path d="M 133.692898 69.248562 
L 153.692898 69.248562 
" style="fill:none;stroke:#ff7f0e;stroke-linecap:square;stroke-width:1.5;"/>
    </g>
    <g id="line2d_27"/>
    <g id="text_23">
     <!-- training -->
     <g transform="translate(161.692898 72.748562)scale(0.1 -0.1)">
      <use xlink:href="#DejaVuSans-116"/>
      <use x="39.208984" xlink:href="#DejaVuSans-114"/>
      <use x="80.322266" xlink:href="#DejaVuSans-97"/>
      <use x="141.601562" xlink:href="#DejaVuSans-105"/>
      <use x="169.384766" xlink:href="#DejaVuSans-110"/>
      <use x="232.763672" xlink:href="#DejaVuSans-105"/>
      <use x="260.546875" xlink:href="#DejaVuSans-110"/>
      <use x="323.925781" xlink:href="#DejaVuSans-103"/>
     </g>
    </g>
   </g>
  </g>
  <g id="axes_3">
   <g id="patch_14">
    <path d="M 252.392727 99.322435 
L 414.72 99.322435 
L 414.72 41.472 
L 252.392727 41.472 
z
" style="fill:#ffffff;"/>
   </g>
   <g id="matplotlib.axis_5">
    <g id="xtick_12">
     <g id="line2d_28">
      <g>
       <use style="stroke:#000000;stroke-width:0.8;" x="259.77124" xlink:href="#m1975b876db" y="99.322435"/>
      </g>
     </g>
     <g id="text_24">
      <!-- 0 -->
      <g transform="translate(256.58999 113.920872)scale(0.1 -0.1)">
       <use xlink:href="#DejaVuSans-48"/>
      </g>
     </g>
    </g>
    <g id="xtick_13">
     <g id="line2d_29">
      <g>
       <use style="stroke:#000000;stroke-width:0.8;" x="306.031505" xlink:href="#m1975b876db" y="99.322435"/>
      </g>
     </g>
     <g id="text_25">
      <!-- 100 -->
      <g transform="translate(296.487755 113.920872)scale(0.1 -0.1)">
       <use xlink:href="#DejaVuSans-49"/>
       <use x="63.623047" xlink:href="#DejaVuSans-48"/>
       <use x="127.246094" xlink:href="#DejaVuSans-48"/>
      </g>
     </g>
    </g>
    <g id="xtick_14">
     <g id="line2d_30">
      <g>
       <use style="stroke:#000000;stroke-width:0.8;" x="352.291771" xlink:href="#m1975b876db" y="99.322435"/>
      </g>
     </g>
     <g id="text_26">
      <!-- 200 -->
      <g transform="translate(342.748021 113.920872)scale(0.1 -0.1)">
       <use xlink:href="#DejaVuSans-50"/>
       <use x="63.623047" xlink:href="#DejaVuSans-48"/>
       <use x="127.246094" xlink:href="#DejaVuSans-48"/>
      </g>
     </g>
    </g>
    <g id="xtick_15">
     <g id="line2d_31">
      <g>
       <use style="stroke:#000000;stroke-width:0.8;" x="398.552037" xlink:href="#m1975b876db" y="99.322435"/>
      </g>
     </g>
     <g id="text_27">
      <!-- 300 -->
      <g transform="translate(389.008287 113.920872)scale(0.1 -0.1)">
       <use xlink:href="#DejaVuSans-51"/>
       <use x="63.623047" xlink:href="#DejaVuSans-48"/>
       <use x="127.246094" xlink:href="#DejaVuSans-48"/>
      </g>
     </g>
    </g>
    <g id="text_28">
     <!-- # epochs -->
     <g transform="translate(309.944645 127.598997)scale(0.1 -0.1)">
      <use xlink:href="#DejaVuSans-35"/>
      <use x="83.789062" xlink:href="#DejaVuSans-32"/>
      <use x="115.576172" xlink:href="#DejaVuSans-101"/>
      <use x="177.099609" xlink:href="#DejaVuSans-112"/>
      <use x="240.576172" xlink:href="#DejaVuSans-111"/>
      <use x="301.757812" xlink:href="#DejaVuSans-99"/>
      <use x="356.738281" xlink:href="#DejaVuSans-104"/>
      <use x="420.117188" xlink:href="#DejaVuSans-115"/>
     </g>
    </g>
   </g>
   <g id="matplotlib.axis_6">
    <g id="ytick_5">
     <g id="line2d_32">
      <g>
       <use style="stroke:#000000;stroke-width:0.8;" x="252.392727" xlink:href="#m9ffe5599ee" y="93.954271"/>
      </g>
     </g>
     <g id="text_29">
      <!-- 0.2 -->
      <defs>
       <path d="M 10.6875 12.40625 
L 21 12.40625 
L 21 0 
L 10.6875 0 
z
" id="DejaVuSans-46"/>
      </defs>
      <g transform="translate(229.489602 97.75349)scale(0.1 -0.1)">
       <use xlink:href="#DejaVuSans-48"/>
       <use x="63.623047" xlink:href="#DejaVuSans-46"/>
       <use x="95.410156" xlink:href="#DejaVuSans-50"/>
      </g>
     </g>
    </g>
    <g id="ytick_6">
     <g id="line2d_33">
      <g>
       <use style="stroke:#000000;stroke-width:0.8;" x="252.392727" xlink:href="#m9ffe5599ee" y="53.479747"/>
      </g>
     </g>
     <g id="text_30">
      <!-- 0.4 -->
      <defs>
       <path d="M 37.796875 64.3125 
L 12.890625 25.390625 
L 37.796875 25.390625 
z
M 35.203125 72.90625 
L 47.609375 72.90625 
L 47.609375 25.390625 
L 58.015625 25.390625 
L 58.015625 17.1875 
L 47.609375 17.1875 
L 47.609375 0 
L 37.796875 0 
L 37.796875 17.1875 
L 4.890625 17.1875 
L 4.890625 26.703125 
z
" id="DejaVuSans-52"/>
      </defs>
      <g transform="translate(229.489602 57.278965)scale(0.1 -0.1)">
       <use xlink:href="#DejaVuSans-48"/>
       <use x="63.623047" xlink:href="#DejaVuSans-46"/>
       <use x="95.410156" xlink:href="#DejaVuSans-52"/>
      </g>
     </g>
    </g>
    <g id="text_31">
     <!-- root_mean_squared_error -->
     <defs>
      <path d="M 50.984375 -16.609375 
L 50.984375 -23.578125 
L -0.984375 -23.578125 
L -0.984375 -16.609375 
z
" id="DejaVuSans-95"/>
      <path d="M 52 44.1875 
Q 55.375 50.25 60.0625 53.125 
Q 64.75 56 71.09375 56 
Q 79.640625 56 84.28125 50.015625 
Q 88.921875 44.046875 88.921875 33.015625 
L 88.921875 0 
L 79.890625 0 
L 79.890625 32.71875 
Q 79.890625 40.578125 77.09375 44.375 
Q 74.3125 48.1875 68.609375 48.1875 
Q 61.625 48.1875 57.5625 43.546875 
Q 53.515625 38.921875 53.515625 30.90625 
L 53.515625 0 
L 44.484375 0 
L 44.484375 32.71875 
Q 44.484375 40.625 41.703125 44.40625 
Q 38.921875 48.1875 33.109375 48.1875 
Q 26.21875 48.1875 22.15625 43.53125 
Q 18.109375 38.875 18.109375 30.90625 
L 18.109375 0 
L 9.078125 0 
L 9.078125 54.6875 
L 18.109375 54.6875 
L 18.109375 46.1875 
Q 21.1875 51.21875 25.484375 53.609375 
Q 29.78125 56 35.6875 56 
Q 41.65625 56 45.828125 52.96875 
Q 50 49.953125 52 44.1875 
z
" id="DejaVuSans-109"/>
      <path d="M 14.796875 27.296875 
Q 14.796875 17.390625 18.875 11.75 
Q 22.953125 6.109375 30.078125 6.109375 
Q 37.203125 6.109375 41.296875 11.75 
Q 45.40625 17.390625 45.40625 27.296875 
Q 45.40625 37.203125 41.296875 42.84375 
Q 37.203125 48.484375 30.078125 48.484375 
Q 22.953125 48.484375 18.875 42.84375 
Q 14.796875 37.203125 14.796875 27.296875 
z
M 45.40625 8.203125 
Q 42.578125 3.328125 38.25 0.953125 
Q 33.9375 -1.421875 27.875 -1.421875 
Q 17.96875 -1.421875 11.734375 6.484375 
Q 5.515625 14.40625 5.515625 27.296875 
Q 5.515625 40.1875 11.734375 48.09375 
Q 17.96875 56 27.875 56 
Q 33.9375 56 38.25 53.625 
Q 42.578125 51.265625 45.40625 46.390625 
L 45.40625 54.6875 
L 54.390625 54.6875 
L 54.390625 -20.796875 
L 45.40625 -20.796875 
z
" id="DejaVuSans-113"/>
      <path d="M 8.5 21.578125 
L 8.5 54.6875 
L 17.484375 54.6875 
L 17.484375 21.921875 
Q 17.484375 14.15625 20.5 10.265625 
Q 23.53125 6.390625 29.59375 6.390625 
Q 36.859375 6.390625 41.078125 11.03125 
Q 45.3125 15.671875 45.3125 23.6875 
L 45.3125 54.6875 
L 54.296875 54.6875 
L 54.296875 0 
L 45.3125 0 
L 45.3125 8.40625 
Q 42.046875 3.421875 37.71875 1 
Q 33.40625 -1.421875 27.6875 -1.421875 
Q 18.265625 -1.421875 13.375 4.4375 
Q 8.5 10.296875 8.5 21.578125 
z
M 31.109375 56 
z
" id="DejaVuSans-117"/>
     </defs>
     <g transform="translate(223.13179 134.406592)rotate(-90)scale(0.1 -0.1)">
      <use xlink:href="#DejaVuSans-114"/>
      <use x="38.863281" xlink:href="#DejaVuSans-111"/>
      <use x="100.044922" xlink:href="#DejaVuSans-111"/>
      <use x="161.226562" xlink:href="#DejaVuSans-116"/>
      <use x="200.435547" xlink:href="#DejaVuSans-95"/>
      <use x="250.435547" xlink:href="#DejaVuSans-109"/>
      <use x="347.847656" xlink:href="#DejaVuSans-101"/>
      <use x="409.371094" xlink:href="#DejaVuSans-97"/>
      <use x="470.650391" xlink:href="#DejaVuSans-110"/>
      <use x="534.029297" xlink:href="#DejaVuSans-95"/>
      <use x="584.029297" xlink:href="#DejaVuSans-115"/>
      <use x="636.128906" xlink:href="#DejaVuSans-113"/>
      <use x="699.605469" xlink:href="#DejaVuSans-117"/>
      <use x="762.984375" xlink:href="#DejaVuSans-97"/>
      <use x="824.263672" xlink:href="#DejaVuSans-114"/>
      <use x="863.126953" xlink:href="#DejaVuSans-101"/>
      <use x="924.650391" xlink:href="#DejaVuSans-100"/>
      <use x="988.126953" xlink:href="#DejaVuSans-95"/>
      <use x="1038.126953" xlink:href="#DejaVuSans-101"/>
      <use x="1099.650391" xlink:href="#DejaVuSans-114"/>
      <use x="1139.013672" xlink:href="#DejaVuSans-114"/>
      <use x="1177.876953" xlink:href="#DejaVuSans-111"/>
      <use x="1239.058594" xlink:href="#DejaVuSans-114"/>
     </g>
    </g>
   </g>
   <g id="line2d_34">
    <path clip-path="url(#p5b8a41436c)" d="M 259.77124 56.341133 
L 260.233842 45.077994 
L 260.696445 53.698176 
L 261.159048 54.254932 
L 261.62165 51.904668 
L 262.084253 55.034329 
L 262.546856 54.731751 
L 263.472061 56.182405 
L 263.934664 56.276974 
L 264.397266 56.772839 
L 264.859869 58.701886 
L 265.322472 56.954413 
L 265.785074 59.599801 
L 266.247677 53.598801 
L 266.71028 62.620846 
L 267.172882 57.397868 
L 267.635485 63.74016 
L 268.098088 61.128414 
L 268.56069 64.025814 
L 269.023293 64.773282 
L 269.485895 64.233847 
L 269.948498 66.970209 
L 270.411101 68.870602 
L 270.873703 63.046424 
L 271.336306 54.743035 
L 271.798909 68.52551 
L 272.261511 70.9569 
L 272.724114 68.962704 
L 273.186717 71.025239 
L 273.649319 72.425062 
L 274.111922 73.449783 
L 275.037127 74.735943 
L 275.49973 74.597353 
L 275.962333 74.80927 
L 276.424935 74.794506 
L 276.887538 73.36519 
L 277.350141 71.148896 
L 277.812743 73.153236 
L 278.275346 73.382638 
L 278.737949 74.692054 
L 279.200551 74.864154 
L 279.663154 77.618151 
L 280.125757 78.103105 
L 280.588359 76.502999 
L 281.050962 77.269766 
L 281.513565 76.010083 
L 281.976167 77.920777 
L 282.43877 76.011156 
L 282.901373 76.094242 
L 283.363975 78.997311 
L 283.826578 79.379531 
L 284.751783 78.302291 
L 285.214386 79.333688 
L 285.676989 79.285077 
L 286.139591 80.354422 
L 286.602194 80.803196 
L 287.064796 80.691559 
L 287.527399 80.740622 
L 287.990002 79.18742 
L 288.452604 79.421273 
L 289.37781 78.910426 
L 289.840412 81.131153 
L 290.303015 80.727975 
L 290.765618 81.042856 
L 291.22822 80.68449 
L 291.690823 82.430563 
L 292.153426 82.38542 
L 293.078631 82.894602 
L 293.541234 82.198851 
L 294.003836 82.267239 
L 294.466439 80.696956 
L 294.929042 82.403712 
L 295.391644 78.484668 
L 295.854247 81.988635 
L 296.31685 83.741222 
L 296.779452 83.391052 
L 297.242055 82.809212 
L 297.704658 84.258642 
L 298.16726 81.724017 
L 298.629863 83.226268 
L 299.092466 84.276914 
L 299.555068 83.965189 
L 300.017671 83.064403 
L 300.480274 84.697262 
L 300.942876 85.01949 
L 301.405479 84.230727 
L 301.868082 83.960681 
L 302.330684 84.88773 
L 302.793287 81.522642 
L 303.25589 84.542656 
L 303.718492 85.259769 
L 304.643698 85.818889 
L 305.1063 85.348822 
L 305.568903 86.045649 
L 306.494108 83.358278 
L 306.956711 86.441801 
L 307.419313 85.640912 
L 307.881916 85.690135 
L 308.344519 86.332932 
L 309.269724 86.740298 
L 309.732327 84.926724 
L 310.194929 86.808219 
L 310.657532 85.852995 
L 311.582737 87.313079 
L 312.04534 87.410184 
L 312.507943 87.077812 
L 312.970545 85.499291 
L 313.433148 86.848691 
L 313.895751 86.789751 
L 314.358353 87.877516 
L 315.283559 87.994807 
L 315.746161 85.661207 
L 316.208764 87.887449 
L 316.671367 87.905603 
L 317.133969 88.268115 
L 317.596572 87.475954 
L 318.059175 87.734951 
L 318.521777 88.631198 
L 319.446983 88.27351 
L 319.909585 88.331983 
L 320.372188 87.314427 
L 321.297393 88.50031 
L 321.759996 88.361309 
L 322.222599 88.803973 
L 322.685201 87.790609 
L 323.147804 88.686857 
L 323.610406 88.771408 
L 324.073009 89.016295 
L 324.535612 88.086508 
L 324.998214 89.692142 
L 325.460817 88.951146 
L 325.92342 88.904326 
L 326.386022 89.631818 
L 326.848625 89.958602 
L 327.311228 89.684573 
L 327.77383 89.98615 
L 328.236433 87.68383 
L 328.699036 90.134453 
L 329.161638 89.96081 
L 329.624241 89.252192 
L 330.086844 90.228464 
L 330.549446 89.883903 
L 331.012049 89.397037 
L 331.937254 88.912528 
L 332.399857 90.309466 
L 332.86246 89.134762 
L 333.325062 90.227394 
L 333.787665 90.68535 
L 334.250268 90.418751 
L 334.71287 89.863424 
L 335.175473 90.966279 
L 335.638076 90.732643 
L 336.100678 87.549142 
L 336.563281 90.913711 
L 337.025884 89.858762 
L 337.488486 89.626882 
L 337.951089 86.022721 
L 338.413692 89.32412 
L 338.876294 90.661074 
L 339.338897 91.218578 
L 339.8015 90.651967 
L 340.264102 91.329413 
L 340.726705 89.81342 
L 341.189307 91.263058 
L 341.65191 91.601319 
L 342.114513 89.65755 
L 342.577115 91.302131 
L 343.039718 91.088902 
L 343.502321 91.353688 
L 343.964923 90.694451 
L 344.427526 90.897095 
L 344.890129 90.004008 
L 345.352731 91.933019 
L 345.815334 91.123358 
L 346.277937 91.595333 
L 346.740539 90.899978 
L 347.203142 92.061567 
L 347.665745 91.874818 
L 348.128347 92.375791 
L 348.59095 91.865065 
L 349.053553 92.054037 
L 349.516155 90.738005 
L 349.978758 91.264801 
L 350.441361 91.235969 
L 350.903963 92.029038 
L 351.366566 91.077874 
L 351.829169 91.764912 
L 352.291771 91.727506 
L 352.754374 90.256738 
L 353.679579 92.6925 
L 354.142182 91.783247 
L 354.604785 92.092465 
L 355.067387 92.672944 
L 355.992593 90.990832 
L 356.917798 92.93341 
L 357.380401 91.43576 
L 357.843003 90.495268 
L 358.305606 91.561314 
L 358.768209 93.211224 
L 359.230811 91.947123 
L 359.693414 91.948329 
L 360.156016 91.583449 
L 360.618619 93.23568 
L 361.081222 93.042616 
L 361.543824 92.471039 
L 362.006427 92.774102 
L 362.46903 92.691475 
L 362.931632 93.339775 
L 363.394235 92.85922 
L 363.856838 93.077347 
L 364.31944 87.541124 
L 364.782043 89.355883 
L 365.244646 93.622601 
L 365.707248 93.701359 
L 366.169851 92.527068 
L 366.632454 91.768552 
L 367.095056 92.955716 
L 368.020262 92.807207 
L 368.482864 90.703467 
L 368.945467 90.409104 
L 369.40807 92.49934 
L 369.870672 92.763373 
L 370.333275 93.315138 
L 371.25848 94.062623 
L 371.721083 92.45495 
L 372.183686 92.809002 
L 372.646288 93.827145 
L 373.108891 93.391836 
L 373.571494 94.080828 
L 374.034096 93.995207 
L 374.496699 94.282448 
L 374.959302 94.327907 
L 375.884507 92.824285 
L 376.34711 94.387691 
L 376.809712 93.403292 
L 377.272315 94.04908 
L 377.734917 93.562681 
L 378.19752 94.245874 
L 378.660123 93.978853 
L 379.122725 92.158114 
L 379.585328 94.28967 
L 380.510533 94.334364 
L 380.973136 93.937853 
L 381.435739 92.432306 
L 381.898341 94.334997 
L 382.360944 94.446658 
L 382.823547 94.18429 
L 383.286149 94.352156 
L 383.748752 94.255253 
L 384.211355 93.956499 
L 384.673957 92.657465 
L 385.13656 95.042258 
L 385.599163 94.973988 
L 386.061765 93.038765 
L 386.524368 94.58096 
L 386.986971 95.085737 
L 387.449573 93.507357 
L 387.912176 93.988931 
L 388.374779 92.056305 
L 388.837381 94.3716 
L 389.299984 89.67587 
L 389.762587 92.65065 
L 390.687792 92.162924 
L 391.150395 94.437687 
L 391.612997 93.699921 
L 392.0756 94.620474 
L 392.538203 94.574595 
L 393.000805 94.32105 
L 393.463408 94.672836 
L 393.926011 95.230057 
L 394.388613 93.78506 
L 394.851216 95.492295 
L 395.313818 95.185664 
L 395.776421 92.314644 
L 396.239024 95.536657 
L 397.164229 95.223751 
L 397.626832 94.580354 
L 398.089434 95.154139 
L 398.552037 94.728643 
L 399.01464 94.668093 
L 399.477242 95.16846 
L 399.939845 94.052657 
L 400.402448 94.473099 
L 400.86505 94.247464 
L 401.327653 95.571125 
L 401.790256 94.452843 
L 402.252858 95.569648 
L 402.715461 94.520489 
L 403.178064 94.061857 
L 403.640666 95.726745 
L 404.103269 95.377992 
L 404.565872 94.370934 
L 405.028474 95.378541 
L 405.491077 96.039953 
L 405.95368 95.407859 
L 406.416282 95.743665 
L 406.878885 95.307117 
L 407.341488 95.676255 
L 407.341488 95.676255 
" style="fill:none;stroke:#1f77b4;stroke-linecap:square;stroke-width:1.5;"/>
   </g>
   <g id="line2d_35">
    <path clip-path="url(#p5b8a41436c)" d="M 259.77124 44.101565 
L 260.233842 53.771558 
L 260.696445 54.096101 
L 261.159048 55.850709 
L 262.546856 58.317103 
L 263.009458 58.349581 
L 263.472061 57.454169 
L 263.934664 57.415201 
L 264.397266 58.186269 
L 264.859869 58.569869 
L 265.322472 59.774711 
L 265.785074 59.88475 
L 266.247677 60.552262 
L 266.71028 59.271753 
L 267.172882 61.78884 
L 267.635485 62.630864 
L 268.098088 62.268487 
L 269.023293 64.241965 
L 269.485895 64.233003 
L 269.948498 63.934225 
L 270.411101 68.368404 
L 270.873703 66.440606 
L 271.336306 67.619188 
L 271.798909 65.232507 
L 272.261511 67.08146 
L 272.724114 69.971828 
L 273.186717 70.970072 
L 273.649319 72.380914 
L 274.111922 73.391558 
L 274.574525 72.720385 
L 275.037127 73.007209 
L 275.962333 74.724279 
L 276.424935 75.272525 
L 276.887538 74.785833 
L 277.350141 75.346479 
L 277.812743 74.42965 
L 278.275346 75.333301 
L 278.737949 75.190217 
L 279.200551 75.831252 
L 280.588359 76.729421 
L 281.050962 75.048135 
L 281.513565 76.424141 
L 281.976167 77.273602 
L 282.43877 76.32643 
L 282.901373 76.713372 
L 283.363975 78.310228 
L 283.826578 78.605544 
L 284.289181 78.132592 
L 284.751783 79.043275 
L 285.214386 79.389923 
L 285.676989 79.126583 
L 286.602194 80.187395 
L 287.064796 79.897567 
L 287.990002 80.443593 
L 288.452604 80.227508 
L 288.915207 80.220753 
L 289.37781 79.53844 
L 289.840412 79.7106 
L 290.303015 80.213745 
L 290.765618 81.235335 
L 291.22822 81.535845 
L 291.690823 80.890376 
L 292.153426 82.006982 
L 293.541234 82.105766 
L 294.003836 82.550867 
L 294.466439 81.86429 
L 294.929042 81.609226 
L 295.391644 82.439109 
L 295.854247 80.826983 
L 296.779452 83.316651 
L 297.242055 82.523522 
L 297.704658 83.567289 
L 298.16726 83.332387 
L 298.629863 82.048802 
L 299.092466 83.512809 
L 299.555068 84.178223 
L 300.017671 83.599972 
L 300.942876 84.636263 
L 301.405479 84.875631 
L 302.330684 81.794323 
L 302.793287 83.397897 
L 303.25589 83.986184 
L 303.718492 84.949748 
L 304.181095 85.527399 
L 304.643698 85.642592 
L 305.1063 85.017424 
L 305.568903 85.167812 
L 306.031505 85.654177 
L 306.494108 84.865176 
L 306.956711 84.878173 
L 307.419313 85.911169 
L 307.881916 85.520364 
L 308.344519 86.429165 
L 308.807121 86.128876 
L 309.269724 86.747889 
L 309.732327 86.805284 
L 310.194929 85.669943 
L 310.657532 85.52704 
L 311.582737 86.202067 
L 312.04534 86.981193 
L 312.507943 86.021729 
L 312.970545 86.93778 
L 313.433148 86.412248 
L 313.895751 87.384802 
L 314.358353 87.194814 
L 314.820956 86.50432 
L 315.283559 87.046405 
L 315.746161 86.85224 
L 316.208764 87.700832 
L 316.671367 86.729711 
L 317.133969 87.060816 
L 317.596572 87.640578 
L 318.059175 87.608046 
L 318.521777 87.752794 
L 318.98438 88.243122 
L 319.909585 88.392756 
L 320.372188 88.134365 
L 320.834791 88.068797 
L 321.297393 88.853537 
L 321.759996 88.860446 
L 322.685201 88.054717 
L 323.147804 88.664955 
L 324.073009 88.45314 
L 324.535612 87.65982 
L 324.998214 88.975675 
L 325.460817 89.189561 
L 325.92342 89.048833 
L 326.848625 87.54176 
L 327.77383 88.828023 
L 328.236433 89.171552 
L 328.699036 88.957651 
L 329.161638 88.496224 
L 329.624241 89.367773 
L 330.086844 89.729131 
L 330.549446 89.792465 
L 331.012049 89.597748 
L 331.474652 90.059064 
L 332.399857 89.609982 
L 332.86246 89.072164 
L 333.325062 89.734571 
L 334.250268 89.690957 
L 334.71287 90.38968 
L 335.175473 89.776259 
L 335.638076 89.837005 
L 336.100678 89.432458 
L 336.563281 88.559524 
L 337.025884 90.560556 
L 337.951089 90.514294 
L 338.413692 87.727264 
L 338.876294 90.223703 
L 340.264102 91.658606 
L 340.726705 91.061499 
L 341.65191 90.916015 
L 342.114513 91.286009 
L 342.577115 91.472931 
L 343.502321 90.536362 
L 343.964923 91.316195 
L 344.427526 91.1153 
L 344.890129 90.525484 
L 345.352731 91.405897 
L 345.815334 91.595731 
L 346.277937 91.579333 
L 347.203142 91.791916 
L 347.665745 91.540404 
L 348.128347 91.47135 
L 348.59095 92.196328 
L 349.053553 92.399259 
L 349.516155 92.188991 
L 349.978758 91.666869 
L 350.441361 91.331291 
L 350.903963 92.014976 
L 351.366566 92.14768 
L 351.829169 91.965771 
L 352.291771 91.655208 
L 352.754374 92.60753 
L 353.216977 91.37186 
L 353.679579 91.583765 
L 354.604785 92.664265 
L 355.067387 92.827882 
L 355.52999 92.4441 
L 355.992593 92.20602 
L 356.455195 92.658035 
L 356.917798 92.670423 
L 357.380401 92.329333 
L 357.843003 92.317624 
L 358.305606 91.597812 
L 358.768209 93.035867 
L 360.156016 93.103036 
L 360.618619 92.642369 
L 361.081222 93.75516 
L 362.006427 92.802666 
L 362.46903 93.798729 
L 362.931632 92.176838 
L 363.394235 92.656485 
L 364.31944 92.698037 
L 364.782043 92.027612 
L 365.707248 93.462359 
L 366.169851 93.028376 
L 366.632454 93.01278 
L 367.095056 93.485748 
L 368.020262 93.593069 
L 368.482864 93.554066 
L 368.945467 92.988393 
L 369.40807 92.864515 
L 369.870672 92.094742 
L 370.333275 90.978582 
L 370.795878 94.064083 
L 372.646288 93.616814 
L 373.108891 93.623053 
L 373.571494 94.117383 
L 374.496699 94.631906 
L 374.959302 94.129497 
L 375.421904 94.116527 
L 375.884507 94.658081 
L 376.34711 94.406026 
L 376.809712 93.579207 
L 377.272315 94.080922 
L 377.734917 94.753114 
L 378.660123 94.615112 
L 379.122725 94.182828 
L 379.585328 93.237257 
L 380.047931 93.398902 
L 380.510533 93.687581 
L 380.973136 94.197109 
L 381.435739 93.219788 
L 381.898341 94.499929 
L 382.823547 95.191424 
L 383.286149 94.704874 
L 383.748752 95.017403 
L 385.13656 94.45601 
L 385.599163 95.008655 
L 386.061765 94.225902 
L 386.524368 94.019289 
L 386.986971 95.085863 
L 387.449573 93.829929 
L 387.912176 93.251657 
L 388.374779 94.285134 
L 388.837381 92.625147 
L 389.762587 92.082001 
L 390.225189 90.989815 
L 390.687792 93.048403 
L 391.150395 93.909395 
L 391.612997 94.460418 
L 392.538203 94.852077 
L 393.000805 94.462737 
L 393.926011 95.153904 
L 394.388613 94.661603 
L 394.851216 95.40604 
L 395.313818 95.451449 
L 395.776421 95.187473 
L 396.239024 94.667535 
L 396.701626 95.536362 
L 397.164229 95.368324 
L 397.626832 94.802175 
L 398.089434 95.573607 
L 398.552037 96.002526 
L 399.01464 95.230687 
L 399.477242 95.959726 
L 399.939845 95.950106 
L 400.402448 94.747943 
L 400.86505 93.957428 
L 401.790256 95.853321 
L 402.715461 95.883459 
L 403.178064 95.241639 
L 403.640666 95.883999 
L 404.103269 96.212248 
L 404.565872 96.243396 
L 405.028474 96.019941 
L 405.491077 95.947236 
L 405.95368 96.271803 
L 406.416282 96.213714 
L 406.878885 96.69287 
L 407.341488 96.45279 
L 407.341488 96.45279 
" style="fill:none;stroke:#ff7f0e;stroke-linecap:square;stroke-width:1.5;"/>
   </g>
   <g id="patch_15">
    <path d="M 252.392727 99.322435 
L 252.392727 41.472 
" style="fill:none;stroke:#000000;stroke-linecap:square;stroke-linejoin:miter;stroke-width:0.8;"/>
   </g>
   <g id="patch_16">
    <path d="M 414.72 99.322435 
L 414.72 41.472 
" style="fill:none;stroke:#000000;stroke-linecap:square;stroke-linejoin:miter;stroke-width:0.8;"/>
   </g>
   <g id="patch_17">
    <path d="M 252.392727 99.322435 
L 414.72 99.322435 
" style="fill:none;stroke:#000000;stroke-linecap:square;stroke-linejoin:miter;stroke-width:0.8;"/>
   </g>
   <g id="patch_18">
    <path d="M 252.392727 41.472 
L 414.72 41.472 
" style="fill:none;stroke:#000000;stroke-linecap:square;stroke-linejoin:miter;stroke-width:0.8;"/>
   </g>
   <g id="legend_3">
    <g id="patch_19">
     <path d="M 326.485625 78.82825 
L 407.72 78.82825 
Q 409.72 78.82825 409.72 76.82825 
L 409.72 48.472 
Q 409.72 46.472 407.72 46.472 
L 326.485625 46.472 
Q 324.485625 46.472 324.485625 48.472 
L 324.485625 76.82825 
Q 324.485625 78.82825 326.485625 78.82825 
z
" style="fill:#ffffff;opacity:0.8;stroke:#cccccc;stroke-linejoin:miter;"/>
    </g>
    <g id="line2d_36">
     <path d="M 328.485625 54.570437 
L 348.485625 54.570437 
" style="fill:none;stroke:#1f77b4;stroke-linecap:square;stroke-width:1.5;"/>
    </g>
    <g id="line2d_37"/>
    <g id="text_32">
     <!-- validation -->
     <g transform="translate(356.485625 58.070437)scale(0.1 -0.1)">
      <use xlink:href="#DejaVuSans-118"/>
      <use x="59.179688" xlink:href="#DejaVuSans-97"/>
      <use x="120.458984" xlink:href="#DejaVuSans-108"/>
      <use x="148.242188" xlink:href="#DejaVuSans-105"/>
      <use x="176.025391" xlink:href="#DejaVuSans-100"/>
      <use x="239.501953" xlink:href="#DejaVuSans-97"/>
      <use x="300.78125" xlink:href="#DejaVuSans-116"/>
      <use x="339.990234" xlink:href="#DejaVuSans-105"/>
      <use x="367.773438" xlink:href="#DejaVuSans-111"/>
      <use x="428.955078" xlink:href="#DejaVuSans-110"/>
     </g>
    </g>
    <g id="line2d_38">
     <path d="M 328.485625 69.248562 
L 348.485625 69.248562 
" style="fill:none;stroke:#ff7f0e;stroke-linecap:square;stroke-width:1.5;"/>
    </g>
    <g id="line2d_39"/>
    <g id="text_33">
     <!-- training -->
     <g transform="translate(356.485625 72.748562)scale(0.1 -0.1)">
      <use xlink:href="#DejaVuSans-116"/>
      <use x="39.208984" xlink:href="#DejaVuSans-114"/>
      <use x="80.322266" xlink:href="#DejaVuSans-97"/>
      <use x="141.601562" xlink:href="#DejaVuSans-105"/>
      <use x="169.384766" xlink:href="#DejaVuSans-110"/>
      <use x="232.763672" xlink:href="#DejaVuSans-105"/>
      <use x="260.546875" xlink:href="#DejaVuSans-110"/>
      <use x="323.925781" xlink:href="#DejaVuSans-103"/>
     </g>
    </g>
   </g>
  </g>
 </g>
 <defs>
  <clipPath id="pc0a982fcad">
   <rect height="57.850435" width="357.12" x="57.6" y="110.892522"/>
  </clipPath>
  <clipPath id="p9e39a3ebb7">
   <rect height="57.850435" width="162.327273" x="57.6" y="41.472"/>
  </clipPath>
  <clipPath id="p5b8a41436c">
   <rect height="57.850435" width="162.327273" x="252.392727" y="41.472"/>
  </clipPath>
 </defs>
</svg>
