<?xml version="1.0" encoding="utf-8" standalone="no"?>
<!DOCTYPE svg PUBLIC "-//W3C//DTD SVG 1.1//EN"
  "http://www.w3.org/Graphics/SVG/1.1/DTD/svg11.dtd">
<!-- Created with matplotlib (https://matplotlib.org/) -->
<svg height="345.6pt" version="1.1" viewBox="0 0 460.8 345.6" width="460.8pt" xmlns="http://www.w3.org/2000/svg" xmlns:xlink="http://www.w3.org/1999/xlink">
 <defs>
  <style type="text/css">
*{stroke-linecap:butt;stroke-linejoin:round;}
  </style>
 </defs>
 <g id="figure_1">
  <g id="patch_1">
   <path d="M 0 345.6 
L 460.8 345.6 
L 460.8 0 
L 0 0 
z
" style="fill:#ffffff;"/>
  </g>
  <g id="axes_1">
   <g id="patch_2">
    <path d="M 57.6 307.584 
L 414.72 307.584 
L 414.72 41.472 
L 57.6 41.472 
z
" style="fill:#ffffff;"/>
   </g>
   <g id="matplotlib.axis_1">
    <g id="xtick_1">
     <g id="line2d_1">
      <defs>
       <path d="M 0 0 
L 0 3.5 
" id="mad0e09d86e" style="stroke:#000000;stroke-width:0.8;"/>
      </defs>
      <g>
       <use style="stroke:#000000;stroke-width:0.8;" x="73.832727" xlink:href="#mad0e09d86e" y="307.584"/>
      </g>
     </g>
     <g id="text_1">
      <!-- 0 -->
      <defs>
       <path d="M 31.78125 66.40625 
Q 24.171875 66.40625 20.328125 58.90625 
Q 16.5 51.421875 16.5 36.375 
Q 16.5 21.390625 20.328125 13.890625 
Q 24.171875 6.390625 31.78125 6.390625 
Q 39.453125 6.390625 43.28125 13.890625 
Q 47.125 21.390625 47.125 36.375 
Q 47.125 51.421875 43.28125 58.90625 
Q 39.453125 66.40625 31.78125 66.40625 
z
M 31.78125 74.21875 
Q 44.046875 74.21875 50.515625 64.515625 
Q 56.984375 54.828125 56.984375 36.375 
Q 56.984375 17.96875 50.515625 8.265625 
Q 44.046875 -1.421875 31.78125 -1.421875 
Q 19.53125 -1.421875 13.0625 8.265625 
Q 6.59375 17.96875 6.59375 36.375 
Q 6.59375 54.828125 13.0625 64.515625 
Q 19.53125 74.21875 31.78125 74.21875 
z
" id="DejaVuSans-48"/>
      </defs>
      <g transform="translate(70.651477 322.182437)scale(0.1 -0.1)">
       <use xlink:href="#DejaVuSans-48"/>
      </g>
     </g>
    </g>
    <g id="xtick_2">
     <g id="line2d_2">
      <g>
       <use style="stroke:#000000;stroke-width:0.8;" x="124.71902" xlink:href="#mad0e09d86e" y="307.584"/>
      </g>
     </g>
     <g id="text_2">
      <!-- 50 -->
      <defs>
       <path d="M 10.796875 72.90625 
L 49.515625 72.90625 
L 49.515625 64.59375 
L 19.828125 64.59375 
L 19.828125 46.734375 
Q 21.96875 47.46875 24.109375 47.828125 
Q 26.265625 48.1875 28.421875 48.1875 
Q 40.625 48.1875 47.75 41.5 
Q 54.890625 34.8125 54.890625 23.390625 
Q 54.890625 11.625 47.5625 5.09375 
Q 40.234375 -1.421875 26.90625 -1.421875 
Q 22.3125 -1.421875 17.546875 -0.640625 
Q 12.796875 0.140625 7.71875 1.703125 
L 7.71875 11.625 
Q 12.109375 9.234375 16.796875 8.0625 
Q 21.484375 6.890625 26.703125 6.890625 
Q 35.15625 6.890625 40.078125 11.328125 
Q 45.015625 15.765625 45.015625 23.390625 
Q 45.015625 31 40.078125 35.4375 
Q 35.15625 39.890625 26.703125 39.890625 
Q 22.75 39.890625 18.8125 39.015625 
Q 14.890625 38.140625 10.796875 36.28125 
z
" id="DejaVuSans-53"/>
      </defs>
      <g transform="translate(118.35652 322.182437)scale(0.1 -0.1)">
       <use xlink:href="#DejaVuSans-53"/>
       <use x="63.623047" xlink:href="#DejaVuSans-48"/>
      </g>
     </g>
    </g>
    <g id="xtick_3">
     <g id="line2d_3">
      <g>
       <use style="stroke:#000000;stroke-width:0.8;" x="175.605312" xlink:href="#mad0e09d86e" y="307.584"/>
      </g>
     </g>
     <g id="text_3">
      <!-- 100 -->
      <defs>
       <path d="M 12.40625 8.296875 
L 28.515625 8.296875 
L 28.515625 63.921875 
L 10.984375 60.40625 
L 10.984375 69.390625 
L 28.421875 72.90625 
L 38.28125 72.90625 
L 38.28125 8.296875 
L 54.390625 8.296875 
L 54.390625 0 
L 12.40625 0 
z
" id="DejaVuSans-49"/>
      </defs>
      <g transform="translate(166.061562 322.182437)scale(0.1 -0.1)">
       <use xlink:href="#DejaVuSans-49"/>
       <use x="63.623047" xlink:href="#DejaVuSans-48"/>
       <use x="127.246094" xlink:href="#DejaVuSans-48"/>
      </g>
     </g>
    </g>
    <g id="xtick_4">
     <g id="line2d_4">
      <g>
       <use style="stroke:#000000;stroke-width:0.8;" x="226.491604" xlink:href="#mad0e09d86e" y="307.584"/>
      </g>
     </g>
     <g id="text_4">
      <!-- 150 -->
      <g transform="translate(216.947854 322.182437)scale(0.1 -0.1)">
       <use xlink:href="#DejaVuSans-49"/>
       <use x="63.623047" xlink:href="#DejaVuSans-53"/>
       <use x="127.246094" xlink:href="#DejaVuSans-48"/>
      </g>
     </g>
    </g>
    <g id="xtick_5">
     <g id="line2d_5">
      <g>
       <use style="stroke:#000000;stroke-width:0.8;" x="277.377897" xlink:href="#mad0e09d86e" y="307.584"/>
      </g>
     </g>
     <g id="text_5">
      <!-- 200 -->
      <defs>
       <path d="M 19.1875 8.296875 
L 53.609375 8.296875 
L 53.609375 0 
L 7.328125 0 
L 7.328125 8.296875 
Q 12.9375 14.109375 22.625 23.890625 
Q 32.328125 33.6875 34.8125 36.53125 
Q 39.546875 41.84375 41.421875 45.53125 
Q 43.3125 49.21875 43.3125 52.78125 
Q 43.3125 58.59375 39.234375 62.25 
Q 35.15625 65.921875 28.609375 65.921875 
Q 23.96875 65.921875 18.8125 64.3125 
Q 13.671875 62.703125 7.8125 59.421875 
L 7.8125 69.390625 
Q 13.765625 71.78125 18.9375 73 
Q 24.125 74.21875 28.421875 74.21875 
Q 39.75 74.21875 46.484375 68.546875 
Q 53.21875 62.890625 53.21875 53.421875 
Q 53.21875 48.921875 51.53125 44.890625 
Q 49.859375 40.875 45.40625 35.40625 
Q 44.1875 33.984375 37.640625 27.21875 
Q 31.109375 20.453125 19.1875 8.296875 
z
" id="DejaVuSans-50"/>
      </defs>
      <g transform="translate(267.834147 322.182437)scale(0.1 -0.1)">
       <use xlink:href="#DejaVuSans-50"/>
       <use x="63.623047" xlink:href="#DejaVuSans-48"/>
       <use x="127.246094" xlink:href="#DejaVuSans-48"/>
      </g>
     </g>
    </g>
    <g id="xtick_6">
     <g id="line2d_6">
      <g>
       <use style="stroke:#000000;stroke-width:0.8;" x="328.264189" xlink:href="#mad0e09d86e" y="307.584"/>
      </g>
     </g>
     <g id="text_6">
      <!-- 250 -->
      <g transform="translate(318.720439 322.182437)scale(0.1 -0.1)">
       <use xlink:href="#DejaVuSans-50"/>
       <use x="63.623047" xlink:href="#DejaVuSans-53"/>
       <use x="127.246094" xlink:href="#DejaVuSans-48"/>
      </g>
     </g>
    </g>
    <g id="xtick_7">
     <g id="line2d_7">
      <g>
       <use style="stroke:#000000;stroke-width:0.8;" x="379.150482" xlink:href="#mad0e09d86e" y="307.584"/>
      </g>
     </g>
     <g id="text_7">
      <!-- 300 -->
      <defs>
       <path d="M 40.578125 39.3125 
Q 47.65625 37.796875 51.625 33 
Q 55.609375 28.21875 55.609375 21.1875 
Q 55.609375 10.40625 48.1875 4.484375 
Q 40.765625 -1.421875 27.09375 -1.421875 
Q 22.515625 -1.421875 17.65625 -0.515625 
Q 12.796875 0.390625 7.625 2.203125 
L 7.625 11.71875 
Q 11.71875 9.328125 16.59375 8.109375 
Q 21.484375 6.890625 26.8125 6.890625 
Q 36.078125 6.890625 40.9375 10.546875 
Q 45.796875 14.203125 45.796875 21.1875 
Q 45.796875 27.640625 41.28125 31.265625 
Q 36.765625 34.90625 28.71875 34.90625 
L 20.21875 34.90625 
L 20.21875 43.015625 
L 29.109375 43.015625 
Q 36.375 43.015625 40.234375 45.921875 
Q 44.09375 48.828125 44.09375 54.296875 
Q 44.09375 59.90625 40.109375 62.90625 
Q 36.140625 65.921875 28.71875 65.921875 
Q 24.65625 65.921875 20.015625 65.03125 
Q 15.375 64.15625 9.8125 62.3125 
L 9.8125 71.09375 
Q 15.4375 72.65625 20.34375 73.4375 
Q 25.25 74.21875 29.59375 74.21875 
Q 40.828125 74.21875 47.359375 69.109375 
Q 53.90625 64.015625 53.90625 55.328125 
Q 53.90625 49.265625 50.4375 45.09375 
Q 46.96875 40.921875 40.578125 39.3125 
z
" id="DejaVuSans-51"/>
      </defs>
      <g transform="translate(369.606732 322.182437)scale(0.1 -0.1)">
       <use xlink:href="#DejaVuSans-51"/>
       <use x="63.623047" xlink:href="#DejaVuSans-48"/>
       <use x="127.246094" xlink:href="#DejaVuSans-48"/>
      </g>
     </g>
    </g>
    <g id="text_8">
     <!-- # epochs -->
     <defs>
      <path d="M 51.125 44 
L 36.921875 44 
L 32.8125 27.6875 
L 47.125 27.6875 
z
M 43.796875 71.78125 
L 38.71875 51.515625 
L 52.984375 51.515625 
L 58.109375 71.78125 
L 65.921875 71.78125 
L 60.890625 51.515625 
L 76.125 51.515625 
L 76.125 44 
L 58.984375 44 
L 54.984375 27.6875 
L 70.515625 27.6875 
L 70.515625 20.21875 
L 53.078125 20.21875 
L 48 0 
L 40.1875 0 
L 45.21875 20.21875 
L 30.90625 20.21875 
L 25.875 0 
L 18.015625 0 
L 23.09375 20.21875 
L 7.71875 20.21875 
L 7.71875 27.6875 
L 24.90625 27.6875 
L 29 44 
L 13.28125 44 
L 13.28125 51.515625 
L 30.90625 51.515625 
L 35.890625 71.78125 
z
" id="DejaVuSans-35"/>
      <path id="DejaVuSans-32"/>
      <path d="M 56.203125 29.59375 
L 56.203125 25.203125 
L 14.890625 25.203125 
Q 15.484375 15.921875 20.484375 11.0625 
Q 25.484375 6.203125 34.421875 6.203125 
Q 39.59375 6.203125 44.453125 7.46875 
Q 49.3125 8.734375 54.109375 11.28125 
L 54.109375 2.78125 
Q 49.265625 0.734375 44.1875 -0.34375 
Q 39.109375 -1.421875 33.890625 -1.421875 
Q 20.796875 -1.421875 13.15625 6.1875 
Q 5.515625 13.8125 5.515625 26.8125 
Q 5.515625 40.234375 12.765625 48.109375 
Q 20.015625 56 32.328125 56 
Q 43.359375 56 49.78125 48.890625 
Q 56.203125 41.796875 56.203125 29.59375 
z
M 47.21875 32.234375 
Q 47.125 39.59375 43.09375 43.984375 
Q 39.0625 48.390625 32.421875 48.390625 
Q 24.90625 48.390625 20.390625 44.140625 
Q 15.875 39.890625 15.1875 32.171875 
z
" id="DejaVuSans-101"/>
      <path d="M 18.109375 8.203125 
L 18.109375 -20.796875 
L 9.078125 -20.796875 
L 9.078125 54.6875 
L 18.109375 54.6875 
L 18.109375 46.390625 
Q 20.953125 51.265625 25.265625 53.625 
Q 29.59375 56 35.59375 56 
Q 45.5625 56 51.78125 48.09375 
Q 58.015625 40.1875 58.015625 27.296875 
Q 58.015625 14.40625 51.78125 6.484375 
Q 45.5625 -1.421875 35.59375 -1.421875 
Q 29.59375 -1.421875 25.265625 0.953125 
Q 20.953125 3.328125 18.109375 8.203125 
z
M 48.6875 27.296875 
Q 48.6875 37.203125 44.609375 42.84375 
Q 40.53125 48.484375 33.40625 48.484375 
Q 26.265625 48.484375 22.1875 42.84375 
Q 18.109375 37.203125 18.109375 27.296875 
Q 18.109375 17.390625 22.1875 11.75 
Q 26.265625 6.109375 33.40625 6.109375 
Q 40.53125 6.109375 44.609375 11.75 
Q 48.6875 17.390625 48.6875 27.296875 
z
" id="DejaVuSans-112"/>
      <path d="M 30.609375 48.390625 
Q 23.390625 48.390625 19.1875 42.75 
Q 14.984375 37.109375 14.984375 27.296875 
Q 14.984375 17.484375 19.15625 11.84375 
Q 23.34375 6.203125 30.609375 6.203125 
Q 37.796875 6.203125 41.984375 11.859375 
Q 46.1875 17.53125 46.1875 27.296875 
Q 46.1875 37.015625 41.984375 42.703125 
Q 37.796875 48.390625 30.609375 48.390625 
z
M 30.609375 56 
Q 42.328125 56 49.015625 48.375 
Q 55.71875 40.765625 55.71875 27.296875 
Q 55.71875 13.875 49.015625 6.21875 
Q 42.328125 -1.421875 30.609375 -1.421875 
Q 18.84375 -1.421875 12.171875 6.21875 
Q 5.515625 13.875 5.515625 27.296875 
Q 5.515625 40.765625 12.171875 48.375 
Q 18.84375 56 30.609375 56 
z
" id="DejaVuSans-111"/>
      <path d="M 48.78125 52.59375 
L 48.78125 44.1875 
Q 44.96875 46.296875 41.140625 47.34375 
Q 37.3125 48.390625 33.40625 48.390625 
Q 24.65625 48.390625 19.8125 42.84375 
Q 14.984375 37.3125 14.984375 27.296875 
Q 14.984375 17.28125 19.8125 11.734375 
Q 24.65625 6.203125 33.40625 6.203125 
Q 37.3125 6.203125 41.140625 7.25 
Q 44.96875 8.296875 48.78125 10.40625 
L 48.78125 2.09375 
Q 45.015625 0.34375 40.984375 -0.53125 
Q 36.96875 -1.421875 32.421875 -1.421875 
Q 20.0625 -1.421875 12.78125 6.34375 
Q 5.515625 14.109375 5.515625 27.296875 
Q 5.515625 40.671875 12.859375 48.328125 
Q 20.21875 56 33.015625 56 
Q 37.15625 56 41.109375 55.140625 
Q 45.0625 54.296875 48.78125 52.59375 
z
" id="DejaVuSans-99"/>
      <path d="M 54.890625 33.015625 
L 54.890625 0 
L 45.90625 0 
L 45.90625 32.71875 
Q 45.90625 40.484375 42.875 44.328125 
Q 39.84375 48.1875 33.796875 48.1875 
Q 26.515625 48.1875 22.3125 43.546875 
Q 18.109375 38.921875 18.109375 30.90625 
L 18.109375 0 
L 9.078125 0 
L 9.078125 75.984375 
L 18.109375 75.984375 
L 18.109375 46.1875 
Q 21.34375 51.125 25.703125 53.5625 
Q 30.078125 56 35.796875 56 
Q 45.21875 56 50.046875 50.171875 
Q 54.890625 44.34375 54.890625 33.015625 
z
" id="DejaVuSans-104"/>
      <path d="M 44.28125 53.078125 
L 44.28125 44.578125 
Q 40.484375 46.53125 36.375 47.5 
Q 32.28125 48.484375 27.875 48.484375 
Q 21.1875 48.484375 17.84375 46.4375 
Q 14.5 44.390625 14.5 40.28125 
Q 14.5 37.15625 16.890625 35.375 
Q 19.28125 33.59375 26.515625 31.984375 
L 29.59375 31.296875 
Q 39.15625 29.25 43.1875 25.515625 
Q 47.21875 21.78125 47.21875 15.09375 
Q 47.21875 7.46875 41.1875 3.015625 
Q 35.15625 -1.421875 24.609375 -1.421875 
Q 20.21875 -1.421875 15.453125 -0.5625 
Q 10.6875 0.296875 5.421875 2 
L 5.421875 11.28125 
Q 10.40625 8.6875 15.234375 7.390625 
Q 20.0625 6.109375 24.8125 6.109375 
Q 31.15625 6.109375 34.5625 8.28125 
Q 37.984375 10.453125 37.984375 14.40625 
Q 37.984375 18.0625 35.515625 20.015625 
Q 33.0625 21.96875 24.703125 23.78125 
L 21.578125 24.515625 
Q 13.234375 26.265625 9.515625 29.90625 
Q 5.8125 33.546875 5.8125 39.890625 
Q 5.8125 47.609375 11.28125 51.796875 
Q 16.75 56 26.8125 56 
Q 31.78125 56 36.171875 55.265625 
Q 40.578125 54.546875 44.28125 53.078125 
z
" id="DejaVuSans-115"/>
     </defs>
     <g transform="translate(212.548281 335.860562)scale(0.1 -0.1)">
      <use xlink:href="#DejaVuSans-35"/>
      <use x="83.789062" xlink:href="#DejaVuSans-32"/>
      <use x="115.576172" xlink:href="#DejaVuSans-101"/>
      <use x="177.099609" xlink:href="#DejaVuSans-112"/>
      <use x="240.576172" xlink:href="#DejaVuSans-111"/>
      <use x="301.757812" xlink:href="#DejaVuSans-99"/>
      <use x="356.738281" xlink:href="#DejaVuSans-104"/>
      <use x="420.117188" xlink:href="#DejaVuSans-115"/>
     </g>
    </g>
   </g>
   <g id="matplotlib.axis_2">
    <g id="ytick_1">
     <g id="line2d_8">
      <defs>
       <path d="M 0 0 
L -3.5 0 
" id="m8f53dfcc86" style="stroke:#000000;stroke-width:0.8;"/>
      </defs>
      <g>
       <use style="stroke:#000000;stroke-width:0.8;" x="57.6" xlink:href="#m8f53dfcc86" y="282.682254"/>
      </g>
     </g>
     <g id="text_9">
      <!-- 0.050 -->
      <defs>
       <path d="M 10.6875 12.40625 
L 21 12.40625 
L 21 0 
L 10.6875 0 
z
" id="DejaVuSans-46"/>
      </defs>
      <g transform="translate(21.971875 286.481473)scale(0.1 -0.1)">
       <use xlink:href="#DejaVuSans-48"/>
       <use x="63.623047" xlink:href="#DejaVuSans-46"/>
       <use x="95.410156" xlink:href="#DejaVuSans-48"/>
       <use x="159.033203" xlink:href="#DejaVuSans-53"/>
       <use x="222.65625" xlink:href="#DejaVuSans-48"/>
      </g>
     </g>
    </g>
    <g id="ytick_2">
     <g id="line2d_9">
      <g>
       <use style="stroke:#000000;stroke-width:0.8;" x="57.6" xlink:href="#m8f53dfcc86" y="248.615989"/>
      </g>
     </g>
     <g id="text_10">
      <!-- 0.075 -->
      <defs>
       <path d="M 8.203125 72.90625 
L 55.078125 72.90625 
L 55.078125 68.703125 
L 28.609375 0 
L 18.3125 0 
L 43.21875 64.59375 
L 8.203125 64.59375 
z
" id="DejaVuSans-55"/>
      </defs>
      <g transform="translate(21.971875 252.415208)scale(0.1 -0.1)">
       <use xlink:href="#DejaVuSans-48"/>
       <use x="63.623047" xlink:href="#DejaVuSans-46"/>
       <use x="95.410156" xlink:href="#DejaVuSans-48"/>
       <use x="159.033203" xlink:href="#DejaVuSans-55"/>
       <use x="222.65625" xlink:href="#DejaVuSans-53"/>
      </g>
     </g>
    </g>
    <g id="ytick_3">
     <g id="line2d_10">
      <g>
       <use style="stroke:#000000;stroke-width:0.8;" x="57.6" xlink:href="#m8f53dfcc86" y="214.549724"/>
      </g>
     </g>
     <g id="text_11">
      <!-- 0.100 -->
      <g transform="translate(21.971875 218.348943)scale(0.1 -0.1)">
       <use xlink:href="#DejaVuSans-48"/>
       <use x="63.623047" xlink:href="#DejaVuSans-46"/>
       <use x="95.410156" xlink:href="#DejaVuSans-49"/>
       <use x="159.033203" xlink:href="#DejaVuSans-48"/>
       <use x="222.65625" xlink:href="#DejaVuSans-48"/>
      </g>
     </g>
    </g>
    <g id="ytick_4">
     <g id="line2d_11">
      <g>
       <use style="stroke:#000000;stroke-width:0.8;" x="57.6" xlink:href="#m8f53dfcc86" y="180.483459"/>
      </g>
     </g>
     <g id="text_12">
      <!-- 0.125 -->
      <g transform="translate(21.971875 184.282677)scale(0.1 -0.1)">
       <use xlink:href="#DejaVuSans-48"/>
       <use x="63.623047" xlink:href="#DejaVuSans-46"/>
       <use x="95.410156" xlink:href="#DejaVuSans-49"/>
       <use x="159.033203" xlink:href="#DejaVuSans-50"/>
       <use x="222.65625" xlink:href="#DejaVuSans-53"/>
      </g>
     </g>
    </g>
    <g id="ytick_5">
     <g id="line2d_12">
      <g>
       <use style="stroke:#000000;stroke-width:0.8;" x="57.6" xlink:href="#m8f53dfcc86" y="146.417193"/>
      </g>
     </g>
     <g id="text_13">
      <!-- 0.150 -->
      <g transform="translate(21.971875 150.216412)scale(0.1 -0.1)">
       <use xlink:href="#DejaVuSans-48"/>
       <use x="63.623047" xlink:href="#DejaVuSans-46"/>
       <use x="95.410156" xlink:href="#DejaVuSans-49"/>
       <use x="159.033203" xlink:href="#DejaVuSans-53"/>
       <use x="222.65625" xlink:href="#DejaVuSans-48"/>
      </g>
     </g>
    </g>
    <g id="ytick_6">
     <g id="line2d_13">
      <g>
       <use style="stroke:#000000;stroke-width:0.8;" x="57.6" xlink:href="#m8f53dfcc86" y="112.350928"/>
      </g>
     </g>
     <g id="text_14">
      <!-- 0.175 -->
      <g transform="translate(21.971875 116.150147)scale(0.1 -0.1)">
       <use xlink:href="#DejaVuSans-48"/>
       <use x="63.623047" xlink:href="#DejaVuSans-46"/>
       <use x="95.410156" xlink:href="#DejaVuSans-49"/>
       <use x="159.033203" xlink:href="#DejaVuSans-55"/>
       <use x="222.65625" xlink:href="#DejaVuSans-53"/>
      </g>
     </g>
    </g>
    <g id="ytick_7">
     <g id="line2d_14">
      <g>
       <use style="stroke:#000000;stroke-width:0.8;" x="57.6" xlink:href="#m8f53dfcc86" y="78.284663"/>
      </g>
     </g>
     <g id="text_15">
      <!-- 0.200 -->
      <g transform="translate(21.971875 82.083882)scale(0.1 -0.1)">
       <use xlink:href="#DejaVuSans-48"/>
       <use x="63.623047" xlink:href="#DejaVuSans-46"/>
       <use x="95.410156" xlink:href="#DejaVuSans-50"/>
       <use x="159.033203" xlink:href="#DejaVuSans-48"/>
       <use x="222.65625" xlink:href="#DejaVuSans-48"/>
      </g>
     </g>
    </g>
    <g id="ytick_8">
     <g id="line2d_15">
      <g>
       <use style="stroke:#000000;stroke-width:0.8;" x="57.6" xlink:href="#m8f53dfcc86" y="44.218398"/>
      </g>
     </g>
     <g id="text_16">
      <!-- 0.225 -->
      <g transform="translate(21.971875 48.017616)scale(0.1 -0.1)">
       <use xlink:href="#DejaVuSans-48"/>
       <use x="63.623047" xlink:href="#DejaVuSans-46"/>
       <use x="95.410156" xlink:href="#DejaVuSans-50"/>
       <use x="159.033203" xlink:href="#DejaVuSans-50"/>
       <use x="222.65625" xlink:href="#DejaVuSans-53"/>
      </g>
     </g>
    </g>
    <g id="text_17">
     <!-- loss -->
     <defs>
      <path d="M 9.421875 75.984375 
L 18.40625 75.984375 
L 18.40625 0 
L 9.421875 0 
z
" id="DejaVuSans-108"/>
     </defs>
     <g transform="translate(15.892188 184.185812)rotate(-90)scale(0.1 -0.1)">
      <use xlink:href="#DejaVuSans-108"/>
      <use x="27.783203" xlink:href="#DejaVuSans-111"/>
      <use x="88.964844" xlink:href="#DejaVuSans-115"/>
      <use x="141.064453" xlink:href="#DejaVuSans-115"/>
     </g>
    </g>
   </g>
   <g id="line2d_16">
    <path clip-path="url(#pa1fe6502f8)" d="M 73.832727 109.003782 
L 74.850453 120.837134 
L 75.868179 124.447621 
L 76.885905 139.105632 
L 77.903631 136.905394 
L 78.921357 140.826264 
L 79.939082 141.156241 
L 80.956808 137.250926 
L 81.974534 155.4287 
L 82.99226 146.816627 
L 84.009986 147.524583 
L 85.027712 143.118362 
L 86.045437 157.560469 
L 87.063163 139.057509 
L 88.080889 164.225732 
L 89.098615 177.50911 
L 90.116341 176.032484 
L 91.134067 177.838194 
L 92.151793 184.294518 
L 93.169518 163.062333 
L 94.187244 199.835699 
L 96.222696 206.708856 
L 98.258148 188.460826 
L 99.275873 196.54652 
L 100.293599 199.860126 
L 101.311325 200.606561 
L 102.329051 192.395564 
L 103.346777 221.897317 
L 104.364503 216.569133 
L 105.382229 226.292127 
L 106.399954 223.14882 
L 107.41768 214.626709 
L 108.435406 226.16522 
L 109.453132 224.545068 
L 110.470858 227.75122 
L 111.488584 231.580178 
L 112.506309 230.195656 
L 113.524035 231.386803 
L 114.541761 228.319975 
L 115.559487 232.99131 
L 116.577213 230.755396 
L 117.594939 191.905551 
L 118.612665 229.500177 
L 119.63039 241.047765 
L 120.648116 239.252857 
L 122.683568 245.01222 
L 123.701294 238.684336 
L 124.71902 246.90443 
L 125.736746 245.625128 
L 126.754471 241.969108 
L 127.772197 246.154837 
L 128.789923 248.219244 
L 129.807649 249.653178 
L 130.825375 239.660512 
L 131.843101 211.871401 
L 132.860826 241.541534 
L 133.878552 244.83119 
L 134.896278 250.203548 
L 135.914004 243.257709 
L 136.93173 249.607654 
L 137.949456 254.622876 
L 138.967182 251.672082 
L 139.984907 255.52962 
L 141.002633 255.780763 
L 142.020359 257.603042 
L 143.038085 248.881078 
L 144.055811 252.069107 
L 145.073537 256.826525 
L 146.091262 257.412337 
L 147.108988 254.619079 
L 148.126714 258.929938 
L 149.14444 260.551471 
L 150.162166 261.54106 
L 151.179892 254.053684 
L 152.197618 254.961088 
L 153.215343 260.658682 
L 154.233069 258.351701 
L 155.250795 262.636518 
L 156.268521 262.76839 
L 158.303973 253.166068 
L 159.321698 264.410075 
L 160.339424 263.056427 
L 161.35715 264.639827 
L 162.374876 259.716293 
L 163.392602 257.837982 
L 164.410328 261.64694 
L 165.428054 256.024597 
L 166.445779 267.206912 
L 167.463505 263.884448 
L 168.481231 258.048536 
L 169.498957 260.672226 
L 170.516683 264.652569 
L 171.534409 269.196672 
L 172.552135 268.335742 
L 173.56986 260.270469 
L 174.587586 269.435095 
L 175.605312 254.50866 
L 176.623038 269.868953 
L 177.640764 252.638837 
L 178.65849 262.344674 
L 179.676215 252.306676 
L 180.693941 271.017231 
L 181.711667 265.612085 
L 182.729393 247.453408 
L 183.747119 251.861741 
L 184.764845 260.206397 
L 185.782571 269.804134 
L 186.800296 270.729269 
L 187.818022 270.849414 
L 188.835748 267.07831 
L 189.853474 270.843094 
L 190.8712 271.751554 
L 191.888926 266.017608 
L 192.906651 267.708909 
L 193.924377 268.493832 
L 194.942103 267.306331 
L 195.959829 271.025784 
L 196.977555 266.672518 
L 197.995281 263.422386 
L 199.013007 263.879971 
L 200.030732 266.16448 
L 201.048458 262.551582 
L 202.066184 269.451232 
L 203.08391 268.693086 
L 204.101636 274.282307 
L 205.119362 274.169162 
L 206.137087 269.488538 
L 207.154813 273.815422 
L 208.172539 272.808407 
L 209.190265 275.213853 
L 210.207991 272.41789 
L 211.225717 273.247819 
L 212.243443 276.084824 
L 213.261168 274.875383 
L 214.278894 274.748953 
L 215.29662 275.461433 
L 216.314346 269.878826 
L 217.332072 257.967742 
L 218.349798 276.598111 
L 219.367524 278.38743 
L 220.385249 276.592862 
L 221.402975 274.561466 
L 222.420701 276.582578 
L 223.438427 278.992633 
L 224.456153 278.597826 
L 225.473879 278.767851 
L 226.491604 276.363689 
L 227.50933 278.534657 
L 228.527056 276.076103 
L 229.544782 259.968096 
L 230.562508 278.721093 
L 231.580234 278.77011 
L 232.59796 275.990654 
L 233.615685 276.020564 
L 234.633411 277.503581 
L 235.651137 278.777618 
L 236.668863 281.244293 
L 237.686589 279.922646 
L 238.704315 271.83617 
L 239.72204 270.88072 
L 240.739766 278.832086 
L 241.757492 279.08926 
L 242.775218 280.473934 
L 243.792944 277.879417 
L 244.81067 281.584571 
L 245.828396 274.960644 
L 247.863847 282.462958 
L 248.881573 282.952047 
L 249.899299 281.240628 
L 250.917025 281.490838 
L 251.934751 283.018363 
L 252.952476 281.842451 
L 253.970202 279.628268 
L 254.987928 282.542742 
L 256.005654 282.931777 
L 257.02338 280.861396 
L 258.041106 281.252776 
L 259.058832 282.277802 
L 260.076557 283.687258 
L 261.094283 281.469842 
L 262.112009 278.315251 
L 263.129735 281.740154 
L 264.147461 283.668131 
L 265.165187 281.725564 
L 266.182913 283.683207 
L 267.200638 278.344206 
L 268.218364 281.584429 
L 269.23609 284.232571 
L 270.253816 278.165704 
L 271.271542 281.46134 
L 272.289268 284.15693 
L 273.306993 268.651567 
L 274.324719 279.890808 
L 275.342445 284.44282 
L 276.360171 283.630211 
L 277.377897 284.524761 
L 278.395623 284.244374 
L 279.413349 286.58232 
L 280.431074 286.656525 
L 281.4488 286.523558 
L 282.466526 283.324148 
L 283.484252 284.129391 
L 284.501978 282.897213 
L 285.519704 286.980853 
L 286.537429 283.738067 
L 287.555155 286.609778 
L 288.572881 285.263485 
L 289.590607 287.21658 
L 290.608333 269.621389 
L 291.626059 282.540737 
L 292.643785 286.587255 
L 293.66151 280.425476 
L 294.679236 282.737859 
L 295.696962 284.083938 
L 296.714688 287.359076 
L 297.732414 281.988434 
L 298.75014 286.734228 
L 299.767865 287.233174 
L 300.785591 277.948957 
L 301.803317 281.20412 
L 302.821043 271.827393 
L 303.838769 287.451134 
L 304.856495 285.894917 
L 305.874221 279.286346 
L 306.891946 284.454323 
L 307.909672 276.349019 
L 308.927398 280.659888 
L 309.945124 282.186297 
L 310.96285 288.487074 
L 311.980576 282.714884 
L 312.998302 285.096664 
L 314.016027 283.566326 
L 316.051479 289.927759 
L 317.069205 287.180635 
L 318.086931 288.36835 
L 319.104657 284.778118 
L 320.122382 288.665606 
L 321.140108 289.143192 
L 322.157834 285.120959 
L 323.17556 290.169862 
L 324.193286 289.87253 
L 325.211012 286.286034 
L 326.228738 290.014355 
L 327.246463 289.746202 
L 328.264189 289.195157 
L 329.281915 290.920921 
L 331.317367 287.770274 
L 332.335093 290.692129 
L 333.352818 291.05262 
L 334.370544 289.092693 
L 335.38827 290.623056 
L 337.423722 291.154303 
L 338.441448 290.366902 
L 339.459174 291.433097 
L 340.476899 288.831793 
L 341.494625 291.611365 
L 342.512351 273.646723 
L 343.530077 276.786243 
L 344.547803 289.784314 
L 345.565529 287.175244 
L 346.583254 289.387406 
L 347.60098 291.987506 
L 348.618706 286.333832 
L 349.636432 291.640416 
L 350.654158 292.194085 
L 351.671884 292.112855 
L 352.68961 292.311748 
L 353.707335 291.815243 
L 354.725061 292.17813 
L 355.742787 292.882199 
L 356.760513 291.003106 
L 357.778239 290.615157 
L 358.795965 292.654711 
L 359.813691 287.419529 
L 361.849142 293.561393 
L 362.866868 291.956155 
L 363.884594 291.820913 
L 364.90232 289.701419 
L 365.920046 289.737232 
L 367.955497 289.316201 
L 368.973223 291.674245 
L 369.990949 288.466038 
L 371.008675 292.818563 
L 372.026401 293.343114 
L 373.044127 289.208437 
L 374.061852 289.818386 
L 375.079578 294.235182 
L 376.097304 290.897276 
L 377.11503 294.770708 
L 378.132756 291.164217 
L 379.150482 292.310108 
L 380.168207 294.105331 
L 381.185933 295.001028 
L 382.203659 293.667279 
L 383.221385 293.605009 
L 384.239111 294.327276 
L 385.256837 294.61409 
L 386.274563 293.435136 
L 388.310014 294.455467 
L 389.32774 293.97183 
L 390.345466 295.488 
L 391.363192 293.140835 
L 392.380918 295.392957 
L 393.398643 290.707632 
L 394.416369 285.416839 
L 395.434095 292.637655 
L 396.451821 276.465748 
L 397.469547 284.438774 
L 398.487273 290.808116 
L 398.487273 290.808116 
" style="fill:none;stroke:#1f77b4;stroke-linecap:square;stroke-width:1.5;"/>
   </g>
   <g id="line2d_17">
    <path clip-path="url(#pa1fe6502f8)" d="M 73.832727 53.568 
L 74.850453 128.202049 
L 75.868179 135.333395 
L 76.885905 151.606574 
L 77.903631 156.323788 
L 78.921357 153.488895 
L 79.939082 160.730965 
L 80.956808 162.232809 
L 81.974534 161.858343 
L 82.99226 165.397741 
L 84.009986 172.333712 
L 85.027712 171.051751 
L 86.045437 170.335347 
L 87.063163 176.586244 
L 88.080889 169.979176 
L 89.098615 177.782619 
L 90.116341 182.396664 
L 91.134067 190.595823 
L 92.151793 195.658265 
L 93.169518 198.598013 
L 94.187244 194.892418 
L 95.20497 189.713933 
L 96.222696 195.278539 
L 97.240422 198.824933 
L 98.258148 197.926007 
L 99.275873 204.698958 
L 100.293599 203.920441 
L 101.311325 212.980952 
L 102.329051 207.691296 
L 103.346777 208.443589 
L 104.364503 221.671098 
L 105.382229 220.571162 
L 106.399954 218.040418 
L 107.41768 213.056111 
L 108.435406 210.685838 
L 109.453132 222.058539 
L 110.470858 226.663131 
L 111.488584 228.699842 
L 112.506309 226.493909 
L 113.524035 229.251287 
L 114.541761 220.575152 
L 115.559487 228.861826 
L 116.577213 222.544236 
L 117.594939 228.299182 
L 118.612665 217.764665 
L 119.63039 228.785022 
L 120.648116 230.695801 
L 121.665842 237.807633 
L 122.683568 239.035014 
L 123.701294 241.512285 
L 124.71902 240.371555 
L 125.736746 231.910369 
L 126.754471 232.533035 
L 127.772197 240.343727 
L 128.789923 241.912701 
L 129.807649 244.104552 
L 130.825375 245.825123 
L 131.843101 235.674585 
L 132.860826 230.904446 
L 133.878552 234.923622 
L 134.896278 244.892927 
L 135.914004 247.475246 
L 136.93173 246.169731 
L 137.949456 248.21831 
L 138.967182 252.295641 
L 139.984907 250.526865 
L 141.002633 250.284017 
L 143.038085 246.757898 
L 144.055811 249.769648 
L 145.073537 247.692835 
L 146.091262 250.550541 
L 147.108988 254.408018 
L 148.126714 254.05804 
L 149.14444 255.827536 
L 150.162166 251.491631 
L 151.179892 253.630029 
L 152.197618 253.488462 
L 153.215343 249.577349 
L 154.233069 254.725681 
L 155.250795 254.7582 
L 156.268521 258.605545 
L 157.286247 247.732115 
L 158.303973 252.192897 
L 159.321698 252.140489 
L 160.339424 260.882251 
L 161.35715 259.488287 
L 162.374876 252.534479 
L 163.392602 256.166032 
L 164.410328 257.211733 
L 165.428054 260.825519 
L 166.445779 260.896455 
L 167.463505 264.322134 
L 168.481231 257.705888 
L 169.498957 261.413605 
L 170.516683 261.642981 
L 171.534409 253.978546 
L 172.552135 263.331399 
L 173.56986 263.197883 
L 174.587586 263.592228 
L 175.605312 260.089094 
L 176.623038 252.364231 
L 178.65849 264.014939 
L 179.676215 260.777223 
L 180.693941 258.177371 
L 181.711667 259.41792 
L 182.729393 261.35471 
L 183.747119 257.379027 
L 184.764845 258.552761 
L 185.782571 263.707418 
L 186.800296 267.525803 
L 187.818022 268.35655 
L 188.835748 266.620303 
L 189.853474 268.955133 
L 191.888926 264.738713 
L 192.906651 263.647214 
L 193.924377 267.750819 
L 194.942103 264.049041 
L 195.959829 266.675751 
L 196.977555 265.532469 
L 197.995281 262.163258 
L 199.013007 263.714099 
L 200.030732 261.027341 
L 201.048458 261.016965 
L 202.066184 262.799071 
L 203.08391 263.518744 
L 204.101636 268.256065 
L 205.119362 270.626586 
L 206.137087 270.896908 
L 207.154813 269.971763 
L 208.172539 267.456289 
L 209.190265 268.6048 
L 210.207991 271.078379 
L 211.225717 270.92436 
L 212.243443 272.498988 
L 213.261168 272.427068 
L 214.278894 269.111173 
L 215.29662 272.55536 
L 216.314346 270.896014 
L 217.332072 267.907391 
L 218.349798 265.713555 
L 219.367524 271.877978 
L 220.385249 273.716689 
L 221.402975 271.189001 
L 222.420701 272.006504 
L 223.438427 273.531903 
L 224.456153 272.717436 
L 225.473879 274.171487 
L 226.491604 276.80304 
L 227.50933 274.50215 
L 228.527056 272.489415 
L 229.544782 271.035531 
L 230.562508 265.823882 
L 231.580234 275.025935 
L 232.59796 273.425347 
L 233.615685 275.420752 
L 234.633411 273.075896 
L 235.651137 275.797 
L 236.668863 275.748978 
L 237.686589 272.729055 
L 238.704315 274.144207 
L 239.72204 272.581295 
L 240.739766 271.54332 
L 241.757492 276.42665 
L 242.775218 277.993232 
L 243.792944 278.735353 
L 244.81067 276.144014 
L 245.828396 275.752781 
L 246.846121 273.385513 
L 247.863847 279.357866 
L 248.881573 280.375708 
L 249.899299 278.122347 
L 250.917025 281.600511 
L 251.934751 278.633086 
L 252.952476 279.186252 
L 253.970202 281.236319 
L 254.987928 278.905281 
L 256.005654 281.071685 
L 257.02338 282.006079 
L 258.041106 280.019608 
L 259.058832 280.626907 
L 261.094283 281.498914 
L 262.112009 279.364967 
L 263.129735 279.649518 
L 264.147461 281.667913 
L 265.165187 282.650557 
L 266.182913 278.863995 
L 268.218364 282.006962 
L 269.23609 282.110264 
L 270.253816 281.823115 
L 271.271542 277.105393 
L 272.289268 280.790201 
L 273.306993 278.948003 
L 274.324719 272.119207 
L 275.342445 275.922607 
L 276.360171 279.288148 
L 277.377897 280.805059 
L 278.395623 283.485248 
L 279.413349 284.292629 
L 280.431074 283.597033 
L 281.4488 282.736062 
L 282.466526 285.222611 
L 283.484252 282.21213 
L 284.501978 281.502209 
L 285.519704 282.553189 
L 286.537429 282.454019 
L 287.555155 284.78921 
L 288.572881 284.382661 
L 289.590607 281.954164 
L 290.608333 273.915719 
L 291.626059 273.598595 
L 292.643785 285.799966 
L 293.66151 281.641293 
L 294.679236 280.482508 
L 295.696962 280.595866 
L 296.714688 282.641014 
L 297.732414 285.422347 
L 298.75014 284.440597 
L 299.767865 282.687061 
L 300.785591 283.113295 
L 301.803317 282.058837 
L 302.821043 277.878839 
L 303.838769 274.717313 
L 304.856495 284.002053 
L 305.874221 283.942742 
L 306.891946 285.586828 
L 307.909672 282.557027 
L 308.927398 283.531285 
L 309.945124 280.110539 
L 310.96285 277.613172 
L 311.980576 284.734675 
L 312.998302 285.753472 
L 314.016027 285.840769 
L 315.033753 285.234068 
L 316.051479 288.223483 
L 317.069205 288.178604 
L 318.086931 283.715558 
L 319.104657 285.494176 
L 320.122382 287.580376 
L 321.140108 286.285409 
L 322.157834 286.05914 
L 323.17556 287.220661 
L 324.193286 288.634874 
L 325.211012 287.739349 
L 326.228738 288.99633 
L 327.246463 289.837006 
L 328.264189 287.308917 
L 329.281915 286.421337 
L 330.299641 287.675424 
L 331.317367 287.818727 
L 332.335093 288.935694 
L 333.352818 288.979776 
L 334.370544 289.231184 
L 335.38827 288.277403 
L 336.405996 290.751633 
L 337.423722 290.43131 
L 338.441448 289.179675 
L 339.459174 288.766614 
L 340.476899 290.428462 
L 341.494625 287.2239 
L 342.512351 286.037373 
L 343.530077 279.835923 
L 344.547803 283.181667 
L 345.565529 283.848795 
L 346.583254 286.139365 
L 348.618706 289.216254 
L 349.636432 290.431066 
L 350.654158 288.90911 
L 351.671884 291.787471 
L 352.68961 290.20966 
L 353.707335 292.177729 
L 354.725061 291.646752 
L 355.742787 289.974314 
L 356.760513 290.703601 
L 357.778239 290.198451 
L 358.795965 289.920617 
L 359.813691 290.895581 
L 360.831416 289.918373 
L 361.849142 291.610933 
L 362.866868 289.695408 
L 363.884594 290.298312 
L 364.90232 291.424096 
L 365.920046 286.812966 
L 366.937771 286.048434 
L 367.955497 290.973136 
L 368.973223 291.212781 
L 369.990949 292.06693 
L 371.008675 291.96476 
L 372.026401 293.164429 
L 373.044127 289.965507 
L 374.061852 289.074946 
L 375.079578 290.51747 
L 376.097304 293.442533 
L 377.11503 291.568608 
L 378.132756 291.52084 
L 379.150482 293.122316 
L 380.168207 292.631497 
L 381.185933 294.6101 
L 382.203659 292.578765 
L 383.221385 293.87696 
L 384.239111 293.646116 
L 385.256837 292.69324 
L 386.274563 293.949261 
L 387.292288 293.782252 
L 388.310014 295.140809 
L 389.32774 294.257528 
L 390.345466 293.191115 
L 391.363192 293.787663 
L 392.380918 289.01927 
L 393.398643 292.602801 
L 394.416369 290.451097 
L 395.434095 280.739565 
L 396.451821 283.796301 
L 397.469547 283.877598 
L 398.487273 288.08314 
L 398.487273 288.08314 
" style="fill:none;stroke:#ff7f0e;stroke-linecap:square;stroke-width:1.5;"/>
   </g>
   <g id="patch_3">
    <path d="M 57.6 307.584 
L 57.6 41.472 
" style="fill:none;stroke:#000000;stroke-linecap:square;stroke-linejoin:miter;stroke-width:0.8;"/>
   </g>
   <g id="patch_4">
    <path d="M 414.72 307.584 
L 414.72 41.472 
" style="fill:none;stroke:#000000;stroke-linecap:square;stroke-linejoin:miter;stroke-width:0.8;"/>
   </g>
   <g id="patch_5">
    <path d="M 57.6 307.584 
L 414.72 307.584 
" style="fill:none;stroke:#000000;stroke-linecap:square;stroke-linejoin:miter;stroke-width:0.8;"/>
   </g>
   <g id="patch_6">
    <path d="M 57.6 41.472 
L 414.72 41.472 
" style="fill:none;stroke:#000000;stroke-linecap:square;stroke-linejoin:miter;stroke-width:0.8;"/>
   </g>
   <g id="legend_1">
    <g id="patch_7">
     <path d="M 326.485625 78.82825 
L 407.72 78.82825 
Q 409.72 78.82825 409.72 76.82825 
L 409.72 48.472 
Q 409.72 46.472 407.72 46.472 
L 326.485625 46.472 
Q 324.485625 46.472 324.485625 48.472 
L 324.485625 76.82825 
Q 324.485625 78.82825 326.485625 78.82825 
z
" style="fill:#ffffff;opacity:0.8;stroke:#cccccc;stroke-linejoin:miter;"/>
    </g>
    <g id="line2d_18">
     <path d="M 328.485625 54.570437 
L 348.485625 54.570437 
" style="fill:none;stroke:#1f77b4;stroke-linecap:square;stroke-width:1.5;"/>
    </g>
    <g id="line2d_19"/>
    <g id="text_18">
     <!-- validation -->
     <defs>
      <path d="M 2.984375 54.6875 
L 12.5 54.6875 
L 29.59375 8.796875 
L 46.6875 54.6875 
L 56.203125 54.6875 
L 35.6875 0 
L 23.484375 0 
z
" id="DejaVuSans-118"/>
      <path d="M 34.28125 27.484375 
Q 23.390625 27.484375 19.1875 25 
Q 14.984375 22.515625 14.984375 16.5 
Q 14.984375 11.71875 18.140625 8.90625 
Q 21.296875 6.109375 26.703125 6.109375 
Q 34.1875 6.109375 38.703125 11.40625 
Q 43.21875 16.703125 43.21875 25.484375 
L 43.21875 27.484375 
z
M 52.203125 31.203125 
L 52.203125 0 
L 43.21875 0 
L 43.21875 8.296875 
Q 40.140625 3.328125 35.546875 0.953125 
Q 30.953125 -1.421875 24.3125 -1.421875 
Q 15.921875 -1.421875 10.953125 3.296875 
Q 6 8.015625 6 15.921875 
Q 6 25.140625 12.171875 29.828125 
Q 18.359375 34.515625 30.609375 34.515625 
L 43.21875 34.515625 
L 43.21875 35.40625 
Q 43.21875 41.609375 39.140625 45 
Q 35.0625 48.390625 27.6875 48.390625 
Q 23 48.390625 18.546875 47.265625 
Q 14.109375 46.140625 10.015625 43.890625 
L 10.015625 52.203125 
Q 14.9375 54.109375 19.578125 55.046875 
Q 24.21875 56 28.609375 56 
Q 40.484375 56 46.34375 49.84375 
Q 52.203125 43.703125 52.203125 31.203125 
z
" id="DejaVuSans-97"/>
      <path d="M 9.421875 54.6875 
L 18.40625 54.6875 
L 18.40625 0 
L 9.421875 0 
z
M 9.421875 75.984375 
L 18.40625 75.984375 
L 18.40625 64.59375 
L 9.421875 64.59375 
z
" id="DejaVuSans-105"/>
      <path d="M 45.40625 46.390625 
L 45.40625 75.984375 
L 54.390625 75.984375 
L 54.390625 0 
L 45.40625 0 
L 45.40625 8.203125 
Q 42.578125 3.328125 38.25 0.953125 
Q 33.9375 -1.421875 27.875 -1.421875 
Q 17.96875 -1.421875 11.734375 6.484375 
Q 5.515625 14.40625 5.515625 27.296875 
Q 5.515625 40.1875 11.734375 48.09375 
Q 17.96875 56 27.875 56 
Q 33.9375 56 38.25 53.625 
Q 42.578125 51.265625 45.40625 46.390625 
z
M 14.796875 27.296875 
Q 14.796875 17.390625 18.875 11.75 
Q 22.953125 6.109375 30.078125 6.109375 
Q 37.203125 6.109375 41.296875 11.75 
Q 45.40625 17.390625 45.40625 27.296875 
Q 45.40625 37.203125 41.296875 42.84375 
Q 37.203125 48.484375 30.078125 48.484375 
Q 22.953125 48.484375 18.875 42.84375 
Q 14.796875 37.203125 14.796875 27.296875 
z
" id="DejaVuSans-100"/>
      <path d="M 18.3125 70.21875 
L 18.3125 54.6875 
L 36.8125 54.6875 
L 36.8125 47.703125 
L 18.3125 47.703125 
L 18.3125 18.015625 
Q 18.3125 11.328125 20.140625 9.421875 
Q 21.96875 7.515625 27.59375 7.515625 
L 36.8125 7.515625 
L 36.8125 0 
L 27.59375 0 
Q 17.1875 0 13.234375 3.875 
Q 9.28125 7.765625 9.28125 18.015625 
L 9.28125 47.703125 
L 2.6875 47.703125 
L 2.6875 54.6875 
L 9.28125 54.6875 
L 9.28125 70.21875 
z
" id="DejaVuSans-116"/>
      <path d="M 54.890625 33.015625 
L 54.890625 0 
L 45.90625 0 
L 45.90625 32.71875 
Q 45.90625 40.484375 42.875 44.328125 
Q 39.84375 48.1875 33.796875 48.1875 
Q 26.515625 48.1875 22.3125 43.546875 
Q 18.109375 38.921875 18.109375 30.90625 
L 18.109375 0 
L 9.078125 0 
L 9.078125 54.6875 
L 18.109375 54.6875 
L 18.109375 46.1875 
Q 21.34375 51.125 25.703125 53.5625 
Q 30.078125 56 35.796875 56 
Q 45.21875 56 50.046875 50.171875 
Q 54.890625 44.34375 54.890625 33.015625 
z
" id="DejaVuSans-110"/>
     </defs>
     <g transform="translate(356.485625 58.070437)scale(0.1 -0.1)">
      <use xlink:href="#DejaVuSans-118"/>
      <use x="59.179688" xlink:href="#DejaVuSans-97"/>
      <use x="120.458984" xlink:href="#DejaVuSans-108"/>
      <use x="148.242188" xlink:href="#DejaVuSans-105"/>
      <use x="176.025391" xlink:href="#DejaVuSans-100"/>
      <use x="239.501953" xlink:href="#DejaVuSans-97"/>
      <use x="300.78125" xlink:href="#DejaVuSans-116"/>
      <use x="339.990234" xlink:href="#DejaVuSans-105"/>
      <use x="367.773438" xlink:href="#DejaVuSans-111"/>
      <use x="428.955078" xlink:href="#DejaVuSans-110"/>
     </g>
    </g>
    <g id="line2d_20">
     <path d="M 328.485625 69.248562 
L 348.485625 69.248562 
" style="fill:none;stroke:#ff7f0e;stroke-linecap:square;stroke-width:1.5;"/>
    </g>
    <g id="line2d_21"/>
    <g id="text_19">
     <!-- training -->
     <defs>
      <path d="M 41.109375 46.296875 
Q 39.59375 47.171875 37.8125 47.578125 
Q 36.03125 48 33.890625 48 
Q 26.265625 48 22.1875 43.046875 
Q 18.109375 38.09375 18.109375 28.8125 
L 18.109375 0 
L 9.078125 0 
L 9.078125 54.6875 
L 18.109375 54.6875 
L 18.109375 46.1875 
Q 20.953125 51.171875 25.484375 53.578125 
Q 30.03125 56 36.53125 56 
Q 37.453125 56 38.578125 55.875 
Q 39.703125 55.765625 41.0625 55.515625 
z
" id="DejaVuSans-114"/>
      <path d="M 45.40625 27.984375 
Q 45.40625 37.75 41.375 43.109375 
Q 37.359375 48.484375 30.078125 48.484375 
Q 22.859375 48.484375 18.828125 43.109375 
Q 14.796875 37.75 14.796875 27.984375 
Q 14.796875 18.265625 18.828125 12.890625 
Q 22.859375 7.515625 30.078125 7.515625 
Q 37.359375 7.515625 41.375 12.890625 
Q 45.40625 18.265625 45.40625 27.984375 
z
M 54.390625 6.78125 
Q 54.390625 -7.171875 48.1875 -13.984375 
Q 42 -20.796875 29.203125 -20.796875 
Q 24.46875 -20.796875 20.265625 -20.09375 
Q 16.0625 -19.390625 12.109375 -17.921875 
L 12.109375 -9.1875 
Q 16.0625 -11.328125 19.921875 -12.34375 
Q 23.78125 -13.375 27.78125 -13.375 
Q 36.625 -13.375 41.015625 -8.765625 
Q 45.40625 -4.15625 45.40625 5.171875 
L 45.40625 9.625 
Q 42.625 4.78125 38.28125 2.390625 
Q 33.9375 0 27.875 0 
Q 17.828125 0 11.671875 7.65625 
Q 5.515625 15.328125 5.515625 27.984375 
Q 5.515625 40.671875 11.671875 48.328125 
Q 17.828125 56 27.875 56 
Q 33.9375 56 38.28125 53.609375 
Q 42.625 51.21875 45.40625 46.390625 
L 45.40625 54.6875 
L 54.390625 54.6875 
z
" id="DejaVuSans-103"/>
     </defs>
     <g transform="translate(356.485625 72.748562)scale(0.1 -0.1)">
      <use xlink:href="#DejaVuSans-116"/>
      <use x="39.208984" xlink:href="#DejaVuSans-114"/>
      <use x="80.322266" xlink:href="#DejaVuSans-97"/>
      <use x="141.601562" xlink:href="#DejaVuSans-105"/>
      <use x="169.384766" xlink:href="#DejaVuSans-110"/>
      <use x="232.763672" xlink:href="#DejaVuSans-105"/>
      <use x="260.546875" xlink:href="#DejaVuSans-110"/>
      <use x="323.925781" xlink:href="#DejaVuSans-103"/>
     </g>
    </g>
   </g>
  </g>
 </g>
 <defs>
  <clipPath id="pa1fe6502f8">
   <rect height="266.112" width="357.12" x="57.6" y="41.472"/>
  </clipPath>
 </defs>
</svg>
