<?xml version="1.0" encoding="utf-8" standalone="no"?>
<!DOCTYPE svg PUBLIC "-//W3C//DTD SVG 1.1//EN"
  "http://www.w3.org/Graphics/SVG/1.1/DTD/svg11.dtd">
<!-- Created with matplotlib (https://matplotlib.org/) -->
<svg height="345.6pt" version="1.1" viewBox="0 0 460.8 345.6" width="460.8pt" xmlns="http://www.w3.org/2000/svg" xmlns:xlink="http://www.w3.org/1999/xlink">
 <defs>
  <style type="text/css">
*{stroke-linecap:butt;stroke-linejoin:round;}
  </style>
 </defs>
 <g id="figure_1">
  <g id="patch_1">
   <path d="M 0 345.6 
L 460.8 345.6 
L 460.8 0 
L 0 0 
z
" style="fill:#ffffff;"/>
  </g>
  <g id="axes_1">
   <g id="patch_2">
    <path d="M 57.6 162.432 
L 219.927273 162.432 
L 219.927273 41.472 
L 57.6 41.472 
z
" style="fill:#ffffff;"/>
   </g>
   <g id="matplotlib.axis_1">
    <g id="xtick_1">
     <g id="line2d_1">
      <defs>
       <path d="M 0 0 
L 0 3.5 
" id="m8826ace17f" style="stroke:#000000;stroke-width:0.8;"/>
      </defs>
      <g>
       <use style="stroke:#000000;stroke-width:0.8;" x="64.978512" xlink:href="#m8826ace17f" y="162.432"/>
      </g>
     </g>
     <g id="text_1">
      <!-- 0 -->
      <defs>
       <path d="M 31.78125 66.40625 
Q 24.171875 66.40625 20.328125 58.90625 
Q 16.5 51.421875 16.5 36.375 
Q 16.5 21.390625 20.328125 13.890625 
Q 24.171875 6.390625 31.78125 6.390625 
Q 39.453125 6.390625 43.28125 13.890625 
Q 47.125 21.390625 47.125 36.375 
Q 47.125 51.421875 43.28125 58.90625 
Q 39.453125 66.40625 31.78125 66.40625 
z
M 31.78125 74.21875 
Q 44.046875 74.21875 50.515625 64.515625 
Q 56.984375 54.828125 56.984375 36.375 
Q 56.984375 17.96875 50.515625 8.265625 
Q 44.046875 -1.421875 31.78125 -1.421875 
Q 19.53125 -1.421875 13.0625 8.265625 
Q 6.59375 17.96875 6.59375 36.375 
Q 6.59375 54.828125 13.0625 64.515625 
Q 19.53125 74.21875 31.78125 74.21875 
z
" id="DejaVuSans-48"/>
      </defs>
      <g transform="translate(61.797262 177.030437)scale(0.1 -0.1)">
       <use xlink:href="#DejaVuSans-48"/>
      </g>
     </g>
    </g>
    <g id="xtick_2">
     <g id="line2d_2">
      <g>
       <use style="stroke:#000000;stroke-width:0.8;" x="102.056464" xlink:href="#m8826ace17f" y="162.432"/>
      </g>
     </g>
     <g id="text_2">
      <!-- 50 -->
      <defs>
       <path d="M 10.796875 72.90625 
L 49.515625 72.90625 
L 49.515625 64.59375 
L 19.828125 64.59375 
L 19.828125 46.734375 
Q 21.96875 47.46875 24.109375 47.828125 
Q 26.265625 48.1875 28.421875 48.1875 
Q 40.625 48.1875 47.75 41.5 
Q 54.890625 34.8125 54.890625 23.390625 
Q 54.890625 11.625 47.5625 5.09375 
Q 40.234375 -1.421875 26.90625 -1.421875 
Q 22.3125 -1.421875 17.546875 -0.640625 
Q 12.796875 0.140625 7.71875 1.703125 
L 7.71875 11.625 
Q 12.109375 9.234375 16.796875 8.0625 
Q 21.484375 6.890625 26.703125 6.890625 
Q 35.15625 6.890625 40.078125 11.328125 
Q 45.015625 15.765625 45.015625 23.390625 
Q 45.015625 31 40.078125 35.4375 
Q 35.15625 39.890625 26.703125 39.890625 
Q 22.75 39.890625 18.8125 39.015625 
Q 14.890625 38.140625 10.796875 36.28125 
z
" id="DejaVuSans-53"/>
      </defs>
      <g transform="translate(95.693964 177.030437)scale(0.1 -0.1)">
       <use xlink:href="#DejaVuSans-53"/>
       <use x="63.623047" xlink:href="#DejaVuSans-48"/>
      </g>
     </g>
    </g>
    <g id="xtick_3">
     <g id="line2d_3">
      <g>
       <use style="stroke:#000000;stroke-width:0.8;" x="139.134416" xlink:href="#m8826ace17f" y="162.432"/>
      </g>
     </g>
     <g id="text_3">
      <!-- 100 -->
      <defs>
       <path d="M 12.40625 8.296875 
L 28.515625 8.296875 
L 28.515625 63.921875 
L 10.984375 60.40625 
L 10.984375 69.390625 
L 28.421875 72.90625 
L 38.28125 72.90625 
L 38.28125 8.296875 
L 54.390625 8.296875 
L 54.390625 0 
L 12.40625 0 
z
" id="DejaVuSans-49"/>
      </defs>
      <g transform="translate(129.590666 177.030437)scale(0.1 -0.1)">
       <use xlink:href="#DejaVuSans-49"/>
       <use x="63.623047" xlink:href="#DejaVuSans-48"/>
       <use x="127.246094" xlink:href="#DejaVuSans-48"/>
      </g>
     </g>
    </g>
    <g id="xtick_4">
     <g id="line2d_4">
      <g>
       <use style="stroke:#000000;stroke-width:0.8;" x="176.212368" xlink:href="#m8826ace17f" y="162.432"/>
      </g>
     </g>
     <g id="text_4">
      <!-- 150 -->
      <g transform="translate(166.668618 177.030437)scale(0.1 -0.1)">
       <use xlink:href="#DejaVuSans-49"/>
       <use x="63.623047" xlink:href="#DejaVuSans-53"/>
       <use x="127.246094" xlink:href="#DejaVuSans-48"/>
      </g>
     </g>
    </g>
    <g id="xtick_5">
     <g id="line2d_5">
      <g>
       <use style="stroke:#000000;stroke-width:0.8;" x="213.290319" xlink:href="#m8826ace17f" y="162.432"/>
      </g>
     </g>
     <g id="text_5">
      <!-- 200 -->
      <defs>
       <path d="M 19.1875 8.296875 
L 53.609375 8.296875 
L 53.609375 0 
L 7.328125 0 
L 7.328125 8.296875 
Q 12.9375 14.109375 22.625 23.890625 
Q 32.328125 33.6875 34.8125 36.53125 
Q 39.546875 41.84375 41.421875 45.53125 
Q 43.3125 49.21875 43.3125 52.78125 
Q 43.3125 58.59375 39.234375 62.25 
Q 35.15625 65.921875 28.609375 65.921875 
Q 23.96875 65.921875 18.8125 64.3125 
Q 13.671875 62.703125 7.8125 59.421875 
L 7.8125 69.390625 
Q 13.765625 71.78125 18.9375 73 
Q 24.125 74.21875 28.421875 74.21875 
Q 39.75 74.21875 46.484375 68.546875 
Q 53.21875 62.890625 53.21875 53.421875 
Q 53.21875 48.921875 51.53125 44.890625 
Q 49.859375 40.875 45.40625 35.40625 
Q 44.1875 33.984375 37.640625 27.21875 
Q 31.109375 20.453125 19.1875 8.296875 
z
" id="DejaVuSans-50"/>
      </defs>
      <g transform="translate(203.746569 177.030437)scale(0.1 -0.1)">
       <use xlink:href="#DejaVuSans-50"/>
       <use x="63.623047" xlink:href="#DejaVuSans-48"/>
       <use x="127.246094" xlink:href="#DejaVuSans-48"/>
      </g>
     </g>
    </g>
    <g id="text_6">
     <!-- # epochs -->
     <defs>
      <path d="M 51.125 44 
L 36.921875 44 
L 32.8125 27.6875 
L 47.125 27.6875 
z
M 43.796875 71.78125 
L 38.71875 51.515625 
L 52.984375 51.515625 
L 58.109375 71.78125 
L 65.921875 71.78125 
L 60.890625 51.515625 
L 76.125 51.515625 
L 76.125 44 
L 58.984375 44 
L 54.984375 27.6875 
L 70.515625 27.6875 
L 70.515625 20.21875 
L 53.078125 20.21875 
L 48 0 
L 40.1875 0 
L 45.21875 20.21875 
L 30.90625 20.21875 
L 25.875 0 
L 18.015625 0 
L 23.09375 20.21875 
L 7.71875 20.21875 
L 7.71875 27.6875 
L 24.90625 27.6875 
L 29 44 
L 13.28125 44 
L 13.28125 51.515625 
L 30.90625 51.515625 
L 35.890625 71.78125 
z
" id="DejaVuSans-35"/>
      <path id="DejaVuSans-32"/>
      <path d="M 56.203125 29.59375 
L 56.203125 25.203125 
L 14.890625 25.203125 
Q 15.484375 15.921875 20.484375 11.0625 
Q 25.484375 6.203125 34.421875 6.203125 
Q 39.59375 6.203125 44.453125 7.46875 
Q 49.3125 8.734375 54.109375 11.28125 
L 54.109375 2.78125 
Q 49.265625 0.734375 44.1875 -0.34375 
Q 39.109375 -1.421875 33.890625 -1.421875 
Q 20.796875 -1.421875 13.15625 6.1875 
Q 5.515625 13.8125 5.515625 26.8125 
Q 5.515625 40.234375 12.765625 48.109375 
Q 20.015625 56 32.328125 56 
Q 43.359375 56 49.78125 48.890625 
Q 56.203125 41.796875 56.203125 29.59375 
z
M 47.21875 32.234375 
Q 47.125 39.59375 43.09375 43.984375 
Q 39.0625 48.390625 32.421875 48.390625 
Q 24.90625 48.390625 20.390625 44.140625 
Q 15.875 39.890625 15.1875 32.171875 
z
" id="DejaVuSans-101"/>
      <path d="M 18.109375 8.203125 
L 18.109375 -20.796875 
L 9.078125 -20.796875 
L 9.078125 54.6875 
L 18.109375 54.6875 
L 18.109375 46.390625 
Q 20.953125 51.265625 25.265625 53.625 
Q 29.59375 56 35.59375 56 
Q 45.5625 56 51.78125 48.09375 
Q 58.015625 40.1875 58.015625 27.296875 
Q 58.015625 14.40625 51.78125 6.484375 
Q 45.5625 -1.421875 35.59375 -1.421875 
Q 29.59375 -1.421875 25.265625 0.953125 
Q 20.953125 3.328125 18.109375 8.203125 
z
M 48.6875 27.296875 
Q 48.6875 37.203125 44.609375 42.84375 
Q 40.53125 48.484375 33.40625 48.484375 
Q 26.265625 48.484375 22.1875 42.84375 
Q 18.109375 37.203125 18.109375 27.296875 
Q 18.109375 17.390625 22.1875 11.75 
Q 26.265625 6.109375 33.40625 6.109375 
Q 40.53125 6.109375 44.609375 11.75 
Q 48.6875 17.390625 48.6875 27.296875 
z
" id="DejaVuSans-112"/>
      <path d="M 30.609375 48.390625 
Q 23.390625 48.390625 19.1875 42.75 
Q 14.984375 37.109375 14.984375 27.296875 
Q 14.984375 17.484375 19.15625 11.84375 
Q 23.34375 6.203125 30.609375 6.203125 
Q 37.796875 6.203125 41.984375 11.859375 
Q 46.1875 17.53125 46.1875 27.296875 
Q 46.1875 37.015625 41.984375 42.703125 
Q 37.796875 48.390625 30.609375 48.390625 
z
M 30.609375 56 
Q 42.328125 56 49.015625 48.375 
Q 55.71875 40.765625 55.71875 27.296875 
Q 55.71875 13.875 49.015625 6.21875 
Q 42.328125 -1.421875 30.609375 -1.421875 
Q 18.84375 -1.421875 12.171875 6.21875 
Q 5.515625 13.875 5.515625 27.296875 
Q 5.515625 40.765625 12.171875 48.375 
Q 18.84375 56 30.609375 56 
z
" id="DejaVuSans-111"/>
      <path d="M 48.78125 52.59375 
L 48.78125 44.1875 
Q 44.96875 46.296875 41.140625 47.34375 
Q 37.3125 48.390625 33.40625 48.390625 
Q 24.65625 48.390625 19.8125 42.84375 
Q 14.984375 37.3125 14.984375 27.296875 
Q 14.984375 17.28125 19.8125 11.734375 
Q 24.65625 6.203125 33.40625 6.203125 
Q 37.3125 6.203125 41.140625 7.25 
Q 44.96875 8.296875 48.78125 10.40625 
L 48.78125 2.09375 
Q 45.015625 0.34375 40.984375 -0.53125 
Q 36.96875 -1.421875 32.421875 -1.421875 
Q 20.0625 -1.421875 12.78125 6.34375 
Q 5.515625 14.109375 5.515625 27.296875 
Q 5.515625 40.671875 12.859375 48.328125 
Q 20.21875 56 33.015625 56 
Q 37.15625 56 41.109375 55.140625 
Q 45.0625 54.296875 48.78125 52.59375 
z
" id="DejaVuSans-99"/>
      <path d="M 54.890625 33.015625 
L 54.890625 0 
L 45.90625 0 
L 45.90625 32.71875 
Q 45.90625 40.484375 42.875 44.328125 
Q 39.84375 48.1875 33.796875 48.1875 
Q 26.515625 48.1875 22.3125 43.546875 
Q 18.109375 38.921875 18.109375 30.90625 
L 18.109375 0 
L 9.078125 0 
L 9.078125 75.984375 
L 18.109375 75.984375 
L 18.109375 46.1875 
Q 21.34375 51.125 25.703125 53.5625 
Q 30.078125 56 35.796875 56 
Q 45.21875 56 50.046875 50.171875 
Q 54.890625 44.34375 54.890625 33.015625 
z
" id="DejaVuSans-104"/>
      <path d="M 44.28125 53.078125 
L 44.28125 44.578125 
Q 40.484375 46.53125 36.375 47.5 
Q 32.28125 48.484375 27.875 48.484375 
Q 21.1875 48.484375 17.84375 46.4375 
Q 14.5 44.390625 14.5 40.28125 
Q 14.5 37.15625 16.890625 35.375 
Q 19.28125 33.59375 26.515625 31.984375 
L 29.59375 31.296875 
Q 39.15625 29.25 43.1875 25.515625 
Q 47.21875 21.78125 47.21875 15.09375 
Q 47.21875 7.46875 41.1875 3.015625 
Q 35.15625 -1.421875 24.609375 -1.421875 
Q 20.21875 -1.421875 15.453125 -0.5625 
Q 10.6875 0.296875 5.421875 2 
L 5.421875 11.28125 
Q 10.40625 8.6875 15.234375 7.390625 
Q 20.0625 6.109375 24.8125 6.109375 
Q 31.15625 6.109375 34.5625 8.28125 
Q 37.984375 10.453125 37.984375 14.40625 
Q 37.984375 18.0625 35.515625 20.015625 
Q 33.0625 21.96875 24.703125 23.78125 
L 21.578125 24.515625 
Q 13.234375 26.265625 9.515625 29.90625 
Q 5.8125 33.546875 5.8125 39.890625 
Q 5.8125 47.609375 11.28125 51.796875 
Q 16.75 56 26.8125 56 
Q 31.78125 56 36.171875 55.265625 
Q 40.578125 54.546875 44.28125 53.078125 
z
" id="DejaVuSans-115"/>
     </defs>
     <g transform="translate(115.151918 190.708562)scale(0.1 -0.1)">
      <use xlink:href="#DejaVuSans-35"/>
      <use x="83.789062" xlink:href="#DejaVuSans-32"/>
      <use x="115.576172" xlink:href="#DejaVuSans-101"/>
      <use x="177.099609" xlink:href="#DejaVuSans-112"/>
      <use x="240.576172" xlink:href="#DejaVuSans-111"/>
      <use x="301.757812" xlink:href="#DejaVuSans-99"/>
      <use x="356.738281" xlink:href="#DejaVuSans-104"/>
      <use x="420.117188" xlink:href="#DejaVuSans-115"/>
     </g>
    </g>
   </g>
   <g id="matplotlib.axis_2">
    <g id="ytick_1">
     <g id="line2d_6">
      <defs>
       <path d="M 0 0 
L -3.5 0 
" id="ma4c266ef9d" style="stroke:#000000;stroke-width:0.8;"/>
      </defs>
      <g>
       <use style="stroke:#000000;stroke-width:0.8;" x="57.6" xlink:href="#ma4c266ef9d" y="162.34086"/>
      </g>
     </g>
     <g id="text_7">
      <!-- 0.08 -->
      <defs>
       <path d="M 10.6875 12.40625 
L 21 12.40625 
L 21 0 
L 10.6875 0 
z
" id="DejaVuSans-46"/>
       <path d="M 31.78125 34.625 
Q 24.75 34.625 20.71875 30.859375 
Q 16.703125 27.09375 16.703125 20.515625 
Q 16.703125 13.921875 20.71875 10.15625 
Q 24.75 6.390625 31.78125 6.390625 
Q 38.8125 6.390625 42.859375 10.171875 
Q 46.921875 13.96875 46.921875 20.515625 
Q 46.921875 27.09375 42.890625 30.859375 
Q 38.875 34.625 31.78125 34.625 
z
M 21.921875 38.8125 
Q 15.578125 40.375 12.03125 44.71875 
Q 8.5 49.078125 8.5 55.328125 
Q 8.5 64.0625 14.71875 69.140625 
Q 20.953125 74.21875 31.78125 74.21875 
Q 42.671875 74.21875 48.875 69.140625 
Q 55.078125 64.0625 55.078125 55.328125 
Q 55.078125 49.078125 51.53125 44.71875 
Q 48 40.375 41.703125 38.8125 
Q 48.828125 37.15625 52.796875 32.3125 
Q 56.78125 27.484375 56.78125 20.515625 
Q 56.78125 9.90625 50.3125 4.234375 
Q 43.84375 -1.421875 31.78125 -1.421875 
Q 19.734375 -1.421875 13.25 4.234375 
Q 6.78125 9.90625 6.78125 20.515625 
Q 6.78125 27.484375 10.78125 32.3125 
Q 14.796875 37.15625 21.921875 38.8125 
z
M 18.3125 54.390625 
Q 18.3125 48.734375 21.84375 45.5625 
Q 25.390625 42.390625 31.78125 42.390625 
Q 38.140625 42.390625 41.71875 45.5625 
Q 45.3125 48.734375 45.3125 54.390625 
Q 45.3125 60.0625 41.71875 63.234375 
Q 38.140625 66.40625 31.78125 66.40625 
Q 25.390625 66.40625 21.84375 63.234375 
Q 18.3125 60.0625 18.3125 54.390625 
z
" id="DejaVuSans-56"/>
      </defs>
      <g transform="translate(28.334375 166.140079)scale(0.1 -0.1)">
       <use xlink:href="#DejaVuSans-48"/>
       <use x="63.623047" xlink:href="#DejaVuSans-46"/>
       <use x="95.410156" xlink:href="#DejaVuSans-48"/>
       <use x="159.033203" xlink:href="#DejaVuSans-56"/>
      </g>
     </g>
    </g>
    <g id="ytick_2">
     <g id="line2d_7">
      <g>
       <use style="stroke:#000000;stroke-width:0.8;" x="57.6" xlink:href="#ma4c266ef9d" y="136.026544"/>
      </g>
     </g>
     <g id="text_8">
      <!-- 0.10 -->
      <g transform="translate(28.334375 139.825763)scale(0.1 -0.1)">
       <use xlink:href="#DejaVuSans-48"/>
       <use x="63.623047" xlink:href="#DejaVuSans-46"/>
       <use x="95.410156" xlink:href="#DejaVuSans-49"/>
       <use x="159.033203" xlink:href="#DejaVuSans-48"/>
      </g>
     </g>
    </g>
    <g id="ytick_3">
     <g id="line2d_8">
      <g>
       <use style="stroke:#000000;stroke-width:0.8;" x="57.6" xlink:href="#ma4c266ef9d" y="109.712229"/>
      </g>
     </g>
     <g id="text_9">
      <!-- 0.12 -->
      <g transform="translate(28.334375 113.511447)scale(0.1 -0.1)">
       <use xlink:href="#DejaVuSans-48"/>
       <use x="63.623047" xlink:href="#DejaVuSans-46"/>
       <use x="95.410156" xlink:href="#DejaVuSans-49"/>
       <use x="159.033203" xlink:href="#DejaVuSans-50"/>
      </g>
     </g>
    </g>
    <g id="ytick_4">
     <g id="line2d_9">
      <g>
       <use style="stroke:#000000;stroke-width:0.8;" x="57.6" xlink:href="#ma4c266ef9d" y="83.397913"/>
      </g>
     </g>
     <g id="text_10">
      <!-- 0.14 -->
      <defs>
       <path d="M 37.796875 64.3125 
L 12.890625 25.390625 
L 37.796875 25.390625 
z
M 35.203125 72.90625 
L 47.609375 72.90625 
L 47.609375 25.390625 
L 58.015625 25.390625 
L 58.015625 17.1875 
L 47.609375 17.1875 
L 47.609375 0 
L 37.796875 0 
L 37.796875 17.1875 
L 4.890625 17.1875 
L 4.890625 26.703125 
z
" id="DejaVuSans-52"/>
      </defs>
      <g transform="translate(28.334375 87.197132)scale(0.1 -0.1)">
       <use xlink:href="#DejaVuSans-48"/>
       <use x="63.623047" xlink:href="#DejaVuSans-46"/>
       <use x="95.410156" xlink:href="#DejaVuSans-49"/>
       <use x="159.033203" xlink:href="#DejaVuSans-52"/>
      </g>
     </g>
    </g>
    <g id="ytick_5">
     <g id="line2d_10">
      <g>
       <use style="stroke:#000000;stroke-width:0.8;" x="57.6" xlink:href="#ma4c266ef9d" y="57.083597"/>
      </g>
     </g>
     <g id="text_11">
      <!-- 0.16 -->
      <defs>
       <path d="M 33.015625 40.375 
Q 26.375 40.375 22.484375 35.828125 
Q 18.609375 31.296875 18.609375 23.390625 
Q 18.609375 15.53125 22.484375 10.953125 
Q 26.375 6.390625 33.015625 6.390625 
Q 39.65625 6.390625 43.53125 10.953125 
Q 47.40625 15.53125 47.40625 23.390625 
Q 47.40625 31.296875 43.53125 35.828125 
Q 39.65625 40.375 33.015625 40.375 
z
M 52.59375 71.296875 
L 52.59375 62.3125 
Q 48.875 64.0625 45.09375 64.984375 
Q 41.3125 65.921875 37.59375 65.921875 
Q 27.828125 65.921875 22.671875 59.328125 
Q 17.53125 52.734375 16.796875 39.40625 
Q 19.671875 43.65625 24.015625 45.921875 
Q 28.375 48.1875 33.59375 48.1875 
Q 44.578125 48.1875 50.953125 41.515625 
Q 57.328125 34.859375 57.328125 23.390625 
Q 57.328125 12.15625 50.6875 5.359375 
Q 44.046875 -1.421875 33.015625 -1.421875 
Q 20.359375 -1.421875 13.671875 8.265625 
Q 6.984375 17.96875 6.984375 36.375 
Q 6.984375 53.65625 15.1875 63.9375 
Q 23.390625 74.21875 37.203125 74.21875 
Q 40.921875 74.21875 44.703125 73.484375 
Q 48.484375 72.75 52.59375 71.296875 
z
" id="DejaVuSans-54"/>
      </defs>
      <g transform="translate(28.334375 60.882816)scale(0.1 -0.1)">
       <use xlink:href="#DejaVuSans-48"/>
       <use x="63.623047" xlink:href="#DejaVuSans-46"/>
       <use x="95.410156" xlink:href="#DejaVuSans-49"/>
       <use x="159.033203" xlink:href="#DejaVuSans-54"/>
      </g>
     </g>
    </g>
    <g id="text_12">
     <!-- loss -->
     <defs>
      <path d="M 9.421875 75.984375 
L 18.40625 75.984375 
L 18.40625 0 
L 9.421875 0 
z
" id="DejaVuSans-108"/>
     </defs>
     <g transform="translate(22.254688 111.609813)rotate(-90)scale(0.1 -0.1)">
      <use xlink:href="#DejaVuSans-108"/>
      <use x="27.783203" xlink:href="#DejaVuSans-111"/>
      <use x="88.964844" xlink:href="#DejaVuSans-115"/>
      <use x="141.064453" xlink:href="#DejaVuSans-115"/>
     </g>
    </g>
   </g>
   <g id="line2d_11">
    <path clip-path="url(#p57f6246fbc)" d="M 64.978512 61.210385 
L 65.720071 57.318321 
L 66.46163 68.356287 
L 67.20319 75.585298 
L 67.944749 75.806686 
L 68.686308 79.105658 
L 69.427867 86.490083 
L 70.169426 82.90828 
L 70.910985 88.351114 
L 71.652544 90.088982 
L 72.394103 85.568615 
L 73.135662 95.51125 
L 73.877221 91.056014 
L 74.61878 97.356009 
L 75.360339 87.978665 
L 76.101898 98.983438 
L 76.843457 97.328365 
L 77.585016 99.261565 
L 78.326575 101.51718 
L 79.068134 96.947093 
L 79.809693 104.425861 
L 80.551252 102.209437 
L 81.292811 105.584979 
L 83.517488 110.633269 
L 84.259047 106.148711 
L 85.000606 113.343893 
L 85.742165 111.829578 
L 86.483724 114.607382 
L 87.225283 111.012041 
L 87.966842 113.503464 
L 88.708402 114.673198 
L 90.19152 116.427476 
L 90.933079 116.623582 
L 91.674638 117.373686 
L 92.416197 117.51369 
L 93.157756 117.377686 
L 93.899315 116.272415 
L 94.640874 113.032741 
L 95.382433 113.412385 
L 96.123992 118.934319 
L 96.865551 115.908366 
L 97.60711 120.806574 
L 98.348669 120.535251 
L 99.090228 121.878437 
L 99.831787 120.304012 
L 100.573346 119.73777 
L 101.314905 122.987482 
L 102.056464 121.112962 
L 102.798023 121.885025 
L 103.539582 122.175346 
L 104.281141 121.564187 
L 105.0227 123.610747 
L 105.764259 124.249285 
L 107.247377 124.814203 
L 107.988936 124.809547 
L 108.730495 126.224363 
L 109.472054 120.47713 
L 110.213614 124.829839 
L 110.955173 124.72688 
L 111.696732 127.420506 
L 112.438291 124.787353 
L 113.17985 127.550609 
L 113.921409 126.943833 
L 115.404527 121.292237 
L 116.146086 121.074584 
L 116.887645 126.190268 
L 117.629204 125.056412 
L 118.370763 125.879969 
L 119.112322 125.969587 
L 119.853881 128.692317 
L 120.59544 125.860089 
L 121.336999 130.173204 
L 122.078558 130.360879 
L 122.820117 128.723843 
L 123.561676 131.257722 
L 124.303235 127.742716 
L 125.044794 131.551788 
L 125.786353 124.289075 
L 126.527912 122.744764 
L 127.269471 131.608243 
L 128.01103 131.38166 
L 128.752589 131.489275 
L 129.494148 130.169342 
L 130.235707 131.330381 
L 130.977266 128.890845 
L 131.718826 131.891937 
L 132.460385 132.710671 
L 133.201944 132.741079 
L 133.943503 130.730231 
L 134.685062 133.5928 
L 135.426621 132.93794 
L 136.16818 133.921205 
L 137.651298 135.041621 
L 138.392857 136.284485 
L 139.134416 133.331583 
L 139.875975 131.169487 
L 140.617534 137.242693 
L 141.359093 129.670161 
L 142.100652 135.915898 
L 142.842211 130.125464 
L 143.58377 138.022069 
L 144.325329 137.128402 
L 145.066888 136.48657 
L 145.808447 138.230811 
L 146.550006 138.166523 
L 147.291565 135.909212 
L 148.033124 139.135221 
L 148.774683 140.16351 
L 150.257801 132.294373 
L 150.99936 138.82748 
L 151.740919 140.591248 
L 152.482479 137.252153 
L 153.224038 140.489573 
L 153.965597 137.930412 
L 154.707156 128.999294 
L 155.448715 142.176878 
L 156.190274 130.816222 
L 156.931833 136.142255 
L 157.673392 136.710026 
L 158.414951 142.331478 
L 159.15651 139.873297 
L 159.898069 140.361508 
L 160.639628 141.567366 
L 161.381187 143.450454 
L 162.122746 142.742286 
L 162.864305 143.240212 
L 163.605864 133.501506 
L 164.347423 143.023089 
L 165.088982 141.487777 
L 165.830541 143.660519 
L 166.5721 145.00547 
L 167.313659 144.728382 
L 168.055218 143.929352 
L 168.796777 141.215964 
L 169.538336 145.66625 
L 170.279895 135.94861 
L 171.021454 146.082538 
L 171.763013 143.120382 
L 172.504572 137.814699 
L 173.246131 144.161454 
L 173.987691 143.775604 
L 174.72925 142.66651 
L 175.470809 140.518001 
L 176.212368 145.809411 
L 176.953927 146.759846 
L 177.695486 144.914558 
L 178.437045 147.451574 
L 179.178604 149.235182 
L 179.920163 149.428651 
L 180.661722 145.581044 
L 181.403281 148.527289 
L 182.14484 148.357769 
L 182.886399 149.860447 
L 183.627958 149.531757 
L 184.369517 149.797905 
L 185.111076 148.619789 
L 185.852635 146.358841 
L 186.594194 149.874083 
L 187.335753 148.673793 
L 188.077312 150.392839 
L 188.818871 150.417611 
L 189.56043 150.286449 
L 190.301989 152.942677 
L 191.043548 150.665486 
L 191.785107 152.617311 
L 192.526666 150.54397 
L 193.268225 152.162665 
L 194.009784 151.371409 
L 194.751343 144.708473 
L 195.492903 152.004339 
L 196.234462 151.654025 
L 196.976021 153.30107 
L 197.71758 149.826147 
L 198.459139 143.316282 
L 199.200698 151.830152 
L 199.942257 152.397365 
L 200.683816 154.719826 
L 202.166934 148.551826 
L 202.908493 153.347996 
L 203.650052 152.75213 
L 204.391611 154.85534 
L 205.13317 153.78086 
L 205.874729 151.79896 
L 206.616288 153.554032 
L 207.357847 152.531958 
L 208.099406 154.667606 
L 208.840965 155.828616 
L 209.582524 154.785211 
L 210.324083 154.459354 
L 211.065642 153.95736 
L 211.807201 153.924374 
L 212.54876 156.273263 
L 212.54876 156.273263 
" style="fill:none;stroke:#1f77b4;stroke-linecap:square;stroke-width:1.5;"/>
   </g>
   <g id="line2d_12">
    <path clip-path="url(#p57f6246fbc)" d="M 64.978512 46.970182 
L 65.720071 54.079794 
L 66.46163 69.919508 
L 67.20319 78.929167 
L 67.944749 74.679163 
L 69.427867 84.431407 
L 70.169426 82.139756 
L 71.652544 85.094844 
L 72.394103 84.731962 
L 73.135662 82.575904 
L 73.877221 91.486633 
L 74.61878 92.179949 
L 75.360339 85.97161 
L 76.101898 77.042648 
L 76.843457 88.723877 
L 77.585016 90.437219 
L 78.326575 88.779793 
L 79.068134 95.260474 
L 79.809693 92.891283 
L 80.551252 97.301289 
L 81.292811 100.652216 
L 82.03437 97.502463 
L 82.775929 102.356813 
L 83.517488 105.277964 
L 84.259047 105.372992 
L 85.000606 102.869581 
L 85.742165 108.79397 
L 86.483724 109.738896 
L 87.225283 110.148626 
L 87.966842 107.433727 
L 88.708402 108.510109 
L 89.449961 114.64477 
L 90.19152 113.006518 
L 90.933079 113.902518 
L 91.674638 118.318632 
L 92.416197 120.694587 
L 93.157756 114.506344 
L 93.899315 119.786529 
L 94.640874 113.61006 
L 95.382433 110.543376 
L 96.123992 117.38096 
L 96.865551 113.102713 
L 97.60711 120.363152 
L 98.348669 105.468688 
L 99.090228 114.586276 
L 99.831787 115.995337 
L 100.573346 110.495195 
L 101.314905 114.541497 
L 102.056464 122.5759 
L 102.798023 121.45219 
L 103.539582 120.849403 
L 104.281141 117.779544 
L 105.0227 119.279536 
L 105.764259 119.56476 
L 106.505818 122.608739 
L 107.247377 121.870026 
L 107.988936 118.717794 
L 108.730495 123.689543 
L 109.472054 121.362239 
L 110.213614 125.162793 
L 110.955173 121.213373 
L 111.696732 121.820493 
L 112.438291 124.807871 
L 113.17985 125.028092 
L 113.921409 126.260623 
L 114.662968 120.095858 
L 115.404527 121.686448 
L 116.146086 116.206844 
L 116.887645 125.826818 
L 117.629204 117.808413 
L 118.370763 118.821851 
L 119.112322 128.762408 
L 119.853881 125.596186 
L 120.59544 126.275994 
L 121.336999 126.344291 
L 122.078558 129.74925 
L 122.820117 122.869054 
L 123.561676 128.090579 
L 124.303235 128.773485 
L 125.044794 129.637518 
L 125.786353 118.965629 
L 126.527912 104.529889 
L 127.269471 124.519491 
L 128.01103 128.422082 
L 128.752589 129.417787 
L 129.494148 128.369568 
L 130.235707 132.162064 
L 130.977266 124.268401 
L 131.718826 127.24678 
L 132.460385 128.738528 
L 133.201944 129.530667 
L 133.943503 126.178662 
L 134.685062 130.328011 
L 135.426621 131.22253 
L 136.16818 131.588578 
L 136.909739 131.726798 
L 137.651298 124.776786 
L 138.392857 134.912802 
L 139.134416 132.663627 
L 139.875975 133.832773 
L 140.617534 133.31784 
L 141.359093 130.036395 
L 142.100652 122.591085 
L 142.842211 128.597877 
L 143.58377 131.913386 
L 144.325329 129.05914 
L 145.066888 135.861678 
L 145.808447 138.006757 
L 146.550006 128.907 
L 147.291565 134.781561 
L 148.033124 136.419617 
L 148.774683 137.711652 
L 149.516242 132.800063 
L 150.257801 138.293559 
L 150.99936 140.769503 
L 151.740919 140.204251 
L 152.482479 135.832544 
L 153.224038 129.018899 
L 153.965597 140.519667 
L 154.707156 130.646034 
L 155.448715 125.481219 
L 156.190274 132.172661 
L 156.931833 126.223804 
L 157.673392 135.11078 
L 158.414951 134.87062 
L 159.15651 141.682344 
L 159.898069 138.385794 
L 160.639628 142.447299 
L 161.381187 138.482567 
L 162.122746 142.17923 
L 162.864305 138.269845 
L 163.605864 138.306479 
L 164.347423 138.730148 
L 165.088982 140.780747 
L 165.830541 142.025679 
L 166.5721 129.291183 
L 167.313659 144.209125 
L 168.055218 145.871316 
L 168.796777 140.409327 
L 169.538336 139.702924 
L 170.279895 145.895254 
L 171.021454 145.393682 
L 171.763013 140.418806 
L 172.504572 139.789042 
L 173.246131 142.0803 
L 173.987691 140.021232 
L 174.72925 143.31987 
L 175.470809 143.112608 
L 176.212368 137.682733 
L 176.953927 141.409825 
L 177.695486 144.024626 
L 178.437045 147.053421 
L 179.178604 147.566061 
L 179.920163 144.651136 
L 180.661722 137.96233 
L 181.403281 142.271701 
L 182.14484 149.114048 
L 182.886399 150.156542 
L 183.627958 141.754316 
L 184.369517 146.721673 
L 185.111076 146.173341 
L 185.852635 149.812334 
L 186.594194 148.627337 
L 187.335753 144.062004 
L 188.077312 148.618671 
L 188.818871 147.422469 
L 189.56043 150.434404 
L 190.301989 144.346748 
L 191.043548 149.942516 
L 191.785107 142.553033 
L 192.526666 153.199218 
L 193.268225 148.383824 
L 194.009784 147.299659 
L 195.492903 141.197466 
L 196.234462 146.581934 
L 196.976021 149.254915 
L 197.71758 149.381872 
L 198.459139 151.161069 
L 199.200698 149.407183 
L 199.942257 153.821032 
L 200.683816 153.563227 
L 201.425375 151.197045 
L 202.166934 132.345711 
L 202.908493 143.541267 
L 203.650052 146.142041 
L 204.391611 153.68986 
L 205.13317 156.51209 
L 205.874729 152.650709 
L 206.616288 155.296194 
L 207.357847 153.192278 
L 208.099406 153.55116 
L 208.840965 156.492229 
L 209.582524 155.440276 
L 210.324083 153.753902 
L 211.065642 156.933818 
L 211.807201 153.83904 
L 212.54876 152.394914 
L 212.54876 152.394914 
" style="fill:none;stroke:#ff7f0e;stroke-linecap:square;stroke-width:1.5;"/>
   </g>
   <g id="patch_3">
    <path d="M 57.6 162.432 
L 57.6 41.472 
" style="fill:none;stroke:#000000;stroke-linecap:square;stroke-linejoin:miter;stroke-width:0.8;"/>
   </g>
   <g id="patch_4">
    <path d="M 219.927273 162.432 
L 219.927273 41.472 
" style="fill:none;stroke:#000000;stroke-linecap:square;stroke-linejoin:miter;stroke-width:0.8;"/>
   </g>
   <g id="patch_5">
    <path d="M 57.6 162.432 
L 219.927273 162.432 
" style="fill:none;stroke:#000000;stroke-linecap:square;stroke-linejoin:miter;stroke-width:0.8;"/>
   </g>
   <g id="patch_6">
    <path d="M 57.6 41.472 
L 219.927273 41.472 
" style="fill:none;stroke:#000000;stroke-linecap:square;stroke-linejoin:miter;stroke-width:0.8;"/>
   </g>
   <g id="legend_1">
    <g id="patch_7">
     <path d="M 131.692898 78.82825 
L 212.927273 78.82825 
Q 214.927273 78.82825 214.927273 76.82825 
L 214.927273 48.472 
Q 214.927273 46.472 212.927273 46.472 
L 131.692898 46.472 
Q 129.692898 46.472 129.692898 48.472 
L 129.692898 76.82825 
Q 129.692898 78.82825 131.692898 78.82825 
z
" style="fill:#ffffff;opacity:0.8;stroke:#cccccc;stroke-linejoin:miter;"/>
    </g>
    <g id="line2d_13">
     <path d="M 133.692898 54.570437 
L 153.692898 54.570437 
" style="fill:none;stroke:#1f77b4;stroke-linecap:square;stroke-width:1.5;"/>
    </g>
    <g id="line2d_14"/>
    <g id="text_13">
     <!-- validation -->
     <defs>
      <path d="M 2.984375 54.6875 
L 12.5 54.6875 
L 29.59375 8.796875 
L 46.6875 54.6875 
L 56.203125 54.6875 
L 35.6875 0 
L 23.484375 0 
z
" id="DejaVuSans-118"/>
      <path d="M 34.28125 27.484375 
Q 23.390625 27.484375 19.1875 25 
Q 14.984375 22.515625 14.984375 16.5 
Q 14.984375 11.71875 18.140625 8.90625 
Q 21.296875 6.109375 26.703125 6.109375 
Q 34.1875 6.109375 38.703125 11.40625 
Q 43.21875 16.703125 43.21875 25.484375 
L 43.21875 27.484375 
z
M 52.203125 31.203125 
L 52.203125 0 
L 43.21875 0 
L 43.21875 8.296875 
Q 40.140625 3.328125 35.546875 0.953125 
Q 30.953125 -1.421875 24.3125 -1.421875 
Q 15.921875 -1.421875 10.953125 3.296875 
Q 6 8.015625 6 15.921875 
Q 6 25.140625 12.171875 29.828125 
Q 18.359375 34.515625 30.609375 34.515625 
L 43.21875 34.515625 
L 43.21875 35.40625 
Q 43.21875 41.609375 39.140625 45 
Q 35.0625 48.390625 27.6875 48.390625 
Q 23 48.390625 18.546875 47.265625 
Q 14.109375 46.140625 10.015625 43.890625 
L 10.015625 52.203125 
Q 14.9375 54.109375 19.578125 55.046875 
Q 24.21875 56 28.609375 56 
Q 40.484375 56 46.34375 49.84375 
Q 52.203125 43.703125 52.203125 31.203125 
z
" id="DejaVuSans-97"/>
      <path d="M 9.421875 54.6875 
L 18.40625 54.6875 
L 18.40625 0 
L 9.421875 0 
z
M 9.421875 75.984375 
L 18.40625 75.984375 
L 18.40625 64.59375 
L 9.421875 64.59375 
z
" id="DejaVuSans-105"/>
      <path d="M 45.40625 46.390625 
L 45.40625 75.984375 
L 54.390625 75.984375 
L 54.390625 0 
L 45.40625 0 
L 45.40625 8.203125 
Q 42.578125 3.328125 38.25 0.953125 
Q 33.9375 -1.421875 27.875 -1.421875 
Q 17.96875 -1.421875 11.734375 6.484375 
Q 5.515625 14.40625 5.515625 27.296875 
Q 5.515625 40.1875 11.734375 48.09375 
Q 17.96875 56 27.875 56 
Q 33.9375 56 38.25 53.625 
Q 42.578125 51.265625 45.40625 46.390625 
z
M 14.796875 27.296875 
Q 14.796875 17.390625 18.875 11.75 
Q 22.953125 6.109375 30.078125 6.109375 
Q 37.203125 6.109375 41.296875 11.75 
Q 45.40625 17.390625 45.40625 27.296875 
Q 45.40625 37.203125 41.296875 42.84375 
Q 37.203125 48.484375 30.078125 48.484375 
Q 22.953125 48.484375 18.875 42.84375 
Q 14.796875 37.203125 14.796875 27.296875 
z
" id="DejaVuSans-100"/>
      <path d="M 18.3125 70.21875 
L 18.3125 54.6875 
L 36.8125 54.6875 
L 36.8125 47.703125 
L 18.3125 47.703125 
L 18.3125 18.015625 
Q 18.3125 11.328125 20.140625 9.421875 
Q 21.96875 7.515625 27.59375 7.515625 
L 36.8125 7.515625 
L 36.8125 0 
L 27.59375 0 
Q 17.1875 0 13.234375 3.875 
Q 9.28125 7.765625 9.28125 18.015625 
L 9.28125 47.703125 
L 2.6875 47.703125 
L 2.6875 54.6875 
L 9.28125 54.6875 
L 9.28125 70.21875 
z
" id="DejaVuSans-116"/>
      <path d="M 54.890625 33.015625 
L 54.890625 0 
L 45.90625 0 
L 45.90625 32.71875 
Q 45.90625 40.484375 42.875 44.328125 
Q 39.84375 48.1875 33.796875 48.1875 
Q 26.515625 48.1875 22.3125 43.546875 
Q 18.109375 38.921875 18.109375 30.90625 
L 18.109375 0 
L 9.078125 0 
L 9.078125 54.6875 
L 18.109375 54.6875 
L 18.109375 46.1875 
Q 21.34375 51.125 25.703125 53.5625 
Q 30.078125 56 35.796875 56 
Q 45.21875 56 50.046875 50.171875 
Q 54.890625 44.34375 54.890625 33.015625 
z
" id="DejaVuSans-110"/>
     </defs>
     <g transform="translate(161.692898 58.070437)scale(0.1 -0.1)">
      <use xlink:href="#DejaVuSans-118"/>
      <use x="59.179688" xlink:href="#DejaVuSans-97"/>
      <use x="120.458984" xlink:href="#DejaVuSans-108"/>
      <use x="148.242188" xlink:href="#DejaVuSans-105"/>
      <use x="176.025391" xlink:href="#DejaVuSans-100"/>
      <use x="239.501953" xlink:href="#DejaVuSans-97"/>
      <use x="300.78125" xlink:href="#DejaVuSans-116"/>
      <use x="339.990234" xlink:href="#DejaVuSans-105"/>
      <use x="367.773438" xlink:href="#DejaVuSans-111"/>
      <use x="428.955078" xlink:href="#DejaVuSans-110"/>
     </g>
    </g>
    <g id="line2d_15">
     <path d="M 133.692898 69.248562 
L 153.692898 69.248562 
" style="fill:none;stroke:#ff7f0e;stroke-linecap:square;stroke-width:1.5;"/>
    </g>
    <g id="line2d_16"/>
    <g id="text_14">
     <!-- training -->
     <defs>
      <path d="M 41.109375 46.296875 
Q 39.59375 47.171875 37.8125 47.578125 
Q 36.03125 48 33.890625 48 
Q 26.265625 48 22.1875 43.046875 
Q 18.109375 38.09375 18.109375 28.8125 
L 18.109375 0 
L 9.078125 0 
L 9.078125 54.6875 
L 18.109375 54.6875 
L 18.109375 46.1875 
Q 20.953125 51.171875 25.484375 53.578125 
Q 30.03125 56 36.53125 56 
Q 37.453125 56 38.578125 55.875 
Q 39.703125 55.765625 41.0625 55.515625 
z
" id="DejaVuSans-114"/>
      <path d="M 45.40625 27.984375 
Q 45.40625 37.75 41.375 43.109375 
Q 37.359375 48.484375 30.078125 48.484375 
Q 22.859375 48.484375 18.828125 43.109375 
Q 14.796875 37.75 14.796875 27.984375 
Q 14.796875 18.265625 18.828125 12.890625 
Q 22.859375 7.515625 30.078125 7.515625 
Q 37.359375 7.515625 41.375 12.890625 
Q 45.40625 18.265625 45.40625 27.984375 
z
M 54.390625 6.78125 
Q 54.390625 -7.171875 48.1875 -13.984375 
Q 42 -20.796875 29.203125 -20.796875 
Q 24.46875 -20.796875 20.265625 -20.09375 
Q 16.0625 -19.390625 12.109375 -17.921875 
L 12.109375 -9.1875 
Q 16.0625 -11.328125 19.921875 -12.34375 
Q 23.78125 -13.375 27.78125 -13.375 
Q 36.625 -13.375 41.015625 -8.765625 
Q 45.40625 -4.15625 45.40625 5.171875 
L 45.40625 9.625 
Q 42.625 4.78125 38.28125 2.390625 
Q 33.9375 0 27.875 0 
Q 17.828125 0 11.671875 7.65625 
Q 5.515625 15.328125 5.515625 27.984375 
Q 5.515625 40.671875 11.671875 48.328125 
Q 17.828125 56 27.875 56 
Q 33.9375 56 38.28125 53.609375 
Q 42.625 51.21875 45.40625 46.390625 
L 45.40625 54.6875 
L 54.390625 54.6875 
z
" id="DejaVuSans-103"/>
     </defs>
     <g transform="translate(161.692898 72.748562)scale(0.1 -0.1)">
      <use xlink:href="#DejaVuSans-116"/>
      <use x="39.208984" xlink:href="#DejaVuSans-114"/>
      <use x="80.322266" xlink:href="#DejaVuSans-97"/>
      <use x="141.601562" xlink:href="#DejaVuSans-105"/>
      <use x="169.384766" xlink:href="#DejaVuSans-110"/>
      <use x="232.763672" xlink:href="#DejaVuSans-105"/>
      <use x="260.546875" xlink:href="#DejaVuSans-110"/>
      <use x="323.925781" xlink:href="#DejaVuSans-103"/>
     </g>
    </g>
   </g>
  </g>
  <g id="axes_2">
   <g id="patch_8">
    <path d="M 252.392727 162.432 
L 414.72 162.432 
L 414.72 41.472 
L 252.392727 41.472 
z
" style="fill:#ffffff;"/>
   </g>
   <g id="matplotlib.axis_3">
    <g id="xtick_6">
     <g id="line2d_17">
      <g>
       <use style="stroke:#000000;stroke-width:0.8;" x="259.77124" xlink:href="#m8826ace17f" y="162.432"/>
      </g>
     </g>
     <g id="text_15">
      <!-- 0 -->
      <g transform="translate(256.58999 177.030437)scale(0.1 -0.1)">
       <use xlink:href="#DejaVuSans-48"/>
      </g>
     </g>
    </g>
    <g id="xtick_7">
     <g id="line2d_18">
      <g>
       <use style="stroke:#000000;stroke-width:0.8;" x="296.849191" xlink:href="#m8826ace17f" y="162.432"/>
      </g>
     </g>
     <g id="text_16">
      <!-- 50 -->
      <g transform="translate(290.486691 177.030437)scale(0.1 -0.1)">
       <use xlink:href="#DejaVuSans-53"/>
       <use x="63.623047" xlink:href="#DejaVuSans-48"/>
      </g>
     </g>
    </g>
    <g id="xtick_8">
     <g id="line2d_19">
      <g>
       <use style="stroke:#000000;stroke-width:0.8;" x="333.927143" xlink:href="#m8826ace17f" y="162.432"/>
      </g>
     </g>
     <g id="text_17">
      <!-- 100 -->
      <g transform="translate(324.383393 177.030437)scale(0.1 -0.1)">
       <use xlink:href="#DejaVuSans-49"/>
       <use x="63.623047" xlink:href="#DejaVuSans-48"/>
       <use x="127.246094" xlink:href="#DejaVuSans-48"/>
      </g>
     </g>
    </g>
    <g id="xtick_9">
     <g id="line2d_20">
      <g>
       <use style="stroke:#000000;stroke-width:0.8;" x="371.005095" xlink:href="#m8826ace17f" y="162.432"/>
      </g>
     </g>
     <g id="text_18">
      <!-- 150 -->
      <g transform="translate(361.461345 177.030437)scale(0.1 -0.1)">
       <use xlink:href="#DejaVuSans-49"/>
       <use x="63.623047" xlink:href="#DejaVuSans-53"/>
       <use x="127.246094" xlink:href="#DejaVuSans-48"/>
      </g>
     </g>
    </g>
    <g id="xtick_10">
     <g id="line2d_21">
      <g>
       <use style="stroke:#000000;stroke-width:0.8;" x="408.083047" xlink:href="#m8826ace17f" y="162.432"/>
      </g>
     </g>
     <g id="text_19">
      <!-- 200 -->
      <g transform="translate(398.539297 177.030437)scale(0.1 -0.1)">
       <use xlink:href="#DejaVuSans-50"/>
       <use x="63.623047" xlink:href="#DejaVuSans-48"/>
       <use x="127.246094" xlink:href="#DejaVuSans-48"/>
      </g>
     </g>
    </g>
    <g id="text_20">
     <!-- # epochs -->
     <g transform="translate(309.944645 190.708562)scale(0.1 -0.1)">
      <use xlink:href="#DejaVuSans-35"/>
      <use x="83.789062" xlink:href="#DejaVuSans-32"/>
      <use x="115.576172" xlink:href="#DejaVuSans-101"/>
      <use x="177.099609" xlink:href="#DejaVuSans-112"/>
      <use x="240.576172" xlink:href="#DejaVuSans-111"/>
      <use x="301.757812" xlink:href="#DejaVuSans-99"/>
      <use x="356.738281" xlink:href="#DejaVuSans-104"/>
      <use x="420.117188" xlink:href="#DejaVuSans-115"/>
     </g>
    </g>
   </g>
   <g id="matplotlib.axis_4">
    <g id="ytick_6">
     <g id="line2d_22">
      <g>
       <use style="stroke:#000000;stroke-width:0.8;" x="252.392727" xlink:href="#ma4c266ef9d" y="153.3479"/>
      </g>
     </g>
     <g id="text_21">
      <!-- 55 -->
      <g transform="translate(232.667727 157.147118)scale(0.1 -0.1)">
       <use xlink:href="#DejaVuSans-53"/>
       <use x="63.623047" xlink:href="#DejaVuSans-53"/>
      </g>
     </g>
    </g>
    <g id="ytick_7">
     <g id="line2d_23">
      <g>
       <use style="stroke:#000000;stroke-width:0.8;" x="252.392727" xlink:href="#ma4c266ef9d" y="131.755554"/>
      </g>
     </g>
     <g id="text_22">
      <!-- 60 -->
      <g transform="translate(232.667727 135.554773)scale(0.1 -0.1)">
       <use xlink:href="#DejaVuSans-54"/>
       <use x="63.623047" xlink:href="#DejaVuSans-48"/>
      </g>
     </g>
    </g>
    <g id="ytick_8">
     <g id="line2d_24">
      <g>
       <use style="stroke:#000000;stroke-width:0.8;" x="252.392727" xlink:href="#ma4c266ef9d" y="110.163209"/>
      </g>
     </g>
     <g id="text_23">
      <!-- 65 -->
      <g transform="translate(232.667727 113.962428)scale(0.1 -0.1)">
       <use xlink:href="#DejaVuSans-54"/>
       <use x="63.623047" xlink:href="#DejaVuSans-53"/>
      </g>
     </g>
    </g>
    <g id="ytick_9">
     <g id="line2d_25">
      <g>
       <use style="stroke:#000000;stroke-width:0.8;" x="252.392727" xlink:href="#ma4c266ef9d" y="88.570864"/>
      </g>
     </g>
     <g id="text_24">
      <!-- 70 -->
      <defs>
       <path d="M 8.203125 72.90625 
L 55.078125 72.90625 
L 55.078125 68.703125 
L 28.609375 0 
L 18.3125 0 
L 43.21875 64.59375 
L 8.203125 64.59375 
z
" id="DejaVuSans-55"/>
      </defs>
      <g transform="translate(232.667727 92.370083)scale(0.1 -0.1)">
       <use xlink:href="#DejaVuSans-55"/>
       <use x="63.623047" xlink:href="#DejaVuSans-48"/>
      </g>
     </g>
    </g>
    <g id="ytick_10">
     <g id="line2d_26">
      <g>
       <use style="stroke:#000000;stroke-width:0.8;" x="252.392727" xlink:href="#ma4c266ef9d" y="66.978519"/>
      </g>
     </g>
     <g id="text_25">
      <!-- 75 -->
      <g transform="translate(232.667727 70.777738)scale(0.1 -0.1)">
       <use xlink:href="#DejaVuSans-55"/>
       <use x="63.623047" xlink:href="#DejaVuSans-53"/>
      </g>
     </g>
    </g>
    <g id="ytick_11">
     <g id="line2d_27">
      <g>
       <use style="stroke:#000000;stroke-width:0.8;" x="252.392727" xlink:href="#ma4c266ef9d" y="45.386174"/>
      </g>
     </g>
     <g id="text_26">
      <!-- 80 -->
      <g transform="translate(232.667727 49.185393)scale(0.1 -0.1)">
       <use xlink:href="#DejaVuSans-56"/>
       <use x="63.623047" xlink:href="#DejaVuSans-48"/>
      </g>
     </g>
    </g>
    <g id="text_27">
     <!-- prd -->
     <g transform="translate(226.58804 110.268406)rotate(-90)scale(0.1 -0.1)">
      <use xlink:href="#DejaVuSans-112"/>
      <use x="63.476562" xlink:href="#DejaVuSans-114"/>
      <use x="102.839844" xlink:href="#DejaVuSans-100"/>
     </g>
    </g>
   </g>
   <g id="line2d_28">
    <path clip-path="url(#p2c1c102dd4)" d="M 259.77124 50.292852 
L 260.512799 46.970182 
L 261.254358 55.955505 
L 261.995917 62.17276 
L 262.737476 62.29305 
L 263.479035 65.099271 
L 264.220594 71.447129 
L 264.962153 68.216679 
L 265.703712 73.138183 
L 266.445271 74.514589 
L 267.18683 70.680544 
L 267.928389 79.542249 
L 268.669948 75.379258 
L 269.411507 81.036574 
L 270.153066 72.820538 
L 270.894625 82.534424 
L 271.636184 81.151856 
L 272.377743 82.740938 
L 273.119302 84.964123 
L 273.860861 80.461841 
L 274.60242 87.713279 
L 275.343979 85.429603 
L 276.085538 88.516567 
L 278.310216 93.391714 
L 279.051775 89.184673 
L 279.793334 96.05636 
L 280.534893 94.64671 
L 281.276452 97.271391 
L 282.018011 93.777098 
L 282.75957 96.20258 
L 283.501129 97.473424 
L 284.984247 98.992261 
L 285.725806 99.141414 
L 286.467365 99.945031 
L 287.208924 100.048585 
L 287.950483 99.998637 
L 288.692042 98.85866 
L 289.433601 95.947206 
L 290.17516 96.03926 
L 290.916719 101.550356 
L 291.658278 98.319313 
L 292.399837 103.32012 
L 293.141396 102.925708 
L 293.882955 104.404284 
L 294.624514 102.842088 
L 295.366073 102.17787 
L 296.107632 105.431548 
L 296.849191 103.476554 
L 297.59075 104.352788 
L 298.332309 104.645096 
L 299.073869 104.1213 
L 299.815428 106.011586 
L 300.556987 106.639891 
L 302.040105 107.301604 
L 302.781664 107.211922 
L 303.523223 108.683579 
L 304.264782 102.864624 
L 305.006341 107.353661 
L 305.7479 107.129521 
L 306.489459 109.926845 
L 307.231018 107.138713 
L 307.972577 109.980912 
L 308.714136 109.343019 
L 310.197254 103.732752 
L 310.938813 103.743757 
L 311.680372 108.566715 
L 312.421931 107.672294 
L 313.16349 108.167328 
L 313.905049 108.517426 
L 314.646608 111.119801 
L 315.388167 108.352755 
L 316.129726 112.619299 
L 316.871285 112.93243 
L 317.612844 111.077497 
L 318.354403 113.846916 
L 319.095962 110.139092 
L 319.837521 114.159948 
L 320.579081 106.540686 
L 321.32064 105.052028 
L 322.062199 114.166537 
L 322.803758 113.822008 
L 323.545317 113.941969 
L 324.286876 112.685062 
L 325.028435 113.868397 
L 325.769994 111.461531 
L 326.511553 114.313417 
L 327.253112 115.144413 
L 327.994671 115.288789 
L 328.73623 113.211758 
L 329.477789 116.173144 
L 330.219348 115.513324 
L 330.960907 116.529716 
L 332.444025 117.604687 
L 333.185584 118.952051 
L 333.927143 115.928543 
L 334.668702 113.788895 
L 335.410261 119.933749 
L 336.15182 112.194773 
L 336.893379 118.609531 
L 337.634938 112.580553 
L 338.376497 120.787479 
L 339.118056 119.759622 
L 339.859615 119.205893 
L 340.601174 120.995047 
L 341.342734 120.875959 
L 342.084293 118.484018 
L 342.825852 121.922712 
L 343.567411 123.012757 
L 345.050529 114.822667 
L 345.792088 121.672279 
L 346.533647 123.42384 
L 347.275206 120.001851 
L 348.016765 123.308739 
L 348.758324 120.656234 
L 349.499883 111.532598 
L 350.241442 125.203835 
L 350.983001 113.374814 
L 351.72456 118.908561 
L 352.466119 119.307454 
L 353.207678 125.307602 
L 353.949237 122.644076 
L 354.690796 123.220786 
L 355.432355 124.417449 
L 356.173914 126.446129 
L 356.915473 125.793806 
L 357.657032 126.32093 
L 358.398591 115.965098 
L 359.14015 125.985394 
L 359.881709 124.486589 
L 360.623268 126.732013 
L 361.364827 128.163821 
L 362.106386 127.821828 
L 362.847946 126.925562 
L 363.589505 124.027122 
L 364.331064 128.889452 
L 365.072623 118.52344 
L 365.814182 129.363152 
L 366.555741 126.028967 
L 367.2973 120.77888 
L 368.038859 127.168713 
L 368.780418 126.753676 
L 369.521977 125.637207 
L 370.263536 123.478698 
L 371.005095 128.913289 
L 371.746654 129.944738 
L 372.488213 128.145535 
L 373.229772 130.725655 
L 373.971331 132.707962 
L 374.71289 132.88143 
L 375.454449 128.659463 
L 376.196008 131.901215 
L 376.937567 131.768733 
L 377.679126 133.431485 
L 378.420685 133.001967 
L 379.162244 133.368918 
L 379.903803 131.983385 
L 380.645362 129.465552 
L 381.386921 133.553061 
L 382.12848 131.939615 
L 382.870039 134.000716 
L 383.611598 133.935183 
L 384.353158 133.634869 
L 385.094717 136.78099 
L 385.836276 134.16733 
L 386.577835 136.394008 
L 387.319394 134.014504 
L 388.060953 135.995955 
L 388.802512 135.051125 
L 389.544071 127.516291 
L 390.28563 135.7304 
L 391.027189 135.391257 
L 391.768748 137.096609 
L 392.510307 133.315197 
L 393.251866 126.444762 
L 393.993425 135.369973 
L 394.734984 136.088702 
L 395.476543 138.748768 
L 396.218102 135.059938 
L 396.959661 132.316812 
L 397.70122 137.05638 
L 398.442779 136.29678 
L 399.184338 138.914163 
L 399.925897 137.537938 
L 400.667456 135.2908 
L 401.409015 137.465751 
L 402.150574 136.097449 
L 402.892133 138.602976 
L 403.633692 139.981656 
L 404.375251 138.684109 
L 405.85837 137.929352 
L 406.599929 137.780529 
L 407.341488 140.575729 
L 407.341488 140.575729 
" style="fill:none;stroke:#1f77b4;stroke-linecap:square;stroke-width:1.5;"/>
   </g>
   <g id="line2d_29">
    <path clip-path="url(#p2c1c102dd4)" d="M 259.77124 59.368516 
L 260.512799 65.31333 
L 261.254358 75.298867 
L 261.995917 83.261044 
L 262.737476 81.193205 
L 263.479035 78.014449 
L 265.703712 89.485712 
L 266.445271 89.504064 
L 267.18683 86.57182 
L 267.928389 88.281851 
L 268.669948 91.403772 
L 269.411507 98.46036 
L 270.153066 85.496189 
L 270.894625 82.302673 
L 271.636184 92.874375 
L 272.377743 92.743047 
L 273.119302 85.580864 
L 273.860861 98.012409 
L 274.60242 95.366476 
L 276.085538 101.415832 
L 276.827097 98.493406 
L 278.310216 107.506207 
L 279.051775 106.37137 
L 279.793334 102.788516 
L 280.534893 103.452437 
L 281.276452 107.52614 
L 282.018011 109.624488 
L 282.75957 104.51591 
L 283.501129 103.537968 
L 284.242688 108.66447 
L 284.984247 110.972824 
L 286.467365 119.654982 
L 287.208924 116.650517 
L 287.950483 112.499733 
L 288.692042 116.047779 
L 289.433601 112.466819 
L 290.17516 111.039245 
L 290.916719 112.484709 
L 291.658278 109.481826 
L 292.399837 112.542104 
L 293.141396 107.619216 
L 293.882955 111.691701 
L 294.624514 111.820722 
L 296.107632 113.869979 
L 296.849191 123.761352 
L 297.59075 114.765157 
L 298.332309 117.157807 
L 299.073869 112.781696 
L 299.815428 115.545168 
L 300.556987 115.927324 
L 302.040105 120.888792 
L 302.781664 118.145896 
L 303.523223 121.270866 
L 304.264782 120.683366 
L 305.006341 124.099013 
L 305.7479 114.147725 
L 306.489459 123.027632 
L 307.231018 123.511612 
L 307.972577 122.598593 
L 308.714136 126.225102 
L 309.455695 122.926649 
L 310.197254 115.767282 
L 310.938813 113.841084 
L 311.680372 123.754582 
L 312.421931 118.415801 
L 313.16349 119.639381 
L 313.905049 127.096592 
L 314.646608 122.436558 
L 315.388167 122.658359 
L 316.129726 125.051421 
L 316.871285 127.995921 
L 317.612844 123.017402 
L 318.354403 121.438156 
L 319.095962 127.051948 
L 320.579081 116.245298 
L 321.32064 97.242166 
L 322.062199 123.709428 
L 322.803758 125.217228 
L 323.545317 126.391157 
L 324.286876 123.71007 
L 325.028435 132.641392 
L 325.769994 125.066906 
L 326.511553 127.820312 
L 327.253112 125.034898 
L 327.994671 126.459209 
L 328.73623 125.238759 
L 329.477789 126.598906 
L 330.219348 129.304539 
L 330.960907 125.603173 
L 331.702466 132.209815 
L 332.444025 124.29958 
L 333.185584 130.706199 
L 333.927143 127.740843 
L 334.668702 132.912878 
L 335.410261 130.469638 
L 336.15182 126.745587 
L 336.893379 117.05058 
L 337.634938 128.519866 
L 338.376497 122.088157 
L 339.118056 127.078635 
L 339.859615 134.47547 
L 340.601174 133.891775 
L 341.342734 128.195747 
L 342.084293 130.481021 
L 342.825852 134.400959 
L 343.567411 134.031999 
L 344.30897 131.406527 
L 345.050529 139.554511 
L 345.792088 133.824777 
L 346.533647 126.807281 
L 347.275206 134.883621 
L 348.016765 123.786046 
L 348.758324 137.408258 
L 349.499883 125.81481 
L 350.241442 127.206339 
L 350.983001 127.378093 
L 351.72456 122.654867 
L 352.466119 131.772638 
L 353.207678 130.341308 
L 353.949237 140.193244 
L 354.690796 137.266584 
L 355.432355 141.688639 
L 356.173914 136.851761 
L 356.915473 136.125009 
L 357.657032 136.445455 
L 358.398591 135.664357 
L 359.14015 138.96113 
L 359.881709 136.865088 
L 360.623268 140.298082 
L 361.364827 124.319826 
L 362.106386 144.347668 
L 362.847946 146.223259 
L 363.589505 136.3022 
L 364.331064 138.718918 
L 365.072623 145.053548 
L 365.814182 140.967291 
L 366.555741 133.93464 
L 367.2973 139.05073 
L 368.038859 138.443132 
L 368.780418 137.324308 
L 369.521977 138.854265 
L 370.263536 138.434039 
L 371.005095 131.302018 
L 371.746654 136.494546 
L 372.488213 139.637554 
L 373.229772 145.225005 
L 373.971331 145.812769 
L 374.71289 134.777432 
L 375.454449 131.472949 
L 376.196008 142.436033 
L 376.937567 147.377502 
L 377.679126 149.977637 
L 378.420685 131.789573 
L 379.903803 147.110332 
L 380.645362 148.077072 
L 381.386921 145.784302 
L 382.12848 142.708144 
L 382.870039 145.43997 
L 383.611598 142.890079 
L 384.353158 148.333435 
L 385.094717 137.555087 
L 385.836276 149.808914 
L 386.577835 134.338211 
L 387.319394 152.436495 
L 388.060953 143.846095 
L 388.802512 146.261462 
L 389.544071 147.787894 
L 390.28563 138.43483 
L 391.027189 144.677405 
L 391.768748 148.672759 
L 392.510307 142.034767 
L 393.251866 146.38989 
L 393.993425 146.254889 
L 394.734984 152.339761 
L 395.476543 149.795472 
L 396.218102 143.49799 
L 396.959661 135.62566 
L 397.70122 135.593734 
L 398.442779 147.805949 
L 399.184338 151.586603 
L 399.925897 156.933818 
L 400.667456 148.597228 
L 401.409015 154.781305 
L 402.150574 150.10768 
L 402.892133 153.384801 
L 403.633692 143.087401 
L 404.375251 153.737403 
L 405.11681 144.467102 
L 405.85837 155.320652 
L 406.599929 149.001277 
L 407.341488 151.633651 
L 407.341488 151.633651 
" style="fill:none;stroke:#ff7f0e;stroke-linecap:square;stroke-width:1.5;"/>
   </g>
   <g id="patch_9">
    <path d="M 252.392727 162.432 
L 252.392727 41.472 
" style="fill:none;stroke:#000000;stroke-linecap:square;stroke-linejoin:miter;stroke-width:0.8;"/>
   </g>
   <g id="patch_10">
    <path d="M 414.72 162.432 
L 414.72 41.472 
" style="fill:none;stroke:#000000;stroke-linecap:square;stroke-linejoin:miter;stroke-width:0.8;"/>
   </g>
   <g id="patch_11">
    <path d="M 252.392727 162.432 
L 414.72 162.432 
" style="fill:none;stroke:#000000;stroke-linecap:square;stroke-linejoin:miter;stroke-width:0.8;"/>
   </g>
   <g id="patch_12">
    <path d="M 252.392727 41.472 
L 414.72 41.472 
" style="fill:none;stroke:#000000;stroke-linecap:square;stroke-linejoin:miter;stroke-width:0.8;"/>
   </g>
   <g id="legend_2">
    <g id="patch_13">
     <path d="M 326.485625 78.82825 
L 407.72 78.82825 
Q 409.72 78.82825 409.72 76.82825 
L 409.72 48.472 
Q 409.72 46.472 407.72 46.472 
L 326.485625 46.472 
Q 324.485625 46.472 324.485625 48.472 
L 324.485625 76.82825 
Q 324.485625 78.82825 326.485625 78.82825 
z
" style="fill:#ffffff;opacity:0.8;stroke:#cccccc;stroke-linejoin:miter;"/>
    </g>
    <g id="line2d_30">
     <path d="M 328.485625 54.570437 
L 348.485625 54.570437 
" style="fill:none;stroke:#1f77b4;stroke-linecap:square;stroke-width:1.5;"/>
    </g>
    <g id="line2d_31"/>
    <g id="text_28">
     <!-- validation -->
     <g transform="translate(356.485625 58.070437)scale(0.1 -0.1)">
      <use xlink:href="#DejaVuSans-118"/>
      <use x="59.179688" xlink:href="#DejaVuSans-97"/>
      <use x="120.458984" xlink:href="#DejaVuSans-108"/>
      <use x="148.242188" xlink:href="#DejaVuSans-105"/>
      <use x="176.025391" xlink:href="#DejaVuSans-100"/>
      <use x="239.501953" xlink:href="#DejaVuSans-97"/>
      <use x="300.78125" xlink:href="#DejaVuSans-116"/>
      <use x="339.990234" xlink:href="#DejaVuSans-105"/>
      <use x="367.773438" xlink:href="#DejaVuSans-111"/>
      <use x="428.955078" xlink:href="#DejaVuSans-110"/>
     </g>
    </g>
    <g id="line2d_32">
     <path d="M 328.485625 69.248562 
L 348.485625 69.248562 
" style="fill:none;stroke:#ff7f0e;stroke-linecap:square;stroke-width:1.5;"/>
    </g>
    <g id="line2d_33"/>
    <g id="text_29">
     <!-- training -->
     <g transform="translate(356.485625 72.748562)scale(0.1 -0.1)">
      <use xlink:href="#DejaVuSans-116"/>
      <use x="39.208984" xlink:href="#DejaVuSans-114"/>
      <use x="80.322266" xlink:href="#DejaVuSans-97"/>
      <use x="141.601562" xlink:href="#DejaVuSans-105"/>
      <use x="169.384766" xlink:href="#DejaVuSans-110"/>
      <use x="232.763672" xlink:href="#DejaVuSans-105"/>
      <use x="260.546875" xlink:href="#DejaVuSans-110"/>
      <use x="323.925781" xlink:href="#DejaVuSans-103"/>
     </g>
    </g>
   </g>
  </g>
  <g id="axes_3">
   <g id="patch_14">
    <path d="M 57.6 307.584 
L 219.927273 307.584 
L 219.927273 186.624 
L 57.6 186.624 
z
" style="fill:#ffffff;"/>
   </g>
   <g id="matplotlib.axis_5">
    <g id="xtick_11">
     <g id="line2d_34">
      <g>
       <use style="stroke:#000000;stroke-width:0.8;" x="64.978512" xlink:href="#m8826ace17f" y="307.584"/>
      </g>
     </g>
     <g id="text_30">
      <!-- 0 -->
      <g transform="translate(61.797262 322.182437)scale(0.1 -0.1)">
       <use xlink:href="#DejaVuSans-48"/>
      </g>
     </g>
    </g>
    <g id="xtick_12">
     <g id="line2d_35">
      <g>
       <use style="stroke:#000000;stroke-width:0.8;" x="102.056464" xlink:href="#m8826ace17f" y="307.584"/>
      </g>
     </g>
     <g id="text_31">
      <!-- 50 -->
      <g transform="translate(95.693964 322.182437)scale(0.1 -0.1)">
       <use xlink:href="#DejaVuSans-53"/>
       <use x="63.623047" xlink:href="#DejaVuSans-48"/>
      </g>
     </g>
    </g>
    <g id="xtick_13">
     <g id="line2d_36">
      <g>
       <use style="stroke:#000000;stroke-width:0.8;" x="139.134416" xlink:href="#m8826ace17f" y="307.584"/>
      </g>
     </g>
     <g id="text_32">
      <!-- 100 -->
      <g transform="translate(129.590666 322.182437)scale(0.1 -0.1)">
       <use xlink:href="#DejaVuSans-49"/>
       <use x="63.623047" xlink:href="#DejaVuSans-48"/>
       <use x="127.246094" xlink:href="#DejaVuSans-48"/>
      </g>
     </g>
    </g>
    <g id="xtick_14">
     <g id="line2d_37">
      <g>
       <use style="stroke:#000000;stroke-width:0.8;" x="176.212368" xlink:href="#m8826ace17f" y="307.584"/>
      </g>
     </g>
     <g id="text_33">
      <!-- 150 -->
      <g transform="translate(166.668618 322.182437)scale(0.1 -0.1)">
       <use xlink:href="#DejaVuSans-49"/>
       <use x="63.623047" xlink:href="#DejaVuSans-53"/>
       <use x="127.246094" xlink:href="#DejaVuSans-48"/>
      </g>
     </g>
    </g>
    <g id="xtick_15">
     <g id="line2d_38">
      <g>
       <use style="stroke:#000000;stroke-width:0.8;" x="213.290319" xlink:href="#m8826ace17f" y="307.584"/>
      </g>
     </g>
     <g id="text_34">
      <!-- 200 -->
      <g transform="translate(203.746569 322.182437)scale(0.1 -0.1)">
       <use xlink:href="#DejaVuSans-50"/>
       <use x="63.623047" xlink:href="#DejaVuSans-48"/>
       <use x="127.246094" xlink:href="#DejaVuSans-48"/>
      </g>
     </g>
    </g>
    <g id="text_35">
     <!-- # epochs -->
     <g transform="translate(115.151918 335.860562)scale(0.1 -0.1)">
      <use xlink:href="#DejaVuSans-35"/>
      <use x="83.789062" xlink:href="#DejaVuSans-32"/>
      <use x="115.576172" xlink:href="#DejaVuSans-101"/>
      <use x="177.099609" xlink:href="#DejaVuSans-112"/>
      <use x="240.576172" xlink:href="#DejaVuSans-111"/>
      <use x="301.757812" xlink:href="#DejaVuSans-99"/>
      <use x="356.738281" xlink:href="#DejaVuSans-104"/>
      <use x="420.117188" xlink:href="#DejaVuSans-115"/>
     </g>
    </g>
   </g>
   <g id="matplotlib.axis_6">
    <g id="ytick_12">
     <g id="line2d_39">
      <g>
       <use style="stroke:#000000;stroke-width:0.8;" x="57.6" xlink:href="#ma4c266ef9d" y="290.460763"/>
      </g>
     </g>
     <g id="text_36">
      <!-- 60 -->
      <g transform="translate(37.875 294.259982)scale(0.1 -0.1)">
       <use xlink:href="#DejaVuSans-54"/>
       <use x="63.623047" xlink:href="#DejaVuSans-48"/>
      </g>
     </g>
    </g>
    <g id="ytick_13">
     <g id="line2d_40">
      <g>
       <use style="stroke:#000000;stroke-width:0.8;" x="57.6" xlink:href="#ma4c266ef9d" y="268.895353"/>
      </g>
     </g>
     <g id="text_37">
      <!-- 65 -->
      <g transform="translate(37.875 272.694572)scale(0.1 -0.1)">
       <use xlink:href="#DejaVuSans-54"/>
       <use x="63.623047" xlink:href="#DejaVuSans-53"/>
      </g>
     </g>
    </g>
    <g id="ytick_14">
     <g id="line2d_41">
      <g>
       <use style="stroke:#000000;stroke-width:0.8;" x="57.6" xlink:href="#ma4c266ef9d" y="247.329942"/>
      </g>
     </g>
     <g id="text_38">
      <!-- 70 -->
      <g transform="translate(37.875 251.129161)scale(0.1 -0.1)">
       <use xlink:href="#DejaVuSans-55"/>
       <use x="63.623047" xlink:href="#DejaVuSans-48"/>
      </g>
     </g>
    </g>
    <g id="ytick_15">
     <g id="line2d_42">
      <g>
       <use style="stroke:#000000;stroke-width:0.8;" x="57.6" xlink:href="#ma4c266ef9d" y="225.764532"/>
      </g>
     </g>
     <g id="text_39">
      <!-- 75 -->
      <g transform="translate(37.875 229.56375)scale(0.1 -0.1)">
       <use xlink:href="#DejaVuSans-55"/>
       <use x="63.623047" xlink:href="#DejaVuSans-53"/>
      </g>
     </g>
    </g>
    <g id="ytick_16">
     <g id="line2d_43">
      <g>
       <use style="stroke:#000000;stroke-width:0.8;" x="57.6" xlink:href="#ma4c266ef9d" y="204.199121"/>
      </g>
     </g>
     <g id="text_40">
      <!-- 80 -->
      <g transform="translate(37.875 207.99834)scale(0.1 -0.1)">
       <use xlink:href="#DejaVuSans-56"/>
       <use x="63.623047" xlink:href="#DejaVuSans-48"/>
      </g>
     </g>
    </g>
    <g id="text_41">
     <!-- prdn -->
     <g transform="translate(31.795313 258.589156)rotate(-90)scale(0.1 -0.1)">
      <use xlink:href="#DejaVuSans-112"/>
      <use x="63.476562" xlink:href="#DejaVuSans-114"/>
      <use x="102.839844" xlink:href="#DejaVuSans-100"/>
      <use x="166.316406" xlink:href="#DejaVuSans-110"/>
     </g>
    </g>
   </g>
   <g id="line2d_44">
    <path clip-path="url(#p541635b588)" d="M 64.978512 200.865854 
L 65.720071 197.551936 
L 66.46163 206.736189 
L 67.20319 213.004262 
L 67.944749 213.170142 
L 68.686308 216.034101 
L 69.427867 222.482796 
L 70.169426 219.279179 
L 70.910985 224.194708 
L 71.652544 225.635967 
L 72.394103 221.744117 
L 73.135662 230.640244 
L 73.877221 226.537926 
L 74.61878 232.181702 
L 75.360339 223.923035 
L 76.101898 233.692953 
L 76.843457 232.337283 
L 77.585016 233.973643 
L 78.326575 236.173357 
L 79.068134 231.763399 
L 79.809693 238.936425 
L 80.551252 236.793573 
L 81.292811 239.87978 
L 83.517488 244.892876 
L 84.259047 240.738369 
L 85.000606 247.558542 
L 85.742165 246.215936 
L 86.483724 248.78104 
L 87.225283 245.392721 
L 87.966842 247.816526 
L 89.449961 249.783791 
L 90.19152 250.593909 
L 90.933079 250.740177 
L 91.674638 251.544766 
L 92.416197 251.666322 
L 93.157756 251.485009 
L 93.899315 250.551624 
L 94.640874 247.237739 
L 95.382433 247.757789 
L 96.123992 253.033838 
L 96.865551 250.015549 
L 97.60711 254.907649 
L 98.348669 254.598199 
L 99.090228 256.015173 
L 99.831787 254.408988 
L 100.573346 253.943826 
L 101.314905 257.089857 
L 102.056464 255.201436 
L 102.798023 256.1261 
L 103.539582 256.288031 
L 104.281141 255.679464 
L 105.0227 257.785823 
L 105.764259 258.342662 
L 107.247377 259.015824 
L 107.988936 259.039813 
L 108.730495 260.405519 
L 109.472054 254.564964 
L 110.213614 258.997594 
L 110.955173 259.001707 
L 111.696732 261.672145 
L 112.438291 258.921087 
L 113.17985 261.831707 
L 113.921409 261.110469 
L 115.404527 255.649026 
L 116.146086 255.212887 
L 116.887645 260.504632 
L 117.629204 259.225108 
L 118.370763 260.021536 
L 119.112322 260.337107 
L 119.853881 262.919783 
L 120.59544 260.015087 
L 121.336999 264.489837 
L 122.078558 264.726663 
L 122.820117 263.047361 
L 123.561676 265.661002 
L 124.303235 261.966162 
L 125.044794 266.003885 
L 125.786353 258.514696 
L 126.527912 256.705479 
L 127.269471 265.981311 
L 128.01103 265.757878 
L 128.752589 265.912537 
L 129.494148 264.465322 
L 130.235707 265.870384 
L 130.977266 263.161776 
L 131.718826 266.246469 
L 132.460385 267.123123 
L 133.201944 267.139807 
L 133.943503 265.25823 
L 134.685062 268.073356 
L 135.426621 267.3663 
L 136.16818 268.457898 
L 136.909739 269.092593 
L 137.651298 269.566541 
L 138.392857 270.957321 
L 139.875975 265.547245 
L 140.617534 271.958953 
L 141.359093 264.300594 
L 142.100652 270.507165 
L 142.842211 264.392007 
L 143.58377 272.800793 
L 144.325329 271.792645 
L 145.066888 271.1362 
L 145.808447 273.116034 
L 146.550006 273.02472 
L 147.291565 270.477944 
L 148.033124 273.95715 
L 148.774683 275.094355 
L 150.257801 266.682838 
L 150.99936 273.818697 
L 151.740919 275.558761 
L 152.482479 271.922164 
L 153.224038 275.40114 
L 153.965597 272.665417 
L 154.707156 263.678403 
L 155.448715 277.355357 
L 156.190274 265.168988 
L 156.931833 271.038797 
L 157.673392 271.337849 
L 158.414951 277.481536 
L 159.15651 274.893595 
L 159.898069 275.282579 
L 160.639628 276.619969 
L 161.381187 278.636478 
L 162.122746 278.057724 
L 162.864305 278.449867 
L 163.605864 267.893063 
L 164.347423 278.260854 
L 165.088982 276.763358 
L 165.830541 278.910735 
L 166.5721 280.414104 
L 167.313659 280.028361 
L 168.055218 279.141292 
L 168.796777 276.363564 
L 169.538336 281.084568 
L 170.279895 270.533391 
L 171.021454 281.605704 
L 171.763013 278.378033 
L 172.504572 272.643172 
L 173.246131 279.450347 
L 173.987691 278.88854 
L 174.72925 277.721636 
L 175.470809 275.832409 
L 176.212368 281.150101 
L 176.953927 282.220474 
L 177.695486 280.200839 
L 178.437045 283.120541 
L 179.178604 285.075778 
L 179.920163 285.221569 
L 180.661722 280.916022 
L 181.403281 284.116233 
L 182.14484 284.168143 
L 182.886399 285.73359 
L 183.627958 285.377413 
L 184.369517 285.766808 
L 185.111076 284.240273 
L 185.852635 281.723639 
L 186.594194 285.844813 
L 187.335753 284.379861 
L 188.077312 286.295841 
L 188.818871 286.295463 
L 189.56043 286.038169 
L 190.301989 289.170478 
L 191.043548 286.624788 
L 191.785107 288.76231 
L 192.526666 286.469191 
L 193.268225 288.435535 
L 194.009784 287.360505 
L 194.751343 279.912433 
L 195.492903 288.015076 
L 196.234462 287.883648 
L 196.976021 289.544391 
L 197.71758 285.759158 
L 198.459139 278.465958 
L 199.200698 287.809675 
L 199.942257 288.441211 
L 200.683816 291.214793 
L 201.425375 287.488905 
L 202.166934 284.394307 
L 202.908493 289.531788 
L 203.650052 288.774353 
L 204.391611 291.30127 
L 205.13317 290.039613 
L 205.874729 287.759032 
L 206.616288 289.821281 
L 207.357847 288.63312 
L 208.099406 291.117407 
L 208.840965 292.504551 
L 209.582524 291.155446 
L 210.324083 290.818964 
L 211.065642 290.284222 
L 211.807201 290.36833 
L 212.54876 292.973267 
L 212.54876 292.973267 
" style="fill:none;stroke:#1f77b4;stroke-linecap:square;stroke-width:1.5;"/>
   </g>
   <g id="line2d_45">
    <path clip-path="url(#p541635b588)" d="M 64.978512 197.332287 
L 65.720071 192.122182 
L 66.46163 215.34001 
L 67.20319 227.283449 
L 67.944749 218.060761 
L 68.686308 211.212453 
L 69.427867 209.595443 
L 70.169426 224.847107 
L 70.910985 231.548225 
L 73.135662 228.869989 
L 73.877221 234.506921 
L 74.61878 241.643388 
L 75.360339 216.768074 
L 76.101898 221.196887 
L 76.843457 233.410749 
L 77.585016 235.340139 
L 78.326575 225.578842 
L 79.068134 240.032958 
L 79.809693 234.828908 
L 80.551252 235.141912 
L 81.292811 245.971015 
L 82.03437 241.49893 
L 82.775929 245.016603 
L 83.517488 250.230427 
L 85.000606 244.430544 
L 85.742165 236.262598 
L 86.483724 251.436834 
L 87.225283 251.612981 
L 87.966842 247.329152 
L 88.708402 243.734808 
L 89.449961 254.419091 
L 90.19152 254.428436 
L 90.933079 257.960127 
L 91.674638 265.083531 
L 92.416197 259.775266 
L 93.899315 252.635311 
L 94.640874 256.125541 
L 95.382433 253.076517 
L 96.123992 255.884009 
L 96.865551 254.067323 
L 98.348669 241.10626 
L 99.090228 250.753932 
L 99.831787 254.044651 
L 100.573346 253.247202 
L 101.314905 254.687836 
L 102.056464 268.822926 
L 102.798023 253.765113 
L 103.539582 260.226674 
L 104.281141 251.521238 
L 105.0227 256.363683 
L 105.764259 258.422394 
L 106.505818 256.525417 
L 107.247377 263.780281 
L 107.988936 258.701438 
L 108.730495 265.845474 
L 109.472054 263.464611 
L 110.213614 269.152449 
L 110.955173 233.599236 
L 111.696732 267.619151 
L 112.438291 268.62641 
L 113.17985 264.71587 
L 113.921409 268.125874 
L 114.662968 264.559302 
L 115.404527 232.528896 
L 116.146086 253.375635 
L 116.887645 265.732211 
L 117.629204 261.148541 
L 118.370763 259.469864 
L 119.112322 268.77337 
L 119.853881 265.989406 
L 120.59544 265.537044 
L 121.336999 264.886028 
L 122.078558 273.711291 
L 122.820117 259.542159 
L 123.561676 265.941791 
L 124.303235 270.312261 
L 125.044794 266.512911 
L 125.786353 248.829577 
L 126.527912 226.176024 
L 127.269471 269.122735 
L 128.01103 269.222572 
L 128.752589 262.891649 
L 129.494148 266.618474 
L 130.235707 276.799703 
L 130.977266 266.798175 
L 131.718826 271.208001 
L 132.460385 270.463004 
L 133.201944 269.136358 
L 133.943503 263.103894 
L 134.685062 273.4872 
L 135.426621 270.754882 
L 136.16818 270.007286 
L 136.909739 270.8691 
L 137.651298 261.782545 
L 138.392857 273.590591 
L 139.134416 270.681041 
L 139.875975 275.992234 
L 140.617534 271.943751 
L 141.359093 247.94848 
L 142.100652 260.547871 
L 142.842211 271.1362 
L 143.58377 266.358712 
L 144.325329 260.833958 
L 145.066888 280.116237 
L 145.808447 278.363389 
L 147.291565 257.04902 
L 148.033124 277.977087 
L 148.774683 279.222768 
L 149.516242 270.763372 
L 150.257801 286.073034 
L 150.99936 280.501684 
L 151.740919 271.165914 
L 152.482479 279.751488 
L 153.224038 262.874077 
L 153.965597 282.251192 
L 154.707156 267.093705 
L 155.448715 267.419016 
L 156.190274 271.710446 
L 156.931833 261.685899 
L 157.673392 275.865298 
L 158.414951 271.435811 
L 159.15651 282.261541 
L 159.898069 280.520786 
L 160.639628 284.1676 
L 161.381187 279.922502 
L 162.122746 280.83792 
L 162.864305 281.958063 
L 163.605864 281.767668 
L 164.347423 281.074153 
L 165.088982 281.543692 
L 165.830541 283.211938 
L 166.5721 251.243609 
L 167.313659 289.59408 
L 168.055218 292.268548 
L 168.796777 273.24886 
L 169.538336 283.457945 
L 170.279895 290.027635 
L 171.021454 288.523855 
L 171.763013 267.702898 
L 172.504572 283.590869 
L 173.246131 273.3074 
L 173.987691 276.083236 
L 174.72925 283.621357 
L 175.470809 283.431669 
L 176.212368 274.783639 
L 176.953927 280.190786 
L 177.695486 284.127026 
L 178.437045 286.925864 
L 179.178604 292.40139 
L 179.920163 276.160253 
L 180.661722 270.265666 
L 181.403281 283.938243 
L 182.14484 293.62968 
L 182.886399 295.884512 
L 183.627958 252.099631 
L 184.369517 281.798419 
L 185.111076 288.403336 
L 185.852635 293.527622 
L 186.594194 291.776617 
L 187.335753 284.760816 
L 188.077312 292.277663 
L 188.818871 273.76376 
L 189.56043 294.82875 
L 190.301989 278.466666 
L 191.043548 293.307792 
L 191.785107 263.947806 
L 192.526666 296.769146 
L 193.268225 283.924028 
L 194.009784 292.633906 
L 194.751343 292.135887 
L 195.492903 281.698483 
L 196.234462 288.280349 
L 196.976021 288.1493 
L 197.71758 279.141638 
L 198.459139 284.295638 
L 199.942257 298.61497 
L 200.683816 296.525953 
L 201.425375 249.715412 
L 202.166934 278.575651 
L 202.908493 263.098102 
L 203.650052 292.809559 
L 205.13317 301.885584 
L 205.874729 293.807802 
L 206.616288 299.669104 
L 207.357847 294.0853 
L 208.099406 297.022968 
L 208.840965 291.455123 
L 209.582524 302.085818 
L 210.324083 286.119382 
L 211.065642 301.835698 
L 211.807201 287.332091 
L 212.54876 298.024798 
L 212.54876 298.024798 
" style="fill:none;stroke:#ff7f0e;stroke-linecap:square;stroke-width:1.5;"/>
   </g>
   <g id="patch_15">
    <path d="M 57.6 307.584 
L 57.6 186.624 
" style="fill:none;stroke:#000000;stroke-linecap:square;stroke-linejoin:miter;stroke-width:0.8;"/>
   </g>
   <g id="patch_16">
    <path d="M 219.927273 307.584 
L 219.927273 186.624 
" style="fill:none;stroke:#000000;stroke-linecap:square;stroke-linejoin:miter;stroke-width:0.8;"/>
   </g>
   <g id="patch_17">
    <path d="M 57.6 307.584 
L 219.927273 307.584 
" style="fill:none;stroke:#000000;stroke-linecap:square;stroke-linejoin:miter;stroke-width:0.8;"/>
   </g>
   <g id="patch_18">
    <path d="M 57.6 186.624 
L 219.927273 186.624 
" style="fill:none;stroke:#000000;stroke-linecap:square;stroke-linejoin:miter;stroke-width:0.8;"/>
   </g>
   <g id="legend_3">
    <g id="patch_19">
     <path d="M 131.692898 223.98025 
L 212.927273 223.98025 
Q 214.927273 223.98025 214.927273 221.98025 
L 214.927273 193.624 
Q 214.927273 191.624 212.927273 191.624 
L 131.692898 191.624 
Q 129.692898 191.624 129.692898 193.624 
L 129.692898 221.98025 
Q 129.692898 223.98025 131.692898 223.98025 
z
" style="fill:#ffffff;opacity:0.8;stroke:#cccccc;stroke-linejoin:miter;"/>
    </g>
    <g id="line2d_46">
     <path d="M 133.692898 199.722437 
L 153.692898 199.722437 
" style="fill:none;stroke:#1f77b4;stroke-linecap:square;stroke-width:1.5;"/>
    </g>
    <g id="line2d_47"/>
    <g id="text_42">
     <!-- validation -->
     <g transform="translate(161.692898 203.222437)scale(0.1 -0.1)">
      <use xlink:href="#DejaVuSans-118"/>
      <use x="59.179688" xlink:href="#DejaVuSans-97"/>
      <use x="120.458984" xlink:href="#DejaVuSans-108"/>
      <use x="148.242188" xlink:href="#DejaVuSans-105"/>
      <use x="176.025391" xlink:href="#DejaVuSans-100"/>
      <use x="239.501953" xlink:href="#DejaVuSans-97"/>
      <use x="300.78125" xlink:href="#DejaVuSans-116"/>
      <use x="339.990234" xlink:href="#DejaVuSans-105"/>
      <use x="367.773438" xlink:href="#DejaVuSans-111"/>
      <use x="428.955078" xlink:href="#DejaVuSans-110"/>
     </g>
    </g>
    <g id="line2d_48">
     <path d="M 133.692898 214.400562 
L 153.692898 214.400562 
" style="fill:none;stroke:#ff7f0e;stroke-linecap:square;stroke-width:1.5;"/>
    </g>
    <g id="line2d_49"/>
    <g id="text_43">
     <!-- training -->
     <g transform="translate(161.692898 217.900562)scale(0.1 -0.1)">
      <use xlink:href="#DejaVuSans-116"/>
      <use x="39.208984" xlink:href="#DejaVuSans-114"/>
      <use x="80.322266" xlink:href="#DejaVuSans-97"/>
      <use x="141.601562" xlink:href="#DejaVuSans-105"/>
      <use x="169.384766" xlink:href="#DejaVuSans-110"/>
      <use x="232.763672" xlink:href="#DejaVuSans-105"/>
      <use x="260.546875" xlink:href="#DejaVuSans-110"/>
      <use x="323.925781" xlink:href="#DejaVuSans-103"/>
     </g>
    </g>
   </g>
  </g>
  <g id="axes_4">
   <g id="patch_20">
    <path d="M 252.392727 307.584 
L 414.72 307.584 
L 414.72 186.624 
L 252.392727 186.624 
z
" style="fill:#ffffff;"/>
   </g>
   <g id="matplotlib.axis_7">
    <g id="xtick_16">
     <g id="line2d_50">
      <g>
       <use style="stroke:#000000;stroke-width:0.8;" x="259.77124" xlink:href="#m8826ace17f" y="307.584"/>
      </g>
     </g>
     <g id="text_44">
      <!-- 0 -->
      <g transform="translate(256.58999 322.182437)scale(0.1 -0.1)">
       <use xlink:href="#DejaVuSans-48"/>
      </g>
     </g>
    </g>
    <g id="xtick_17">
     <g id="line2d_51">
      <g>
       <use style="stroke:#000000;stroke-width:0.8;" x="296.849191" xlink:href="#m8826ace17f" y="307.584"/>
      </g>
     </g>
     <g id="text_45">
      <!-- 50 -->
      <g transform="translate(290.486691 322.182437)scale(0.1 -0.1)">
       <use xlink:href="#DejaVuSans-53"/>
       <use x="63.623047" xlink:href="#DejaVuSans-48"/>
      </g>
     </g>
    </g>
    <g id="xtick_18">
     <g id="line2d_52">
      <g>
       <use style="stroke:#000000;stroke-width:0.8;" x="333.927143" xlink:href="#m8826ace17f" y="307.584"/>
      </g>
     </g>
     <g id="text_46">
      <!-- 100 -->
      <g transform="translate(324.383393 322.182437)scale(0.1 -0.1)">
       <use xlink:href="#DejaVuSans-49"/>
       <use x="63.623047" xlink:href="#DejaVuSans-48"/>
       <use x="127.246094" xlink:href="#DejaVuSans-48"/>
      </g>
     </g>
    </g>
    <g id="xtick_19">
     <g id="line2d_53">
      <g>
       <use style="stroke:#000000;stroke-width:0.8;" x="371.005095" xlink:href="#m8826ace17f" y="307.584"/>
      </g>
     </g>
     <g id="text_47">
      <!-- 150 -->
      <g transform="translate(361.461345 322.182437)scale(0.1 -0.1)">
       <use xlink:href="#DejaVuSans-49"/>
       <use x="63.623047" xlink:href="#DejaVuSans-53"/>
       <use x="127.246094" xlink:href="#DejaVuSans-48"/>
      </g>
     </g>
    </g>
    <g id="xtick_20">
     <g id="line2d_54">
      <g>
       <use style="stroke:#000000;stroke-width:0.8;" x="408.083047" xlink:href="#m8826ace17f" y="307.584"/>
      </g>
     </g>
     <g id="text_48">
      <!-- 200 -->
      <g transform="translate(398.539297 322.182437)scale(0.1 -0.1)">
       <use xlink:href="#DejaVuSans-50"/>
       <use x="63.623047" xlink:href="#DejaVuSans-48"/>
       <use x="127.246094" xlink:href="#DejaVuSans-48"/>
      </g>
     </g>
    </g>
    <g id="text_49">
     <!-- # epochs -->
     <g transform="translate(309.944645 335.860562)scale(0.1 -0.1)">
      <use xlink:href="#DejaVuSans-35"/>
      <use x="83.789062" xlink:href="#DejaVuSans-32"/>
      <use x="115.576172" xlink:href="#DejaVuSans-101"/>
      <use x="177.099609" xlink:href="#DejaVuSans-112"/>
      <use x="240.576172" xlink:href="#DejaVuSans-111"/>
      <use x="301.757812" xlink:href="#DejaVuSans-99"/>
      <use x="356.738281" xlink:href="#DejaVuSans-104"/>
      <use x="420.117188" xlink:href="#DejaVuSans-115"/>
     </g>
    </g>
   </g>
   <g id="matplotlib.axis_8">
    <g id="ytick_17">
     <g id="line2d_55">
      <g>
       <use style="stroke:#000000;stroke-width:0.8;" x="252.392727" xlink:href="#ma4c266ef9d" y="292.897443"/>
      </g>
     </g>
     <g id="text_50">
      <!-- 0.300 -->
      <defs>
       <path d="M 40.578125 39.3125 
Q 47.65625 37.796875 51.625 33 
Q 55.609375 28.21875 55.609375 21.1875 
Q 55.609375 10.40625 48.1875 4.484375 
Q 40.765625 -1.421875 27.09375 -1.421875 
Q 22.515625 -1.421875 17.65625 -0.515625 
Q 12.796875 0.390625 7.625 2.203125 
L 7.625 11.71875 
Q 11.71875 9.328125 16.59375 8.109375 
Q 21.484375 6.890625 26.8125 6.890625 
Q 36.078125 6.890625 40.9375 10.546875 
Q 45.796875 14.203125 45.796875 21.1875 
Q 45.796875 27.640625 41.28125 31.265625 
Q 36.765625 34.90625 28.71875 34.90625 
L 20.21875 34.90625 
L 20.21875 43.015625 
L 29.109375 43.015625 
Q 36.375 43.015625 40.234375 45.921875 
Q 44.09375 48.828125 44.09375 54.296875 
Q 44.09375 59.90625 40.109375 62.90625 
Q 36.140625 65.921875 28.71875 65.921875 
Q 24.65625 65.921875 20.015625 65.03125 
Q 15.375 64.15625 9.8125 62.3125 
L 9.8125 71.09375 
Q 15.4375 72.65625 20.34375 73.4375 
Q 25.25 74.21875 29.59375 74.21875 
Q 40.828125 74.21875 47.359375 69.109375 
Q 53.90625 64.015625 53.90625 55.328125 
Q 53.90625 49.265625 50.4375 45.09375 
Q 46.96875 40.921875 40.578125 39.3125 
z
" id="DejaVuSans-51"/>
      </defs>
      <g transform="translate(216.764602 296.696662)scale(0.1 -0.1)">
       <use xlink:href="#DejaVuSans-48"/>
       <use x="63.623047" xlink:href="#DejaVuSans-46"/>
       <use x="95.410156" xlink:href="#DejaVuSans-51"/>
       <use x="159.033203" xlink:href="#DejaVuSans-48"/>
       <use x="222.65625" xlink:href="#DejaVuSans-48"/>
      </g>
     </g>
    </g>
    <g id="ytick_18">
     <g id="line2d_56">
      <g>
       <use style="stroke:#000000;stroke-width:0.8;" x="252.392727" xlink:href="#ma4c266ef9d" y="269.888466"/>
      </g>
     </g>
     <g id="text_51">
      <!-- 0.325 -->
      <g transform="translate(216.764602 273.687685)scale(0.1 -0.1)">
       <use xlink:href="#DejaVuSans-48"/>
       <use x="63.623047" xlink:href="#DejaVuSans-46"/>
       <use x="95.410156" xlink:href="#DejaVuSans-51"/>
       <use x="159.033203" xlink:href="#DejaVuSans-50"/>
       <use x="222.65625" xlink:href="#DejaVuSans-53"/>
      </g>
     </g>
    </g>
    <g id="ytick_19">
     <g id="line2d_57">
      <g>
       <use style="stroke:#000000;stroke-width:0.8;" x="252.392727" xlink:href="#ma4c266ef9d" y="246.879489"/>
      </g>
     </g>
     <g id="text_52">
      <!-- 0.350 -->
      <g transform="translate(216.764602 250.678708)scale(0.1 -0.1)">
       <use xlink:href="#DejaVuSans-48"/>
       <use x="63.623047" xlink:href="#DejaVuSans-46"/>
       <use x="95.410156" xlink:href="#DejaVuSans-51"/>
       <use x="159.033203" xlink:href="#DejaVuSans-53"/>
       <use x="222.65625" xlink:href="#DejaVuSans-48"/>
      </g>
     </g>
    </g>
    <g id="ytick_20">
     <g id="line2d_58">
      <g>
       <use style="stroke:#000000;stroke-width:0.8;" x="252.392727" xlink:href="#ma4c266ef9d" y="223.870513"/>
      </g>
     </g>
     <g id="text_53">
      <!-- 0.375 -->
      <g transform="translate(216.764602 227.669732)scale(0.1 -0.1)">
       <use xlink:href="#DejaVuSans-48"/>
       <use x="63.623047" xlink:href="#DejaVuSans-46"/>
       <use x="95.410156" xlink:href="#DejaVuSans-51"/>
       <use x="159.033203" xlink:href="#DejaVuSans-55"/>
       <use x="222.65625" xlink:href="#DejaVuSans-53"/>
      </g>
     </g>
    </g>
    <g id="ytick_21">
     <g id="line2d_59">
      <g>
       <use style="stroke:#000000;stroke-width:0.8;" x="252.392727" xlink:href="#ma4c266ef9d" y="200.861536"/>
      </g>
     </g>
     <g id="text_54">
      <!-- 0.400 -->
      <g transform="translate(216.764602 204.660755)scale(0.1 -0.1)">
       <use xlink:href="#DejaVuSans-48"/>
       <use x="63.623047" xlink:href="#DejaVuSans-46"/>
       <use x="95.410156" xlink:href="#DejaVuSans-52"/>
       <use x="159.033203" xlink:href="#DejaVuSans-48"/>
       <use x="222.65625" xlink:href="#DejaVuSans-48"/>
      </g>
     </g>
    </g>
    <g id="text_55">
     <!-- root_mean_squared_error -->
     <defs>
      <path d="M 50.984375 -16.609375 
L 50.984375 -23.578125 
L -0.984375 -23.578125 
L -0.984375 -16.609375 
z
" id="DejaVuSans-95"/>
      <path d="M 52 44.1875 
Q 55.375 50.25 60.0625 53.125 
Q 64.75 56 71.09375 56 
Q 79.640625 56 84.28125 50.015625 
Q 88.921875 44.046875 88.921875 33.015625 
L 88.921875 0 
L 79.890625 0 
L 79.890625 32.71875 
Q 79.890625 40.578125 77.09375 44.375 
Q 74.3125 48.1875 68.609375 48.1875 
Q 61.625 48.1875 57.5625 43.546875 
Q 53.515625 38.921875 53.515625 30.90625 
L 53.515625 0 
L 44.484375 0 
L 44.484375 32.71875 
Q 44.484375 40.625 41.703125 44.40625 
Q 38.921875 48.1875 33.109375 48.1875 
Q 26.21875 48.1875 22.15625 43.53125 
Q 18.109375 38.875 18.109375 30.90625 
L 18.109375 0 
L 9.078125 0 
L 9.078125 54.6875 
L 18.109375 54.6875 
L 18.109375 46.1875 
Q 21.1875 51.21875 25.484375 53.609375 
Q 29.78125 56 35.6875 56 
Q 41.65625 56 45.828125 52.96875 
Q 50 49.953125 52 44.1875 
z
" id="DejaVuSans-109"/>
      <path d="M 14.796875 27.296875 
Q 14.796875 17.390625 18.875 11.75 
Q 22.953125 6.109375 30.078125 6.109375 
Q 37.203125 6.109375 41.296875 11.75 
Q 45.40625 17.390625 45.40625 27.296875 
Q 45.40625 37.203125 41.296875 42.84375 
Q 37.203125 48.484375 30.078125 48.484375 
Q 22.953125 48.484375 18.875 42.84375 
Q 14.796875 37.203125 14.796875 27.296875 
z
M 45.40625 8.203125 
Q 42.578125 3.328125 38.25 0.953125 
Q 33.9375 -1.421875 27.875 -1.421875 
Q 17.96875 -1.421875 11.734375 6.484375 
Q 5.515625 14.40625 5.515625 27.296875 
Q 5.515625 40.1875 11.734375 48.09375 
Q 17.96875 56 27.875 56 
Q 33.9375 56 38.25 53.625 
Q 42.578125 51.265625 45.40625 46.390625 
L 45.40625 54.6875 
L 54.390625 54.6875 
L 54.390625 -20.796875 
L 45.40625 -20.796875 
z
" id="DejaVuSans-113"/>
      <path d="M 8.5 21.578125 
L 8.5 54.6875 
L 17.484375 54.6875 
L 17.484375 21.921875 
Q 17.484375 14.15625 20.5 10.265625 
Q 23.53125 6.390625 29.59375 6.390625 
Q 36.859375 6.390625 41.078125 11.03125 
Q 45.3125 15.671875 45.3125 23.6875 
L 45.3125 54.6875 
L 54.296875 54.6875 
L 54.296875 0 
L 45.3125 0 
L 45.3125 8.40625 
Q 42.046875 3.421875 37.71875 1 
Q 33.40625 -1.421875 27.6875 -1.421875 
Q 18.265625 -1.421875 13.375 4.4375 
Q 8.5 10.296875 8.5 21.578125 
z
M 31.109375 56 
z
" id="DejaVuSans-117"/>
     </defs>
     <g transform="translate(210.40679 311.113375)rotate(-90)scale(0.1 -0.1)">
      <use xlink:href="#DejaVuSans-114"/>
      <use x="38.863281" xlink:href="#DejaVuSans-111"/>
      <use x="100.044922" xlink:href="#DejaVuSans-111"/>
      <use x="161.226562" xlink:href="#DejaVuSans-116"/>
      <use x="200.435547" xlink:href="#DejaVuSans-95"/>
      <use x="250.435547" xlink:href="#DejaVuSans-109"/>
      <use x="347.847656" xlink:href="#DejaVuSans-101"/>
      <use x="409.371094" xlink:href="#DejaVuSans-97"/>
      <use x="470.650391" xlink:href="#DejaVuSans-110"/>
      <use x="534.029297" xlink:href="#DejaVuSans-95"/>
      <use x="584.029297" xlink:href="#DejaVuSans-115"/>
      <use x="636.128906" xlink:href="#DejaVuSans-113"/>
      <use x="699.605469" xlink:href="#DejaVuSans-117"/>
      <use x="762.984375" xlink:href="#DejaVuSans-97"/>
      <use x="824.263672" xlink:href="#DejaVuSans-114"/>
      <use x="863.126953" xlink:href="#DejaVuSans-101"/>
      <use x="924.650391" xlink:href="#DejaVuSans-100"/>
      <use x="988.126953" xlink:href="#DejaVuSans-95"/>
      <use x="1038.126953" xlink:href="#DejaVuSans-101"/>
      <use x="1099.650391" xlink:href="#DejaVuSans-114"/>
      <use x="1139.013672" xlink:href="#DejaVuSans-114"/>
      <use x="1177.876953" xlink:href="#DejaVuSans-111"/>
      <use x="1239.058594" xlink:href="#DejaVuSans-114"/>
     </g>
    </g>
   </g>
   <g id="line2d_60">
    <path clip-path="url(#p11ef3f0536)" d="M 259.77124 204.487788 
L 260.512799 201.066835 
L 261.254358 210.853884 
L 261.995917 217.411241 
L 262.737476 217.613968 
L 263.479035 220.649188 
L 264.220594 227.540985 
L 264.962153 224.180952 
L 265.703712 229.299941 
L 266.445271 230.950774 
L 267.18683 226.673466 
L 267.928389 236.153969 
L 268.669948 231.872849 
L 269.411507 237.942851 
L 270.153066 228.947207 
L 270.894625 239.529033 
L 271.636184 237.915943 
L 272.377743 239.80088 
L 273.119302 242.013921 
L 273.860861 237.545489 
L 274.60242 244.889944 
L 275.343979 242.696104 
L 276.085538 246.043217 
L 278.310216 251.114727 
L 279.051775 246.605563 
L 279.793334 253.87149 
L 280.534893 252.328453 
L 281.276452 255.164759 
L 282.018011 251.498511 
L 282.75957 254.034554 
L 283.501129 255.232289 
L 284.984247 257.037216 
L 285.725806 257.239614 
L 286.467365 258.015054 
L 287.208924 258.160016 
L 287.950483 258.019224 
L 288.692042 256.877251 
L 289.433601 253.553836 
L 290.17516 253.941488 
L 290.916719 259.634672 
L 291.658278 256.501997 
L 292.399837 261.58895 
L 293.141396 261.304952 
L 293.882955 262.713367 
L 294.624514 261.063139 
L 295.366073 260.471801 
L 296.107632 263.881178 
L 296.849191 261.909922 
L 297.59075 262.72028 
L 298.332309 263.025563 
L 299.073869 262.383261 
L 299.815428 264.539415 
L 300.556987 265.215261 
L 302.040105 265.814444 
L 302.781664 265.809507 
L 303.523223 267.31535 
L 304.264782 261.244169 
L 305.006341 265.831011 
L 305.7479 265.721735 
L 306.489459 268.59433 
L 307.231018 265.785946 
L 307.972577 268.733778 
L 308.714136 268.083989 
L 310.197254 262.097892 
L 310.938813 261.869711 
L 311.680372 267.278952 
L 312.421931 266.071727 
L 313.16349 266.948106 
L 313.905049 267.04364 
L 314.646608 269.960231 
L 315.388167 266.926903 
L 316.129726 271.558564 
L 316.871285 271.761757 
L 317.612844 269.994133 
L 318.354403 272.734576 
L 319.095962 268.939796 
L 319.837521 273.054259 
L 320.579081 265.25742 
L 321.32064 263.625184 
L 322.062199 273.115672 
L 322.803758 272.869279 
L 323.545317 272.986263 
L 324.286876 271.554395 
L 325.028435 272.813516 
L 325.769994 270.174011 
L 326.511553 273.424438 
L 327.253112 274.317439 
L 327.994671 274.350683 
L 328.73623 272.161999 
L 329.477789 275.282632 
L 330.219348 274.565807 
L 330.960907 275.642773 
L 332.444025 276.874739 
L 333.185584 278.247498 
L 333.927143 274.996495 
L 334.668702 272.638712 
L 335.410261 279.310283 
L 336.15182 271.01465 
L 336.893379 277.839713 
L 337.634938 271.506916 
L 338.376497 280.177583 
L 339.118056 279.183315 
L 339.859615 278.471317 
L 340.601174 280.410344 
L 341.342734 280.338645 
L 342.084293 277.832335 
L 342.825852 281.420877 
L 343.567411 282.574205 
L 345.050529 273.863053 
L 345.792088 281.076645 
L 346.533647 283.055307 
L 347.275206 279.320788 
L 348.016765 282.940874 
L 348.758324 280.075465 
L 349.499883 270.290858 
L 350.241442 284.845916 
L 350.983001 272.255284 
L 351.72456 278.090084 
L 352.466119 278.718999 
L 353.207678 285.021104 
L 353.949237 282.248241 
L 354.690796 282.796817 
L 355.432355 284.156273 
L 356.173914 286.292321 
L 356.915473 285.48712 
L 357.657032 286.053059 
L 358.398591 275.182599 
L 359.14015 285.806145 
L 359.881709 284.066361 
L 360.623268 286.53161 
L 361.364827 288.068475 
L 362.106386 287.751151 
L 362.847946 286.838127 
L 363.589505 283.759432 
L 364.331064 288.826636 
L 365.072623 277.875892 
L 365.814182 289.305324 
L 366.555741 285.916738 
L 367.2973 279.946577 
L 368.038859 287.103035 
L 368.780418 286.662802 
L 369.521977 285.401103 
L 370.263536 282.972883 
L 371.005095 288.991154 
L 371.746654 290.085894 
L 372.488213 287.964328 
L 373.229772 290.885389 
L 373.971331 292.957446 
L 374.71289 293.183158 
L 375.454449 288.728742 
L 376.196008 292.13321 
L 376.937567 291.936188 
L 377.679126 293.687574 
L 378.420685 293.303543 
L 379.162244 293.614477 
L 379.903803 292.240785 
L 380.645362 289.623498 
L 381.386921 293.703511 
L 382.12848 292.303598 
L 382.870039 294.31073 
L 383.611598 294.33975 
L 384.353158 294.186094 
L 385.094717 297.315175 
L 385.836276 294.630413 
L 386.577835 296.929965 
L 387.319394 294.487893 
L 388.060953 296.392606 
L 388.802512 295.459889 
L 389.544071 287.728358 
L 390.28563 296.205706 
L 391.027189 295.792655 
L 391.768748 297.740158 
L 392.510307 293.647446 
L 393.251866 286.139597 
L 393.993425 296.000237 
L 394.734984 296.669857 
L 395.476543 299.429006 
L 396.959661 292.161736 
L 397.70122 297.795838 
L 398.442779 297.089518 
L 399.184338 299.590864 
L 399.925897 298.310102 
L 400.667456 295.963482 
L 401.409015 298.040531 
L 402.150574 296.828999 
L 402.892133 299.36666 
L 403.633692 300.756288 
L 404.375251 299.507069 
L 405.11681 299.118155 
L 405.85837 298.520069 
L 406.599929 298.480846 
L 407.341488 301.290382 
L 407.341488 301.290382 
" style="fill:none;stroke:#1f77b4;stroke-linecap:square;stroke-width:1.5;"/>
   </g>
   <g id="line2d_61">
    <path clip-path="url(#p11ef3f0536)" d="M 259.77124 192.122182 
L 260.512799 198.244353 
L 261.254358 212.261614 
L 261.995917 220.486151 
L 262.737476 216.582588 
L 264.220594 225.605771 
L 264.962153 223.464264 
L 266.445271 226.228241 
L 267.18683 225.88763 
L 267.928389 223.870815 
L 268.669948 232.284254 
L 269.411507 232.947703 
L 270.153066 227.052587 
L 270.894625 218.74804 
L 271.636184 229.653362 
L 272.377743 231.282498 
L 273.119302 229.706409 
L 273.860861 235.911498 
L 274.60242 233.629776 
L 275.343979 237.889639 
L 276.085538 241.16349 
L 276.827097 238.085288 
L 277.568657 242.841476 
L 278.310216 245.737358 
L 279.051775 245.831988 
L 279.793334 243.347977 
L 280.534893 249.25763 
L 281.276452 250.210371 
L 282.018011 250.624354 
L 282.75957 247.891153 
L 283.501129 248.971986 
L 284.242688 255.203132 
L 284.984247 253.527066 
L 285.725806 254.44264 
L 286.467365 258.99473 
L 287.208924 261.471691 
L 287.950483 255.061188 
L 288.692042 260.522681 
L 289.433601 254.143529 
L 290.17516 251.023691 
L 290.916719 258.02257 
L 291.658278 253.625261 
L 292.399837 261.124991 
L 293.141396 245.927303 
L 293.882955 255.143118 
L 294.624514 256.591635 
L 295.366073 250.97495 
L 296.107632 255.097202 
L 296.849191 263.447226 
L 297.59075 262.265729 
L 298.332309 261.633796 
L 299.073869 258.435456 
L 299.815428 259.994073 
L 300.556987 260.291346 
L 301.298546 263.481814 
L 302.040105 262.704563 
L 302.781664 259.409454 
L 303.523223 264.622744 
L 304.264782 262.171346 
L 305.006341 266.184789 
L 305.7479 262.015221 
L 306.489459 262.652475 
L 307.231018 265.807724 
L 307.972577 266.04161 
L 308.714136 267.354025 
L 309.455695 260.845656 
L 310.197254 262.511656 
L 310.938813 256.809639 
L 311.680372 266.891465 
L 312.421931 258.465381 
L 313.16349 259.517688 
L 313.905049 270.035688 
L 314.646608 266.645813 
L 315.388167 267.370428 
L 316.129726 267.443333 
L 316.871285 271.100091 
L 317.612844 263.756212 
L 318.354403 269.313212 
L 319.095962 270.047592 
L 319.837521 270.979404 
L 320.579081 259.667258 
L 321.32064 244.993269 
L 322.062199 265.501701 
L 322.803758 269.669485 
L 323.545317 270.742145 
L 324.286876 269.612982 
L 325.028435 273.718777 
L 325.769994 265.235504 
L 326.511553 268.408225 
L 327.253112 270.009987 
L 327.994671 270.864011 
L 328.73623 267.266582 
L 329.477789 271.726154 
L 330.219348 272.69634 
L 330.960907 273.094277 
L 331.702466 273.244697 
L 332.444025 265.774727 
L 333.185584 276.73285 
L 333.927143 274.266092 
L 334.668702 275.54573 
L 335.410261 274.981436 
L 336.15182 271.410558 
L 336.893379 263.463244 
L 337.634938 269.85858 
L 338.376497 273.447835 
L 339.118056 270.355343 
L 339.859615 277.779781 
L 340.601174 280.160549 
L 341.342734 270.191429 
L 342.084293 276.5883 
L 342.825852 278.397149 
L 343.567411 279.831842 
L 344.30897 274.415113 
L 345.050529 280.480342 
L 345.792088 283.256058 
L 346.533647 282.620011 
L 347.275206 277.74758 
L 348.016765 270.311978 
L 348.758324 282.974748 
L 349.499883 272.070715 
L 350.241442 266.52348 
L 350.983001 273.730352 
L 351.72456 267.314747 
L 352.466119 276.950964 
L 353.207678 276.686358 
L 353.949237 284.286231 
L 354.690796 280.583255 
L 355.432355 285.152406 
L 356.173914 280.691297 
L 356.915473 284.848549 
L 357.657032 280.453873 
L 358.398591 280.494742 
L 359.14015 280.967862 
L 359.881709 283.268703 
L 360.623268 284.674678 
L 361.364827 270.605549 
L 362.106386 287.157481 
L 362.847946 289.062332 
L 363.589505 282.850578 
L 364.331064 282.057062 
L 365.072623 289.089843 
L 365.814182 288.513645 
L 366.555741 282.861248 
L 367.2973 282.153693 
L 368.038859 284.736557 
L 368.780418 282.41435 
L 369.521977 286.143684 
L 370.263536 285.907878 
L 371.005095 279.799641 
L 371.746654 283.978287 
L 372.488213 286.946828 
L 373.229772 290.424942 
L 373.971331 291.017926 
L 374.71289 287.662748 
L 375.454449 280.11104 
L 376.196008 284.953355 
L 376.937567 292.81627 
L 377.679126 294.033946 
L 378.420685 284.367612 
L 379.162244 290.041843 
L 379.903803 289.4098 
L 380.645362 293.631318 
L 381.386921 292.249563 
L 382.12848 286.989535 
L 382.870039 292.239496 
L 383.611598 290.851679 
L 384.353158 294.359471 
L 385.094717 287.314703 
L 385.836276 293.78352 
L 386.577835 285.272297 
L 387.319394 297.619334 
L 388.060953 291.96647 
L 388.802512 290.709625 
L 390.28563 283.738586 
L 391.027189 289.880644 
L 391.768748 292.980459 
L 392.510307 293.128602 
L 393.251866 295.212453 
L 393.993425 293.158116 
L 394.734984 298.357883 
L 395.476543 298.05142 
L 396.218102 295.254776 
L 396.959661 273.919035 
L 397.70122 286.395755 
L 398.442779 289.373786 
L 399.184338 298.201895 
L 399.925897 301.577699 
L 400.667456 296.96949 
L 401.409015 300.118128 
L 402.150574 297.611078 
L 402.892133 298.037102 
L 403.633692 301.553808 
L 404.375251 300.290656 
L 405.11681 298.278065 
L 405.85837 302.085818 
L 406.599929 298.379304 
L 407.341488 296.666977 
L 407.341488 296.666977 
" style="fill:none;stroke:#ff7f0e;stroke-linecap:square;stroke-width:1.5;"/>
   </g>
   <g id="patch_21">
    <path d="M 252.392727 307.584 
L 252.392727 186.624 
" style="fill:none;stroke:#000000;stroke-linecap:square;stroke-linejoin:miter;stroke-width:0.8;"/>
   </g>
   <g id="patch_22">
    <path d="M 414.72 307.584 
L 414.72 186.624 
" style="fill:none;stroke:#000000;stroke-linecap:square;stroke-linejoin:miter;stroke-width:0.8;"/>
   </g>
   <g id="patch_23">
    <path d="M 252.392727 307.584 
L 414.72 307.584 
" style="fill:none;stroke:#000000;stroke-linecap:square;stroke-linejoin:miter;stroke-width:0.8;"/>
   </g>
   <g id="patch_24">
    <path d="M 252.392727 186.624 
L 414.72 186.624 
" style="fill:none;stroke:#000000;stroke-linecap:square;stroke-linejoin:miter;stroke-width:0.8;"/>
   </g>
   <g id="legend_4">
    <g id="patch_25">
     <path d="M 326.485625 223.98025 
L 407.72 223.98025 
Q 409.72 223.98025 409.72 221.98025 
L 409.72 193.624 
Q 409.72 191.624 407.72 191.624 
L 326.485625 191.624 
Q 324.485625 191.624 324.485625 193.624 
L 324.485625 221.98025 
Q 324.485625 223.98025 326.485625 223.98025 
z
" style="fill:#ffffff;opacity:0.8;stroke:#cccccc;stroke-linejoin:miter;"/>
    </g>
    <g id="line2d_62">
     <path d="M 328.485625 199.722437 
L 348.485625 199.722437 
" style="fill:none;stroke:#1f77b4;stroke-linecap:square;stroke-width:1.5;"/>
    </g>
    <g id="line2d_63"/>
    <g id="text_56">
     <!-- validation -->
     <g transform="translate(356.485625 203.222437)scale(0.1 -0.1)">
      <use xlink:href="#DejaVuSans-118"/>
      <use x="59.179688" xlink:href="#DejaVuSans-97"/>
      <use x="120.458984" xlink:href="#DejaVuSans-108"/>
      <use x="148.242188" xlink:href="#DejaVuSans-105"/>
      <use x="176.025391" xlink:href="#DejaVuSans-100"/>
      <use x="239.501953" xlink:href="#DejaVuSans-97"/>
      <use x="300.78125" xlink:href="#DejaVuSans-116"/>
      <use x="339.990234" xlink:href="#DejaVuSans-105"/>
      <use x="367.773438" xlink:href="#DejaVuSans-111"/>
      <use x="428.955078" xlink:href="#DejaVuSans-110"/>
     </g>
    </g>
    <g id="line2d_64">
     <path d="M 328.485625 214.400562 
L 348.485625 214.400562 
" style="fill:none;stroke:#ff7f0e;stroke-linecap:square;stroke-width:1.5;"/>
    </g>
    <g id="line2d_65"/>
    <g id="text_57">
     <!-- training -->
     <g transform="translate(356.485625 217.900562)scale(0.1 -0.1)">
      <use xlink:href="#DejaVuSans-116"/>
      <use x="39.208984" xlink:href="#DejaVuSans-114"/>
      <use x="80.322266" xlink:href="#DejaVuSans-97"/>
      <use x="141.601562" xlink:href="#DejaVuSans-105"/>
      <use x="169.384766" xlink:href="#DejaVuSans-110"/>
      <use x="232.763672" xlink:href="#DejaVuSans-105"/>
      <use x="260.546875" xlink:href="#DejaVuSans-110"/>
      <use x="323.925781" xlink:href="#DejaVuSans-103"/>
     </g>
    </g>
   </g>
  </g>
 </g>
 <defs>
  <clipPath id="p57f6246fbc">
   <rect height="120.96" width="162.327273" x="57.6" y="41.472"/>
  </clipPath>
  <clipPath id="p2c1c102dd4">
   <rect height="120.96" width="162.327273" x="252.392727" y="41.472"/>
  </clipPath>
  <clipPath id="p541635b588">
   <rect height="120.96" width="162.327273" x="57.6" y="186.624"/>
  </clipPath>
  <clipPath id="p11ef3f0536">
   <rect height="120.96" width="162.327273" x="252.392727" y="186.624"/>
  </clipPath>
 </defs>
</svg>
