<?xml version="1.0" encoding="utf-8" standalone="no"?>
<!DOCTYPE svg PUBLIC "-//W3C//DTD SVG 1.1//EN"
  "http://www.w3.org/Graphics/SVG/1.1/DTD/svg11.dtd">
<!-- Created with matplotlib (https://matplotlib.org/) -->
<svg height="345.6pt" version="1.1" viewBox="0 0 460.8 345.6" width="460.8pt" xmlns="http://www.w3.org/2000/svg" xmlns:xlink="http://www.w3.org/1999/xlink">
 <defs>
  <style type="text/css">
*{stroke-linecap:butt;stroke-linejoin:round;}
  </style>
 </defs>
 <g id="figure_1">
  <g id="patch_1">
   <path d="M 0 345.6 
L 460.8 345.6 
L 460.8 0 
L 0 0 
z
" style="fill:#ffffff;"/>
  </g>
  <g id="axes_1">
   <g id="patch_2">
    <path d="M 57.6 119.740235 
L 219.927273 119.740235 
L 219.927273 41.472 
L 57.6 41.472 
z
" style="fill:#ffffff;"/>
   </g>
   <g id="matplotlib.axis_1">
    <g id="xtick_1">
     <g id="line2d_1">
      <defs>
       <path d="M 0 0 
L 0 3.5 
" id="m0fdc57ab73" style="stroke:#000000;stroke-width:0.8;"/>
      </defs>
      <g>
       <use style="stroke:#000000;stroke-width:0.8;" x="64.978512" xlink:href="#m0fdc57ab73" y="119.740235"/>
      </g>
     </g>
     <g id="text_1">
      <!-- 0 -->
      <defs>
       <path d="M 31.78125 66.40625 
Q 24.171875 66.40625 20.328125 58.90625 
Q 16.5 51.421875 16.5 36.375 
Q 16.5 21.390625 20.328125 13.890625 
Q 24.171875 6.390625 31.78125 6.390625 
Q 39.453125 6.390625 43.28125 13.890625 
Q 47.125 21.390625 47.125 36.375 
Q 47.125 51.421875 43.28125 58.90625 
Q 39.453125 66.40625 31.78125 66.40625 
z
M 31.78125 74.21875 
Q 44.046875 74.21875 50.515625 64.515625 
Q 56.984375 54.828125 56.984375 36.375 
Q 56.984375 17.96875 50.515625 8.265625 
Q 44.046875 -1.421875 31.78125 -1.421875 
Q 19.53125 -1.421875 13.0625 8.265625 
Q 6.59375 17.96875 6.59375 36.375 
Q 6.59375 54.828125 13.0625 64.515625 
Q 19.53125 74.21875 31.78125 74.21875 
z
" id="DejaVuSans-48"/>
      </defs>
      <g transform="translate(61.797262 134.338673)scale(0.1 -0.1)">
       <use xlink:href="#DejaVuSans-48"/>
      </g>
     </g>
    </g>
    <g id="xtick_2">
     <g id="line2d_2">
      <g>
       <use style="stroke:#000000;stroke-width:0.8;" x="102.243727" xlink:href="#m0fdc57ab73" y="119.740235"/>
      </g>
     </g>
     <g id="text_2">
      <!-- 25 -->
      <defs>
       <path d="M 19.1875 8.296875 
L 53.609375 8.296875 
L 53.609375 0 
L 7.328125 0 
L 7.328125 8.296875 
Q 12.9375 14.109375 22.625 23.890625 
Q 32.328125 33.6875 34.8125 36.53125 
Q 39.546875 41.84375 41.421875 45.53125 
Q 43.3125 49.21875 43.3125 52.78125 
Q 43.3125 58.59375 39.234375 62.25 
Q 35.15625 65.921875 28.609375 65.921875 
Q 23.96875 65.921875 18.8125 64.3125 
Q 13.671875 62.703125 7.8125 59.421875 
L 7.8125 69.390625 
Q 13.765625 71.78125 18.9375 73 
Q 24.125 74.21875 28.421875 74.21875 
Q 39.75 74.21875 46.484375 68.546875 
Q 53.21875 62.890625 53.21875 53.421875 
Q 53.21875 48.921875 51.53125 44.890625 
Q 49.859375 40.875 45.40625 35.40625 
Q 44.1875 33.984375 37.640625 27.21875 
Q 31.109375 20.453125 19.1875 8.296875 
z
" id="DejaVuSans-50"/>
       <path d="M 10.796875 72.90625 
L 49.515625 72.90625 
L 49.515625 64.59375 
L 19.828125 64.59375 
L 19.828125 46.734375 
Q 21.96875 47.46875 24.109375 47.828125 
Q 26.265625 48.1875 28.421875 48.1875 
Q 40.625 48.1875 47.75 41.5 
Q 54.890625 34.8125 54.890625 23.390625 
Q 54.890625 11.625 47.5625 5.09375 
Q 40.234375 -1.421875 26.90625 -1.421875 
Q 22.3125 -1.421875 17.546875 -0.640625 
Q 12.796875 0.140625 7.71875 1.703125 
L 7.71875 11.625 
Q 12.109375 9.234375 16.796875 8.0625 
Q 21.484375 6.890625 26.703125 6.890625 
Q 35.15625 6.890625 40.078125 11.328125 
Q 45.015625 15.765625 45.015625 23.390625 
Q 45.015625 31 40.078125 35.4375 
Q 35.15625 39.890625 26.703125 39.890625 
Q 22.75 39.890625 18.8125 39.015625 
Q 14.890625 38.140625 10.796875 36.28125 
z
" id="DejaVuSans-53"/>
      </defs>
      <g transform="translate(95.881227 134.338673)scale(0.1 -0.1)">
       <use xlink:href="#DejaVuSans-50"/>
       <use x="63.623047" xlink:href="#DejaVuSans-53"/>
      </g>
     </g>
    </g>
    <g id="xtick_3">
     <g id="line2d_3">
      <g>
       <use style="stroke:#000000;stroke-width:0.8;" x="139.508941" xlink:href="#m0fdc57ab73" y="119.740235"/>
      </g>
     </g>
     <g id="text_3">
      <!-- 50 -->
      <g transform="translate(133.146441 134.338673)scale(0.1 -0.1)">
       <use xlink:href="#DejaVuSans-53"/>
       <use x="63.623047" xlink:href="#DejaVuSans-48"/>
      </g>
     </g>
    </g>
    <g id="xtick_4">
     <g id="line2d_4">
      <g>
       <use style="stroke:#000000;stroke-width:0.8;" x="176.774155" xlink:href="#m0fdc57ab73" y="119.740235"/>
      </g>
     </g>
     <g id="text_4">
      <!-- 75 -->
      <defs>
       <path d="M 8.203125 72.90625 
L 55.078125 72.90625 
L 55.078125 68.703125 
L 28.609375 0 
L 18.3125 0 
L 43.21875 64.59375 
L 8.203125 64.59375 
z
" id="DejaVuSans-55"/>
      </defs>
      <g transform="translate(170.411655 134.338673)scale(0.1 -0.1)">
       <use xlink:href="#DejaVuSans-55"/>
       <use x="63.623047" xlink:href="#DejaVuSans-53"/>
      </g>
     </g>
    </g>
    <g id="xtick_5">
     <g id="line2d_5">
      <g>
       <use style="stroke:#000000;stroke-width:0.8;" x="214.039369" xlink:href="#m0fdc57ab73" y="119.740235"/>
      </g>
     </g>
     <g id="text_5">
      <!-- 100 -->
      <defs>
       <path d="M 12.40625 8.296875 
L 28.515625 8.296875 
L 28.515625 63.921875 
L 10.984375 60.40625 
L 10.984375 69.390625 
L 28.421875 72.90625 
L 38.28125 72.90625 
L 38.28125 8.296875 
L 54.390625 8.296875 
L 54.390625 0 
L 12.40625 0 
z
" id="DejaVuSans-49"/>
      </defs>
      <g transform="translate(204.495619 134.338673)scale(0.1 -0.1)">
       <use xlink:href="#DejaVuSans-49"/>
       <use x="63.623047" xlink:href="#DejaVuSans-48"/>
       <use x="127.246094" xlink:href="#DejaVuSans-48"/>
      </g>
     </g>
    </g>
    <g id="text_6">
     <!-- # epochs -->
     <defs>
      <path d="M 51.125 44 
L 36.921875 44 
L 32.8125 27.6875 
L 47.125 27.6875 
z
M 43.796875 71.78125 
L 38.71875 51.515625 
L 52.984375 51.515625 
L 58.109375 71.78125 
L 65.921875 71.78125 
L 60.890625 51.515625 
L 76.125 51.515625 
L 76.125 44 
L 58.984375 44 
L 54.984375 27.6875 
L 70.515625 27.6875 
L 70.515625 20.21875 
L 53.078125 20.21875 
L 48 0 
L 40.1875 0 
L 45.21875 20.21875 
L 30.90625 20.21875 
L 25.875 0 
L 18.015625 0 
L 23.09375 20.21875 
L 7.71875 20.21875 
L 7.71875 27.6875 
L 24.90625 27.6875 
L 29 44 
L 13.28125 44 
L 13.28125 51.515625 
L 30.90625 51.515625 
L 35.890625 71.78125 
z
" id="DejaVuSans-35"/>
      <path id="DejaVuSans-32"/>
      <path d="M 56.203125 29.59375 
L 56.203125 25.203125 
L 14.890625 25.203125 
Q 15.484375 15.921875 20.484375 11.0625 
Q 25.484375 6.203125 34.421875 6.203125 
Q 39.59375 6.203125 44.453125 7.46875 
Q 49.3125 8.734375 54.109375 11.28125 
L 54.109375 2.78125 
Q 49.265625 0.734375 44.1875 -0.34375 
Q 39.109375 -1.421875 33.890625 -1.421875 
Q 20.796875 -1.421875 13.15625 6.1875 
Q 5.515625 13.8125 5.515625 26.8125 
Q 5.515625 40.234375 12.765625 48.109375 
Q 20.015625 56 32.328125 56 
Q 43.359375 56 49.78125 48.890625 
Q 56.203125 41.796875 56.203125 29.59375 
z
M 47.21875 32.234375 
Q 47.125 39.59375 43.09375 43.984375 
Q 39.0625 48.390625 32.421875 48.390625 
Q 24.90625 48.390625 20.390625 44.140625 
Q 15.875 39.890625 15.1875 32.171875 
z
" id="DejaVuSans-101"/>
      <path d="M 18.109375 8.203125 
L 18.109375 -20.796875 
L 9.078125 -20.796875 
L 9.078125 54.6875 
L 18.109375 54.6875 
L 18.109375 46.390625 
Q 20.953125 51.265625 25.265625 53.625 
Q 29.59375 56 35.59375 56 
Q 45.5625 56 51.78125 48.09375 
Q 58.015625 40.1875 58.015625 27.296875 
Q 58.015625 14.40625 51.78125 6.484375 
Q 45.5625 -1.421875 35.59375 -1.421875 
Q 29.59375 -1.421875 25.265625 0.953125 
Q 20.953125 3.328125 18.109375 8.203125 
z
M 48.6875 27.296875 
Q 48.6875 37.203125 44.609375 42.84375 
Q 40.53125 48.484375 33.40625 48.484375 
Q 26.265625 48.484375 22.1875 42.84375 
Q 18.109375 37.203125 18.109375 27.296875 
Q 18.109375 17.390625 22.1875 11.75 
Q 26.265625 6.109375 33.40625 6.109375 
Q 40.53125 6.109375 44.609375 11.75 
Q 48.6875 17.390625 48.6875 27.296875 
z
" id="DejaVuSans-112"/>
      <path d="M 30.609375 48.390625 
Q 23.390625 48.390625 19.1875 42.75 
Q 14.984375 37.109375 14.984375 27.296875 
Q 14.984375 17.484375 19.15625 11.84375 
Q 23.34375 6.203125 30.609375 6.203125 
Q 37.796875 6.203125 41.984375 11.859375 
Q 46.1875 17.53125 46.1875 27.296875 
Q 46.1875 37.015625 41.984375 42.703125 
Q 37.796875 48.390625 30.609375 48.390625 
z
M 30.609375 56 
Q 42.328125 56 49.015625 48.375 
Q 55.71875 40.765625 55.71875 27.296875 
Q 55.71875 13.875 49.015625 6.21875 
Q 42.328125 -1.421875 30.609375 -1.421875 
Q 18.84375 -1.421875 12.171875 6.21875 
Q 5.515625 13.875 5.515625 27.296875 
Q 5.515625 40.765625 12.171875 48.375 
Q 18.84375 56 30.609375 56 
z
" id="DejaVuSans-111"/>
      <path d="M 48.78125 52.59375 
L 48.78125 44.1875 
Q 44.96875 46.296875 41.140625 47.34375 
Q 37.3125 48.390625 33.40625 48.390625 
Q 24.65625 48.390625 19.8125 42.84375 
Q 14.984375 37.3125 14.984375 27.296875 
Q 14.984375 17.28125 19.8125 11.734375 
Q 24.65625 6.203125 33.40625 6.203125 
Q 37.3125 6.203125 41.140625 7.25 
Q 44.96875 8.296875 48.78125 10.40625 
L 48.78125 2.09375 
Q 45.015625 0.34375 40.984375 -0.53125 
Q 36.96875 -1.421875 32.421875 -1.421875 
Q 20.0625 -1.421875 12.78125 6.34375 
Q 5.515625 14.109375 5.515625 27.296875 
Q 5.515625 40.671875 12.859375 48.328125 
Q 20.21875 56 33.015625 56 
Q 37.15625 56 41.109375 55.140625 
Q 45.0625 54.296875 48.78125 52.59375 
z
" id="DejaVuSans-99"/>
      <path d="M 54.890625 33.015625 
L 54.890625 0 
L 45.90625 0 
L 45.90625 32.71875 
Q 45.90625 40.484375 42.875 44.328125 
Q 39.84375 48.1875 33.796875 48.1875 
Q 26.515625 48.1875 22.3125 43.546875 
Q 18.109375 38.921875 18.109375 30.90625 
L 18.109375 0 
L 9.078125 0 
L 9.078125 75.984375 
L 18.109375 75.984375 
L 18.109375 46.1875 
Q 21.34375 51.125 25.703125 53.5625 
Q 30.078125 56 35.796875 56 
Q 45.21875 56 50.046875 50.171875 
Q 54.890625 44.34375 54.890625 33.015625 
z
" id="DejaVuSans-104"/>
      <path d="M 44.28125 53.078125 
L 44.28125 44.578125 
Q 40.484375 46.53125 36.375 47.5 
Q 32.28125 48.484375 27.875 48.484375 
Q 21.1875 48.484375 17.84375 46.4375 
Q 14.5 44.390625 14.5 40.28125 
Q 14.5 37.15625 16.890625 35.375 
Q 19.28125 33.59375 26.515625 31.984375 
L 29.59375 31.296875 
Q 39.15625 29.25 43.1875 25.515625 
Q 47.21875 21.78125 47.21875 15.09375 
Q 47.21875 7.46875 41.1875 3.015625 
Q 35.15625 -1.421875 24.609375 -1.421875 
Q 20.21875 -1.421875 15.453125 -0.5625 
Q 10.6875 0.296875 5.421875 2 
L 5.421875 11.28125 
Q 10.40625 8.6875 15.234375 7.390625 
Q 20.0625 6.109375 24.8125 6.109375 
Q 31.15625 6.109375 34.5625 8.28125 
Q 37.984375 10.453125 37.984375 14.40625 
Q 37.984375 18.0625 35.515625 20.015625 
Q 33.0625 21.96875 24.703125 23.78125 
L 21.578125 24.515625 
Q 13.234375 26.265625 9.515625 29.90625 
Q 5.8125 33.546875 5.8125 39.890625 
Q 5.8125 47.609375 11.28125 51.796875 
Q 16.75 56 26.8125 56 
Q 31.78125 56 36.171875 55.265625 
Q 40.578125 54.546875 44.28125 53.078125 
z
" id="DejaVuSans-115"/>
     </defs>
     <g transform="translate(115.151918 148.016798)scale(0.1 -0.1)">
      <use xlink:href="#DejaVuSans-35"/>
      <use x="83.789062" xlink:href="#DejaVuSans-32"/>
      <use x="115.576172" xlink:href="#DejaVuSans-101"/>
      <use x="177.099609" xlink:href="#DejaVuSans-112"/>
      <use x="240.576172" xlink:href="#DejaVuSans-111"/>
      <use x="301.757812" xlink:href="#DejaVuSans-99"/>
      <use x="356.738281" xlink:href="#DejaVuSans-104"/>
      <use x="420.117188" xlink:href="#DejaVuSans-115"/>
     </g>
    </g>
   </g>
   <g id="matplotlib.axis_2">
    <g id="ytick_1">
     <g id="line2d_6">
      <defs>
       <path d="M 0 0 
L -3.5 0 
" id="mf93914dfd0" style="stroke:#000000;stroke-width:0.8;"/>
      </defs>
      <g>
       <use style="stroke:#000000;stroke-width:0.8;" x="57.6" xlink:href="#mf93914dfd0" y="95.323621"/>
      </g>
     </g>
     <g id="text_7">
      <!-- 0.10 -->
      <defs>
       <path d="M 10.6875 12.40625 
L 21 12.40625 
L 21 0 
L 10.6875 0 
z
" id="DejaVuSans-46"/>
      </defs>
      <g transform="translate(28.334375 99.12284)scale(0.1 -0.1)">
       <use xlink:href="#DejaVuSans-48"/>
       <use x="63.623047" xlink:href="#DejaVuSans-46"/>
       <use x="95.410156" xlink:href="#DejaVuSans-49"/>
       <use x="159.033203" xlink:href="#DejaVuSans-48"/>
      </g>
     </g>
    </g>
    <g id="ytick_2">
     <g id="line2d_7">
      <g>
       <use style="stroke:#000000;stroke-width:0.8;" x="57.6" xlink:href="#mf93914dfd0" y="47.312177"/>
      </g>
     </g>
     <g id="text_8">
      <!-- 0.15 -->
      <g transform="translate(28.334375 51.111396)scale(0.1 -0.1)">
       <use xlink:href="#DejaVuSans-48"/>
       <use x="63.623047" xlink:href="#DejaVuSans-46"/>
       <use x="95.410156" xlink:href="#DejaVuSans-49"/>
       <use x="159.033203" xlink:href="#DejaVuSans-53"/>
      </g>
     </g>
    </g>
    <g id="text_9">
     <!-- loss -->
     <defs>
      <path d="M 9.421875 75.984375 
L 18.40625 75.984375 
L 18.40625 0 
L 9.421875 0 
z
" id="DejaVuSans-108"/>
     </defs>
     <g transform="translate(22.254688 90.26393)rotate(-90)scale(0.1 -0.1)">
      <use xlink:href="#DejaVuSans-108"/>
      <use x="27.783203" xlink:href="#DejaVuSans-111"/>
      <use x="88.964844" xlink:href="#DejaVuSans-115"/>
      <use x="141.064453" xlink:href="#DejaVuSans-115"/>
     </g>
    </g>
   </g>
   <g id="line2d_8">
    <path clip-path="url(#pa1645cc508)" d="M 64.978512 45.029647 
L 66.469121 64.02792 
L 67.95973 75.328379 
L 69.450338 77.915281 
L 70.940947 80.351179 
L 72.431555 81.905972 
L 73.922164 84.315063 
L 75.412772 85.42021 
L 76.903381 93.134129 
L 78.393989 92.493995 
L 79.884598 93.25294 
L 81.375207 94.010391 
L 82.865815 91.792777 
L 84.356424 92.996031 
L 85.847032 94.838804 
L 87.337641 94.472299 
L 88.828249 95.064764 
L 90.318858 95.593665 
L 91.809467 95.796331 
L 93.300075 96.057805 
L 94.790684 95.839185 
L 96.281292 94.557928 
L 97.771901 96.126593 
L 99.262509 95.828282 
L 100.753118 96.830014 
L 102.243727 96.701431 
L 103.734335 96.978251 
L 105.224944 97.080693 
L 106.715552 97.087282 
L 108.206161 96.714588 
L 109.696769 97.206758 
L 111.187378 96.503186 
L 112.677986 97.038175 
L 114.168595 96.653648 
L 115.659204 97.37235 
L 117.149812 97.32755 
L 118.640421 97.017449 
L 120.131029 97.897752 
L 121.621638 98.235884 
L 123.112246 98.297454 
L 124.602855 98.223507 
L 126.093464 97.891106 
L 127.584072 97.716828 
L 129.074681 98.661799 
L 130.565289 97.997168 
L 132.055898 96.014994 
L 133.546506 98.541085 
L 135.037115 98.668939 
L 136.527724 98.456379 
L 138.018332 98.471488 
L 139.508941 98.958701 
L 140.999549 99.012193 
L 142.490158 98.423619 
L 143.980766 98.590686 
L 145.471375 98.262591 
L 146.961983 94.606591 
L 148.452592 97.933982 
L 149.943201 99.397973 
L 151.433809 98.89007 
L 152.924418 99.627488 
L 154.415026 99.562943 
L 155.905635 99.821777 
L 157.396243 97.408522 
L 158.886852 99.163949 
L 160.377461 99.896446 
L 161.868069 99.202125 
L 163.358678 99.659847 
L 164.849286 100.12951 
L 166.339895 100.231179 
L 167.830503 99.719643 
L 169.321112 100.418893 
L 170.811721 99.394345 
L 172.302329 100.598272 
L 173.792938 99.996112 
L 175.283546 99.052271 
L 176.774155 100.743203 
L 178.264763 101.0147 
L 179.755372 100.861957 
L 181.24598 101.520463 
L 182.736589 100.829619 
L 184.227198 101.671268 
L 185.717806 101.62327 
L 187.208415 100.824246 
L 188.699023 102.193987 
L 190.189632 102.363786 
L 191.68024 102.533371 
L 193.170849 102.834136 
L 194.661458 101.933751 
L 196.152066 102.3456 
L 197.642675 103.085838 
L 199.133283 101.686957 
L 200.623892 103.04631 
L 202.1145 100.110373 
L 203.605109 103.571855 
L 205.095718 102.836683 
L 206.586326 102.101998 
L 208.076935 102.723639 
L 209.567543 100.861127 
L 211.058152 102.73907 
L 212.54876 102.542128 
" style="fill:none;stroke:#1f77b4;stroke-linecap:square;stroke-width:1.5;"/>
   </g>
   <g id="line2d_9">
    <path clip-path="url(#pa1645cc508)" d="M 64.978512 59.055965 
L 66.469121 88.843038 
L 67.95973 99.337798 
L 69.450338 100.850689 
L 70.940947 102.806092 
L 72.431555 105.431391 
L 73.922164 104.016614 
L 75.412772 105.930544 
L 76.903381 102.9681 
L 78.393989 104.953837 
L 79.884598 107.520744 
L 81.375207 107.950872 
L 82.865815 107.821766 
L 84.356424 107.421671 
L 85.847032 106.924593 
L 87.337641 108.649293 
L 88.828249 107.254877 
L 90.318858 105.534956 
L 91.809467 109.36615 
L 93.300075 109.643642 
L 94.790684 108.851479 
L 96.281292 107.694285 
L 97.771901 109.712144 
L 99.262509 108.924424 
L 100.753118 110.210582 
L 102.243727 109.096105 
L 103.734335 108.958772 
L 105.224944 110.527108 
L 106.715552 107.986679 
L 108.206161 108.851107 
L 109.696769 108.90402 
L 111.187378 108.817618 
L 112.677986 109.419685 
L 114.168595 111.479841 
L 115.659204 110.757711 
L 117.149812 109.542946 
L 118.640421 110.115931 
L 120.131029 110.949925 
L 121.621638 110.702724 
L 123.112246 110.566263 
L 124.602855 111.663741 
L 126.093464 110.538226 
L 127.584072 110.175848 
L 129.074681 109.810895 
L 130.565289 111.106281 
L 132.055898 111.414637 
L 133.546506 110.483095 
L 135.037115 110.08021 
L 136.527724 111.034417 
L 138.018332 109.940043 
L 139.508941 112.088347 
L 140.999549 111.020294 
L 142.490158 111.278284 
L 143.980766 109.745905 
L 145.471375 112.604262 
L 146.961983 111.927354 
L 148.452592 112.340635 
L 149.943201 111.915121 
L 151.433809 112.278664 
L 152.924418 111.370145 
L 154.415026 111.486308 
L 155.905635 113.104782 
L 157.396243 112.188464 
L 158.886852 111.356924 
L 160.377461 111.986992 
L 161.868069 111.561521 
L 163.358678 109.829582 
L 164.849286 113.074998 
L 166.339895 112.98346 
L 167.830503 112.848222 
L 169.321112 110.84299 
L 170.811721 114.032038 
L 172.302329 111.820978 
L 173.792938 112.22005 
L 175.283546 112.748099 
L 176.774155 113.190611 
L 178.264763 112.896042 
L 179.755372 114.536156 
L 181.24598 113.801142 
L 182.736589 110.734589 
L 184.227198 114.561175 
L 185.717806 113.986709 
L 187.208415 113.383798 
L 188.699023 112.93866 
L 190.189632 114.537129 
L 191.68024 113.214714 
L 193.170849 114.335508 
L 194.661458 114.54042 
L 196.152066 113.142856 
L 197.642675 112.407727 
L 199.133283 115.097651 
L 200.623892 114.704303 
L 202.1145 113.765542 
L 203.605109 115.535313 
L 205.095718 114.907949 
L 206.586326 115.595817 
L 208.076935 116.182588 
L 209.567543 111.978371 
L 211.058152 114.297161 
L 212.54876 116.135241 
" style="fill:none;stroke:#ff7f0e;stroke-linecap:square;stroke-width:1.5;"/>
   </g>
   <g id="patch_3">
    <path d="M 57.6 119.740235 
L 57.6 41.472 
" style="fill:none;stroke:#000000;stroke-linecap:square;stroke-linejoin:miter;stroke-width:0.8;"/>
   </g>
   <g id="patch_4">
    <path d="M 219.927273 119.740235 
L 219.927273 41.472 
" style="fill:none;stroke:#000000;stroke-linecap:square;stroke-linejoin:miter;stroke-width:0.8;"/>
   </g>
   <g id="patch_5">
    <path d="M 57.6 119.740235 
L 219.927273 119.740235 
" style="fill:none;stroke:#000000;stroke-linecap:square;stroke-linejoin:miter;stroke-width:0.8;"/>
   </g>
   <g id="patch_6">
    <path d="M 57.6 41.472 
L 219.927273 41.472 
" style="fill:none;stroke:#000000;stroke-linecap:square;stroke-linejoin:miter;stroke-width:0.8;"/>
   </g>
   <g id="legend_1">
    <g id="patch_7">
     <path d="M 131.692898 78.82825 
L 212.927273 78.82825 
Q 214.927273 78.82825 214.927273 76.82825 
L 214.927273 48.472 
Q 214.927273 46.472 212.927273 46.472 
L 131.692898 46.472 
Q 129.692898 46.472 129.692898 48.472 
L 129.692898 76.82825 
Q 129.692898 78.82825 131.692898 78.82825 
z
" style="fill:#ffffff;opacity:0.8;stroke:#cccccc;stroke-linejoin:miter;"/>
    </g>
    <g id="line2d_10">
     <path d="M 133.692898 54.570437 
L 153.692898 54.570437 
" style="fill:none;stroke:#1f77b4;stroke-linecap:square;stroke-width:1.5;"/>
    </g>
    <g id="line2d_11"/>
    <g id="text_10">
     <!-- validation -->
     <defs>
      <path d="M 2.984375 54.6875 
L 12.5 54.6875 
L 29.59375 8.796875 
L 46.6875 54.6875 
L 56.203125 54.6875 
L 35.6875 0 
L 23.484375 0 
z
" id="DejaVuSans-118"/>
      <path d="M 34.28125 27.484375 
Q 23.390625 27.484375 19.1875 25 
Q 14.984375 22.515625 14.984375 16.5 
Q 14.984375 11.71875 18.140625 8.90625 
Q 21.296875 6.109375 26.703125 6.109375 
Q 34.1875 6.109375 38.703125 11.40625 
Q 43.21875 16.703125 43.21875 25.484375 
L 43.21875 27.484375 
z
M 52.203125 31.203125 
L 52.203125 0 
L 43.21875 0 
L 43.21875 8.296875 
Q 40.140625 3.328125 35.546875 0.953125 
Q 30.953125 -1.421875 24.3125 -1.421875 
Q 15.921875 -1.421875 10.953125 3.296875 
Q 6 8.015625 6 15.921875 
Q 6 25.140625 12.171875 29.828125 
Q 18.359375 34.515625 30.609375 34.515625 
L 43.21875 34.515625 
L 43.21875 35.40625 
Q 43.21875 41.609375 39.140625 45 
Q 35.0625 48.390625 27.6875 48.390625 
Q 23 48.390625 18.546875 47.265625 
Q 14.109375 46.140625 10.015625 43.890625 
L 10.015625 52.203125 
Q 14.9375 54.109375 19.578125 55.046875 
Q 24.21875 56 28.609375 56 
Q 40.484375 56 46.34375 49.84375 
Q 52.203125 43.703125 52.203125 31.203125 
z
" id="DejaVuSans-97"/>
      <path d="M 9.421875 54.6875 
L 18.40625 54.6875 
L 18.40625 0 
L 9.421875 0 
z
M 9.421875 75.984375 
L 18.40625 75.984375 
L 18.40625 64.59375 
L 9.421875 64.59375 
z
" id="DejaVuSans-105"/>
      <path d="M 45.40625 46.390625 
L 45.40625 75.984375 
L 54.390625 75.984375 
L 54.390625 0 
L 45.40625 0 
L 45.40625 8.203125 
Q 42.578125 3.328125 38.25 0.953125 
Q 33.9375 -1.421875 27.875 -1.421875 
Q 17.96875 -1.421875 11.734375 6.484375 
Q 5.515625 14.40625 5.515625 27.296875 
Q 5.515625 40.1875 11.734375 48.09375 
Q 17.96875 56 27.875 56 
Q 33.9375 56 38.25 53.625 
Q 42.578125 51.265625 45.40625 46.390625 
z
M 14.796875 27.296875 
Q 14.796875 17.390625 18.875 11.75 
Q 22.953125 6.109375 30.078125 6.109375 
Q 37.203125 6.109375 41.296875 11.75 
Q 45.40625 17.390625 45.40625 27.296875 
Q 45.40625 37.203125 41.296875 42.84375 
Q 37.203125 48.484375 30.078125 48.484375 
Q 22.953125 48.484375 18.875 42.84375 
Q 14.796875 37.203125 14.796875 27.296875 
z
" id="DejaVuSans-100"/>
      <path d="M 18.3125 70.21875 
L 18.3125 54.6875 
L 36.8125 54.6875 
L 36.8125 47.703125 
L 18.3125 47.703125 
L 18.3125 18.015625 
Q 18.3125 11.328125 20.140625 9.421875 
Q 21.96875 7.515625 27.59375 7.515625 
L 36.8125 7.515625 
L 36.8125 0 
L 27.59375 0 
Q 17.1875 0 13.234375 3.875 
Q 9.28125 7.765625 9.28125 18.015625 
L 9.28125 47.703125 
L 2.6875 47.703125 
L 2.6875 54.6875 
L 9.28125 54.6875 
L 9.28125 70.21875 
z
" id="DejaVuSans-116"/>
      <path d="M 54.890625 33.015625 
L 54.890625 0 
L 45.90625 0 
L 45.90625 32.71875 
Q 45.90625 40.484375 42.875 44.328125 
Q 39.84375 48.1875 33.796875 48.1875 
Q 26.515625 48.1875 22.3125 43.546875 
Q 18.109375 38.921875 18.109375 30.90625 
L 18.109375 0 
L 9.078125 0 
L 9.078125 54.6875 
L 18.109375 54.6875 
L 18.109375 46.1875 
Q 21.34375 51.125 25.703125 53.5625 
Q 30.078125 56 35.796875 56 
Q 45.21875 56 50.046875 50.171875 
Q 54.890625 44.34375 54.890625 33.015625 
z
" id="DejaVuSans-110"/>
     </defs>
     <g transform="translate(161.692898 58.070437)scale(0.1 -0.1)">
      <use xlink:href="#DejaVuSans-118"/>
      <use x="59.179688" xlink:href="#DejaVuSans-97"/>
      <use x="120.458984" xlink:href="#DejaVuSans-108"/>
      <use x="148.242188" xlink:href="#DejaVuSans-105"/>
      <use x="176.025391" xlink:href="#DejaVuSans-100"/>
      <use x="239.501953" xlink:href="#DejaVuSans-97"/>
      <use x="300.78125" xlink:href="#DejaVuSans-116"/>
      <use x="339.990234" xlink:href="#DejaVuSans-105"/>
      <use x="367.773438" xlink:href="#DejaVuSans-111"/>
      <use x="428.955078" xlink:href="#DejaVuSans-110"/>
     </g>
    </g>
    <g id="line2d_12">
     <path d="M 133.692898 69.248562 
L 153.692898 69.248562 
" style="fill:none;stroke:#ff7f0e;stroke-linecap:square;stroke-width:1.5;"/>
    </g>
    <g id="line2d_13"/>
    <g id="text_11">
     <!-- training -->
     <defs>
      <path d="M 41.109375 46.296875 
Q 39.59375 47.171875 37.8125 47.578125 
Q 36.03125 48 33.890625 48 
Q 26.265625 48 22.1875 43.046875 
Q 18.109375 38.09375 18.109375 28.8125 
L 18.109375 0 
L 9.078125 0 
L 9.078125 54.6875 
L 18.109375 54.6875 
L 18.109375 46.1875 
Q 20.953125 51.171875 25.484375 53.578125 
Q 30.03125 56 36.53125 56 
Q 37.453125 56 38.578125 55.875 
Q 39.703125 55.765625 41.0625 55.515625 
z
" id="DejaVuSans-114"/>
      <path d="M 45.40625 27.984375 
Q 45.40625 37.75 41.375 43.109375 
Q 37.359375 48.484375 30.078125 48.484375 
Q 22.859375 48.484375 18.828125 43.109375 
Q 14.796875 37.75 14.796875 27.984375 
Q 14.796875 18.265625 18.828125 12.890625 
Q 22.859375 7.515625 30.078125 7.515625 
Q 37.359375 7.515625 41.375 12.890625 
Q 45.40625 18.265625 45.40625 27.984375 
z
M 54.390625 6.78125 
Q 54.390625 -7.171875 48.1875 -13.984375 
Q 42 -20.796875 29.203125 -20.796875 
Q 24.46875 -20.796875 20.265625 -20.09375 
Q 16.0625 -19.390625 12.109375 -17.921875 
L 12.109375 -9.1875 
Q 16.0625 -11.328125 19.921875 -12.34375 
Q 23.78125 -13.375 27.78125 -13.375 
Q 36.625 -13.375 41.015625 -8.765625 
Q 45.40625 -4.15625 45.40625 5.171875 
L 45.40625 9.625 
Q 42.625 4.78125 38.28125 2.390625 
Q 33.9375 0 27.875 0 
Q 17.828125 0 11.671875 7.65625 
Q 5.515625 15.328125 5.515625 27.984375 
Q 5.515625 40.671875 11.671875 48.328125 
Q 17.828125 56 27.875 56 
Q 33.9375 56 38.28125 53.609375 
Q 42.625 51.21875 45.40625 46.390625 
L 45.40625 54.6875 
L 54.390625 54.6875 
z
" id="DejaVuSans-103"/>
     </defs>
     <g transform="translate(161.692898 72.748562)scale(0.1 -0.1)">
      <use xlink:href="#DejaVuSans-116"/>
      <use x="39.208984" xlink:href="#DejaVuSans-114"/>
      <use x="80.322266" xlink:href="#DejaVuSans-97"/>
      <use x="141.601562" xlink:href="#DejaVuSans-105"/>
      <use x="169.384766" xlink:href="#DejaVuSans-110"/>
      <use x="232.763672" xlink:href="#DejaVuSans-105"/>
      <use x="260.546875" xlink:href="#DejaVuSans-110"/>
      <use x="323.925781" xlink:href="#DejaVuSans-103"/>
     </g>
    </g>
   </g>
  </g>
  <g id="axes_2">
   <g id="patch_8">
    <path d="M 252.392727 119.740235 
L 414.72 119.740235 
L 414.72 41.472 
L 252.392727 41.472 
z
" style="fill:#ffffff;"/>
   </g>
   <g id="matplotlib.axis_3">
    <g id="xtick_6">
     <g id="line2d_14">
      <g>
       <use style="stroke:#000000;stroke-width:0.8;" x="259.77124" xlink:href="#m0fdc57ab73" y="119.740235"/>
      </g>
     </g>
     <g id="text_12">
      <!-- 0 -->
      <g transform="translate(256.58999 134.338673)scale(0.1 -0.1)">
       <use xlink:href="#DejaVuSans-48"/>
      </g>
     </g>
    </g>
    <g id="xtick_7">
     <g id="line2d_15">
      <g>
       <use style="stroke:#000000;stroke-width:0.8;" x="297.036454" xlink:href="#m0fdc57ab73" y="119.740235"/>
      </g>
     </g>
     <g id="text_13">
      <!-- 25 -->
      <g transform="translate(290.673954 134.338673)scale(0.1 -0.1)">
       <use xlink:href="#DejaVuSans-50"/>
       <use x="63.623047" xlink:href="#DejaVuSans-53"/>
      </g>
     </g>
    </g>
    <g id="xtick_8">
     <g id="line2d_16">
      <g>
       <use style="stroke:#000000;stroke-width:0.8;" x="334.301668" xlink:href="#m0fdc57ab73" y="119.740235"/>
      </g>
     </g>
     <g id="text_14">
      <!-- 50 -->
      <g transform="translate(327.939168 134.338673)scale(0.1 -0.1)">
       <use xlink:href="#DejaVuSans-53"/>
       <use x="63.623047" xlink:href="#DejaVuSans-48"/>
      </g>
     </g>
    </g>
    <g id="xtick_9">
     <g id="line2d_17">
      <g>
       <use style="stroke:#000000;stroke-width:0.8;" x="371.566882" xlink:href="#m0fdc57ab73" y="119.740235"/>
      </g>
     </g>
     <g id="text_15">
      <!-- 75 -->
      <g transform="translate(365.204382 134.338673)scale(0.1 -0.1)">
       <use xlink:href="#DejaVuSans-55"/>
       <use x="63.623047" xlink:href="#DejaVuSans-53"/>
      </g>
     </g>
    </g>
    <g id="xtick_10">
     <g id="line2d_18">
      <g>
       <use style="stroke:#000000;stroke-width:0.8;" x="408.832096" xlink:href="#m0fdc57ab73" y="119.740235"/>
      </g>
     </g>
     <g id="text_16">
      <!-- 100 -->
      <g transform="translate(399.288346 134.338673)scale(0.1 -0.1)">
       <use xlink:href="#DejaVuSans-49"/>
       <use x="63.623047" xlink:href="#DejaVuSans-48"/>
       <use x="127.246094" xlink:href="#DejaVuSans-48"/>
      </g>
     </g>
    </g>
    <g id="text_17">
     <!-- # epochs -->
     <g transform="translate(309.944645 148.016798)scale(0.1 -0.1)">
      <use xlink:href="#DejaVuSans-35"/>
      <use x="83.789062" xlink:href="#DejaVuSans-32"/>
      <use x="115.576172" xlink:href="#DejaVuSans-101"/>
      <use x="177.099609" xlink:href="#DejaVuSans-112"/>
      <use x="240.576172" xlink:href="#DejaVuSans-111"/>
      <use x="301.757812" xlink:href="#DejaVuSans-99"/>
      <use x="356.738281" xlink:href="#DejaVuSans-104"/>
      <use x="420.117188" xlink:href="#DejaVuSans-115"/>
     </g>
    </g>
   </g>
   <g id="matplotlib.axis_4">
    <g id="ytick_3">
     <g id="line2d_19">
      <g>
       <use style="stroke:#000000;stroke-width:0.8;" x="252.392727" xlink:href="#mf93914dfd0" y="119.430453"/>
      </g>
     </g>
     <g id="text_18">
      <!-- 50 -->
      <g transform="translate(232.667727 123.229672)scale(0.1 -0.1)">
       <use xlink:href="#DejaVuSans-53"/>
       <use x="63.623047" xlink:href="#DejaVuSans-48"/>
      </g>
     </g>
    </g>
    <g id="ytick_4">
     <g id="line2d_20">
      <g>
       <use style="stroke:#000000;stroke-width:0.8;" x="252.392727" xlink:href="#mf93914dfd0" y="83.252657"/>
      </g>
     </g>
     <g id="text_19">
      <!-- 60 -->
      <defs>
       <path d="M 33.015625 40.375 
Q 26.375 40.375 22.484375 35.828125 
Q 18.609375 31.296875 18.609375 23.390625 
Q 18.609375 15.53125 22.484375 10.953125 
Q 26.375 6.390625 33.015625 6.390625 
Q 39.65625 6.390625 43.53125 10.953125 
Q 47.40625 15.53125 47.40625 23.390625 
Q 47.40625 31.296875 43.53125 35.828125 
Q 39.65625 40.375 33.015625 40.375 
z
M 52.59375 71.296875 
L 52.59375 62.3125 
Q 48.875 64.0625 45.09375 64.984375 
Q 41.3125 65.921875 37.59375 65.921875 
Q 27.828125 65.921875 22.671875 59.328125 
Q 17.53125 52.734375 16.796875 39.40625 
Q 19.671875 43.65625 24.015625 45.921875 
Q 28.375 48.1875 33.59375 48.1875 
Q 44.578125 48.1875 50.953125 41.515625 
Q 57.328125 34.859375 57.328125 23.390625 
Q 57.328125 12.15625 50.6875 5.359375 
Q 44.046875 -1.421875 33.015625 -1.421875 
Q 20.359375 -1.421875 13.671875 8.265625 
Q 6.984375 17.96875 6.984375 36.375 
Q 6.984375 53.65625 15.1875 63.9375 
Q 23.390625 74.21875 37.203125 74.21875 
Q 40.921875 74.21875 44.703125 73.484375 
Q 48.484375 72.75 52.59375 71.296875 
z
" id="DejaVuSans-54"/>
      </defs>
      <g transform="translate(232.667727 87.051876)scale(0.1 -0.1)">
       <use xlink:href="#DejaVuSans-54"/>
       <use x="63.623047" xlink:href="#DejaVuSans-48"/>
      </g>
     </g>
    </g>
    <g id="ytick_5">
     <g id="line2d_21">
      <g>
       <use style="stroke:#000000;stroke-width:0.8;" x="252.392727" xlink:href="#mf93914dfd0" y="47.074861"/>
      </g>
     </g>
     <g id="text_20">
      <!-- 70 -->
      <g transform="translate(232.667727 50.874079)scale(0.1 -0.1)">
       <use xlink:href="#DejaVuSans-55"/>
       <use x="63.623047" xlink:href="#DejaVuSans-48"/>
      </g>
     </g>
    </g>
    <g id="text_21">
     <!-- prd -->
     <g transform="translate(226.58804 88.922524)rotate(-90)scale(0.1 -0.1)">
      <use xlink:href="#DejaVuSans-112"/>
      <use x="63.476562" xlink:href="#DejaVuSans-114"/>
      <use x="102.839844" xlink:href="#DejaVuSans-100"/>
     </g>
    </g>
   </g>
   <g id="line2d_22">
    <path clip-path="url(#p386e3cea25)" d="M 259.77124 45.029647 
L 261.261848 62.256413 
L 262.752457 73.095606 
L 264.243065 75.654469 
L 265.733674 78.085828 
L 267.224282 79.679095 
L 268.714891 82.113213 
L 270.2055 83.278423 
L 271.696108 91.453771 
L 273.186717 90.752804 
L 274.677325 91.585209 
L 276.167934 92.395753 
L 277.658542 89.977989 
L 279.149151 91.26822 
L 280.63976 93.301992 
L 282.130368 92.873369 
L 283.620977 93.560811 
L 285.111585 94.150213 
L 286.602194 94.410302 
L 288.092802 94.66683 
L 289.583411 94.348447 
L 291.07402 93.132064 
L 292.564628 94.795149 
L 294.055237 94.467409 
L 295.545845 95.503444 
L 297.036454 95.304852 
L 298.527062 95.684882 
L 300.017671 95.804424 
L 301.508279 95.793025 
L 302.998888 95.475125 
L 304.489497 95.866155 
L 305.980105 95.084109 
L 307.470714 95.748725 
L 308.961322 95.407501 
L 310.451931 96.096752 
L 311.942539 96.062043 
L 313.433148 95.794571 
L 314.923757 96.61726 
L 316.414365 97.036858 
L 317.904974 97.069855 
L 319.395582 97.031213 
L 320.886191 96.597566 
L 322.376799 96.475306 
L 323.867408 97.493938 
L 325.358017 96.704522 
L 326.848625 94.484812 
L 328.339234 97.377611 
L 329.829842 97.490212 
L 331.320451 97.330192 
L 332.811059 97.315315 
L 334.301668 97.80542 
L 335.792276 97.895663 
L 337.282885 97.263438 
L 338.773494 97.456055 
L 340.264102 97.083752 
L 341.754711 93.1912 
L 343.245319 96.756399 
L 344.735928 98.280083 
L 346.226536 97.781876 
L 347.717145 98.504814 
L 349.207754 98.390213 
L 350.698362 98.737563 
L 352.188971 96.182468 
L 353.679579 98.091579 
L 355.170188 98.847155 
L 356.660796 98.074549 
L 358.151405 98.646479 
L 359.642014 99.048315 
L 361.132622 99.189537 
L 362.623231 98.665358 
L 364.113839 99.346024 
L 365.604448 98.334278 
L 367.095056 99.611122 
L 368.585665 98.905794 
L 370.076273 97.984802 
L 371.566882 99.710515 
L 373.057491 100.067802 
L 374.548099 99.945031 
L 376.038708 100.591471 
L 377.529316 99.812668 
L 379.019925 100.763525 
L 380.510533 100.604389 
L 382.001142 99.871846 
L 383.491751 101.29299 
L 384.982359 101.575795 
L 386.472968 101.715679 
L 387.963576 102.072414 
L 389.454185 100.963097 
L 390.944793 101.494812 
L 392.435402 102.191887 
L 393.926011 100.820508 
L 395.416619 102.236381 
L 396.907228 99.172645 
L 398.397836 102.860201 
L 399.888445 101.862063 
L 401.379053 101.172662 
L 402.869662 102.015597 
L 404.36027 99.966174 
L 405.850879 101.815155 
L 407.341488 101.779714 
" style="fill:none;stroke:#1f77b4;stroke-linecap:square;stroke-width:1.5;"/>
   </g>
   <g id="line2d_23">
    <path clip-path="url(#p386e3cea25)" d="M 259.77124 56.320828 
L 261.261848 85.54373 
L 262.752457 96.485394 
L 264.243065 98.156166 
L 265.733674 100.01587 
L 267.224282 104.055193 
L 268.714891 101.513567 
L 270.2055 103.651798 
L 271.696108 100.492865 
L 273.186717 102.780585 
L 274.677325 105.858991 
L 276.167934 106.54882 
L 277.658542 106.288152 
L 279.149151 105.624199 
L 280.63976 104.770692 
L 282.130368 107.265893 
L 283.620977 105.105319 
L 285.111585 103.418593 
L 286.602194 107.630411 
L 288.092802 108.337575 
L 289.583411 107.291176 
L 291.07402 106.004906 
L 292.564628 108.277652 
L 294.055237 107.070874 
L 295.545845 109.395815 
L 297.036454 107.756881 
L 298.527062 107.48284 
L 300.017671 109.573237 
L 301.508279 106.620363 
L 302.998888 107.235931 
L 304.489497 107.292583 
L 305.980105 107.323869 
L 307.470714 107.950864 
L 308.961322 110.078896 
L 310.451931 109.790695 
L 311.942539 107.973815 
L 313.433148 108.452204 
L 314.923757 109.644435 
L 316.414365 110.154441 
L 317.904974 109.228688 
L 319.395582 110.947059 
L 320.886191 108.920987 
L 322.376799 108.992571 
L 323.867408 108.309891 
L 325.358017 109.977695 
L 326.848625 110.595264 
L 328.339234 109.407767 
L 329.829842 108.827998 
L 331.320451 109.940516 
L 332.811059 108.667067 
L 334.301668 111.133038 
L 335.792276 109.975653 
L 337.282885 109.917842 
L 338.773494 108.116142 
L 340.264102 112.412242 
L 341.754711 111.53635 
L 343.245319 111.770093 
L 344.735928 111.199281 
L 346.226536 111.784626 
L 347.717145 110.210155 
L 349.207754 109.86032 
L 350.698362 112.674566 
L 352.188971 111.02208 
L 353.679579 109.992807 
L 355.170188 111.314655 
L 356.660796 110.107077 
L 358.151405 107.674588 
L 359.642014 112.404623 
L 361.132622 112.224262 
L 362.623231 112.394107 
L 364.113839 111.007506 
L 365.604448 113.438906 
L 367.095056 110.319498 
L 368.585665 111.256182 
L 370.076273 112.09539 
L 371.566882 113.292176 
L 373.057491 112.062655 
L 374.548099 114.42708 
L 376.038708 113.26031 
L 377.529316 109.441344 
L 379.019925 114.502376 
L 380.510533 113.324346 
L 382.001142 112.958723 
L 383.491751 112.29644 
L 384.982359 113.885622 
L 386.472968 112.411814 
L 387.963576 113.621158 
L 389.454185 114.018868 
L 390.944793 112.26438 
L 392.435402 111.75632 
L 393.926011 114.611858 
L 395.416619 114.300154 
L 396.907228 113.261677 
L 398.397836 116.078324 
L 399.888445 114.635043 
L 401.379053 115.156724 
L 402.869662 116.145326 
L 404.36027 111.236502 
L 405.850879 114.07287 
L 407.341488 116.182588 
" style="fill:none;stroke:#ff7f0e;stroke-linecap:square;stroke-width:1.5;"/>
   </g>
   <g id="patch_9">
    <path d="M 252.392727 119.740235 
L 252.392727 41.472 
" style="fill:none;stroke:#000000;stroke-linecap:square;stroke-linejoin:miter;stroke-width:0.8;"/>
   </g>
   <g id="patch_10">
    <path d="M 414.72 119.740235 
L 414.72 41.472 
" style="fill:none;stroke:#000000;stroke-linecap:square;stroke-linejoin:miter;stroke-width:0.8;"/>
   </g>
   <g id="patch_11">
    <path d="M 252.392727 119.740235 
L 414.72 119.740235 
" style="fill:none;stroke:#000000;stroke-linecap:square;stroke-linejoin:miter;stroke-width:0.8;"/>
   </g>
   <g id="patch_12">
    <path d="M 252.392727 41.472 
L 414.72 41.472 
" style="fill:none;stroke:#000000;stroke-linecap:square;stroke-linejoin:miter;stroke-width:0.8;"/>
   </g>
   <g id="legend_2">
    <g id="patch_13">
     <path d="M 326.485625 78.82825 
L 407.72 78.82825 
Q 409.72 78.82825 409.72 76.82825 
L 409.72 48.472 
Q 409.72 46.472 407.72 46.472 
L 326.485625 46.472 
Q 324.485625 46.472 324.485625 48.472 
L 324.485625 76.82825 
Q 324.485625 78.82825 326.485625 78.82825 
z
" style="fill:#ffffff;opacity:0.8;stroke:#cccccc;stroke-linejoin:miter;"/>
    </g>
    <g id="line2d_24">
     <path d="M 328.485625 54.570437 
L 348.485625 54.570437 
" style="fill:none;stroke:#1f77b4;stroke-linecap:square;stroke-width:1.5;"/>
    </g>
    <g id="line2d_25"/>
    <g id="text_22">
     <!-- validation -->
     <g transform="translate(356.485625 58.070437)scale(0.1 -0.1)">
      <use xlink:href="#DejaVuSans-118"/>
      <use x="59.179688" xlink:href="#DejaVuSans-97"/>
      <use x="120.458984" xlink:href="#DejaVuSans-108"/>
      <use x="148.242188" xlink:href="#DejaVuSans-105"/>
      <use x="176.025391" xlink:href="#DejaVuSans-100"/>
      <use x="239.501953" xlink:href="#DejaVuSans-97"/>
      <use x="300.78125" xlink:href="#DejaVuSans-116"/>
      <use x="339.990234" xlink:href="#DejaVuSans-105"/>
      <use x="367.773438" xlink:href="#DejaVuSans-111"/>
      <use x="428.955078" xlink:href="#DejaVuSans-110"/>
     </g>
    </g>
    <g id="line2d_26">
     <path d="M 328.485625 69.248562 
L 348.485625 69.248562 
" style="fill:none;stroke:#ff7f0e;stroke-linecap:square;stroke-width:1.5;"/>
    </g>
    <g id="line2d_27"/>
    <g id="text_23">
     <!-- training -->
     <g transform="translate(356.485625 72.748562)scale(0.1 -0.1)">
      <use xlink:href="#DejaVuSans-116"/>
      <use x="39.208984" xlink:href="#DejaVuSans-114"/>
      <use x="80.322266" xlink:href="#DejaVuSans-97"/>
      <use x="141.601562" xlink:href="#DejaVuSans-105"/>
      <use x="169.384766" xlink:href="#DejaVuSans-110"/>
      <use x="232.763672" xlink:href="#DejaVuSans-105"/>
      <use x="260.546875" xlink:href="#DejaVuSans-110"/>
      <use x="323.925781" xlink:href="#DejaVuSans-103"/>
     </g>
    </g>
   </g>
  </g>
  <g id="axes_3">
   <g id="patch_14">
    <path d="M 57.6 213.662118 
L 219.927273 213.662118 
L 219.927273 135.393882 
L 57.6 135.393882 
z
" style="fill:#ffffff;"/>
   </g>
   <g id="matplotlib.axis_5">
    <g id="xtick_11">
     <g id="line2d_28">
      <g>
       <use style="stroke:#000000;stroke-width:0.8;" x="64.978512" xlink:href="#m0fdc57ab73" y="213.662118"/>
      </g>
     </g>
     <g id="text_24">
      <!-- 0 -->
      <g transform="translate(61.797262 228.260555)scale(0.1 -0.1)">
       <use xlink:href="#DejaVuSans-48"/>
      </g>
     </g>
    </g>
    <g id="xtick_12">
     <g id="line2d_29">
      <g>
       <use style="stroke:#000000;stroke-width:0.8;" x="102.243727" xlink:href="#m0fdc57ab73" y="213.662118"/>
      </g>
     </g>
     <g id="text_25">
      <!-- 25 -->
      <g transform="translate(95.881227 228.260555)scale(0.1 -0.1)">
       <use xlink:href="#DejaVuSans-50"/>
       <use x="63.623047" xlink:href="#DejaVuSans-53"/>
      </g>
     </g>
    </g>
    <g id="xtick_13">
     <g id="line2d_30">
      <g>
       <use style="stroke:#000000;stroke-width:0.8;" x="139.508941" xlink:href="#m0fdc57ab73" y="213.662118"/>
      </g>
     </g>
     <g id="text_26">
      <!-- 50 -->
      <g transform="translate(133.146441 228.260555)scale(0.1 -0.1)">
       <use xlink:href="#DejaVuSans-53"/>
       <use x="63.623047" xlink:href="#DejaVuSans-48"/>
      </g>
     </g>
    </g>
    <g id="xtick_14">
     <g id="line2d_31">
      <g>
       <use style="stroke:#000000;stroke-width:0.8;" x="176.774155" xlink:href="#m0fdc57ab73" y="213.662118"/>
      </g>
     </g>
     <g id="text_27">
      <!-- 75 -->
      <g transform="translate(170.411655 228.260555)scale(0.1 -0.1)">
       <use xlink:href="#DejaVuSans-55"/>
       <use x="63.623047" xlink:href="#DejaVuSans-53"/>
      </g>
     </g>
    </g>
    <g id="xtick_15">
     <g id="line2d_32">
      <g>
       <use style="stroke:#000000;stroke-width:0.8;" x="214.039369" xlink:href="#m0fdc57ab73" y="213.662118"/>
      </g>
     </g>
     <g id="text_28">
      <!-- 100 -->
      <g transform="translate(204.495619 228.260555)scale(0.1 -0.1)">
       <use xlink:href="#DejaVuSans-49"/>
       <use x="63.623047" xlink:href="#DejaVuSans-48"/>
       <use x="127.246094" xlink:href="#DejaVuSans-48"/>
      </g>
     </g>
    </g>
    <g id="text_29">
     <!-- # epochs -->
     <g transform="translate(115.151918 241.93868)scale(0.1 -0.1)">
      <use xlink:href="#DejaVuSans-35"/>
      <use x="83.789062" xlink:href="#DejaVuSans-32"/>
      <use x="115.576172" xlink:href="#DejaVuSans-101"/>
      <use x="177.099609" xlink:href="#DejaVuSans-112"/>
      <use x="240.576172" xlink:href="#DejaVuSans-111"/>
      <use x="301.757812" xlink:href="#DejaVuSans-99"/>
      <use x="356.738281" xlink:href="#DejaVuSans-104"/>
      <use x="420.117188" xlink:href="#DejaVuSans-115"/>
     </g>
    </g>
   </g>
   <g id="matplotlib.axis_6">
    <g id="ytick_6">
     <g id="line2d_33">
      <g>
       <use style="stroke:#000000;stroke-width:0.8;" x="57.6" xlink:href="#mf93914dfd0" y="182.784289"/>
      </g>
     </g>
     <g id="text_30">
      <!-- 60 -->
      <g transform="translate(37.875 186.583508)scale(0.1 -0.1)">
       <use xlink:href="#DejaVuSans-54"/>
       <use x="63.623047" xlink:href="#DejaVuSans-48"/>
      </g>
     </g>
    </g>
    <g id="ytick_7">
     <g id="line2d_34">
      <g>
       <use style="stroke:#000000;stroke-width:0.8;" x="57.6" xlink:href="#mf93914dfd0" y="147.868706"/>
      </g>
     </g>
     <g id="text_31">
      <!-- 70 -->
      <g transform="translate(37.875 151.667925)scale(0.1 -0.1)">
       <use xlink:href="#DejaVuSans-55"/>
       <use x="63.623047" xlink:href="#DejaVuSans-48"/>
      </g>
     </g>
    </g>
    <g id="text_32">
     <!-- prdn -->
     <g transform="translate(31.795313 186.013156)rotate(-90)scale(0.1 -0.1)">
      <use xlink:href="#DejaVuSans-112"/>
      <use x="63.476562" xlink:href="#DejaVuSans-114"/>
      <use x="102.839844" xlink:href="#DejaVuSans-100"/>
      <use x="166.316406" xlink:href="#DejaVuSans-110"/>
     </g>
    </g>
   </g>
   <g id="line2d_35">
    <path clip-path="url(#p7ab3cae417)" d="M 64.978512 138.951529 
L 66.469121 155.981401 
L 67.95973 166.723606 
L 69.450338 169.260628 
L 70.940947 171.668772 
L 72.431555 173.226005 
L 73.922164 175.643806 
L 75.412772 176.775954 
L 76.903381 184.790486 
L 78.393989 184.121874 
L 79.884598 184.933881 
L 81.375207 185.730598 
L 82.865815 183.376676 
L 84.356424 184.645786 
L 85.847032 186.622148 
L 87.337641 186.218575 
L 88.828249 186.875933 
L 90.318858 187.43606 
L 91.809467 187.67855 
L 93.300075 187.94945 
L 94.790684 187.674194 
L 96.281292 186.370747 
L 97.771901 188.048665 
L 99.262509 187.717029 
L 100.753118 188.781729 
L 102.243727 188.614826 
L 103.734335 188.955492 
L 105.224944 189.069078 
L 106.715552 189.058063 
L 108.206161 188.711883 
L 109.696769 189.150938 
L 111.187378 188.409723 
L 112.677986 189.006704 
L 114.168595 188.640372 
L 115.659204 189.358359 
L 117.149812 189.31599 
L 118.640421 189.027442 
L 120.131029 189.918047 
L 121.621638 190.307355 
L 123.112246 190.356796 
L 124.602855 190.290852 
L 126.093464 189.906326 
L 127.584072 189.729752 
L 129.074681 190.764258 
L 130.565289 190.018021 
L 132.055898 187.855403 
L 133.546506 190.6483 
L 135.037115 190.765483 
L 136.527724 190.577149 
L 138.018332 190.56961 
L 139.508941 191.077713 
L 140.999549 191.157535 
L 142.490158 190.51323 
L 143.980766 190.703735 
L 145.471375 190.331955 
L 146.961983 186.419695 
L 148.452592 189.994219 
L 149.943201 191.550452 
L 151.433809 191.025901 
L 152.924418 191.791051 
L 154.415026 191.695232 
L 155.905635 192.012284 
L 157.396243 189.414992 
L 158.886852 191.329606 
L 160.377461 192.105891 
L 161.868069 191.328541 
L 163.358678 191.886736 
L 164.849286 192.335448 
L 166.339895 192.453776 
L 167.830503 191.909725 
L 169.321112 192.635984 
L 170.811721 191.56549 
L 172.302329 192.86594 
L 173.792938 192.165668 
L 175.283546 191.206456 
L 176.774155 192.998094 
L 178.264763 193.320366 
L 179.755372 193.17761 
L 181.24598 193.852137 
L 182.736589 193.106992 
L 184.227198 194.023995 
L 185.717806 193.900592 
L 187.208415 193.107471 
L 188.699023 194.566314 
L 190.189632 194.816409 
L 191.68024 194.968142 
L 193.170849 195.320103 
L 194.661458 194.235997 
L 196.152066 194.746004 
L 197.642675 195.514604 
L 199.133283 194.050047 
L 200.623892 195.506932 
L 202.1145 192.385888 
L 203.605109 196.118711 
L 205.095718 195.204798 
L 206.586326 194.433015 
L 208.076935 195.245609 
L 209.567543 193.182978 
L 211.058152 195.097725 
L 212.54876 195.01143 
" style="fill:none;stroke:#1f77b4;stroke-linecap:square;stroke-width:1.5;"/>
   </g>
   <g id="line2d_36">
    <path clip-path="url(#p7ab3cae417)" d="M 64.978512 151.056559 
L 66.469121 178.575583 
L 67.95973 190.096338 
L 69.450338 191.251848 
L 70.940947 193.487629 
L 72.431555 197.758869 
L 73.922164 194.398212 
L 75.412772 197.264499 
L 76.903381 192.974745 
L 78.393989 195.692203 
L 79.884598 199.799949 
L 81.375207 200.093545 
L 82.865815 199.650201 
L 84.356424 198.875381 
L 85.847032 197.560412 
L 87.337641 200.832003 
L 88.828249 197.99707 
L 90.318858 195.703497 
L 91.809467 201.386936 
L 93.300075 202.233427 
L 94.790684 200.861119 
L 96.281292 198.743613 
L 97.771901 202.302727 
L 99.262509 200.358651 
L 100.753118 203.340482 
L 102.243727 201.065876 
L 103.734335 201.060388 
L 105.224944 203.467428 
L 106.715552 199.178966 
L 108.206161 199.909526 
L 109.696769 200.002401 
L 111.187378 200.691126 
L 112.677986 201.075865 
L 114.168595 203.937264 
L 115.659204 203.097126 
L 117.149812 200.723984 
L 118.640421 201.946011 
L 120.131029 203.265468 
L 121.621638 203.508464 
L 123.112246 202.593259 
L 124.602855 204.700749 
L 126.093464 202.185065 
L 127.584072 201.998169 
L 129.074681 201.14659 
L 130.565289 203.435608 
L 132.055898 204.571006 
L 133.546506 203.112084 
L 135.037115 201.641773 
L 136.527724 203.345144 
L 138.018332 201.578373 
L 139.508941 204.937126 
L 140.999549 203.127521 
L 142.490158 203.512287 
L 143.980766 200.546998 
L 145.471375 206.166798 
L 146.961983 205.12506 
L 148.452592 205.740342 
L 149.943201 204.738869 
L 151.433809 205.309105 
L 152.924418 203.707294 
L 154.415026 203.13775 
L 155.905635 206.430985 
L 157.396243 204.44755 
L 158.886852 203.106396 
L 160.377461 204.341716 
L 161.868069 203.59749 
L 163.358678 200.149086 
L 164.849286 205.966556 
L 166.339895 205.874813 
L 167.830503 206.083299 
L 169.321112 203.585556 
L 170.811721 207.389677 
L 172.302329 203.499301 
L 173.792938 204.19619 
L 175.283546 205.300874 
L 176.774155 206.750633 
L 178.264763 205.853915 
L 179.755372 208.370253 
L 181.24598 206.849915 
L 182.736589 202.188781 
L 184.227198 208.284916 
L 185.717806 206.932574 
L 187.208415 206.139653 
L 188.699023 205.079229 
L 190.189632 207.44984 
L 191.68024 205.281614 
L 193.170849 206.713126 
L 194.661458 207.442488 
L 196.152066 205.122543 
L 197.642675 203.868084 
L 199.133283 208.255534 
L 200.623892 207.420578 
L 202.1145 206.675459 
L 203.605109 209.920865 
L 205.095718 208.032517 
L 206.586326 208.741566 
L 208.076935 210.104471 
L 209.567543 203.571038 
L 211.058152 207.706355 
L 212.54876 209.618398 
" style="fill:none;stroke:#ff7f0e;stroke-linecap:square;stroke-width:1.5;"/>
   </g>
   <g id="patch_15">
    <path d="M 57.6 213.662118 
L 57.6 135.393882 
" style="fill:none;stroke:#000000;stroke-linecap:square;stroke-linejoin:miter;stroke-width:0.8;"/>
   </g>
   <g id="patch_16">
    <path d="M 219.927273 213.662118 
L 219.927273 135.393882 
" style="fill:none;stroke:#000000;stroke-linecap:square;stroke-linejoin:miter;stroke-width:0.8;"/>
   </g>
   <g id="patch_17">
    <path d="M 57.6 213.662118 
L 219.927273 213.662118 
" style="fill:none;stroke:#000000;stroke-linecap:square;stroke-linejoin:miter;stroke-width:0.8;"/>
   </g>
   <g id="patch_18">
    <path d="M 57.6 135.393882 
L 219.927273 135.393882 
" style="fill:none;stroke:#000000;stroke-linecap:square;stroke-linejoin:miter;stroke-width:0.8;"/>
   </g>
   <g id="legend_3">
    <g id="patch_19">
     <path d="M 131.692898 172.750132 
L 212.927273 172.750132 
Q 214.927273 172.750132 214.927273 170.750132 
L 214.927273 142.393882 
Q 214.927273 140.393882 212.927273 140.393882 
L 131.692898 140.393882 
Q 129.692898 140.393882 129.692898 142.393882 
L 129.692898 170.750132 
Q 129.692898 172.750132 131.692898 172.750132 
z
" style="fill:#ffffff;opacity:0.8;stroke:#cccccc;stroke-linejoin:miter;"/>
    </g>
    <g id="line2d_37">
     <path d="M 133.692898 148.49232 
L 153.692898 148.49232 
" style="fill:none;stroke:#1f77b4;stroke-linecap:square;stroke-width:1.5;"/>
    </g>
    <g id="line2d_38"/>
    <g id="text_33">
     <!-- validation -->
     <g transform="translate(161.692898 151.99232)scale(0.1 -0.1)">
      <use xlink:href="#DejaVuSans-118"/>
      <use x="59.179688" xlink:href="#DejaVuSans-97"/>
      <use x="120.458984" xlink:href="#DejaVuSans-108"/>
      <use x="148.242188" xlink:href="#DejaVuSans-105"/>
      <use x="176.025391" xlink:href="#DejaVuSans-100"/>
      <use x="239.501953" xlink:href="#DejaVuSans-97"/>
      <use x="300.78125" xlink:href="#DejaVuSans-116"/>
      <use x="339.990234" xlink:href="#DejaVuSans-105"/>
      <use x="367.773438" xlink:href="#DejaVuSans-111"/>
      <use x="428.955078" xlink:href="#DejaVuSans-110"/>
     </g>
    </g>
    <g id="line2d_39">
     <path d="M 133.692898 163.170445 
L 153.692898 163.170445 
" style="fill:none;stroke:#ff7f0e;stroke-linecap:square;stroke-width:1.5;"/>
    </g>
    <g id="line2d_40"/>
    <g id="text_34">
     <!-- training -->
     <g transform="translate(161.692898 166.670445)scale(0.1 -0.1)">
      <use xlink:href="#DejaVuSans-116"/>
      <use x="39.208984" xlink:href="#DejaVuSans-114"/>
      <use x="80.322266" xlink:href="#DejaVuSans-97"/>
      <use x="141.601562" xlink:href="#DejaVuSans-105"/>
      <use x="169.384766" xlink:href="#DejaVuSans-110"/>
      <use x="232.763672" xlink:href="#DejaVuSans-105"/>
      <use x="260.546875" xlink:href="#DejaVuSans-110"/>
      <use x="323.925781" xlink:href="#DejaVuSans-103"/>
     </g>
    </g>
   </g>
  </g>
  <g id="axes_4">
   <g id="patch_20">
    <path d="M 252.392727 213.662118 
L 414.72 213.662118 
L 414.72 135.393882 
L 252.392727 135.393882 
z
" style="fill:#ffffff;"/>
   </g>
   <g id="matplotlib.axis_7">
    <g id="xtick_16">
     <g id="line2d_41">
      <g>
       <use style="stroke:#000000;stroke-width:0.8;" x="259.77124" xlink:href="#m0fdc57ab73" y="213.662118"/>
      </g>
     </g>
     <g id="text_35">
      <!-- 0 -->
      <g transform="translate(256.58999 228.260555)scale(0.1 -0.1)">
       <use xlink:href="#DejaVuSans-48"/>
      </g>
     </g>
    </g>
    <g id="xtick_17">
     <g id="line2d_42">
      <g>
       <use style="stroke:#000000;stroke-width:0.8;" x="297.036454" xlink:href="#m0fdc57ab73" y="213.662118"/>
      </g>
     </g>
     <g id="text_36">
      <!-- 25 -->
      <g transform="translate(290.673954 228.260555)scale(0.1 -0.1)">
       <use xlink:href="#DejaVuSans-50"/>
       <use x="63.623047" xlink:href="#DejaVuSans-53"/>
      </g>
     </g>
    </g>
    <g id="xtick_18">
     <g id="line2d_43">
      <g>
       <use style="stroke:#000000;stroke-width:0.8;" x="334.301668" xlink:href="#m0fdc57ab73" y="213.662118"/>
      </g>
     </g>
     <g id="text_37">
      <!-- 50 -->
      <g transform="translate(327.939168 228.260555)scale(0.1 -0.1)">
       <use xlink:href="#DejaVuSans-53"/>
       <use x="63.623047" xlink:href="#DejaVuSans-48"/>
      </g>
     </g>
    </g>
    <g id="xtick_19">
     <g id="line2d_44">
      <g>
       <use style="stroke:#000000;stroke-width:0.8;" x="371.566882" xlink:href="#m0fdc57ab73" y="213.662118"/>
      </g>
     </g>
     <g id="text_38">
      <!-- 75 -->
      <g transform="translate(365.204382 228.260555)scale(0.1 -0.1)">
       <use xlink:href="#DejaVuSans-55"/>
       <use x="63.623047" xlink:href="#DejaVuSans-53"/>
      </g>
     </g>
    </g>
    <g id="xtick_20">
     <g id="line2d_45">
      <g>
       <use style="stroke:#000000;stroke-width:0.8;" x="408.832096" xlink:href="#m0fdc57ab73" y="213.662118"/>
      </g>
     </g>
     <g id="text_39">
      <!-- 100 -->
      <g transform="translate(399.288346 228.260555)scale(0.1 -0.1)">
       <use xlink:href="#DejaVuSans-49"/>
       <use x="63.623047" xlink:href="#DejaVuSans-48"/>
       <use x="127.246094" xlink:href="#DejaVuSans-48"/>
      </g>
     </g>
    </g>
    <g id="text_40">
     <!-- # epochs -->
     <g transform="translate(309.944645 241.93868)scale(0.1 -0.1)">
      <use xlink:href="#DejaVuSans-35"/>
      <use x="83.789062" xlink:href="#DejaVuSans-32"/>
      <use x="115.576172" xlink:href="#DejaVuSans-101"/>
      <use x="177.099609" xlink:href="#DejaVuSans-112"/>
      <use x="240.576172" xlink:href="#DejaVuSans-111"/>
      <use x="301.757812" xlink:href="#DejaVuSans-99"/>
      <use x="356.738281" xlink:href="#DejaVuSans-104"/>
      <use x="420.117188" xlink:href="#DejaVuSans-115"/>
     </g>
    </g>
   </g>
   <g id="matplotlib.axis_8">
    <g id="ytick_8">
     <g id="line2d_46">
      <g>
       <use style="stroke:#000000;stroke-width:0.8;" x="252.392727" xlink:href="#mf93914dfd0" y="197.093505"/>
      </g>
     </g>
     <g id="text_41">
      <!-- 0.30 -->
      <defs>
       <path d="M 40.578125 39.3125 
Q 47.65625 37.796875 51.625 33 
Q 55.609375 28.21875 55.609375 21.1875 
Q 55.609375 10.40625 48.1875 4.484375 
Q 40.765625 -1.421875 27.09375 -1.421875 
Q 22.515625 -1.421875 17.65625 -0.515625 
Q 12.796875 0.390625 7.625 2.203125 
L 7.625 11.71875 
Q 11.71875 9.328125 16.59375 8.109375 
Q 21.484375 6.890625 26.8125 6.890625 
Q 36.078125 6.890625 40.9375 10.546875 
Q 45.796875 14.203125 45.796875 21.1875 
Q 45.796875 27.640625 41.28125 31.265625 
Q 36.765625 34.90625 28.71875 34.90625 
L 20.21875 34.90625 
L 20.21875 43.015625 
L 29.109375 43.015625 
Q 36.375 43.015625 40.234375 45.921875 
Q 44.09375 48.828125 44.09375 54.296875 
Q 44.09375 59.90625 40.109375 62.90625 
Q 36.140625 65.921875 28.71875 65.921875 
Q 24.65625 65.921875 20.015625 65.03125 
Q 15.375 64.15625 9.8125 62.3125 
L 9.8125 71.09375 
Q 15.4375 72.65625 20.34375 73.4375 
Q 25.25 74.21875 29.59375 74.21875 
Q 40.828125 74.21875 47.359375 69.109375 
Q 53.90625 64.015625 53.90625 55.328125 
Q 53.90625 49.265625 50.4375 45.09375 
Q 46.96875 40.921875 40.578125 39.3125 
z
" id="DejaVuSans-51"/>
      </defs>
      <g transform="translate(223.127102 200.892724)scale(0.1 -0.1)">
       <use xlink:href="#DejaVuSans-48"/>
       <use x="63.623047" xlink:href="#DejaVuSans-46"/>
       <use x="95.410156" xlink:href="#DejaVuSans-51"/>
       <use x="159.033203" xlink:href="#DejaVuSans-48"/>
      </g>
     </g>
    </g>
    <g id="ytick_9">
     <g id="line2d_47">
      <g>
       <use style="stroke:#000000;stroke-width:0.8;" x="252.392727" xlink:href="#mf93914dfd0" y="164.919335"/>
      </g>
     </g>
     <g id="text_42">
      <!-- 0.35 -->
      <g transform="translate(223.127102 168.718553)scale(0.1 -0.1)">
       <use xlink:href="#DejaVuSans-48"/>
       <use x="63.623047" xlink:href="#DejaVuSans-46"/>
       <use x="95.410156" xlink:href="#DejaVuSans-51"/>
       <use x="159.033203" xlink:href="#DejaVuSans-53"/>
      </g>
     </g>
    </g>
    <g id="text_43">
     <!-- root_mean_squared_error -->
     <defs>
      <path d="M 50.984375 -16.609375 
L 50.984375 -23.578125 
L -0.984375 -23.578125 
L -0.984375 -16.609375 
z
" id="DejaVuSans-95"/>
      <path d="M 52 44.1875 
Q 55.375 50.25 60.0625 53.125 
Q 64.75 56 71.09375 56 
Q 79.640625 56 84.28125 50.015625 
Q 88.921875 44.046875 88.921875 33.015625 
L 88.921875 0 
L 79.890625 0 
L 79.890625 32.71875 
Q 79.890625 40.578125 77.09375 44.375 
Q 74.3125 48.1875 68.609375 48.1875 
Q 61.625 48.1875 57.5625 43.546875 
Q 53.515625 38.921875 53.515625 30.90625 
L 53.515625 0 
L 44.484375 0 
L 44.484375 32.71875 
Q 44.484375 40.625 41.703125 44.40625 
Q 38.921875 48.1875 33.109375 48.1875 
Q 26.21875 48.1875 22.15625 43.53125 
Q 18.109375 38.875 18.109375 30.90625 
L 18.109375 0 
L 9.078125 0 
L 9.078125 54.6875 
L 18.109375 54.6875 
L 18.109375 46.1875 
Q 21.1875 51.21875 25.484375 53.609375 
Q 29.78125 56 35.6875 56 
Q 41.65625 56 45.828125 52.96875 
Q 50 49.953125 52 44.1875 
z
" id="DejaVuSans-109"/>
      <path d="M 14.796875 27.296875 
Q 14.796875 17.390625 18.875 11.75 
Q 22.953125 6.109375 30.078125 6.109375 
Q 37.203125 6.109375 41.296875 11.75 
Q 45.40625 17.390625 45.40625 27.296875 
Q 45.40625 37.203125 41.296875 42.84375 
Q 37.203125 48.484375 30.078125 48.484375 
Q 22.953125 48.484375 18.875 42.84375 
Q 14.796875 37.203125 14.796875 27.296875 
z
M 45.40625 8.203125 
Q 42.578125 3.328125 38.25 0.953125 
Q 33.9375 -1.421875 27.875 -1.421875 
Q 17.96875 -1.421875 11.734375 6.484375 
Q 5.515625 14.40625 5.515625 27.296875 
Q 5.515625 40.1875 11.734375 48.09375 
Q 17.96875 56 27.875 56 
Q 33.9375 56 38.25 53.625 
Q 42.578125 51.265625 45.40625 46.390625 
L 45.40625 54.6875 
L 54.390625 54.6875 
L 54.390625 -20.796875 
L 45.40625 -20.796875 
z
" id="DejaVuSans-113"/>
      <path d="M 8.5 21.578125 
L 8.5 54.6875 
L 17.484375 54.6875 
L 17.484375 21.921875 
Q 17.484375 14.15625 20.5 10.265625 
Q 23.53125 6.390625 29.59375 6.390625 
Q 36.859375 6.390625 41.078125 11.03125 
Q 45.3125 15.671875 45.3125 23.6875 
L 45.3125 54.6875 
L 54.296875 54.6875 
L 54.296875 0 
L 45.3125 0 
L 45.3125 8.40625 
Q 42.046875 3.421875 37.71875 1 
Q 33.40625 -1.421875 27.6875 -1.421875 
Q 18.265625 -1.421875 13.375 4.4375 
Q 8.5 10.296875 8.5 21.578125 
z
M 31.109375 56 
z
" id="DejaVuSans-117"/>
     </defs>
     <g transform="translate(216.76929 238.537375)rotate(-90)scale(0.1 -0.1)">
      <use xlink:href="#DejaVuSans-114"/>
      <use x="38.863281" xlink:href="#DejaVuSans-111"/>
      <use x="100.044922" xlink:href="#DejaVuSans-111"/>
      <use x="161.226562" xlink:href="#DejaVuSans-116"/>
      <use x="200.435547" xlink:href="#DejaVuSans-95"/>
      <use x="250.435547" xlink:href="#DejaVuSans-109"/>
      <use x="347.847656" xlink:href="#DejaVuSans-101"/>
      <use x="409.371094" xlink:href="#DejaVuSans-97"/>
      <use x="470.650391" xlink:href="#DejaVuSans-110"/>
      <use x="534.029297" xlink:href="#DejaVuSans-95"/>
      <use x="584.029297" xlink:href="#DejaVuSans-115"/>
      <use x="636.128906" xlink:href="#DejaVuSans-113"/>
      <use x="699.605469" xlink:href="#DejaVuSans-117"/>
      <use x="762.984375" xlink:href="#DejaVuSans-97"/>
      <use x="824.263672" xlink:href="#DejaVuSans-114"/>
      <use x="863.126953" xlink:href="#DejaVuSans-101"/>
      <use x="924.650391" xlink:href="#DejaVuSans-100"/>
      <use x="988.126953" xlink:href="#DejaVuSans-95"/>
      <use x="1038.126953" xlink:href="#DejaVuSans-101"/>
      <use x="1099.650391" xlink:href="#DejaVuSans-114"/>
      <use x="1139.013672" xlink:href="#DejaVuSans-114"/>
      <use x="1177.876953" xlink:href="#DejaVuSans-111"/>
      <use x="1239.058594" xlink:href="#DejaVuSans-114"/>
     </g>
    </g>
   </g>
   <g id="line2d_48">
    <path clip-path="url(#pb01acd216e)" d="M 259.77124 138.951529 
L 261.261848 155.825789 
L 262.752457 166.465854 
L 264.243065 168.973592 
L 265.733674 171.361185 
L 267.224282 172.898879 
L 268.714891 175.303214 
L 270.2055 176.415209 
L 271.696108 184.344332 
L 273.186717 183.674757 
L 274.677325 184.468851 
L 276.167934 185.264478 
L 277.658542 182.943776 
L 279.149151 184.199697 
L 280.63976 186.138139 
L 282.130368 185.75116 
L 283.620977 186.377107 
L 285.111585 186.937544 
L 286.602194 187.152695 
L 288.092802 187.430631 
L 289.583411 187.198221 
L 291.07402 185.841523 
L 292.564628 187.503812 
L 294.055237 187.186638 
L 295.545845 188.253644 
L 297.036454 188.116373 
L 298.527062 188.412029 
L 300.017671 188.521551 
L 301.508279 188.528608 
L 302.998888 188.130411 
L 304.489497 188.656406 
L 305.980105 187.904924 
L 307.470714 188.476101 
L 308.961322 188.0654 
L 310.451931 188.8337 
L 311.942539 188.785699 
L 313.433148 188.453932 
L 314.923757 189.397206 
L 316.414365 189.760731 
L 317.904974 189.826969 
L 319.395582 189.747402 
L 320.886191 189.390072 
L 322.376799 189.202978 
L 323.867408 190.219567 
L 325.358017 189.504042 
L 326.848625 187.385085 
L 328.339234 190.08941 
L 329.829842 190.227238 
L 331.320451 189.998146 
L 332.811059 190.014408 
L 334.301668 190.540019 
L 335.792276 190.59782 
L 337.282885 189.96284 
L 338.773494 190.142858 
L 340.264102 189.789458 
L 341.754711 185.89288 
L 343.245319 189.436136 
L 344.735928 191.015099 
L 346.226536 190.465899 
L 347.717145 191.263752 
L 349.207754 191.193793 
L 350.698362 191.47451 
L 352.188971 188.872438 
L 353.679579 190.761843 
L 355.170188 191.555572 
L 356.660796 190.803151 
L 358.151405 191.298865 
L 359.642014 191.80877 
L 361.132622 191.919347 
L 362.623231 191.363704 
L 364.113839 192.123623 
L 365.604448 191.011148 
L 367.095056 192.31904 
L 368.585665 191.663828 
L 370.076273 190.641122 
L 371.566882 192.477061 
L 373.057491 192.773446 
L 374.548099 192.606661 
L 376.038708 193.32675 
L 377.529316 192.571356 
L 379.019925 193.49202 
L 380.510533 193.439397 
L 382.001142 192.565507 
L 383.491751 194.065977 
L 384.982359 194.252783 
L 386.472968 194.439532 
L 387.963576 194.771184 
L 389.454185 193.780043 
L 390.944793 194.232781 
L 392.435402 195.049159 
L 393.926011 193.509202 
L 395.416619 195.005492 
L 396.907228 191.787963 
L 398.397836 195.587063 
L 399.888445 194.774003 
L 401.379053 193.964855 
L 402.869662 194.649293 
L 404.36027 192.605741 
L 405.850879 194.666284 
L 407.341488 194.449178 
" style="fill:none;stroke:#1f77b4;stroke-linecap:square;stroke-width:1.5;"/>
   </g>
   <g id="line2d_49">
    <path clip-path="url(#pb01acd216e)" d="M 259.77124 151.2945 
L 261.261848 179.896637 
L 262.752457 190.949953 
L 264.243065 192.594349 
L 265.733674 194.740232 
L 267.224282 197.658902 
L 268.714891 196.080591 
L 270.2055 198.21884 
L 271.696108 194.919098 
L 273.186717 197.124699 
L 274.677325 200.013759 
L 276.167934 200.502166 
L 277.658542 200.355422 
L 279.149151 199.901418 
L 280.63976 199.338891 
L 282.130368 201.297909 
L 283.620977 199.712464 
L 285.111585 197.774924 
L 286.602194 202.118161 
L 288.092802 202.436657 
L 289.583411 201.528881 
L 291.07402 200.210652 
L 292.564628 202.515361 
L 294.055237 201.612302 
L 295.545845 203.089012 
L 297.036454 201.808754 
L 298.527062 201.651596 
L 300.017671 203.454224 
L 301.508279 200.54288 
L 302.998888 201.528459 
L 304.489497 201.588963 
L 305.980105 201.4902 
L 307.470714 202.179566 
L 308.961322 204.557859 
L 310.451931 203.72075 
L 311.942539 202.321018 
L 313.433148 202.979969 
L 314.923757 203.943207 
L 316.414365 203.657158 
L 317.904974 203.499463 
L 319.395582 204.771628 
L 320.886191 203.467054 
L 322.376799 203.048969 
L 323.867408 202.628871 
L 325.358017 204.124356 
L 326.848625 204.482108 
L 328.339234 203.403404 
L 329.829842 202.938796 
L 331.320451 204.041069 
L 332.811059 202.777438 
L 334.301668 205.266191 
L 335.792276 204.024691 
L 337.282885 204.323819 
L 338.773494 202.554157 
L 340.264102 205.868838 
L 341.754711 205.078503 
L 343.245319 205.56064 
L 344.735928 205.064273 
L 346.226536 205.488284 
L 347.717145 204.430445 
L 349.207754 204.565357 
L 350.698362 206.455433 
L 352.188971 205.382981 
L 353.679579 204.415084 
L 355.170188 205.148002 
L 356.660796 204.652767 
L 358.151405 202.650369 
L 359.642014 206.420473 
L 361.132622 206.31308 
L 362.623231 206.154522 
L 364.113839 203.819417 
L 365.604448 207.547082 
L 367.095056 204.954618 
L 368.585665 205.41984 
L 370.076273 206.037253 
L 371.566882 206.556191 
L 373.057491 206.210577 
L 374.548099 208.143362 
L 376.038708 207.274649 
L 377.529316 203.694017 
L 379.019925 208.17299 
L 380.510533 207.493577 
L 382.001142 206.783231 
L 383.491751 206.260515 
L 384.982359 208.144531 
L 386.472968 206.584535 
L 387.963576 207.905812 
L 389.454185 208.148405 
L 390.944793 206.500135 
L 392.435402 205.639036 
L 393.926011 208.809811 
L 395.416619 208.34269 
L 396.907228 207.232689 
L 398.397836 209.330935 
L 399.888445 208.584363 
L 401.379053 209.403099 
L 402.869662 210.104471 
L 404.36027 205.137953 
L 405.850879 207.860439 
L 407.341488 210.047782 
" style="fill:none;stroke:#ff7f0e;stroke-linecap:square;stroke-width:1.5;"/>
   </g>
   <g id="patch_21">
    <path d="M 252.392727 213.662118 
L 252.392727 135.393882 
" style="fill:none;stroke:#000000;stroke-linecap:square;stroke-linejoin:miter;stroke-width:0.8;"/>
   </g>
   <g id="patch_22">
    <path d="M 414.72 213.662118 
L 414.72 135.393882 
" style="fill:none;stroke:#000000;stroke-linecap:square;stroke-linejoin:miter;stroke-width:0.8;"/>
   </g>
   <g id="patch_23">
    <path d="M 252.392727 213.662118 
L 414.72 213.662118 
" style="fill:none;stroke:#000000;stroke-linecap:square;stroke-linejoin:miter;stroke-width:0.8;"/>
   </g>
   <g id="patch_24">
    <path d="M 252.392727 135.393882 
L 414.72 135.393882 
" style="fill:none;stroke:#000000;stroke-linecap:square;stroke-linejoin:miter;stroke-width:0.8;"/>
   </g>
   <g id="legend_4">
    <g id="patch_25">
     <path d="M 326.485625 172.750132 
L 407.72 172.750132 
Q 409.72 172.750132 409.72 170.750132 
L 409.72 142.393882 
Q 409.72 140.393882 407.72 140.393882 
L 326.485625 140.393882 
Q 324.485625 140.393882 324.485625 142.393882 
L 324.485625 170.750132 
Q 324.485625 172.750132 326.485625 172.750132 
z
" style="fill:#ffffff;opacity:0.8;stroke:#cccccc;stroke-linejoin:miter;"/>
    </g>
    <g id="line2d_50">
     <path d="M 328.485625 148.49232 
L 348.485625 148.49232 
" style="fill:none;stroke:#1f77b4;stroke-linecap:square;stroke-width:1.5;"/>
    </g>
    <g id="line2d_51"/>
    <g id="text_44">
     <!-- validation -->
     <g transform="translate(356.485625 151.99232)scale(0.1 -0.1)">
      <use xlink:href="#DejaVuSans-118"/>
      <use x="59.179688" xlink:href="#DejaVuSans-97"/>
      <use x="120.458984" xlink:href="#DejaVuSans-108"/>
      <use x="148.242188" xlink:href="#DejaVuSans-105"/>
      <use x="176.025391" xlink:href="#DejaVuSans-100"/>
      <use x="239.501953" xlink:href="#DejaVuSans-97"/>
      <use x="300.78125" xlink:href="#DejaVuSans-116"/>
      <use x="339.990234" xlink:href="#DejaVuSans-105"/>
      <use x="367.773438" xlink:href="#DejaVuSans-111"/>
      <use x="428.955078" xlink:href="#DejaVuSans-110"/>
     </g>
    </g>
    <g id="line2d_52">
     <path d="M 328.485625 163.170445 
L 348.485625 163.170445 
" style="fill:none;stroke:#ff7f0e;stroke-linecap:square;stroke-width:1.5;"/>
    </g>
    <g id="line2d_53"/>
    <g id="text_45">
     <!-- training -->
     <g transform="translate(356.485625 166.670445)scale(0.1 -0.1)">
      <use xlink:href="#DejaVuSans-116"/>
      <use x="39.208984" xlink:href="#DejaVuSans-114"/>
      <use x="80.322266" xlink:href="#DejaVuSans-97"/>
      <use x="141.601562" xlink:href="#DejaVuSans-105"/>
      <use x="169.384766" xlink:href="#DejaVuSans-110"/>
      <use x="232.763672" xlink:href="#DejaVuSans-105"/>
      <use x="260.546875" xlink:href="#DejaVuSans-110"/>
      <use x="323.925781" xlink:href="#DejaVuSans-103"/>
     </g>
    </g>
   </g>
  </g>
  <g id="axes_5">
   <g id="patch_26">
    <path d="M 57.6 307.584 
L 219.927273 307.584 
L 219.927273 229.315765 
L 57.6 229.315765 
z
" style="fill:#ffffff;"/>
   </g>
   <g id="matplotlib.axis_9">
    <g id="xtick_21">
     <g id="line2d_54">
      <g>
       <use style="stroke:#000000;stroke-width:0.8;" x="64.978512" xlink:href="#m0fdc57ab73" y="307.584"/>
      </g>
     </g>
     <g id="text_46">
      <!-- 0 -->
      <g transform="translate(61.797262 322.182437)scale(0.1 -0.1)">
       <use xlink:href="#DejaVuSans-48"/>
      </g>
     </g>
    </g>
    <g id="xtick_22">
     <g id="line2d_55">
      <g>
       <use style="stroke:#000000;stroke-width:0.8;" x="102.243727" xlink:href="#m0fdc57ab73" y="307.584"/>
      </g>
     </g>
     <g id="text_47">
      <!-- 25 -->
      <g transform="translate(95.881227 322.182437)scale(0.1 -0.1)">
       <use xlink:href="#DejaVuSans-50"/>
       <use x="63.623047" xlink:href="#DejaVuSans-53"/>
      </g>
     </g>
    </g>
    <g id="xtick_23">
     <g id="line2d_56">
      <g>
       <use style="stroke:#000000;stroke-width:0.8;" x="139.508941" xlink:href="#m0fdc57ab73" y="307.584"/>
      </g>
     </g>
     <g id="text_48">
      <!-- 50 -->
      <g transform="translate(133.146441 322.182437)scale(0.1 -0.1)">
       <use xlink:href="#DejaVuSans-53"/>
       <use x="63.623047" xlink:href="#DejaVuSans-48"/>
      </g>
     </g>
    </g>
    <g id="xtick_24">
     <g id="line2d_57">
      <g>
       <use style="stroke:#000000;stroke-width:0.8;" x="176.774155" xlink:href="#m0fdc57ab73" y="307.584"/>
      </g>
     </g>
     <g id="text_49">
      <!-- 75 -->
      <g transform="translate(170.411655 322.182437)scale(0.1 -0.1)">
       <use xlink:href="#DejaVuSans-55"/>
       <use x="63.623047" xlink:href="#DejaVuSans-53"/>
      </g>
     </g>
    </g>
    <g id="xtick_25">
     <g id="line2d_58">
      <g>
       <use style="stroke:#000000;stroke-width:0.8;" x="214.039369" xlink:href="#m0fdc57ab73" y="307.584"/>
      </g>
     </g>
     <g id="text_50">
      <!-- 100 -->
      <g transform="translate(204.495619 322.182437)scale(0.1 -0.1)">
       <use xlink:href="#DejaVuSans-49"/>
       <use x="63.623047" xlink:href="#DejaVuSans-48"/>
       <use x="127.246094" xlink:href="#DejaVuSans-48"/>
      </g>
     </g>
    </g>
    <g id="text_51">
     <!-- # epochs -->
     <g transform="translate(115.151918 335.860562)scale(0.1 -0.1)">
      <use xlink:href="#DejaVuSans-35"/>
      <use x="83.789062" xlink:href="#DejaVuSans-32"/>
      <use x="115.576172" xlink:href="#DejaVuSans-101"/>
      <use x="177.099609" xlink:href="#DejaVuSans-112"/>
      <use x="240.576172" xlink:href="#DejaVuSans-111"/>
      <use x="301.757812" xlink:href="#DejaVuSans-99"/>
      <use x="356.738281" xlink:href="#DejaVuSans-104"/>
      <use x="420.117188" xlink:href="#DejaVuSans-115"/>
     </g>
    </g>
   </g>
   <g id="matplotlib.axis_10">
    <g id="ytick_10">
     <g id="line2d_59">
      <g>
       <use style="stroke:#000000;stroke-width:0.8;" x="57.6" xlink:href="#mf93914dfd0" y="298.942288"/>
      </g>
     </g>
     <g id="text_52">
      <!-- 3 -->
      <g transform="translate(44.2375 302.741507)scale(0.1 -0.1)">
       <use xlink:href="#DejaVuSans-51"/>
      </g>
     </g>
    </g>
    <g id="ytick_11">
     <g id="line2d_60">
      <g>
       <use style="stroke:#000000;stroke-width:0.8;" x="57.6" xlink:href="#mf93914dfd0" y="274.409422"/>
      </g>
     </g>
     <g id="text_53">
      <!-- 4 -->
      <defs>
       <path d="M 37.796875 64.3125 
L 12.890625 25.390625 
L 37.796875 25.390625 
z
M 35.203125 72.90625 
L 47.609375 72.90625 
L 47.609375 25.390625 
L 58.015625 25.390625 
L 58.015625 17.1875 
L 47.609375 17.1875 
L 47.609375 0 
L 37.796875 0 
L 37.796875 17.1875 
L 4.890625 17.1875 
L 4.890625 26.703125 
z
" id="DejaVuSans-52"/>
      </defs>
      <g transform="translate(44.2375 278.208641)scale(0.1 -0.1)">
       <use xlink:href="#DejaVuSans-52"/>
      </g>
     </g>
    </g>
    <g id="ytick_12">
     <g id="line2d_61">
      <g>
       <use style="stroke:#000000;stroke-width:0.8;" x="57.6" xlink:href="#mf93914dfd0" y="249.876556"/>
      </g>
     </g>
     <g id="text_54">
      <!-- 5 -->
      <g transform="translate(44.2375 253.675774)scale(0.1 -0.1)">
       <use xlink:href="#DejaVuSans-53"/>
      </g>
     </g>
    </g>
    <g id="text_55">
     <!-- snr -->
     <g transform="translate(38.157812 276.278789)rotate(-90)scale(0.1 -0.1)">
      <use xlink:href="#DejaVuSans-115"/>
      <use x="52.099609" xlink:href="#DejaVuSans-110"/>
      <use x="115.478516" xlink:href="#DejaVuSans-114"/>
     </g>
    </g>
   </g>
   <g id="line2d_62">
    <path clip-path="url(#p8281cbccfb)" d="M 64.978512 304.026353 
L 66.469121 289.115055 
L 67.95973 279.143547 
L 69.450338 276.723205 
L 70.940947 274.390857 
L 72.431555 272.849282 
L 73.922164 270.464982 
L 75.412772 269.314302 
L 76.903381 260.921511 
L 78.393989 261.707115 
L 79.884598 260.835074 
L 81.375207 259.977176 
L 82.865815 262.543546 
L 84.356424 261.204046 
L 85.847032 259.032103 
L 87.337641 259.517156 
L 88.828249 258.77362 
L 90.318858 258.086574 
L 91.809467 257.79385 
L 93.300075 257.565619 
L 94.790684 257.964351 
L 96.281292 259.013889 
L 97.771901 257.365533 
L 99.262509 257.679079 
L 100.753118 256.69449 
L 102.243727 256.956085 
L 103.734335 256.4963 
L 105.224944 256.357185 
L 106.715552 256.350482 
L 108.206161 256.637193 
L 109.696769 256.300531 
L 111.187378 257.230817 
L 112.677986 256.369749 
L 114.168595 256.679634 
L 115.659204 256.01713 
L 117.149812 256.036725 
L 118.640421 256.27972 
L 120.131029 255.58872 
L 121.621638 255.088517 
L 123.112246 255.082972 
L 124.602855 255.053902 
L 126.093464 255.631079 
L 127.584072 255.601705 
L 129.074681 254.607277 
L 130.565289 255.526509 
L 132.055898 257.91743 
L 133.546506 254.728014 
L 135.037115 254.602422 
L 136.527724 254.722984 
L 138.018332 254.737501 
L 139.508941 254.267492 
L 140.999549 254.166864 
L 142.490158 254.7749 
L 143.980766 254.575716 
L 145.471375 254.951777 
L 146.961983 258.890262 
L 148.452592 255.268763 
L 149.943201 253.76495 
L 151.433809 254.226618 
L 152.924418 253.574725 
L 154.415026 253.719502 
L 155.905635 253.311516 
L 157.396243 255.839189 
L 158.886852 253.89122 
L 160.377461 253.152959 
L 161.868069 253.924524 
L 163.358678 253.347512 
L 164.849286 253.003398 
L 166.339895 252.796048 
L 167.830503 253.296203 
L 169.321112 252.699117 
L 170.811721 253.612534 
L 172.302329 252.3421 
L 173.792938 253.060005 
L 175.283546 253.95377 
L 176.774155 252.323605 
L 178.264763 251.848039 
L 179.755372 251.946888 
L 181.24598 251.308519 
L 182.736589 252.235611 
L 184.227198 251.117967 
L 185.717806 251.327984 
L 187.208415 251.993459 
L 188.699023 250.563438 
L 190.189632 250.231736 
L 191.68024 250.081321 
L 193.170849 249.700931 
L 194.661458 250.885009 
L 196.152066 250.293748 
L 197.642675 249.666983 
L 199.133283 250.972921 
L 200.623892 249.5294 
L 202.1145 252.694156 
L 203.605109 248.853152 
L 205.095718 250.019402 
L 206.586326 250.628199 
L 208.076935 249.744928 
L 209.567543 251.858906 
L 211.058152 249.978131 
L 212.54876 249.958197 
" style="fill:none;stroke:#1f77b4;stroke-linecap:square;stroke-width:1.5;"/>
   </g>
   <g id="line2d_63">
    <path clip-path="url(#p8281cbccfb)" d="M 64.978512 292.908582 
L 66.469121 266.828532 
L 67.95973 255.628201 
L 69.450338 253.886178 
L 70.940947 252.010702 
L 72.431555 246.728013 
L 73.922164 250.805333 
L 75.412772 247.265791 
L 76.903381 252.624517 
L 78.393989 249.090882 
L 79.884598 244.386225 
L 81.375207 244.175634 
L 82.865815 244.656897 
L 84.356424 245.686384 
L 85.847032 246.897871 
L 87.337641 243.458067 
L 88.828249 246.447234 
L 90.318858 249.572005 
L 91.809467 243.542903 
L 93.300075 241.837776 
L 94.790684 243.940781 
L 96.281292 245.996 
L 97.771901 241.980634 
L 99.262509 244.27005 
L 100.753118 240.406714 
L 102.243727 243.109333 
L 103.734335 243.661616 
L 105.224944 240.361079 
L 106.715552 245.223358 
L 108.206161 244.873781 
L 109.696769 244.542512 
L 111.187378 243.842165 
L 112.677986 243.424856 
L 114.168595 240.252216 
L 115.659204 240.771533 
L 117.149812 244.084201 
L 118.640421 242.676828 
L 120.131029 241.058501 
L 121.621638 240.030208 
L 123.112246 241.621149 
L 124.602855 239.549763 
L 126.093464 241.791907 
L 127.584072 242.328713 
L 129.074681 243.796882 
L 130.565289 240.405731 
L 132.055898 239.175035 
L 133.546506 241.207477 
L 135.037115 242.607984 
L 136.527724 240.994044 
L 138.018332 242.771875 
L 139.508941 239.455078 
L 140.999549 240.978322 
L 142.490158 240.757893 
L 143.980766 243.85763 
L 145.471375 237.738346 
L 146.961983 238.192248 
L 148.452592 237.825767 
L 149.943201 239.211475 
L 151.433809 238.335223 
L 152.924418 240.759191 
L 154.415026 240.994325 
L 155.905635 237.065069 
L 157.396243 240.080089 
L 158.886852 240.909876 
L 160.377461 239.667599 
L 161.868069 240.398104 
L 163.358678 244.418628 
L 164.849286 237.642597 
L 166.339895 238.113203 
L 167.830503 237.945931 
L 169.321112 240.240295 
L 170.811721 236.419061 
L 172.302329 240.542401 
L 173.792938 239.773304 
L 175.283546 238.794739 
L 176.774155 236.70163 
L 178.264763 238.257746 
L 179.755372 235.202438 
L 181.24598 236.911671 
L 182.736589 242.176836 
L 184.227198 235.249266 
L 185.717806 236.602652 
L 187.208415 237.493036 
L 188.699023 238.502846 
L 190.189632 236.23127 
L 191.68024 238.231507 
L 193.170849 236.977555 
L 194.661458 236.349807 
L 196.152066 238.397948 
L 197.642675 239.705723 
L 199.133283 234.893863 
L 200.623892 236.386598 
L 202.1145 236.739778 
L 203.605109 233.502762 
L 205.095718 235.340956 
L 206.586326 234.592811 
L 208.076935 232.873412 
L 209.567543 240.443551 
L 211.058152 236.073017 
L 212.54876 233.665636 
" style="fill:none;stroke:#ff7f0e;stroke-linecap:square;stroke-width:1.5;"/>
   </g>
   <g id="patch_27">
    <path d="M 57.6 307.584 
L 57.6 229.315765 
" style="fill:none;stroke:#000000;stroke-linecap:square;stroke-linejoin:miter;stroke-width:0.8;"/>
   </g>
   <g id="patch_28">
    <path d="M 219.927273 307.584 
L 219.927273 229.315765 
" style="fill:none;stroke:#000000;stroke-linecap:square;stroke-linejoin:miter;stroke-width:0.8;"/>
   </g>
   <g id="patch_29">
    <path d="M 57.6 307.584 
L 219.927273 307.584 
" style="fill:none;stroke:#000000;stroke-linecap:square;stroke-linejoin:miter;stroke-width:0.8;"/>
   </g>
   <g id="patch_30">
    <path d="M 57.6 229.315765 
L 219.927273 229.315765 
" style="fill:none;stroke:#000000;stroke-linecap:square;stroke-linejoin:miter;stroke-width:0.8;"/>
   </g>
   <g id="legend_5">
    <g id="patch_31">
     <path d="M 131.692898 302.584 
L 212.927273 302.584 
Q 214.927273 302.584 214.927273 300.584 
L 214.927273 272.22775 
Q 214.927273 270.22775 212.927273 270.22775 
L 131.692898 270.22775 
Q 129.692898 270.22775 129.692898 272.22775 
L 129.692898 300.584 
Q 129.692898 302.584 131.692898 302.584 
z
" style="fill:#ffffff;opacity:0.8;stroke:#cccccc;stroke-linejoin:miter;"/>
    </g>
    <g id="line2d_64">
     <path d="M 133.692898 278.326187 
L 153.692898 278.326187 
" style="fill:none;stroke:#1f77b4;stroke-linecap:square;stroke-width:1.5;"/>
    </g>
    <g id="line2d_65"/>
    <g id="text_56">
     <!-- validation -->
     <g transform="translate(161.692898 281.826187)scale(0.1 -0.1)">
      <use xlink:href="#DejaVuSans-118"/>
      <use x="59.179688" xlink:href="#DejaVuSans-97"/>
      <use x="120.458984" xlink:href="#DejaVuSans-108"/>
      <use x="148.242188" xlink:href="#DejaVuSans-105"/>
      <use x="176.025391" xlink:href="#DejaVuSans-100"/>
      <use x="239.501953" xlink:href="#DejaVuSans-97"/>
      <use x="300.78125" xlink:href="#DejaVuSans-116"/>
      <use x="339.990234" xlink:href="#DejaVuSans-105"/>
      <use x="367.773438" xlink:href="#DejaVuSans-111"/>
      <use x="428.955078" xlink:href="#DejaVuSans-110"/>
     </g>
    </g>
    <g id="line2d_66">
     <path d="M 133.692898 293.004312 
L 153.692898 293.004312 
" style="fill:none;stroke:#ff7f0e;stroke-linecap:square;stroke-width:1.5;"/>
    </g>
    <g id="line2d_67"/>
    <g id="text_57">
     <!-- training -->
     <g transform="translate(161.692898 296.504312)scale(0.1 -0.1)">
      <use xlink:href="#DejaVuSans-116"/>
      <use x="39.208984" xlink:href="#DejaVuSans-114"/>
      <use x="80.322266" xlink:href="#DejaVuSans-97"/>
      <use x="141.601562" xlink:href="#DejaVuSans-105"/>
      <use x="169.384766" xlink:href="#DejaVuSans-110"/>
      <use x="232.763672" xlink:href="#DejaVuSans-105"/>
      <use x="260.546875" xlink:href="#DejaVuSans-110"/>
      <use x="323.925781" xlink:href="#DejaVuSans-103"/>
     </g>
    </g>
   </g>
  </g>
 </g>
 <defs>
  <clipPath id="pa1645cc508">
   <rect height="78.268235" width="162.327273" x="57.6" y="41.472"/>
  </clipPath>
  <clipPath id="p386e3cea25">
   <rect height="78.268235" width="162.327273" x="252.392727" y="41.472"/>
  </clipPath>
  <clipPath id="p7ab3cae417">
   <rect height="78.268235" width="162.327273" x="57.6" y="135.393882"/>
  </clipPath>
  <clipPath id="pb01acd216e">
   <rect height="78.268235" width="162.327273" x="252.392727" y="135.393882"/>
  </clipPath>
  <clipPath id="p8281cbccfb">
   <rect height="78.268235" width="162.327273" x="57.6" y="229.315765"/>
  </clipPath>
 </defs>
</svg>
