<?xml version="1.0" encoding="utf-8" standalone="no"?>
<!DOCTYPE svg PUBLIC "-//W3C//DTD SVG 1.1//EN"
  "http://www.w3.org/Graphics/SVG/1.1/DTD/svg11.dtd">
<!-- Created with matplotlib (https://matplotlib.org/) -->
<svg height="345.6pt" version="1.1" viewBox="0 0 460.8 345.6" width="460.8pt" xmlns="http://www.w3.org/2000/svg" xmlns:xlink="http://www.w3.org/1999/xlink">
 <defs>
  <style type="text/css">
*{stroke-linecap:butt;stroke-linejoin:round;}
  </style>
 </defs>
 <g id="figure_1">
  <g id="patch_1">
   <path d="M 0 345.6 
L 460.8 345.6 
L 460.8 0 
L 0 0 
z
" style="fill:#ffffff;"/>
  </g>
  <g id="axes_1">
   <g id="patch_2">
    <path d="M 57.6 119.740235 
L 219.927273 119.740235 
L 219.927273 41.472 
L 57.6 41.472 
z
" style="fill:#ffffff;"/>
   </g>
   <g id="matplotlib.axis_1">
    <g id="xtick_1">
     <g id="line2d_1">
      <defs>
       <path d="M 0 0 
L 0 3.5 
" id="m7e9cd94824" style="stroke:#000000;stroke-width:0.8;"/>
      </defs>
      <g>
       <use style="stroke:#000000;stroke-width:0.8;" x="64.978512" xlink:href="#m7e9cd94824" y="119.740235"/>
      </g>
     </g>
     <g id="text_1">
      <!-- 0 -->
      <defs>
       <path d="M 31.78125 66.40625 
Q 24.171875 66.40625 20.328125 58.90625 
Q 16.5 51.421875 16.5 36.375 
Q 16.5 21.390625 20.328125 13.890625 
Q 24.171875 6.390625 31.78125 6.390625 
Q 39.453125 6.390625 43.28125 13.890625 
Q 47.125 21.390625 47.125 36.375 
Q 47.125 51.421875 43.28125 58.90625 
Q 39.453125 66.40625 31.78125 66.40625 
z
M 31.78125 74.21875 
Q 44.046875 74.21875 50.515625 64.515625 
Q 56.984375 54.828125 56.984375 36.375 
Q 56.984375 17.96875 50.515625 8.265625 
Q 44.046875 -1.421875 31.78125 -1.421875 
Q 19.53125 -1.421875 13.0625 8.265625 
Q 6.59375 17.96875 6.59375 36.375 
Q 6.59375 54.828125 13.0625 64.515625 
Q 19.53125 74.21875 31.78125 74.21875 
z
" id="DejaVuSans-48"/>
      </defs>
      <g transform="translate(61.797262 134.338673)scale(0.1 -0.1)">
       <use xlink:href="#DejaVuSans-48"/>
      </g>
     </g>
    </g>
    <g id="xtick_2">
     <g id="line2d_2">
      <g>
       <use style="stroke:#000000;stroke-width:0.8;" x="102.243727" xlink:href="#m7e9cd94824" y="119.740235"/>
      </g>
     </g>
     <g id="text_2">
      <!-- 25 -->
      <defs>
       <path d="M 19.1875 8.296875 
L 53.609375 8.296875 
L 53.609375 0 
L 7.328125 0 
L 7.328125 8.296875 
Q 12.9375 14.109375 22.625 23.890625 
Q 32.328125 33.6875 34.8125 36.53125 
Q 39.546875 41.84375 41.421875 45.53125 
Q 43.3125 49.21875 43.3125 52.78125 
Q 43.3125 58.59375 39.234375 62.25 
Q 35.15625 65.921875 28.609375 65.921875 
Q 23.96875 65.921875 18.8125 64.3125 
Q 13.671875 62.703125 7.8125 59.421875 
L 7.8125 69.390625 
Q 13.765625 71.78125 18.9375 73 
Q 24.125 74.21875 28.421875 74.21875 
Q 39.75 74.21875 46.484375 68.546875 
Q 53.21875 62.890625 53.21875 53.421875 
Q 53.21875 48.921875 51.53125 44.890625 
Q 49.859375 40.875 45.40625 35.40625 
Q 44.1875 33.984375 37.640625 27.21875 
Q 31.109375 20.453125 19.1875 8.296875 
z
" id="DejaVuSans-50"/>
       <path d="M 10.796875 72.90625 
L 49.515625 72.90625 
L 49.515625 64.59375 
L 19.828125 64.59375 
L 19.828125 46.734375 
Q 21.96875 47.46875 24.109375 47.828125 
Q 26.265625 48.1875 28.421875 48.1875 
Q 40.625 48.1875 47.75 41.5 
Q 54.890625 34.8125 54.890625 23.390625 
Q 54.890625 11.625 47.5625 5.09375 
Q 40.234375 -1.421875 26.90625 -1.421875 
Q 22.3125 -1.421875 17.546875 -0.640625 
Q 12.796875 0.140625 7.71875 1.703125 
L 7.71875 11.625 
Q 12.109375 9.234375 16.796875 8.0625 
Q 21.484375 6.890625 26.703125 6.890625 
Q 35.15625 6.890625 40.078125 11.328125 
Q 45.015625 15.765625 45.015625 23.390625 
Q 45.015625 31 40.078125 35.4375 
Q 35.15625 39.890625 26.703125 39.890625 
Q 22.75 39.890625 18.8125 39.015625 
Q 14.890625 38.140625 10.796875 36.28125 
z
" id="DejaVuSans-53"/>
      </defs>
      <g transform="translate(95.881227 134.338673)scale(0.1 -0.1)">
       <use xlink:href="#DejaVuSans-50"/>
       <use x="63.623047" xlink:href="#DejaVuSans-53"/>
      </g>
     </g>
    </g>
    <g id="xtick_3">
     <g id="line2d_3">
      <g>
       <use style="stroke:#000000;stroke-width:0.8;" x="139.508941" xlink:href="#m7e9cd94824" y="119.740235"/>
      </g>
     </g>
     <g id="text_3">
      <!-- 50 -->
      <g transform="translate(133.146441 134.338673)scale(0.1 -0.1)">
       <use xlink:href="#DejaVuSans-53"/>
       <use x="63.623047" xlink:href="#DejaVuSans-48"/>
      </g>
     </g>
    </g>
    <g id="xtick_4">
     <g id="line2d_4">
      <g>
       <use style="stroke:#000000;stroke-width:0.8;" x="176.774155" xlink:href="#m7e9cd94824" y="119.740235"/>
      </g>
     </g>
     <g id="text_4">
      <!-- 75 -->
      <defs>
       <path d="M 8.203125 72.90625 
L 55.078125 72.90625 
L 55.078125 68.703125 
L 28.609375 0 
L 18.3125 0 
L 43.21875 64.59375 
L 8.203125 64.59375 
z
" id="DejaVuSans-55"/>
      </defs>
      <g transform="translate(170.411655 134.338673)scale(0.1 -0.1)">
       <use xlink:href="#DejaVuSans-55"/>
       <use x="63.623047" xlink:href="#DejaVuSans-53"/>
      </g>
     </g>
    </g>
    <g id="xtick_5">
     <g id="line2d_5">
      <g>
       <use style="stroke:#000000;stroke-width:0.8;" x="214.039369" xlink:href="#m7e9cd94824" y="119.740235"/>
      </g>
     </g>
     <g id="text_5">
      <!-- 100 -->
      <defs>
       <path d="M 12.40625 8.296875 
L 28.515625 8.296875 
L 28.515625 63.921875 
L 10.984375 60.40625 
L 10.984375 69.390625 
L 28.421875 72.90625 
L 38.28125 72.90625 
L 38.28125 8.296875 
L 54.390625 8.296875 
L 54.390625 0 
L 12.40625 0 
z
" id="DejaVuSans-49"/>
      </defs>
      <g transform="translate(204.495619 134.338673)scale(0.1 -0.1)">
       <use xlink:href="#DejaVuSans-49"/>
       <use x="63.623047" xlink:href="#DejaVuSans-48"/>
       <use x="127.246094" xlink:href="#DejaVuSans-48"/>
      </g>
     </g>
    </g>
    <g id="text_6">
     <!-- # epochs -->
     <defs>
      <path d="M 51.125 44 
L 36.921875 44 
L 32.8125 27.6875 
L 47.125 27.6875 
z
M 43.796875 71.78125 
L 38.71875 51.515625 
L 52.984375 51.515625 
L 58.109375 71.78125 
L 65.921875 71.78125 
L 60.890625 51.515625 
L 76.125 51.515625 
L 76.125 44 
L 58.984375 44 
L 54.984375 27.6875 
L 70.515625 27.6875 
L 70.515625 20.21875 
L 53.078125 20.21875 
L 48 0 
L 40.1875 0 
L 45.21875 20.21875 
L 30.90625 20.21875 
L 25.875 0 
L 18.015625 0 
L 23.09375 20.21875 
L 7.71875 20.21875 
L 7.71875 27.6875 
L 24.90625 27.6875 
L 29 44 
L 13.28125 44 
L 13.28125 51.515625 
L 30.90625 51.515625 
L 35.890625 71.78125 
z
" id="DejaVuSans-35"/>
      <path id="DejaVuSans-32"/>
      <path d="M 56.203125 29.59375 
L 56.203125 25.203125 
L 14.890625 25.203125 
Q 15.484375 15.921875 20.484375 11.0625 
Q 25.484375 6.203125 34.421875 6.203125 
Q 39.59375 6.203125 44.453125 7.46875 
Q 49.3125 8.734375 54.109375 11.28125 
L 54.109375 2.78125 
Q 49.265625 0.734375 44.1875 -0.34375 
Q 39.109375 -1.421875 33.890625 -1.421875 
Q 20.796875 -1.421875 13.15625 6.1875 
Q 5.515625 13.8125 5.515625 26.8125 
Q 5.515625 40.234375 12.765625 48.109375 
Q 20.015625 56 32.328125 56 
Q 43.359375 56 49.78125 48.890625 
Q 56.203125 41.796875 56.203125 29.59375 
z
M 47.21875 32.234375 
Q 47.125 39.59375 43.09375 43.984375 
Q 39.0625 48.390625 32.421875 48.390625 
Q 24.90625 48.390625 20.390625 44.140625 
Q 15.875 39.890625 15.1875 32.171875 
z
" id="DejaVuSans-101"/>
      <path d="M 18.109375 8.203125 
L 18.109375 -20.796875 
L 9.078125 -20.796875 
L 9.078125 54.6875 
L 18.109375 54.6875 
L 18.109375 46.390625 
Q 20.953125 51.265625 25.265625 53.625 
Q 29.59375 56 35.59375 56 
Q 45.5625 56 51.78125 48.09375 
Q 58.015625 40.1875 58.015625 27.296875 
Q 58.015625 14.40625 51.78125 6.484375 
Q 45.5625 -1.421875 35.59375 -1.421875 
Q 29.59375 -1.421875 25.265625 0.953125 
Q 20.953125 3.328125 18.109375 8.203125 
z
M 48.6875 27.296875 
Q 48.6875 37.203125 44.609375 42.84375 
Q 40.53125 48.484375 33.40625 48.484375 
Q 26.265625 48.484375 22.1875 42.84375 
Q 18.109375 37.203125 18.109375 27.296875 
Q 18.109375 17.390625 22.1875 11.75 
Q 26.265625 6.109375 33.40625 6.109375 
Q 40.53125 6.109375 44.609375 11.75 
Q 48.6875 17.390625 48.6875 27.296875 
z
" id="DejaVuSans-112"/>
      <path d="M 30.609375 48.390625 
Q 23.390625 48.390625 19.1875 42.75 
Q 14.984375 37.109375 14.984375 27.296875 
Q 14.984375 17.484375 19.15625 11.84375 
Q 23.34375 6.203125 30.609375 6.203125 
Q 37.796875 6.203125 41.984375 11.859375 
Q 46.1875 17.53125 46.1875 27.296875 
Q 46.1875 37.015625 41.984375 42.703125 
Q 37.796875 48.390625 30.609375 48.390625 
z
M 30.609375 56 
Q 42.328125 56 49.015625 48.375 
Q 55.71875 40.765625 55.71875 27.296875 
Q 55.71875 13.875 49.015625 6.21875 
Q 42.328125 -1.421875 30.609375 -1.421875 
Q 18.84375 -1.421875 12.171875 6.21875 
Q 5.515625 13.875 5.515625 27.296875 
Q 5.515625 40.765625 12.171875 48.375 
Q 18.84375 56 30.609375 56 
z
" id="DejaVuSans-111"/>
      <path d="M 48.78125 52.59375 
L 48.78125 44.1875 
Q 44.96875 46.296875 41.140625 47.34375 
Q 37.3125 48.390625 33.40625 48.390625 
Q 24.65625 48.390625 19.8125 42.84375 
Q 14.984375 37.3125 14.984375 27.296875 
Q 14.984375 17.28125 19.8125 11.734375 
Q 24.65625 6.203125 33.40625 6.203125 
Q 37.3125 6.203125 41.140625 7.25 
Q 44.96875 8.296875 48.78125 10.40625 
L 48.78125 2.09375 
Q 45.015625 0.34375 40.984375 -0.53125 
Q 36.96875 -1.421875 32.421875 -1.421875 
Q 20.0625 -1.421875 12.78125 6.34375 
Q 5.515625 14.109375 5.515625 27.296875 
Q 5.515625 40.671875 12.859375 48.328125 
Q 20.21875 56 33.015625 56 
Q 37.15625 56 41.109375 55.140625 
Q 45.0625 54.296875 48.78125 52.59375 
z
" id="DejaVuSans-99"/>
      <path d="M 54.890625 33.015625 
L 54.890625 0 
L 45.90625 0 
L 45.90625 32.71875 
Q 45.90625 40.484375 42.875 44.328125 
Q 39.84375 48.1875 33.796875 48.1875 
Q 26.515625 48.1875 22.3125 43.546875 
Q 18.109375 38.921875 18.109375 30.90625 
L 18.109375 0 
L 9.078125 0 
L 9.078125 75.984375 
L 18.109375 75.984375 
L 18.109375 46.1875 
Q 21.34375 51.125 25.703125 53.5625 
Q 30.078125 56 35.796875 56 
Q 45.21875 56 50.046875 50.171875 
Q 54.890625 44.34375 54.890625 33.015625 
z
" id="DejaVuSans-104"/>
      <path d="M 44.28125 53.078125 
L 44.28125 44.578125 
Q 40.484375 46.53125 36.375 47.5 
Q 32.28125 48.484375 27.875 48.484375 
Q 21.1875 48.484375 17.84375 46.4375 
Q 14.5 44.390625 14.5 40.28125 
Q 14.5 37.15625 16.890625 35.375 
Q 19.28125 33.59375 26.515625 31.984375 
L 29.59375 31.296875 
Q 39.15625 29.25 43.1875 25.515625 
Q 47.21875 21.78125 47.21875 15.09375 
Q 47.21875 7.46875 41.1875 3.015625 
Q 35.15625 -1.421875 24.609375 -1.421875 
Q 20.21875 -1.421875 15.453125 -0.5625 
Q 10.6875 0.296875 5.421875 2 
L 5.421875 11.28125 
Q 10.40625 8.6875 15.234375 7.390625 
Q 20.0625 6.109375 24.8125 6.109375 
Q 31.15625 6.109375 34.5625 8.28125 
Q 37.984375 10.453125 37.984375 14.40625 
Q 37.984375 18.0625 35.515625 20.015625 
Q 33.0625 21.96875 24.703125 23.78125 
L 21.578125 24.515625 
Q 13.234375 26.265625 9.515625 29.90625 
Q 5.8125 33.546875 5.8125 39.890625 
Q 5.8125 47.609375 11.28125 51.796875 
Q 16.75 56 26.8125 56 
Q 31.78125 56 36.171875 55.265625 
Q 40.578125 54.546875 44.28125 53.078125 
z
" id="DejaVuSans-115"/>
     </defs>
     <g transform="translate(115.151918 148.016798)scale(0.1 -0.1)">
      <use xlink:href="#DejaVuSans-35"/>
      <use x="83.789062" xlink:href="#DejaVuSans-32"/>
      <use x="115.576172" xlink:href="#DejaVuSans-101"/>
      <use x="177.099609" xlink:href="#DejaVuSans-112"/>
      <use x="240.576172" xlink:href="#DejaVuSans-111"/>
      <use x="301.757812" xlink:href="#DejaVuSans-99"/>
      <use x="356.738281" xlink:href="#DejaVuSans-104"/>
      <use x="420.117188" xlink:href="#DejaVuSans-115"/>
     </g>
    </g>
   </g>
   <g id="matplotlib.axis_2">
    <g id="ytick_1">
     <g id="line2d_6">
      <defs>
       <path d="M 0 0 
L -3.5 0 
" id="m0486071193" style="stroke:#000000;stroke-width:0.8;"/>
      </defs>
      <g>
       <use style="stroke:#000000;stroke-width:0.8;" x="57.6" xlink:href="#m0486071193" y="104.659992"/>
      </g>
     </g>
     <g id="text_7">
      <!-- 0.08 -->
      <defs>
       <path d="M 10.6875 12.40625 
L 21 12.40625 
L 21 0 
L 10.6875 0 
z
" id="DejaVuSans-46"/>
       <path d="M 31.78125 34.625 
Q 24.75 34.625 20.71875 30.859375 
Q 16.703125 27.09375 16.703125 20.515625 
Q 16.703125 13.921875 20.71875 10.15625 
Q 24.75 6.390625 31.78125 6.390625 
Q 38.8125 6.390625 42.859375 10.171875 
Q 46.921875 13.96875 46.921875 20.515625 
Q 46.921875 27.09375 42.890625 30.859375 
Q 38.875 34.625 31.78125 34.625 
z
M 21.921875 38.8125 
Q 15.578125 40.375 12.03125 44.71875 
Q 8.5 49.078125 8.5 55.328125 
Q 8.5 64.0625 14.71875 69.140625 
Q 20.953125 74.21875 31.78125 74.21875 
Q 42.671875 74.21875 48.875 69.140625 
Q 55.078125 64.0625 55.078125 55.328125 
Q 55.078125 49.078125 51.53125 44.71875 
Q 48 40.375 41.703125 38.8125 
Q 48.828125 37.15625 52.796875 32.3125 
Q 56.78125 27.484375 56.78125 20.515625 
Q 56.78125 9.90625 50.3125 4.234375 
Q 43.84375 -1.421875 31.78125 -1.421875 
Q 19.734375 -1.421875 13.25 4.234375 
Q 6.78125 9.90625 6.78125 20.515625 
Q 6.78125 27.484375 10.78125 32.3125 
Q 14.796875 37.15625 21.921875 38.8125 
z
M 18.3125 54.390625 
Q 18.3125 48.734375 21.84375 45.5625 
Q 25.390625 42.390625 31.78125 42.390625 
Q 38.140625 42.390625 41.71875 45.5625 
Q 45.3125 48.734375 45.3125 54.390625 
Q 45.3125 60.0625 41.71875 63.234375 
Q 38.140625 66.40625 31.78125 66.40625 
Q 25.390625 66.40625 21.84375 63.234375 
Q 18.3125 60.0625 18.3125 54.390625 
z
" id="DejaVuSans-56"/>
      </defs>
      <g transform="translate(28.334375 108.459211)scale(0.1 -0.1)">
       <use xlink:href="#DejaVuSans-48"/>
       <use x="63.623047" xlink:href="#DejaVuSans-46"/>
       <use x="95.410156" xlink:href="#DejaVuSans-48"/>
       <use x="159.033203" xlink:href="#DejaVuSans-56"/>
      </g>
     </g>
    </g>
    <g id="ytick_2">
     <g id="line2d_7">
      <g>
       <use style="stroke:#000000;stroke-width:0.8;" x="57.6" xlink:href="#m0486071193" y="72.93103"/>
      </g>
     </g>
     <g id="text_8">
      <!-- 0.10 -->
      <g transform="translate(28.334375 76.730249)scale(0.1 -0.1)">
       <use xlink:href="#DejaVuSans-48"/>
       <use x="63.623047" xlink:href="#DejaVuSans-46"/>
       <use x="95.410156" xlink:href="#DejaVuSans-49"/>
       <use x="159.033203" xlink:href="#DejaVuSans-48"/>
      </g>
     </g>
    </g>
    <g id="text_9">
     <!-- loss -->
     <defs>
      <path d="M 9.421875 75.984375 
L 18.40625 75.984375 
L 18.40625 0 
L 9.421875 0 
z
" id="DejaVuSans-108"/>
     </defs>
     <g transform="translate(22.254688 90.26393)rotate(-90)scale(0.1 -0.1)">
      <use xlink:href="#DejaVuSans-108"/>
      <use x="27.783203" xlink:href="#DejaVuSans-111"/>
      <use x="88.964844" xlink:href="#DejaVuSans-115"/>
      <use x="141.064453" xlink:href="#DejaVuSans-115"/>
     </g>
    </g>
   </g>
   <g id="line2d_8">
    <path clip-path="url(#pb8abe46e71)" d="M 64.978512 46.474176 
L 66.469121 45.029647 
L 67.95973 57.315703 
L 69.450338 52.125961 
L 70.940947 64.191894 
L 72.431555 76.79885 
L 73.922164 80.655147 
L 75.412772 77.648847 
L 76.903381 84.777582 
L 78.393989 78.805607 
L 79.884598 87.925096 
L 81.375207 87.00594 
L 82.865815 88.288169 
L 84.356424 87.977257 
L 85.847032 89.524183 
L 87.337641 88.881957 
L 88.828249 89.607147 
L 90.318858 89.621378 
L 91.809467 89.988471 
L 93.300075 82.336288 
L 94.790684 90.509305 
L 96.281292 91.525408 
L 97.771901 91.679351 
L 99.262509 89.36232 
L 100.753118 90.926467 
L 102.243727 91.943764 
L 103.734335 92.432791 
L 105.224944 92.273458 
L 106.715552 91.288347 
L 108.206161 92.166747 
L 109.696769 91.501201 
L 111.187378 91.957936 
L 112.677986 91.283217 
L 114.168595 91.717163 
L 115.659204 90.24994 
L 117.149812 93.166054 
L 118.640421 92.590658 
L 120.131029 92.253908 
L 121.621638 94.095008 
L 123.112246 92.813287 
L 124.602855 92.372048 
L 126.093464 89.03525 
L 127.584072 91.769916 
L 129.074681 93.188134 
L 130.565289 94.321668 
L 132.055898 94.738581 
L 133.546506 93.413339 
L 135.037115 92.954997 
L 136.527724 81.859412 
L 138.018332 94.356312 
L 139.508941 95.112919 
L 140.999549 92.016386 
L 142.490158 87.012027 
L 143.980766 93.425313 
L 145.471375 95.23171 
L 146.961983 93.0916 
L 148.452592 87.197542 
L 149.943201 94.820364 
L 151.433809 95.318244 
L 152.924418 91.064146 
L 154.415026 95.952716 
L 155.905635 95.025629 
L 157.396243 92.905211 
L 158.886852 96.377241 
L 160.377461 91.011559 
L 161.868069 89.972585 
L 163.358678 96.211171 
L 164.849286 95.826833 
L 166.339895 95.21041 
L 167.830503 95.972502 
L 169.321112 96.07978 
L 170.811721 94.697649 
L 172.302329 96.643959 
L 173.792938 95.799907 
L 175.283546 97.434336 
L 176.774155 97.533718 
L 178.264763 97.85307 
L 179.755372 97.752163 
L 181.24598 96.452854 
L 182.736589 94.22543 
L 184.227198 97.948185 
L 185.717806 98.112553 
L 187.208415 94.550148 
L 188.699023 98.845107 
L 190.189632 98.488842 
L 191.68024 92.750039 
L 193.170849 99.056578 
L 194.661458 98.559017 
L 196.152066 97.733546 
L 197.642675 97.302567 
L 199.133283 98.28717 
L 200.623892 99.982223 
L 202.1145 97.502135 
L 203.605109 100.103436 
L 205.095718 91.184544 
L 206.586326 100.656019 
L 208.076935 100.566921 
L 209.567543 100.354811 
L 211.058152 96.153029 
L 212.54876 95.102258 
" style="fill:none;stroke:#1f77b4;stroke-linecap:square;stroke-width:1.5;"/>
   </g>
   <g id="line2d_9">
    <path clip-path="url(#pb8abe46e71)" d="M 64.978512 69.895178 
L 66.469121 87.671782 
L 67.95973 93.028647 
L 69.450338 98.094823 
L 70.940947 96.970958 
L 72.431555 98.122636 
L 73.922164 99.558158 
L 75.412772 100.880871 
L 76.903381 97.566731 
L 78.393989 101.398396 
L 79.884598 101.956688 
L 81.375207 103.246825 
L 82.865815 103.186602 
L 84.356424 103.359646 
L 85.847032 105.160949 
L 87.337641 105.974446 
L 88.828249 104.226699 
L 90.318858 105.833174 
L 91.809467 106.575881 
L 93.300075 99.951207 
L 94.790684 102.761592 
L 96.281292 107.320645 
L 97.771901 108.654184 
L 99.262509 107.357452 
L 100.753118 101.622147 
L 102.243727 107.358137 
L 103.734335 106.230998 
L 105.224944 107.981498 
L 106.715552 106.696787 
L 108.206161 106.283727 
L 109.696769 106.192666 
L 111.187378 105.025362 
L 112.677986 104.276922 
L 114.168595 104.61924 
L 115.659204 105.160204 
L 117.149812 106.929345 
L 118.640421 107.457177 
L 120.131029 107.569916 
L 121.621638 104.179065 
L 123.112246 108.830514 
L 124.602855 107.161524 
L 126.093464 107.819376 
L 127.584072 106.039562 
L 129.074681 107.783573 
L 130.565289 105.192697 
L 132.055898 109.174759 
L 133.546506 109.203812 
L 135.037115 107.540862 
L 136.527724 107.029223 
L 138.018332 106.128767 
L 139.508941 106.33694 
L 140.999549 109.262215 
L 142.490158 109.995206 
L 143.980766 106.324553 
L 145.471375 106.487278 
L 146.961983 110.041611 
L 148.452592 107.158179 
L 149.943201 108.228323 
L 151.433809 111.832323 
L 152.924418 111.54881 
L 154.415026 109.306658 
L 155.905635 110.380726 
L 157.396243 106.437859 
L 158.886852 107.693505 
L 160.377461 105.526564 
L 161.868069 110.64937 
L 163.358678 111.403625 
L 164.849286 111.636951 
L 166.339895 111.63623 
L 167.830503 106.869228 
L 169.321112 105.992637 
L 170.811721 110.200034 
L 172.302329 110.841881 
L 173.792938 112.187454 
L 175.283546 111.172651 
L 176.774155 106.905291 
L 178.264763 108.375824 
L 179.755372 110.614099 
L 181.24598 111.847216 
L 182.736589 108.923927 
L 184.227198 110.497684 
L 185.717806 111.601999 
L 187.208415 111.971113 
L 188.699023 111.866755 
L 190.189632 112.865955 
L 191.68024 109.894701 
L 193.170849 108.811614 
L 194.661458 108.530819 
L 196.152066 112.654118 
L 197.642675 105.261986 
L 199.133283 112.339789 
L 200.623892 111.342067 
L 202.1145 110.558143 
L 203.605109 113.230057 
L 205.095718 111.864757 
L 206.586326 111.868859 
L 208.076935 116.182588 
L 209.567543 115.142219 
L 211.058152 109.1558 
L 212.54876 111.365742 
" style="fill:none;stroke:#ff7f0e;stroke-linecap:square;stroke-width:1.5;"/>
   </g>
   <g id="patch_3">
    <path d="M 57.6 119.740235 
L 57.6 41.472 
" style="fill:none;stroke:#000000;stroke-linecap:square;stroke-linejoin:miter;stroke-width:0.8;"/>
   </g>
   <g id="patch_4">
    <path d="M 219.927273 119.740235 
L 219.927273 41.472 
" style="fill:none;stroke:#000000;stroke-linecap:square;stroke-linejoin:miter;stroke-width:0.8;"/>
   </g>
   <g id="patch_5">
    <path d="M 57.6 119.740235 
L 219.927273 119.740235 
" style="fill:none;stroke:#000000;stroke-linecap:square;stroke-linejoin:miter;stroke-width:0.8;"/>
   </g>
   <g id="patch_6">
    <path d="M 57.6 41.472 
L 219.927273 41.472 
" style="fill:none;stroke:#000000;stroke-linecap:square;stroke-linejoin:miter;stroke-width:0.8;"/>
   </g>
   <g id="legend_1">
    <g id="patch_7">
     <path d="M 131.692898 78.82825 
L 212.927273 78.82825 
Q 214.927273 78.82825 214.927273 76.82825 
L 214.927273 48.472 
Q 214.927273 46.472 212.927273 46.472 
L 131.692898 46.472 
Q 129.692898 46.472 129.692898 48.472 
L 129.692898 76.82825 
Q 129.692898 78.82825 131.692898 78.82825 
z
" style="fill:#ffffff;opacity:0.8;stroke:#cccccc;stroke-linejoin:miter;"/>
    </g>
    <g id="line2d_10">
     <path d="M 133.692898 54.570437 
L 153.692898 54.570437 
" style="fill:none;stroke:#1f77b4;stroke-linecap:square;stroke-width:1.5;"/>
    </g>
    <g id="line2d_11"/>
    <g id="text_10">
     <!-- validation -->
     <defs>
      <path d="M 2.984375 54.6875 
L 12.5 54.6875 
L 29.59375 8.796875 
L 46.6875 54.6875 
L 56.203125 54.6875 
L 35.6875 0 
L 23.484375 0 
z
" id="DejaVuSans-118"/>
      <path d="M 34.28125 27.484375 
Q 23.390625 27.484375 19.1875 25 
Q 14.984375 22.515625 14.984375 16.5 
Q 14.984375 11.71875 18.140625 8.90625 
Q 21.296875 6.109375 26.703125 6.109375 
Q 34.1875 6.109375 38.703125 11.40625 
Q 43.21875 16.703125 43.21875 25.484375 
L 43.21875 27.484375 
z
M 52.203125 31.203125 
L 52.203125 0 
L 43.21875 0 
L 43.21875 8.296875 
Q 40.140625 3.328125 35.546875 0.953125 
Q 30.953125 -1.421875 24.3125 -1.421875 
Q 15.921875 -1.421875 10.953125 3.296875 
Q 6 8.015625 6 15.921875 
Q 6 25.140625 12.171875 29.828125 
Q 18.359375 34.515625 30.609375 34.515625 
L 43.21875 34.515625 
L 43.21875 35.40625 
Q 43.21875 41.609375 39.140625 45 
Q 35.0625 48.390625 27.6875 48.390625 
Q 23 48.390625 18.546875 47.265625 
Q 14.109375 46.140625 10.015625 43.890625 
L 10.015625 52.203125 
Q 14.9375 54.109375 19.578125 55.046875 
Q 24.21875 56 28.609375 56 
Q 40.484375 56 46.34375 49.84375 
Q 52.203125 43.703125 52.203125 31.203125 
z
" id="DejaVuSans-97"/>
      <path d="M 9.421875 54.6875 
L 18.40625 54.6875 
L 18.40625 0 
L 9.421875 0 
z
M 9.421875 75.984375 
L 18.40625 75.984375 
L 18.40625 64.59375 
L 9.421875 64.59375 
z
" id="DejaVuSans-105"/>
      <path d="M 45.40625 46.390625 
L 45.40625 75.984375 
L 54.390625 75.984375 
L 54.390625 0 
L 45.40625 0 
L 45.40625 8.203125 
Q 42.578125 3.328125 38.25 0.953125 
Q 33.9375 -1.421875 27.875 -1.421875 
Q 17.96875 -1.421875 11.734375 6.484375 
Q 5.515625 14.40625 5.515625 27.296875 
Q 5.515625 40.1875 11.734375 48.09375 
Q 17.96875 56 27.875 56 
Q 33.9375 56 38.25 53.625 
Q 42.578125 51.265625 45.40625 46.390625 
z
M 14.796875 27.296875 
Q 14.796875 17.390625 18.875 11.75 
Q 22.953125 6.109375 30.078125 6.109375 
Q 37.203125 6.109375 41.296875 11.75 
Q 45.40625 17.390625 45.40625 27.296875 
Q 45.40625 37.203125 41.296875 42.84375 
Q 37.203125 48.484375 30.078125 48.484375 
Q 22.953125 48.484375 18.875 42.84375 
Q 14.796875 37.203125 14.796875 27.296875 
z
" id="DejaVuSans-100"/>
      <path d="M 18.3125 70.21875 
L 18.3125 54.6875 
L 36.8125 54.6875 
L 36.8125 47.703125 
L 18.3125 47.703125 
L 18.3125 18.015625 
Q 18.3125 11.328125 20.140625 9.421875 
Q 21.96875 7.515625 27.59375 7.515625 
L 36.8125 7.515625 
L 36.8125 0 
L 27.59375 0 
Q 17.1875 0 13.234375 3.875 
Q 9.28125 7.765625 9.28125 18.015625 
L 9.28125 47.703125 
L 2.6875 47.703125 
L 2.6875 54.6875 
L 9.28125 54.6875 
L 9.28125 70.21875 
z
" id="DejaVuSans-116"/>
      <path d="M 54.890625 33.015625 
L 54.890625 0 
L 45.90625 0 
L 45.90625 32.71875 
Q 45.90625 40.484375 42.875 44.328125 
Q 39.84375 48.1875 33.796875 48.1875 
Q 26.515625 48.1875 22.3125 43.546875 
Q 18.109375 38.921875 18.109375 30.90625 
L 18.109375 0 
L 9.078125 0 
L 9.078125 54.6875 
L 18.109375 54.6875 
L 18.109375 46.1875 
Q 21.34375 51.125 25.703125 53.5625 
Q 30.078125 56 35.796875 56 
Q 45.21875 56 50.046875 50.171875 
Q 54.890625 44.34375 54.890625 33.015625 
z
" id="DejaVuSans-110"/>
     </defs>
     <g transform="translate(161.692898 58.070437)scale(0.1 -0.1)">
      <use xlink:href="#DejaVuSans-118"/>
      <use x="59.179688" xlink:href="#DejaVuSans-97"/>
      <use x="120.458984" xlink:href="#DejaVuSans-108"/>
      <use x="148.242188" xlink:href="#DejaVuSans-105"/>
      <use x="176.025391" xlink:href="#DejaVuSans-100"/>
      <use x="239.501953" xlink:href="#DejaVuSans-97"/>
      <use x="300.78125" xlink:href="#DejaVuSans-116"/>
      <use x="339.990234" xlink:href="#DejaVuSans-105"/>
      <use x="367.773438" xlink:href="#DejaVuSans-111"/>
      <use x="428.955078" xlink:href="#DejaVuSans-110"/>
     </g>
    </g>
    <g id="line2d_12">
     <path d="M 133.692898 69.248562 
L 153.692898 69.248562 
" style="fill:none;stroke:#ff7f0e;stroke-linecap:square;stroke-width:1.5;"/>
    </g>
    <g id="line2d_13"/>
    <g id="text_11">
     <!-- training -->
     <defs>
      <path d="M 41.109375 46.296875 
Q 39.59375 47.171875 37.8125 47.578125 
Q 36.03125 48 33.890625 48 
Q 26.265625 48 22.1875 43.046875 
Q 18.109375 38.09375 18.109375 28.8125 
L 18.109375 0 
L 9.078125 0 
L 9.078125 54.6875 
L 18.109375 54.6875 
L 18.109375 46.1875 
Q 20.953125 51.171875 25.484375 53.578125 
Q 30.03125 56 36.53125 56 
Q 37.453125 56 38.578125 55.875 
Q 39.703125 55.765625 41.0625 55.515625 
z
" id="DejaVuSans-114"/>
      <path d="M 45.40625 27.984375 
Q 45.40625 37.75 41.375 43.109375 
Q 37.359375 48.484375 30.078125 48.484375 
Q 22.859375 48.484375 18.828125 43.109375 
Q 14.796875 37.75 14.796875 27.984375 
Q 14.796875 18.265625 18.828125 12.890625 
Q 22.859375 7.515625 30.078125 7.515625 
Q 37.359375 7.515625 41.375 12.890625 
Q 45.40625 18.265625 45.40625 27.984375 
z
M 54.390625 6.78125 
Q 54.390625 -7.171875 48.1875 -13.984375 
Q 42 -20.796875 29.203125 -20.796875 
Q 24.46875 -20.796875 20.265625 -20.09375 
Q 16.0625 -19.390625 12.109375 -17.921875 
L 12.109375 -9.1875 
Q 16.0625 -11.328125 19.921875 -12.34375 
Q 23.78125 -13.375 27.78125 -13.375 
Q 36.625 -13.375 41.015625 -8.765625 
Q 45.40625 -4.15625 45.40625 5.171875 
L 45.40625 9.625 
Q 42.625 4.78125 38.28125 2.390625 
Q 33.9375 0 27.875 0 
Q 17.828125 0 11.671875 7.65625 
Q 5.515625 15.328125 5.515625 27.984375 
Q 5.515625 40.671875 11.671875 48.328125 
Q 17.828125 56 27.875 56 
Q 33.9375 56 38.28125 53.609375 
Q 42.625 51.21875 45.40625 46.390625 
L 45.40625 54.6875 
L 54.390625 54.6875 
z
" id="DejaVuSans-103"/>
     </defs>
     <g transform="translate(161.692898 72.748562)scale(0.1 -0.1)">
      <use xlink:href="#DejaVuSans-116"/>
      <use x="39.208984" xlink:href="#DejaVuSans-114"/>
      <use x="80.322266" xlink:href="#DejaVuSans-97"/>
      <use x="141.601562" xlink:href="#DejaVuSans-105"/>
      <use x="169.384766" xlink:href="#DejaVuSans-110"/>
      <use x="232.763672" xlink:href="#DejaVuSans-105"/>
      <use x="260.546875" xlink:href="#DejaVuSans-110"/>
      <use x="323.925781" xlink:href="#DejaVuSans-103"/>
     </g>
    </g>
   </g>
  </g>
  <g id="axes_2">
   <g id="patch_8">
    <path d="M 252.392727 119.740235 
L 414.72 119.740235 
L 414.72 41.472 
L 252.392727 41.472 
z
" style="fill:#ffffff;"/>
   </g>
   <g id="matplotlib.axis_3">
    <g id="xtick_6">
     <g id="line2d_14">
      <g>
       <use style="stroke:#000000;stroke-width:0.8;" x="259.77124" xlink:href="#m7e9cd94824" y="119.740235"/>
      </g>
     </g>
     <g id="text_12">
      <!-- 0 -->
      <g transform="translate(256.58999 134.338673)scale(0.1 -0.1)">
       <use xlink:href="#DejaVuSans-48"/>
      </g>
     </g>
    </g>
    <g id="xtick_7">
     <g id="line2d_15">
      <g>
       <use style="stroke:#000000;stroke-width:0.8;" x="297.036454" xlink:href="#m7e9cd94824" y="119.740235"/>
      </g>
     </g>
     <g id="text_13">
      <!-- 25 -->
      <g transform="translate(290.673954 134.338673)scale(0.1 -0.1)">
       <use xlink:href="#DejaVuSans-50"/>
       <use x="63.623047" xlink:href="#DejaVuSans-53"/>
      </g>
     </g>
    </g>
    <g id="xtick_8">
     <g id="line2d_16">
      <g>
       <use style="stroke:#000000;stroke-width:0.8;" x="334.301668" xlink:href="#m7e9cd94824" y="119.740235"/>
      </g>
     </g>
     <g id="text_14">
      <!-- 50 -->
      <g transform="translate(327.939168 134.338673)scale(0.1 -0.1)">
       <use xlink:href="#DejaVuSans-53"/>
       <use x="63.623047" xlink:href="#DejaVuSans-48"/>
      </g>
     </g>
    </g>
    <g id="xtick_9">
     <g id="line2d_17">
      <g>
       <use style="stroke:#000000;stroke-width:0.8;" x="371.566882" xlink:href="#m7e9cd94824" y="119.740235"/>
      </g>
     </g>
     <g id="text_15">
      <!-- 75 -->
      <g transform="translate(365.204382 134.338673)scale(0.1 -0.1)">
       <use xlink:href="#DejaVuSans-55"/>
       <use x="63.623047" xlink:href="#DejaVuSans-53"/>
      </g>
     </g>
    </g>
    <g id="xtick_10">
     <g id="line2d_18">
      <g>
       <use style="stroke:#000000;stroke-width:0.8;" x="408.832096" xlink:href="#m7e9cd94824" y="119.740235"/>
      </g>
     </g>
     <g id="text_16">
      <!-- 100 -->
      <g transform="translate(399.288346 134.338673)scale(0.1 -0.1)">
       <use xlink:href="#DejaVuSans-49"/>
       <use x="63.623047" xlink:href="#DejaVuSans-48"/>
       <use x="127.246094" xlink:href="#DejaVuSans-48"/>
      </g>
     </g>
    </g>
    <g id="text_17">
     <!-- # epochs -->
     <g transform="translate(309.944645 148.016798)scale(0.1 -0.1)">
      <use xlink:href="#DejaVuSans-35"/>
      <use x="83.789062" xlink:href="#DejaVuSans-32"/>
      <use x="115.576172" xlink:href="#DejaVuSans-101"/>
      <use x="177.099609" xlink:href="#DejaVuSans-112"/>
      <use x="240.576172" xlink:href="#DejaVuSans-111"/>
      <use x="301.757812" xlink:href="#DejaVuSans-99"/>
      <use x="356.738281" xlink:href="#DejaVuSans-104"/>
      <use x="420.117188" xlink:href="#DejaVuSans-115"/>
     </g>
    </g>
   </g>
   <g id="matplotlib.axis_4">
    <g id="ytick_3">
     <g id="line2d_19">
      <g>
       <use style="stroke:#000000;stroke-width:0.8;" x="252.392727" xlink:href="#m0486071193" y="111.814434"/>
      </g>
     </g>
     <g id="text_18">
      <!-- 50 -->
      <g transform="translate(232.667727 115.613653)scale(0.1 -0.1)">
       <use xlink:href="#DejaVuSans-53"/>
       <use x="63.623047" xlink:href="#DejaVuSans-48"/>
      </g>
     </g>
    </g>
    <g id="ytick_4">
     <g id="line2d_20">
      <g>
       <use style="stroke:#000000;stroke-width:0.8;" x="252.392727" xlink:href="#m0486071193" y="63.034675"/>
      </g>
     </g>
     <g id="text_19">
      <!-- 60 -->
      <defs>
       <path d="M 33.015625 40.375 
Q 26.375 40.375 22.484375 35.828125 
Q 18.609375 31.296875 18.609375 23.390625 
Q 18.609375 15.53125 22.484375 10.953125 
Q 26.375 6.390625 33.015625 6.390625 
Q 39.65625 6.390625 43.53125 10.953125 
Q 47.40625 15.53125 47.40625 23.390625 
Q 47.40625 31.296875 43.53125 35.828125 
Q 39.65625 40.375 33.015625 40.375 
z
M 52.59375 71.296875 
L 52.59375 62.3125 
Q 48.875 64.0625 45.09375 64.984375 
Q 41.3125 65.921875 37.59375 65.921875 
Q 27.828125 65.921875 22.671875 59.328125 
Q 17.53125 52.734375 16.796875 39.40625 
Q 19.671875 43.65625 24.015625 45.921875 
Q 28.375 48.1875 33.59375 48.1875 
Q 44.578125 48.1875 50.953125 41.515625 
Q 57.328125 34.859375 57.328125 23.390625 
Q 57.328125 12.15625 50.6875 5.359375 
Q 44.046875 -1.421875 33.015625 -1.421875 
Q 20.359375 -1.421875 13.671875 8.265625 
Q 6.984375 17.96875 6.984375 36.375 
Q 6.984375 53.65625 15.1875 63.9375 
Q 23.390625 74.21875 37.203125 74.21875 
Q 40.921875 74.21875 44.703125 73.484375 
Q 48.484375 72.75 52.59375 71.296875 
z
" id="DejaVuSans-54"/>
      </defs>
      <g transform="translate(232.667727 66.833894)scale(0.1 -0.1)">
       <use xlink:href="#DejaVuSans-54"/>
       <use x="63.623047" xlink:href="#DejaVuSans-48"/>
      </g>
     </g>
    </g>
    <g id="text_20">
     <!-- prd -->
     <g transform="translate(226.58804 88.922524)rotate(-90)scale(0.1 -0.1)">
      <use xlink:href="#DejaVuSans-112"/>
      <use x="63.476562" xlink:href="#DejaVuSans-114"/>
      <use x="102.839844" xlink:href="#DejaVuSans-100"/>
     </g>
    </g>
   </g>
   <g id="line2d_21">
    <path clip-path="url(#p7fdd0c0537)" d="M 259.77124 46.280161 
L 261.261848 45.029647 
L 262.752457 55.492796 
L 264.243065 51.045242 
L 265.733674 61.503032 
L 267.224282 72.805085 
L 268.714891 76.250952 
L 270.2055 73.538445 
L 271.696108 80.165722 
L 273.186717 74.558833 
L 274.677325 83.052549 
L 276.167934 82.218761 
L 277.658542 83.413228 
L 279.149151 83.045441 
L 280.63976 84.569548 
L 282.130368 83.911196 
L 283.620977 84.634973 
L 285.111585 84.634285 
L 286.602194 85.051886 
L 288.092802 77.718788 
L 289.583411 85.507651 
L 291.07402 86.500593 
L 292.564628 86.643428 
L 294.055237 84.376583 
L 295.545845 85.883793 
L 297.036454 86.904647 
L 298.527062 87.364339 
L 300.017671 87.215326 
L 301.508279 86.268216 
L 302.998888 87.117392 
L 304.489497 86.45091 
L 305.980105 86.920613 
L 307.470714 86.2278 
L 308.961322 86.692293 
L 310.451931 85.240552 
L 311.942539 88.071834 
L 313.433148 87.491674 
L 314.923757 87.17705 
L 316.414365 88.975941 
L 317.904974 87.792118 
L 319.395582 87.283283 
L 320.886191 84.061382 
L 322.376799 86.696684 
L 323.867408 88.116028 
L 325.358017 89.210662 
L 326.848625 89.633213 
L 328.339234 88.287296 
L 329.829842 87.866309 
L 331.320451 77.25651 
L 332.811059 89.252512 
L 334.301668 89.973628 
L 335.792276 86.928409 
L 337.282885 82.127545 
L 338.773494 88.295614 
L 340.264102 90.083954 
L 341.754711 87.982236 
L 343.245319 82.300265 
L 344.735928 89.677239 
L 346.226536 90.168546 
L 347.717145 86.006104 
L 349.207754 90.79718 
L 350.698362 89.870223 
L 352.188971 87.791988 
L 353.679579 91.230244 
L 355.170188 85.955509 
L 356.660796 84.953524 
L 358.151405 91.045914 
L 359.642014 90.667483 
L 361.132622 90.0534 
L 362.623231 90.82673 
L 364.113839 90.931028 
L 365.604448 89.550723 
L 367.095056 91.465878 
L 368.585665 90.63116 
L 370.076273 92.248605 
L 371.566882 92.345161 
L 373.057491 92.670839 
L 374.548099 92.566485 
L 376.038708 91.272336 
L 377.529316 89.094139 
L 379.019925 92.766019 
L 380.510533 92.930644 
L 382.001142 89.420486 
L 383.491751 93.656077 
L 384.982359 93.280753 
L 386.472968 87.666105 
L 387.963576 93.874441 
L 389.454185 93.354869 
L 390.944793 92.539466 
L 392.435402 92.140548 
L 393.926011 93.067654 
L 395.416619 94.768593 
L 396.907228 92.306773 
L 398.397836 94.903966 
L 399.888445 86.146873 
L 401.379053 95.457071 
L 402.869662 95.353275 
L 404.36027 95.139302 
L 405.850879 90.994388 
L 407.341488 89.957978 
" style="fill:none;stroke:#1f77b4;stroke-linecap:square;stroke-width:1.5;"/>
   </g>
   <g id="line2d_22">
    <path clip-path="url(#p7fdd0c0537)" d="M 259.77124 71.977141 
L 261.261848 87.455128 
L 262.752457 92.35988 
L 264.243065 97.38847 
L 265.733674 96.07962 
L 267.224282 97.782754 
L 268.714891 98.778376 
L 270.2055 101.135879 
L 271.696108 98.105045 
L 273.186717 100.760946 
L 274.677325 102.219218 
L 276.167934 102.363095 
L 277.658542 102.382671 
L 279.149151 102.879021 
L 280.63976 104.514032 
L 282.130368 105.484327 
L 283.620977 104.029795 
L 285.111585 105.230272 
L 286.602194 105.301187 
L 288.092802 99.703305 
L 289.583411 102.783934 
L 291.07402 106.480097 
L 292.564628 108.208911 
L 294.055237 106.505925 
L 295.545845 101.301118 
L 297.036454 106.794107 
L 298.527062 105.320149 
L 300.017671 107.252143 
L 301.508279 106.17848 
L 302.998888 105.208482 
L 304.489497 105.611085 
L 305.980105 104.653368 
L 307.470714 103.78283 
L 308.961322 104.365819 
L 310.451931 104.597991 
L 311.942539 106.398538 
L 313.433148 107.151939 
L 314.923757 107.452961 
L 316.414365 103.44757 
L 317.904974 107.782415 
L 319.395582 106.325148 
L 320.886191 107.172333 
L 322.376799 105.121025 
L 323.867408 107.167328 
L 325.358017 105.087456 
L 326.848625 108.365423 
L 328.339234 109.055928 
L 329.829842 106.596304 
L 331.320451 106.596434 
L 332.811059 105.691509 
L 334.301668 105.500423 
L 335.792276 109.220311 
L 337.282885 109.690554 
L 338.773494 105.970982 
L 340.264102 106.468058 
L 341.754711 109.04013 
L 343.245319 106.663665 
L 344.735928 107.70508 
L 346.226536 111.102678 
L 347.717145 110.885355 
L 349.207754 109.012237 
L 350.698362 110.247603 
L 352.188971 105.615849 
L 353.679579 106.977303 
L 355.170188 104.388167 
L 356.660796 109.153751 
L 358.151405 111.020729 
L 359.642014 110.961555 
L 361.132622 112.066498 
L 362.623231 105.919922 
L 364.113839 105.498916 
L 365.604448 110.055122 
L 367.095056 110.518461 
L 368.585665 111.925152 
L 370.076273 110.573839 
L 371.566882 106.676746 
L 373.057491 108.160232 
L 374.548099 110.184262 
L 376.038708 111.111945 
L 377.529316 109.202764 
L 379.019925 110.042729 
L 380.510533 111.620744 
L 382.001142 111.156176 
L 383.491751 111.339651 
L 384.982359 112.70866 
L 386.472968 109.560242 
L 387.963576 108.242908 
L 389.454185 107.973036 
L 390.944793 112.456671 
L 392.435402 104.383496 
L 393.926011 111.807642 
L 395.416619 111.772715 
L 396.907228 109.373102 
L 398.397836 112.901644 
L 399.888445 111.536803 
L 401.379053 111.17404 
L 402.869662 116.182588 
L 404.36027 114.64192 
L 405.850879 109.198689 
L 407.341488 110.419355 
" style="fill:none;stroke:#ff7f0e;stroke-linecap:square;stroke-width:1.5;"/>
   </g>
   <g id="patch_9">
    <path d="M 252.392727 119.740235 
L 252.392727 41.472 
" style="fill:none;stroke:#000000;stroke-linecap:square;stroke-linejoin:miter;stroke-width:0.8;"/>
   </g>
   <g id="patch_10">
    <path d="M 414.72 119.740235 
L 414.72 41.472 
" style="fill:none;stroke:#000000;stroke-linecap:square;stroke-linejoin:miter;stroke-width:0.8;"/>
   </g>
   <g id="patch_11">
    <path d="M 252.392727 119.740235 
L 414.72 119.740235 
" style="fill:none;stroke:#000000;stroke-linecap:square;stroke-linejoin:miter;stroke-width:0.8;"/>
   </g>
   <g id="patch_12">
    <path d="M 252.392727 41.472 
L 414.72 41.472 
" style="fill:none;stroke:#000000;stroke-linecap:square;stroke-linejoin:miter;stroke-width:0.8;"/>
   </g>
   <g id="legend_2">
    <g id="patch_13">
     <path d="M 326.485625 78.82825 
L 407.72 78.82825 
Q 409.72 78.82825 409.72 76.82825 
L 409.72 48.472 
Q 409.72 46.472 407.72 46.472 
L 326.485625 46.472 
Q 324.485625 46.472 324.485625 48.472 
L 324.485625 76.82825 
Q 324.485625 78.82825 326.485625 78.82825 
z
" style="fill:#ffffff;opacity:0.8;stroke:#cccccc;stroke-linejoin:miter;"/>
    </g>
    <g id="line2d_23">
     <path d="M 328.485625 54.570437 
L 348.485625 54.570437 
" style="fill:none;stroke:#1f77b4;stroke-linecap:square;stroke-width:1.5;"/>
    </g>
    <g id="line2d_24"/>
    <g id="text_21">
     <!-- validation -->
     <g transform="translate(356.485625 58.070437)scale(0.1 -0.1)">
      <use xlink:href="#DejaVuSans-118"/>
      <use x="59.179688" xlink:href="#DejaVuSans-97"/>
      <use x="120.458984" xlink:href="#DejaVuSans-108"/>
      <use x="148.242188" xlink:href="#DejaVuSans-105"/>
      <use x="176.025391" xlink:href="#DejaVuSans-100"/>
      <use x="239.501953" xlink:href="#DejaVuSans-97"/>
      <use x="300.78125" xlink:href="#DejaVuSans-116"/>
      <use x="339.990234" xlink:href="#DejaVuSans-105"/>
      <use x="367.773438" xlink:href="#DejaVuSans-111"/>
      <use x="428.955078" xlink:href="#DejaVuSans-110"/>
     </g>
    </g>
    <g id="line2d_25">
     <path d="M 328.485625 69.248562 
L 348.485625 69.248562 
" style="fill:none;stroke:#ff7f0e;stroke-linecap:square;stroke-width:1.5;"/>
    </g>
    <g id="line2d_26"/>
    <g id="text_22">
     <!-- training -->
     <g transform="translate(356.485625 72.748562)scale(0.1 -0.1)">
      <use xlink:href="#DejaVuSans-116"/>
      <use x="39.208984" xlink:href="#DejaVuSans-114"/>
      <use x="80.322266" xlink:href="#DejaVuSans-97"/>
      <use x="141.601562" xlink:href="#DejaVuSans-105"/>
      <use x="169.384766" xlink:href="#DejaVuSans-110"/>
      <use x="232.763672" xlink:href="#DejaVuSans-105"/>
      <use x="260.546875" xlink:href="#DejaVuSans-110"/>
      <use x="323.925781" xlink:href="#DejaVuSans-103"/>
     </g>
    </g>
   </g>
  </g>
  <g id="axes_3">
   <g id="patch_14">
    <path d="M 57.6 213.662118 
L 219.927273 213.662118 
L 219.927273 135.393882 
L 57.6 135.393882 
z
" style="fill:#ffffff;"/>
   </g>
   <g id="matplotlib.axis_5">
    <g id="xtick_11">
     <g id="line2d_27">
      <g>
       <use style="stroke:#000000;stroke-width:0.8;" x="64.978512" xlink:href="#m7e9cd94824" y="213.662118"/>
      </g>
     </g>
     <g id="text_23">
      <!-- 0 -->
      <g transform="translate(61.797262 228.260555)scale(0.1 -0.1)">
       <use xlink:href="#DejaVuSans-48"/>
      </g>
     </g>
    </g>
    <g id="xtick_12">
     <g id="line2d_28">
      <g>
       <use style="stroke:#000000;stroke-width:0.8;" x="102.243727" xlink:href="#m7e9cd94824" y="213.662118"/>
      </g>
     </g>
     <g id="text_24">
      <!-- 25 -->
      <g transform="translate(95.881227 228.260555)scale(0.1 -0.1)">
       <use xlink:href="#DejaVuSans-50"/>
       <use x="63.623047" xlink:href="#DejaVuSans-53"/>
      </g>
     </g>
    </g>
    <g id="xtick_13">
     <g id="line2d_29">
      <g>
       <use style="stroke:#000000;stroke-width:0.8;" x="139.508941" xlink:href="#m7e9cd94824" y="213.662118"/>
      </g>
     </g>
     <g id="text_25">
      <!-- 50 -->
      <g transform="translate(133.146441 228.260555)scale(0.1 -0.1)">
       <use xlink:href="#DejaVuSans-53"/>
       <use x="63.623047" xlink:href="#DejaVuSans-48"/>
      </g>
     </g>
    </g>
    <g id="xtick_14">
     <g id="line2d_30">
      <g>
       <use style="stroke:#000000;stroke-width:0.8;" x="176.774155" xlink:href="#m7e9cd94824" y="213.662118"/>
      </g>
     </g>
     <g id="text_26">
      <!-- 75 -->
      <g transform="translate(170.411655 228.260555)scale(0.1 -0.1)">
       <use xlink:href="#DejaVuSans-55"/>
       <use x="63.623047" xlink:href="#DejaVuSans-53"/>
      </g>
     </g>
    </g>
    <g id="xtick_15">
     <g id="line2d_31">
      <g>
       <use style="stroke:#000000;stroke-width:0.8;" x="214.039369" xlink:href="#m7e9cd94824" y="213.662118"/>
      </g>
     </g>
     <g id="text_27">
      <!-- 100 -->
      <g transform="translate(204.495619 228.260555)scale(0.1 -0.1)">
       <use xlink:href="#DejaVuSans-49"/>
       <use x="63.623047" xlink:href="#DejaVuSans-48"/>
       <use x="127.246094" xlink:href="#DejaVuSans-48"/>
      </g>
     </g>
    </g>
    <g id="text_28">
     <!-- # epochs -->
     <g transform="translate(115.151918 241.93868)scale(0.1 -0.1)">
      <use xlink:href="#DejaVuSans-35"/>
      <use x="83.789062" xlink:href="#DejaVuSans-32"/>
      <use x="115.576172" xlink:href="#DejaVuSans-101"/>
      <use x="177.099609" xlink:href="#DejaVuSans-112"/>
      <use x="240.576172" xlink:href="#DejaVuSans-111"/>
      <use x="301.757812" xlink:href="#DejaVuSans-99"/>
      <use x="356.738281" xlink:href="#DejaVuSans-104"/>
      <use x="420.117188" xlink:href="#DejaVuSans-115"/>
     </g>
    </g>
   </g>
   <g id="matplotlib.axis_6">
    <g id="ytick_5">
     <g id="line2d_32">
      <g>
       <use style="stroke:#000000;stroke-width:0.8;" x="57.6" xlink:href="#m0486071193" y="212.090929"/>
      </g>
     </g>
     <g id="text_29">
      <!-- 50 -->
      <g transform="translate(37.875 215.890148)scale(0.1 -0.1)">
       <use xlink:href="#DejaVuSans-53"/>
       <use x="63.623047" xlink:href="#DejaVuSans-48"/>
      </g>
     </g>
    </g>
    <g id="ytick_6">
     <g id="line2d_33">
      <g>
       <use style="stroke:#000000;stroke-width:0.8;" x="57.6" xlink:href="#m0486071193" y="164.870425"/>
      </g>
     </g>
     <g id="text_30">
      <!-- 60 -->
      <g transform="translate(37.875 168.669643)scale(0.1 -0.1)">
       <use xlink:href="#DejaVuSans-54"/>
       <use x="63.623047" xlink:href="#DejaVuSans-48"/>
      </g>
     </g>
    </g>
    <g id="text_31">
     <!-- prdn -->
     <g transform="translate(31.795313 186.013156)rotate(-90)scale(0.1 -0.1)">
      <use xlink:href="#DejaVuSans-112"/>
      <use x="63.476562" xlink:href="#DejaVuSans-114"/>
      <use x="102.839844" xlink:href="#DejaVuSans-100"/>
      <use x="166.316406" xlink:href="#DejaVuSans-110"/>
     </g>
    </g>
   </g>
   <g id="line2d_34">
    <path clip-path="url(#p4d47f236d9)" d="M 64.978512 140.192314 
L 66.469121 138.951529 
L 67.95973 149.366848 
L 69.450338 144.941889 
L 70.940947 155.348723 
L 72.431555 166.590721 
L 73.922164 170.013966 
L 75.412772 167.319444 
L 76.903381 173.905176 
L 78.393989 168.3322 
L 79.884598 176.773579 
L 81.375207 175.948016 
L 82.865815 177.133933 
L 84.356424 176.756448 
L 85.847032 178.281103 
L 87.337641 177.617875 
L 88.828249 178.337088 
L 90.318858 178.335575 
L 91.809467 178.763262 
L 93.300075 171.438791 
L 94.790684 179.215051 
L 96.281292 180.200877 
L 97.771901 180.339849 
L 99.262509 178.075716 
L 100.753118 179.583655 
L 102.243727 180.605723 
L 103.734335 181.060052 
L 105.224944 180.907444 
L 106.715552 179.960977 
L 108.206161 180.817757 
L 109.696769 180.153466 
L 111.187378 180.61201 
L 112.677986 179.920682 
L 114.168595 180.398085 
L 115.659204 178.935954 
L 117.149812 181.760477 
L 118.640421 181.185388 
L 120.131029 180.865906 
L 121.621638 182.663118 
L 123.112246 181.492801 
L 124.602855 180.972562 
L 126.093464 177.759387 
L 127.584072 180.387349 
L 129.074681 181.815814 
L 130.565289 182.90291 
L 132.055898 183.319699 
L 133.546506 181.97723 
L 135.037115 181.551992 
L 136.527724 170.981328 
L 138.018332 182.947601 
L 139.508941 183.660311 
L 140.999549 180.618945 
L 142.490158 175.830966 
L 143.980766 181.986489 
L 145.471375 183.768138 
L 146.961983 181.668376 
L 148.452592 176.003983 
L 149.943201 183.359616 
L 151.433809 183.848909 
L 152.924418 179.698237 
L 154.415026 184.476632 
L 155.905635 183.55061 
L 157.396243 181.478931 
L 158.886852 184.912534 
L 160.377461 179.64825 
L 161.868069 178.649635 
L 163.358678 184.723431 
L 164.849286 184.344884 
L 166.339895 183.731643 
L 167.830503 184.513866 
L 169.321112 184.608453 
L 170.811721 183.231308 
L 172.302329 185.1424 
L 173.792938 184.308317 
L 175.283546 185.923686 
L 176.774155 186.019048 
L 178.264763 186.345609 
L 179.755372 186.238935 
L 181.24598 184.947461 
L 182.736589 182.774368 
L 184.227198 186.443097 
L 185.717806 186.599902 
L 187.208415 183.098425 
L 188.699023 187.325167 
L 190.189632 186.95332 
L 191.68024 181.350407 
L 193.170849 187.546783 
L 194.661458 187.031534 
L 196.152066 186.210366 
L 197.642675 185.810978 
L 199.133283 186.740837 
L 200.623892 188.436311 
L 202.1145 185.978032 
L 203.605109 188.573373 
L 205.095718 179.842342 
L 206.586326 189.12382 
L 208.076935 189.015597 
L 209.567543 188.801024 
L 211.058152 184.668005 
L 212.54876 183.635903 
" style="fill:none;stroke:#1f77b4;stroke-linecap:square;stroke-width:1.5;"/>
   </g>
   <g id="line2d_35">
    <path clip-path="url(#p4d47f236d9)" d="M 64.978512 166.216479 
L 66.469121 181.321982 
L 67.95973 186.037115 
L 69.450338 191.959061 
L 70.940947 189.190487 
L 72.431555 191.094409 
L 73.922164 192.218829 
L 75.412772 194.433281 
L 76.903381 190.325859 
L 78.393989 193.750221 
L 79.884598 195.689809 
L 81.375207 195.886063 
L 82.865815 195.602625 
L 84.356424 196.417722 
L 85.847032 197.832893 
L 87.337641 199.088052 
L 88.828249 197.180509 
L 90.318858 199.070669 
L 91.809467 199.039038 
L 93.300075 191.974192 
L 94.790684 195.8462 
L 96.281292 200.544509 
L 97.771901 202.183962 
L 99.262509 200.097926 
L 100.753118 193.957228 
L 102.243727 200.737898 
L 103.734335 198.787736 
L 105.224944 201.090146 
L 106.715552 199.147171 
L 108.206161 198.19004 
L 109.696769 198.206991 
L 111.187378 197.146554 
L 112.677986 196.109048 
L 114.168595 197.254831 
L 115.659204 197.598325 
L 117.149812 199.287836 
L 118.640421 200.40487 
L 120.131029 200.677338 
L 121.621638 194.791167 
L 123.112246 200.948941 
L 124.602855 200.241743 
L 126.093464 200.516048 
L 127.584072 197.660344 
L 129.074681 200.57378 
L 130.565289 197.387499 
L 132.055898 201.951177 
L 133.546506 202.589853 
L 135.037115 199.333752 
L 136.527724 199.457016 
L 138.018332 199.55009 
L 139.508941 198.354969 
L 140.999549 202.789889 
L 142.490158 203.168058 
L 143.980766 199.40177 
L 145.471375 198.804885 
L 146.961983 202.769715 
L 148.452592 199.584784 
L 149.943201 200.565188 
L 151.433809 205.140323 
L 152.924418 204.925371 
L 154.415026 202.764166 
L 155.905635 203.929764 
L 157.396243 198.352015 
L 158.886852 200.279265 
L 160.377461 196.37051 
L 161.868069 202.693321 
L 163.358678 204.413418 
L 164.849286 204.564927 
L 166.339895 205.735695 
L 167.830503 197.526795 
L 169.321112 198.017762 
L 170.811721 203.640292 
L 172.302329 203.926738 
L 173.792938 205.534037 
L 175.283546 204.049264 
L 176.774155 198.333551 
L 178.264763 200.119307 
L 179.755372 203.837465 
L 181.24598 204.531873 
L 182.736589 201.795795 
L 184.227198 202.759699 
L 185.717806 204.926326 
L 187.208415 204.654255 
L 188.699023 204.649751 
L 190.189632 206.468868 
L 191.68024 202.902904 
L 193.170849 200.528153 
L 194.661458 200.598945 
L 196.152066 206.036533 
L 197.642675 195.040361 
L 199.133283 205.404955 
L 200.623892 204.616751 
L 202.1145 201.454463 
L 203.605109 206.521556 
L 205.095718 204.253641 
L 206.586326 204.939872 
L 208.076935 210.104471 
L 209.567543 208.239529 
L 211.058152 201.865344 
L 212.54876 202.416404 
" style="fill:none;stroke:#ff7f0e;stroke-linecap:square;stroke-width:1.5;"/>
   </g>
   <g id="patch_15">
    <path d="M 57.6 213.662118 
L 57.6 135.393882 
" style="fill:none;stroke:#000000;stroke-linecap:square;stroke-linejoin:miter;stroke-width:0.8;"/>
   </g>
   <g id="patch_16">
    <path d="M 219.927273 213.662118 
L 219.927273 135.393882 
" style="fill:none;stroke:#000000;stroke-linecap:square;stroke-linejoin:miter;stroke-width:0.8;"/>
   </g>
   <g id="patch_17">
    <path d="M 57.6 213.662118 
L 219.927273 213.662118 
" style="fill:none;stroke:#000000;stroke-linecap:square;stroke-linejoin:miter;stroke-width:0.8;"/>
   </g>
   <g id="patch_18">
    <path d="M 57.6 135.393882 
L 219.927273 135.393882 
" style="fill:none;stroke:#000000;stroke-linecap:square;stroke-linejoin:miter;stroke-width:0.8;"/>
   </g>
   <g id="legend_3">
    <g id="patch_19">
     <path d="M 131.692898 172.750132 
L 212.927273 172.750132 
Q 214.927273 172.750132 214.927273 170.750132 
L 214.927273 142.393882 
Q 214.927273 140.393882 212.927273 140.393882 
L 131.692898 140.393882 
Q 129.692898 140.393882 129.692898 142.393882 
L 129.692898 170.750132 
Q 129.692898 172.750132 131.692898 172.750132 
z
" style="fill:#ffffff;opacity:0.8;stroke:#cccccc;stroke-linejoin:miter;"/>
    </g>
    <g id="line2d_36">
     <path d="M 133.692898 148.49232 
L 153.692898 148.49232 
" style="fill:none;stroke:#1f77b4;stroke-linecap:square;stroke-width:1.5;"/>
    </g>
    <g id="line2d_37"/>
    <g id="text_32">
     <!-- validation -->
     <g transform="translate(161.692898 151.99232)scale(0.1 -0.1)">
      <use xlink:href="#DejaVuSans-118"/>
      <use x="59.179688" xlink:href="#DejaVuSans-97"/>
      <use x="120.458984" xlink:href="#DejaVuSans-108"/>
      <use x="148.242188" xlink:href="#DejaVuSans-105"/>
      <use x="176.025391" xlink:href="#DejaVuSans-100"/>
      <use x="239.501953" xlink:href="#DejaVuSans-97"/>
      <use x="300.78125" xlink:href="#DejaVuSans-116"/>
      <use x="339.990234" xlink:href="#DejaVuSans-105"/>
      <use x="367.773438" xlink:href="#DejaVuSans-111"/>
      <use x="428.955078" xlink:href="#DejaVuSans-110"/>
     </g>
    </g>
    <g id="line2d_38">
     <path d="M 133.692898 163.170445 
L 153.692898 163.170445 
" style="fill:none;stroke:#ff7f0e;stroke-linecap:square;stroke-width:1.5;"/>
    </g>
    <g id="line2d_39"/>
    <g id="text_33">
     <!-- training -->
     <g transform="translate(161.692898 166.670445)scale(0.1 -0.1)">
      <use xlink:href="#DejaVuSans-116"/>
      <use x="39.208984" xlink:href="#DejaVuSans-114"/>
      <use x="80.322266" xlink:href="#DejaVuSans-97"/>
      <use x="141.601562" xlink:href="#DejaVuSans-105"/>
      <use x="169.384766" xlink:href="#DejaVuSans-110"/>
      <use x="232.763672" xlink:href="#DejaVuSans-105"/>
      <use x="260.546875" xlink:href="#DejaVuSans-110"/>
      <use x="323.925781" xlink:href="#DejaVuSans-103"/>
     </g>
    </g>
   </g>
  </g>
  <g id="axes_4">
   <g id="patch_20">
    <path d="M 252.392727 213.662118 
L 414.72 213.662118 
L 414.72 135.393882 
L 252.392727 135.393882 
z
" style="fill:#ffffff;"/>
   </g>
   <g id="matplotlib.axis_7">
    <g id="xtick_16">
     <g id="line2d_40">
      <g>
       <use style="stroke:#000000;stroke-width:0.8;" x="259.77124" xlink:href="#m7e9cd94824" y="213.662118"/>
      </g>
     </g>
     <g id="text_34">
      <!-- 0 -->
      <g transform="translate(256.58999 228.260555)scale(0.1 -0.1)">
       <use xlink:href="#DejaVuSans-48"/>
      </g>
     </g>
    </g>
    <g id="xtick_17">
     <g id="line2d_41">
      <g>
       <use style="stroke:#000000;stroke-width:0.8;" x="297.036454" xlink:href="#m7e9cd94824" y="213.662118"/>
      </g>
     </g>
     <g id="text_35">
      <!-- 25 -->
      <g transform="translate(290.673954 228.260555)scale(0.1 -0.1)">
       <use xlink:href="#DejaVuSans-50"/>
       <use x="63.623047" xlink:href="#DejaVuSans-53"/>
      </g>
     </g>
    </g>
    <g id="xtick_18">
     <g id="line2d_42">
      <g>
       <use style="stroke:#000000;stroke-width:0.8;" x="334.301668" xlink:href="#m7e9cd94824" y="213.662118"/>
      </g>
     </g>
     <g id="text_36">
      <!-- 50 -->
      <g transform="translate(327.939168 228.260555)scale(0.1 -0.1)">
       <use xlink:href="#DejaVuSans-53"/>
       <use x="63.623047" xlink:href="#DejaVuSans-48"/>
      </g>
     </g>
    </g>
    <g id="xtick_19">
     <g id="line2d_43">
      <g>
       <use style="stroke:#000000;stroke-width:0.8;" x="371.566882" xlink:href="#m7e9cd94824" y="213.662118"/>
      </g>
     </g>
     <g id="text_37">
      <!-- 75 -->
      <g transform="translate(365.204382 228.260555)scale(0.1 -0.1)">
       <use xlink:href="#DejaVuSans-55"/>
       <use x="63.623047" xlink:href="#DejaVuSans-53"/>
      </g>
     </g>
    </g>
    <g id="xtick_20">
     <g id="line2d_44">
      <g>
       <use style="stroke:#000000;stroke-width:0.8;" x="408.832096" xlink:href="#m7e9cd94824" y="213.662118"/>
      </g>
     </g>
     <g id="text_38">
      <!-- 100 -->
      <g transform="translate(399.288346 228.260555)scale(0.1 -0.1)">
       <use xlink:href="#DejaVuSans-49"/>
       <use x="63.623047" xlink:href="#DejaVuSans-48"/>
       <use x="127.246094" xlink:href="#DejaVuSans-48"/>
      </g>
     </g>
    </g>
    <g id="text_39">
     <!-- # epochs -->
     <g transform="translate(309.944645 241.93868)scale(0.1 -0.1)">
      <use xlink:href="#DejaVuSans-35"/>
      <use x="83.789062" xlink:href="#DejaVuSans-32"/>
      <use x="115.576172" xlink:href="#DejaVuSans-101"/>
      <use x="177.099609" xlink:href="#DejaVuSans-112"/>
      <use x="240.576172" xlink:href="#DejaVuSans-111"/>
      <use x="301.757812" xlink:href="#DejaVuSans-99"/>
      <use x="356.738281" xlink:href="#DejaVuSans-104"/>
      <use x="420.117188" xlink:href="#DejaVuSans-115"/>
     </g>
    </g>
   </g>
   <g id="matplotlib.axis_8">
    <g id="ytick_7">
     <g id="line2d_45">
      <g>
       <use style="stroke:#000000;stroke-width:0.8;" x="252.392727" xlink:href="#m0486071193" y="204.951323"/>
      </g>
     </g>
     <g id="text_40">
      <!-- 0.275 -->
      <g transform="translate(216.764602 208.750542)scale(0.1 -0.1)">
       <use xlink:href="#DejaVuSans-48"/>
       <use x="63.623047" xlink:href="#DejaVuSans-46"/>
       <use x="95.410156" xlink:href="#DejaVuSans-50"/>
       <use x="159.033203" xlink:href="#DejaVuSans-55"/>
       <use x="222.65625" xlink:href="#DejaVuSans-53"/>
      </g>
     </g>
    </g>
    <g id="ytick_8">
     <g id="line2d_46">
      <g>
       <use style="stroke:#000000;stroke-width:0.8;" x="252.392727" xlink:href="#m0486071193" y="180.654586"/>
      </g>
     </g>
     <g id="text_41">
      <!-- 0.300 -->
      <defs>
       <path d="M 40.578125 39.3125 
Q 47.65625 37.796875 51.625 33 
Q 55.609375 28.21875 55.609375 21.1875 
Q 55.609375 10.40625 48.1875 4.484375 
Q 40.765625 -1.421875 27.09375 -1.421875 
Q 22.515625 -1.421875 17.65625 -0.515625 
Q 12.796875 0.390625 7.625 2.203125 
L 7.625 11.71875 
Q 11.71875 9.328125 16.59375 8.109375 
Q 21.484375 6.890625 26.8125 6.890625 
Q 36.078125 6.890625 40.9375 10.546875 
Q 45.796875 14.203125 45.796875 21.1875 
Q 45.796875 27.640625 41.28125 31.265625 
Q 36.765625 34.90625 28.71875 34.90625 
L 20.21875 34.90625 
L 20.21875 43.015625 
L 29.109375 43.015625 
Q 36.375 43.015625 40.234375 45.921875 
Q 44.09375 48.828125 44.09375 54.296875 
Q 44.09375 59.90625 40.109375 62.90625 
Q 36.140625 65.921875 28.71875 65.921875 
Q 24.65625 65.921875 20.015625 65.03125 
Q 15.375 64.15625 9.8125 62.3125 
L 9.8125 71.09375 
Q 15.4375 72.65625 20.34375 73.4375 
Q 25.25 74.21875 29.59375 74.21875 
Q 40.828125 74.21875 47.359375 69.109375 
Q 53.90625 64.015625 53.90625 55.328125 
Q 53.90625 49.265625 50.4375 45.09375 
Q 46.96875 40.921875 40.578125 39.3125 
z
" id="DejaVuSans-51"/>
      </defs>
      <g transform="translate(216.764602 184.453805)scale(0.1 -0.1)">
       <use xlink:href="#DejaVuSans-48"/>
       <use x="63.623047" xlink:href="#DejaVuSans-46"/>
       <use x="95.410156" xlink:href="#DejaVuSans-51"/>
       <use x="159.033203" xlink:href="#DejaVuSans-48"/>
       <use x="222.65625" xlink:href="#DejaVuSans-48"/>
      </g>
     </g>
    </g>
    <g id="ytick_9">
     <g id="line2d_47">
      <g>
       <use style="stroke:#000000;stroke-width:0.8;" x="252.392727" xlink:href="#m0486071193" y="156.357849"/>
      </g>
     </g>
     <g id="text_42">
      <!-- 0.325 -->
      <g transform="translate(216.764602 160.157067)scale(0.1 -0.1)">
       <use xlink:href="#DejaVuSans-48"/>
       <use x="63.623047" xlink:href="#DejaVuSans-46"/>
       <use x="95.410156" xlink:href="#DejaVuSans-51"/>
       <use x="159.033203" xlink:href="#DejaVuSans-50"/>
       <use x="222.65625" xlink:href="#DejaVuSans-53"/>
      </g>
     </g>
    </g>
    <g id="text_43">
     <!-- root_mean_squared_error -->
     <defs>
      <path d="M 50.984375 -16.609375 
L 50.984375 -23.578125 
L -0.984375 -23.578125 
L -0.984375 -16.609375 
z
" id="DejaVuSans-95"/>
      <path d="M 52 44.1875 
Q 55.375 50.25 60.0625 53.125 
Q 64.75 56 71.09375 56 
Q 79.640625 56 84.28125 50.015625 
Q 88.921875 44.046875 88.921875 33.015625 
L 88.921875 0 
L 79.890625 0 
L 79.890625 32.71875 
Q 79.890625 40.578125 77.09375 44.375 
Q 74.3125 48.1875 68.609375 48.1875 
Q 61.625 48.1875 57.5625 43.546875 
Q 53.515625 38.921875 53.515625 30.90625 
L 53.515625 0 
L 44.484375 0 
L 44.484375 32.71875 
Q 44.484375 40.625 41.703125 44.40625 
Q 38.921875 48.1875 33.109375 48.1875 
Q 26.21875 48.1875 22.15625 43.53125 
Q 18.109375 38.875 18.109375 30.90625 
L 18.109375 0 
L 9.078125 0 
L 9.078125 54.6875 
L 18.109375 54.6875 
L 18.109375 46.1875 
Q 21.1875 51.21875 25.484375 53.609375 
Q 29.78125 56 35.6875 56 
Q 41.65625 56 45.828125 52.96875 
Q 50 49.953125 52 44.1875 
z
" id="DejaVuSans-109"/>
      <path d="M 14.796875 27.296875 
Q 14.796875 17.390625 18.875 11.75 
Q 22.953125 6.109375 30.078125 6.109375 
Q 37.203125 6.109375 41.296875 11.75 
Q 45.40625 17.390625 45.40625 27.296875 
Q 45.40625 37.203125 41.296875 42.84375 
Q 37.203125 48.484375 30.078125 48.484375 
Q 22.953125 48.484375 18.875 42.84375 
Q 14.796875 37.203125 14.796875 27.296875 
z
M 45.40625 8.203125 
Q 42.578125 3.328125 38.25 0.953125 
Q 33.9375 -1.421875 27.875 -1.421875 
Q 17.96875 -1.421875 11.734375 6.484375 
Q 5.515625 14.40625 5.515625 27.296875 
Q 5.515625 40.1875 11.734375 48.09375 
Q 17.96875 56 27.875 56 
Q 33.9375 56 38.25 53.625 
Q 42.578125 51.265625 45.40625 46.390625 
L 45.40625 54.6875 
L 54.390625 54.6875 
L 54.390625 -20.796875 
L 45.40625 -20.796875 
z
" id="DejaVuSans-113"/>
      <path d="M 8.5 21.578125 
L 8.5 54.6875 
L 17.484375 54.6875 
L 17.484375 21.921875 
Q 17.484375 14.15625 20.5 10.265625 
Q 23.53125 6.390625 29.59375 6.390625 
Q 36.859375 6.390625 41.078125 11.03125 
Q 45.3125 15.671875 45.3125 23.6875 
L 45.3125 54.6875 
L 54.296875 54.6875 
L 54.296875 0 
L 45.3125 0 
L 45.3125 8.40625 
Q 42.046875 3.421875 37.71875 1 
Q 33.40625 -1.421875 27.6875 -1.421875 
Q 18.265625 -1.421875 13.375 4.4375 
Q 8.5 10.296875 8.5 21.578125 
z
M 31.109375 56 
z
" id="DejaVuSans-117"/>
     </defs>
     <g transform="translate(210.40679 238.537375)rotate(-90)scale(0.1 -0.1)">
      <use xlink:href="#DejaVuSans-114"/>
      <use x="38.863281" xlink:href="#DejaVuSans-111"/>
      <use x="100.044922" xlink:href="#DejaVuSans-111"/>
      <use x="161.226562" xlink:href="#DejaVuSans-116"/>
      <use x="200.435547" xlink:href="#DejaVuSans-95"/>
      <use x="250.435547" xlink:href="#DejaVuSans-109"/>
      <use x="347.847656" xlink:href="#DejaVuSans-101"/>
      <use x="409.371094" xlink:href="#DejaVuSans-97"/>
      <use x="470.650391" xlink:href="#DejaVuSans-110"/>
      <use x="534.029297" xlink:href="#DejaVuSans-95"/>
      <use x="584.029297" xlink:href="#DejaVuSans-115"/>
      <use x="636.128906" xlink:href="#DejaVuSans-113"/>
      <use x="699.605469" xlink:href="#DejaVuSans-117"/>
      <use x="762.984375" xlink:href="#DejaVuSans-97"/>
      <use x="824.263672" xlink:href="#DejaVuSans-114"/>
      <use x="863.126953" xlink:href="#DejaVuSans-101"/>
      <use x="924.650391" xlink:href="#DejaVuSans-100"/>
      <use x="988.126953" xlink:href="#DejaVuSans-95"/>
      <use x="1038.126953" xlink:href="#DejaVuSans-101"/>
      <use x="1099.650391" xlink:href="#DejaVuSans-114"/>
      <use x="1139.013672" xlink:href="#DejaVuSans-114"/>
      <use x="1177.876953" xlink:href="#DejaVuSans-111"/>
      <use x="1239.058594" xlink:href="#DejaVuSans-114"/>
     </g>
    </g>
   </g>
   <g id="line2d_48">
    <path clip-path="url(#pb03984916b)" d="M 259.77124 140.244423 
L 261.261848 138.951529 
L 262.752457 150.112968 
L 264.243065 145.351813 
L 265.733674 156.531905 
L 267.224282 168.652862 
L 268.714891 172.45838 
L 270.2055 169.487574 
L 271.696108 176.580705 
L 273.186717 170.62722 
L 274.677325 179.767234 
L 276.167934 178.833088 
L 277.658542 180.137075 
L 279.149151 179.820325 
L 280.63976 181.399528 
L 282.130368 180.742856 
L 283.620977 181.48445 
L 285.111585 181.499019 
L 286.602194 181.875174 
L 288.092802 174.132613 
L 289.583411 182.409646 
L 291.07402 183.455303 
L 292.564628 183.614055 
L 294.055237 181.233883 
L 295.545845 182.838515 
L 297.036454 183.886895 
L 298.527062 184.39223 
L 300.017671 184.227511 
L 301.508279 183.211021 
L 302.998888 184.117217 
L 304.489497 183.430365 
L 305.980105 183.901551 
L 307.470714 183.20575 
L 308.961322 183.65304 
L 310.451931 182.143351 
L 311.942539 185.151636 
L 313.433148 184.555586 
L 314.923757 184.207295 
L 316.414365 186.116599 
L 317.904974 184.786053 
L 319.395582 184.329436 
L 320.886191 180.899465 
L 322.376799 183.707463 
L 323.867408 185.174517 
L 325.358017 186.35254 
L 326.848625 186.787028 
L 328.339234 185.408199 
L 329.829842 184.932871 
L 331.320451 173.656735 
L 332.811059 186.3886 
L 334.301668 187.177694 
L 335.792276 183.961883 
L 337.282885 178.839287 
L 338.773494 185.420624 
L 340.264102 187.301805 
L 341.754711 185.074447 
L 343.245319 179.027552 
L 344.735928 186.872327 
L 346.226536 187.392201 
L 347.717145 182.980149 
L 349.207754 188.056114 
L 350.698362 187.086545 
L 352.188971 184.881286 
L 353.679579 188.501203 
L 355.170188 182.926045 
L 356.660796 181.858867 
L 358.151405 188.327014 
L 359.642014 187.92427 
L 361.132622 187.279532 
L 362.623231 188.076852 
L 364.113839 188.18929 
L 365.604448 186.744335 
L 367.095056 188.781198 
L 368.585665 187.896088 
L 370.076273 189.61255 
L 371.566882 189.717226 
L 373.057491 190.05399 
L 374.548099 189.947519 
L 376.038708 188.580535 
L 377.529316 186.252325 
L 379.019925 190.15435 
L 380.510533 190.327873 
L 382.001142 186.590566 
L 383.491751 191.102544 
L 384.982359 190.725549 
L 386.472968 184.720565 
L 387.963576 191.32658 
L 389.454185 190.799725 
L 390.944793 189.92791 
L 392.435402 189.473755 
L 393.926011 190.512316 
L 395.416619 192.309269 
L 396.907228 189.683946 
L 398.397836 192.438246 
L 399.888445 183.104115 
L 401.379053 193.026823 
L 402.869662 192.931821 
L 404.36027 192.705844 
L 405.850879 188.266073 
L 407.341488 187.166572 
" style="fill:none;stroke:#1f77b4;stroke-linecap:square;stroke-width:1.5;"/>
   </g>
   <g id="line2d_49">
    <path clip-path="url(#pb03984916b)" d="M 259.77124 161.956682 
L 261.261848 179.509484 
L 262.752457 185.009162 
L 264.243065 190.309134 
L 265.733674 189.124826 
L 267.224282 190.338503 
L 268.714891 191.858648 
L 270.2055 193.266644 
L 271.696108 189.752012 
L 273.186717 193.819509 
L 274.677325 194.417122 
L 276.167934 195.803106 
L 277.658542 195.738227 
L 279.149151 195.92461 
L 280.63976 197.872263 
L 282.130368 198.756417 
L 283.620977 196.860407 
L 285.111585 198.602676 
L 286.602194 199.411901 
L 288.092802 192.276337 
L 289.583411 195.280973 
L 291.07402 200.225817 
L 292.564628 201.689279 
L 294.055237 200.266135 
L 295.545845 194.058867 
L 297.036454 200.266888 
L 298.527062 199.035861 
L 300.017671 200.95009 
L 301.508279 199.543889 
L 302.998888 199.093297 
L 304.489497 198.994095 
L 305.980105 197.725213 
L 307.470714 196.914714 
L 308.961322 197.285105 
L 310.451931 197.871481 
L 311.942539 199.797903 
L 313.433148 200.375329 
L 314.923757 200.498802 
L 316.414365 196.808909 
L 317.904974 201.883396 
L 319.395582 200.051744 
L 320.886191 200.772222 
L 322.376799 198.827321 
L 323.867408 200.732976 
L 325.358017 197.90673 
L 326.848625 202.262737 
L 328.339234 202.294771 
L 329.829842 200.466942 
L 331.320451 199.907069 
L 332.811059 198.924466 
L 334.301668 199.151341 
L 335.792276 202.359216 
L 337.282885 203.16902 
L 338.773494 199.137786 
L 340.264102 199.315248 
L 341.754711 203.220344 
L 343.245319 200.048065 
L 344.735928 201.221077 
L 346.226536 205.209444 
L 347.717145 204.893534 
L 349.207754 202.408252 
L 350.698362 203.595919 
L 352.188971 199.261346 
L 353.679579 200.634238 
L 355.170188 198.269301 
L 356.660796 203.893814 
L 358.151405 204.731886 
L 359.642014 204.991664 
L 361.132622 204.990911 
L 362.623231 199.732184 
L 364.113839 198.776257 
L 365.604448 203.395721 
L 367.095056 204.107452 
L 368.585665 205.605671 
L 370.076273 204.474976 
L 371.566882 199.771604 
L 373.057491 201.383159 
L 374.548099 203.854684 
L 376.038708 205.226041 
L 377.529316 201.986276 
L 379.019925 203.725562 
L 380.510533 204.952765 
L 382.001142 205.364228 
L 383.491751 205.24785 
L 384.982359 206.364324 
L 386.472968 203.057827 
L 387.963576 201.862571 
L 389.454185 201.553583 
L 390.944793 206.127196 
L 392.435402 197.98192 
L 393.926011 205.775806 
L 395.416619 204.663415 
L 396.907228 203.792585 
L 398.397836 206.772369 
L 399.888445 205.24562 
L 401.379053 205.250168 
L 402.869662 210.104471 
L 404.36027 208.925521 
L 405.850879 202.241854 
L 407.341488 204.689744 
" style="fill:none;stroke:#ff7f0e;stroke-linecap:square;stroke-width:1.5;"/>
   </g>
   <g id="patch_21">
    <path d="M 252.392727 213.662118 
L 252.392727 135.393882 
" style="fill:none;stroke:#000000;stroke-linecap:square;stroke-linejoin:miter;stroke-width:0.8;"/>
   </g>
   <g id="patch_22">
    <path d="M 414.72 213.662118 
L 414.72 135.393882 
" style="fill:none;stroke:#000000;stroke-linecap:square;stroke-linejoin:miter;stroke-width:0.8;"/>
   </g>
   <g id="patch_23">
    <path d="M 252.392727 213.662118 
L 414.72 213.662118 
" style="fill:none;stroke:#000000;stroke-linecap:square;stroke-linejoin:miter;stroke-width:0.8;"/>
   </g>
   <g id="patch_24">
    <path d="M 252.392727 135.393882 
L 414.72 135.393882 
" style="fill:none;stroke:#000000;stroke-linecap:square;stroke-linejoin:miter;stroke-width:0.8;"/>
   </g>
   <g id="legend_4">
    <g id="patch_25">
     <path d="M 326.485625 172.750132 
L 407.72 172.750132 
Q 409.72 172.750132 409.72 170.750132 
L 409.72 142.393882 
Q 409.72 140.393882 407.72 140.393882 
L 326.485625 140.393882 
Q 324.485625 140.393882 324.485625 142.393882 
L 324.485625 170.750132 
Q 324.485625 172.750132 326.485625 172.750132 
z
" style="fill:#ffffff;opacity:0.8;stroke:#cccccc;stroke-linejoin:miter;"/>
    </g>
    <g id="line2d_50">
     <path d="M 328.485625 148.49232 
L 348.485625 148.49232 
" style="fill:none;stroke:#1f77b4;stroke-linecap:square;stroke-width:1.5;"/>
    </g>
    <g id="line2d_51"/>
    <g id="text_44">
     <!-- validation -->
     <g transform="translate(356.485625 151.99232)scale(0.1 -0.1)">
      <use xlink:href="#DejaVuSans-118"/>
      <use x="59.179688" xlink:href="#DejaVuSans-97"/>
      <use x="120.458984" xlink:href="#DejaVuSans-108"/>
      <use x="148.242188" xlink:href="#DejaVuSans-105"/>
      <use x="176.025391" xlink:href="#DejaVuSans-100"/>
      <use x="239.501953" xlink:href="#DejaVuSans-97"/>
      <use x="300.78125" xlink:href="#DejaVuSans-116"/>
      <use x="339.990234" xlink:href="#DejaVuSans-105"/>
      <use x="367.773438" xlink:href="#DejaVuSans-111"/>
      <use x="428.955078" xlink:href="#DejaVuSans-110"/>
     </g>
    </g>
    <g id="line2d_52">
     <path d="M 328.485625 163.170445 
L 348.485625 163.170445 
" style="fill:none;stroke:#ff7f0e;stroke-linecap:square;stroke-width:1.5;"/>
    </g>
    <g id="line2d_53"/>
    <g id="text_45">
     <!-- training -->
     <g transform="translate(356.485625 166.670445)scale(0.1 -0.1)">
      <use xlink:href="#DejaVuSans-116"/>
      <use x="39.208984" xlink:href="#DejaVuSans-114"/>
      <use x="80.322266" xlink:href="#DejaVuSans-97"/>
      <use x="141.601562" xlink:href="#DejaVuSans-105"/>
      <use x="169.384766" xlink:href="#DejaVuSans-110"/>
      <use x="232.763672" xlink:href="#DejaVuSans-105"/>
      <use x="260.546875" xlink:href="#DejaVuSans-110"/>
      <use x="323.925781" xlink:href="#DejaVuSans-103"/>
     </g>
    </g>
   </g>
  </g>
  <g id="axes_5">
   <g id="patch_26">
    <path d="M 57.6 307.584 
L 219.927273 307.584 
L 219.927273 229.315765 
L 57.6 229.315765 
z
" style="fill:#ffffff;"/>
   </g>
   <g id="matplotlib.axis_9">
    <g id="xtick_21">
     <g id="line2d_54">
      <g>
       <use style="stroke:#000000;stroke-width:0.8;" x="64.978512" xlink:href="#m7e9cd94824" y="307.584"/>
      </g>
     </g>
     <g id="text_46">
      <!-- 0 -->
      <g transform="translate(61.797262 322.182437)scale(0.1 -0.1)">
       <use xlink:href="#DejaVuSans-48"/>
      </g>
     </g>
    </g>
    <g id="xtick_22">
     <g id="line2d_55">
      <g>
       <use style="stroke:#000000;stroke-width:0.8;" x="102.243727" xlink:href="#m7e9cd94824" y="307.584"/>
      </g>
     </g>
     <g id="text_47">
      <!-- 25 -->
      <g transform="translate(95.881227 322.182437)scale(0.1 -0.1)">
       <use xlink:href="#DejaVuSans-50"/>
       <use x="63.623047" xlink:href="#DejaVuSans-53"/>
      </g>
     </g>
    </g>
    <g id="xtick_23">
     <g id="line2d_56">
      <g>
       <use style="stroke:#000000;stroke-width:0.8;" x="139.508941" xlink:href="#m7e9cd94824" y="307.584"/>
      </g>
     </g>
     <g id="text_48">
      <!-- 50 -->
      <g transform="translate(133.146441 322.182437)scale(0.1 -0.1)">
       <use xlink:href="#DejaVuSans-53"/>
       <use x="63.623047" xlink:href="#DejaVuSans-48"/>
      </g>
     </g>
    </g>
    <g id="xtick_24">
     <g id="line2d_57">
      <g>
       <use style="stroke:#000000;stroke-width:0.8;" x="176.774155" xlink:href="#m7e9cd94824" y="307.584"/>
      </g>
     </g>
     <g id="text_49">
      <!-- 75 -->
      <g transform="translate(170.411655 322.182437)scale(0.1 -0.1)">
       <use xlink:href="#DejaVuSans-55"/>
       <use x="63.623047" xlink:href="#DejaVuSans-53"/>
      </g>
     </g>
    </g>
    <g id="xtick_25">
     <g id="line2d_58">
      <g>
       <use style="stroke:#000000;stroke-width:0.8;" x="214.039369" xlink:href="#m7e9cd94824" y="307.584"/>
      </g>
     </g>
     <g id="text_50">
      <!-- 100 -->
      <g transform="translate(204.495619 322.182437)scale(0.1 -0.1)">
       <use xlink:href="#DejaVuSans-49"/>
       <use x="63.623047" xlink:href="#DejaVuSans-48"/>
       <use x="127.246094" xlink:href="#DejaVuSans-48"/>
      </g>
     </g>
    </g>
    <g id="text_51">
     <!-- # epochs -->
     <g transform="translate(115.151918 335.860562)scale(0.1 -0.1)">
      <use xlink:href="#DejaVuSans-35"/>
      <use x="83.789062" xlink:href="#DejaVuSans-32"/>
      <use x="115.576172" xlink:href="#DejaVuSans-101"/>
      <use x="177.099609" xlink:href="#DejaVuSans-112"/>
      <use x="240.576172" xlink:href="#DejaVuSans-111"/>
      <use x="301.757812" xlink:href="#DejaVuSans-99"/>
      <use x="356.738281" xlink:href="#DejaVuSans-104"/>
      <use x="420.117188" xlink:href="#DejaVuSans-115"/>
     </g>
    </g>
   </g>
   <g id="matplotlib.axis_10">
    <g id="ytick_10">
     <g id="line2d_59">
      <g>
       <use style="stroke:#000000;stroke-width:0.8;" x="57.6" xlink:href="#m0486071193" y="294.1384"/>
      </g>
     </g>
     <g id="text_52">
      <!-- 4 -->
      <defs>
       <path d="M 37.796875 64.3125 
L 12.890625 25.390625 
L 37.796875 25.390625 
z
M 35.203125 72.90625 
L 47.609375 72.90625 
L 47.609375 25.390625 
L 58.015625 25.390625 
L 58.015625 17.1875 
L 47.609375 17.1875 
L 47.609375 0 
L 37.796875 0 
L 37.796875 17.1875 
L 4.890625 17.1875 
L 4.890625 26.703125 
z
" id="DejaVuSans-52"/>
      </defs>
      <g transform="translate(44.2375 297.937619)scale(0.1 -0.1)">
       <use xlink:href="#DejaVuSans-52"/>
      </g>
     </g>
    </g>
    <g id="ytick_11">
     <g id="line2d_60">
      <g>
       <use style="stroke:#000000;stroke-width:0.8;" x="57.6" xlink:href="#m0486071193" y="263.340104"/>
      </g>
     </g>
     <g id="text_53">
      <!-- 5 -->
      <g transform="translate(44.2375 267.139322)scale(0.1 -0.1)">
       <use xlink:href="#DejaVuSans-53"/>
      </g>
     </g>
    </g>
    <g id="ytick_12">
     <g id="line2d_61">
      <g>
       <use style="stroke:#000000;stroke-width:0.8;" x="57.6" xlink:href="#m0486071193" y="232.541807"/>
      </g>
     </g>
     <g id="text_54">
      <!-- 6 -->
      <g transform="translate(44.2375 236.341026)scale(0.1 -0.1)">
       <use xlink:href="#DejaVuSans-54"/>
      </g>
     </g>
    </g>
    <g id="text_55">
     <!-- snr -->
     <g transform="translate(38.157812 276.278789)rotate(-90)scale(0.1 -0.1)">
      <use xlink:href="#DejaVuSans-115"/>
      <use x="52.099609" xlink:href="#DejaVuSans-110"/>
      <use x="115.478516" xlink:href="#DejaVuSans-114"/>
     </g>
    </g>
   </g>
   <g id="line2d_62">
    <path clip-path="url(#p67fed71b3a)" d="M 64.978512 302.941486 
L 66.469121 304.026353 
L 67.95973 294.839139 
L 69.450338 298.778076 
L 70.940947 289.413048 
L 72.431555 278.910782 
L 73.922164 275.642963 
L 75.412772 278.222078 
L 76.903381 271.836073 
L 78.393989 277.257105 
L 79.884598 269.021897 
L 81.375207 269.83938 
L 82.865815 268.666134 
L 84.356424 269.021853 
L 85.847032 267.525152 
L 87.337641 268.169432 
L 88.828249 267.448155 
L 90.318858 267.450372 
L 91.809467 267.045427 
L 93.300075 274.188498 
L 94.790684 266.599919 
L 96.281292 265.603651 
L 97.771901 265.458306 
L 99.262509 267.701998 
L 100.753118 266.222319 
L 102.243727 265.207826 
L 103.734335 264.745679 
L 105.224944 264.886751 
L 106.715552 265.825876 
L 108.206161 264.999523 
L 109.696769 265.669326 
L 111.187378 265.177411 
L 112.677986 265.870213 
L 114.168595 265.427378 
L 115.659204 266.846068 
L 117.149812 264.032171 
L 118.640421 264.624242 
L 120.131029 264.924096 
L 121.621638 263.131639 
L 123.112246 264.319013 
L 124.602855 264.8209 
L 126.093464 268.010679 
L 127.584072 265.403734 
L 129.074681 264.005619 
L 130.565289 262.902835 
L 132.055898 262.467181 
L 133.546506 263.827994 
L 135.037115 264.234364 
L 136.527724 274.6364 
L 138.018332 262.862229 
L 139.508941 262.12957 
L 140.999549 265.173843 
L 142.490158 269.908022 
L 143.980766 263.821547 
L 145.471375 262.01624 
L 146.961983 264.119404 
L 148.452592 269.739635 
L 149.943201 262.421435 
L 151.433809 261.927097 
L 152.924418 266.090675 
L 154.415026 261.294655 
L 155.905635 262.229331 
L 157.396243 264.313682 
L 158.886852 260.85859 
L 160.377461 266.138536 
L 161.868069 267.131089 
L 163.358678 261.040929 
L 164.849286 261.421129 
L 166.339895 262.041705 
L 167.830503 261.276782 
L 169.321112 261.152908 
L 170.811721 262.545324 
L 172.302329 260.615775 
L 173.792938 261.458768 
L 175.283546 259.825475 
L 176.774155 259.725862 
L 178.264763 259.395123 
L 179.755372 259.498129 
L 181.24598 260.810421 
L 182.736589 263.001406 
L 184.227198 259.301634 
L 185.717806 259.122247 
L 187.208415 262.670242 
L 188.699023 258.3853 
L 190.189632 258.777499 
L 191.68024 264.427952 
L 193.170849 258.161489 
L 194.661458 258.701852 
L 196.152066 259.518645 
L 197.642675 259.91685 
L 199.133283 258.992895 
L 200.623892 257.245978 
L 202.1145 259.755116 
L 203.605109 257.10288 
L 205.095718 265.94837 
L 206.586326 256.531001 
L 208.076935 256.637693 
L 209.567543 256.857055 
L 211.058152 261.07779 
L 212.54876 262.126442 
" style="fill:none;stroke:#1f77b4;stroke-linecap:square;stroke-width:1.5;"/>
   </g>
   <g id="line2d_63">
    <path clip-path="url(#p67fed71b3a)" d="M 64.978512 278.722863 
L 66.469121 264.002682 
L 67.95973 259.408341 
L 69.450338 252.545723 
L 70.940947 254.929591 
L 72.431555 253.653398 
L 73.922164 252.649449 
L 75.412772 249.903004 
L 76.903381 253.731115 
L 78.393989 251.40154 
L 79.884598 248.798781 
L 81.375207 248.710784 
L 82.865815 249.188879 
L 84.356424 248.056077 
L 85.847032 246.831298 
L 87.337641 244.991964 
L 88.828249 247.489808 
L 90.318858 245.236409 
L 91.809467 245.144241 
L 93.300075 252.708427 
L 94.790684 247.799766 
L 96.281292 244.198786 
L 97.771901 241.994818 
L 99.262509 243.950728 
L 100.753118 249.379206 
L 102.243727 243.365588 
L 103.734335 245.640473 
L 105.224944 243.295332 
L 106.715552 245.394354 
L 108.206161 246.544265 
L 109.696769 244.84985 
L 111.187378 246.75129 
L 112.677986 248.294956 
L 114.168595 247.197209 
L 115.659204 246.583564 
L 117.149812 244.573141 
L 118.640421 243.704022 
L 120.131029 243.792812 
L 121.621638 249.578272 
L 123.112246 243.083063 
L 124.602855 244.303642 
L 126.093464 243.580059 
L 127.584072 247.221837 
L 129.074681 243.100642 
L 130.565289 246.886326 
L 132.055898 242.004026 
L 133.546506 241.6559 
L 135.037115 244.702669 
L 136.527724 244.295066 
L 138.018332 244.759165 
L 139.508941 246.068505 
L 140.999549 241.329391 
L 142.490158 240.503126 
L 143.980766 244.86107 
L 145.471375 244.747387 
L 146.961983 241.092774 
L 148.452592 244.407529 
L 149.943201 243.307271 
L 151.433809 238.793922 
L 152.924418 238.725251 
L 154.415026 240.862134 
L 155.905635 240.006027 
L 157.396243 246.348137 
L 158.886852 243.705006 
L 160.377461 248.307512 
L 161.868069 241.603604 
L 163.358678 239.808327 
L 164.849286 239.173667 
L 166.339895 237.714342 
L 167.830503 246.312597 
L 169.321112 245.694678 
L 170.811721 239.577379 
L 172.302329 239.707583 
L 173.792938 238.72954 
L 175.283546 240.249414 
L 176.774155 244.134947 
L 178.264763 243.208054 
L 179.755372 239.570344 
L 181.24598 239.554498 
L 182.736589 241.233023 
L 184.227198 241.230967 
L 185.717806 239.078914 
L 187.208415 238.81529 
L 188.699023 238.97814 
L 190.189632 237.102297 
L 191.68024 241.319757 
L 193.170849 243.799803 
L 194.661458 243.288782 
L 196.152066 236.89561 
L 197.642675 248.200776 
L 199.133283 238.275691 
L 200.623892 239.243718 
L 202.1145 242.269369 
L 203.605109 237.067507 
L 205.095718 239.673027 
L 206.586326 239.031655 
L 208.076935 232.873412 
L 209.567543 235.433861 
L 211.058152 242.228396 
L 212.54876 240.838446 
" style="fill:none;stroke:#ff7f0e;stroke-linecap:square;stroke-width:1.5;"/>
   </g>
   <g id="patch_27">
    <path d="M 57.6 307.584 
L 57.6 229.315765 
" style="fill:none;stroke:#000000;stroke-linecap:square;stroke-linejoin:miter;stroke-width:0.8;"/>
   </g>
   <g id="patch_28">
    <path d="M 219.927273 307.584 
L 219.927273 229.315765 
" style="fill:none;stroke:#000000;stroke-linecap:square;stroke-linejoin:miter;stroke-width:0.8;"/>
   </g>
   <g id="patch_29">
    <path d="M 57.6 307.584 
L 219.927273 307.584 
" style="fill:none;stroke:#000000;stroke-linecap:square;stroke-linejoin:miter;stroke-width:0.8;"/>
   </g>
   <g id="patch_30">
    <path d="M 57.6 229.315765 
L 219.927273 229.315765 
" style="fill:none;stroke:#000000;stroke-linecap:square;stroke-linejoin:miter;stroke-width:0.8;"/>
   </g>
   <g id="legend_5">
    <g id="patch_31">
     <path d="M 131.692898 302.584 
L 212.927273 302.584 
Q 214.927273 302.584 214.927273 300.584 
L 214.927273 272.22775 
Q 214.927273 270.22775 212.927273 270.22775 
L 131.692898 270.22775 
Q 129.692898 270.22775 129.692898 272.22775 
L 129.692898 300.584 
Q 129.692898 302.584 131.692898 302.584 
z
" style="fill:#ffffff;opacity:0.8;stroke:#cccccc;stroke-linejoin:miter;"/>
    </g>
    <g id="line2d_64">
     <path d="M 133.692898 278.326187 
L 153.692898 278.326187 
" style="fill:none;stroke:#1f77b4;stroke-linecap:square;stroke-width:1.5;"/>
    </g>
    <g id="line2d_65"/>
    <g id="text_56">
     <!-- validation -->
     <g transform="translate(161.692898 281.826187)scale(0.1 -0.1)">
      <use xlink:href="#DejaVuSans-118"/>
      <use x="59.179688" xlink:href="#DejaVuSans-97"/>
      <use x="120.458984" xlink:href="#DejaVuSans-108"/>
      <use x="148.242188" xlink:href="#DejaVuSans-105"/>
      <use x="176.025391" xlink:href="#DejaVuSans-100"/>
      <use x="239.501953" xlink:href="#DejaVuSans-97"/>
      <use x="300.78125" xlink:href="#DejaVuSans-116"/>
      <use x="339.990234" xlink:href="#DejaVuSans-105"/>
      <use x="367.773438" xlink:href="#DejaVuSans-111"/>
      <use x="428.955078" xlink:href="#DejaVuSans-110"/>
     </g>
    </g>
    <g id="line2d_66">
     <path d="M 133.692898 293.004312 
L 153.692898 293.004312 
" style="fill:none;stroke:#ff7f0e;stroke-linecap:square;stroke-width:1.5;"/>
    </g>
    <g id="line2d_67"/>
    <g id="text_57">
     <!-- training -->
     <g transform="translate(161.692898 296.504312)scale(0.1 -0.1)">
      <use xlink:href="#DejaVuSans-116"/>
      <use x="39.208984" xlink:href="#DejaVuSans-114"/>
      <use x="80.322266" xlink:href="#DejaVuSans-97"/>
      <use x="141.601562" xlink:href="#DejaVuSans-105"/>
      <use x="169.384766" xlink:href="#DejaVuSans-110"/>
      <use x="232.763672" xlink:href="#DejaVuSans-105"/>
      <use x="260.546875" xlink:href="#DejaVuSans-110"/>
      <use x="323.925781" xlink:href="#DejaVuSans-103"/>
     </g>
    </g>
   </g>
  </g>
 </g>
 <defs>
  <clipPath id="pb8abe46e71">
   <rect height="78.268235" width="162.327273" x="57.6" y="41.472"/>
  </clipPath>
  <clipPath id="p7fdd0c0537">
   <rect height="78.268235" width="162.327273" x="252.392727" y="41.472"/>
  </clipPath>
  <clipPath id="p4d47f236d9">
   <rect height="78.268235" width="162.327273" x="57.6" y="135.393882"/>
  </clipPath>
  <clipPath id="pb03984916b">
   <rect height="78.268235" width="162.327273" x="252.392727" y="135.393882"/>
  </clipPath>
  <clipPath id="p67fed71b3a">
   <rect height="78.268235" width="162.327273" x="57.6" y="229.315765"/>
  </clipPath>
 </defs>
</svg>
